<svg xmlns="http://www.w3.org/2000/svg" xmlns:xlink="http://www.w3.org/1999/xlink" width="190" height="157" viewBox="0 0 190 157">
  <defs>
    <clipPath id="clip-path">
      <rect id="Rect치ngulo_38063" data-name="Rect치ngulo 38063" width="128.195" height="128.197" fill="none"/>
    </clipPath>
  </defs>
  <g id="Grupo_982902" data-name="Grupo 982902" transform="translate(-180 -404)">
    <rect id="Rect치ngulo_338430" data-name="Rect치ngulo 338430" width="190" height="157" rx="16" transform="translate(180 404)" fill="#3c3fa7"/>
    <g id="Grupo_161729" data-name="Grupo 161729" transform="translate(210.762 418.476)">
      <g id="Grupo_158898" data-name="Grupo 158898" clip-path="url(#clip-path)">
        <path id="Trazado_135495" data-name="Trazado 135495" d="M0,59.842a1.835,1.835,0,0,0,.246-.391A8.061,8.061,0,0,1,8.551,53.4q19.025-.013,38.05.024c1.154,0,1.509-.193,1.5-1.446-.053-14.436-.035-28.872-.033-43.309C48.075,3.326,51.391,0,56.72,0q31.417,0,62.835,0c5.322,0,8.638,3.331,8.639,8.676q0,23.408,0,46.814c0,5.247-3.352,8.6-8.585,8.607-1.293,0-2.589.045-3.88-.016-.74-.035-.9.227-.874.917.059,1.75.057,3.5.041,5.257a14.41,14.41,0,0,1-.181,2.237c-.344,2.021-1.968,2.861-3.774,1.87-1.53-.84-2.989-1.814-4.444-2.781q-5.2-3.457-10.367-6.976a2.879,2.879,0,0,0-1.735-.518c-4.381.023-8.763.043-13.142-.013-.935-.012-1.155.216-1.153,1.152.033,14.52-.056,29.04.068,43.559a8.442,8.442,0,0,1-8.765,8.753c-12.473-.14-24.95-.039-37.425-.058a3.309,3.309,0,0,0-1.968.59q-6.473,4.368-12.98,8.685c-.742.494-1.5.962-2.252,1.443h-1.5c-1.708-.575-2.238-1.288-2.332-3.351-.083-1.831-.013-3.666-.028-5.5-.012-1.479-.079-1.546-1.553-1.56-1.166-.01-2.333,0-3.5,0a8.159,8.159,0,0,1-7.054-4.025A9.2,9.2,0,0,1,0,110.92V59.842" transform="translate(0 0)"/>
        <path id="Trazado_135496" data-name="Trazado 135496" d="M115.613,5.015a2.43,2.43,0,0,1,2.1,2.3,7.171,7.171,0,0,1,.042,1.248q0,23.034,0,46.069c0,2.786-.888,3.676-3.66,3.679-2.17,0-4.34.025-6.509-.01a3.539,3.539,0,0,0-2.539.823,1.376,1.376,0,0,1-1.629-.21c-3.591-2.406-7.584-2.966-11.819-2.926-10.638.1-21.277.024-31.916.041A6.171,6.171,0,0,1,55.187,54.5a5.937,5.937,0,0,1-1.875-4.6c.018-6.509.008-13.017.007-19.527q0-11.39,0-22.78c0-.459.009-.918.012-1.377.008-.9.324-1.322,1.344-1.321q30.1.039,60.2.021a1.4,1.4,0,0,1,.734.1" transform="translate(5.119 0.47)" fill="#81bbf3"/>
        <path id="Trazado_135497" data-name="Trazado 135497" d="M73.739,104.853a2.474,2.474,0,0,1-2.605,2.159c-4.067.015-8.136-.015-12.2-.028a13.225,13.225,0,0,1-2.1-.8,16.988,16.988,0,0,0-7.661-1.511q-16.756-.031-33.513,0a5.971,5.971,0,0,1-3.794-.98,5.755,5.755,0,0,1-2.416-4.945c.031-11,.015-22.009.014-33.013,0-3.418-.005-6.837,0-10.254a2.494,2.494,0,0,1,.391-1.788c.955-.02,1.909-.058,2.864-.058q15.161-.007,30.322,0c.456,0,.911.038,1.367.058a2.412,2.412,0,0,1,.4,1.662c.15,3.99,2.131,5.933,6.15,5.947,6.71.023,13.42.005,20.129.007q.687,0,1.374.014c.932.015,1.392.312,1.39,1.412-.039,13.753-.025,27.506-.027,41.26a2.019,2.019,0,0,1-.087.863" transform="translate(0.907 5.149)" fill="#eceaf1"/>
        <path id="Trazado_135498" data-name="Trazado 135498" d="M116.055,5.023c-1.96.012-3.918.034-5.878.034q-27.207,0-54.415,0c-1.6,0-1.6,0-1.6,1.639q0,21.7,0,43.408a5.213,5.213,0,0,0,5.579,5.517c11.342,0,22.683.035,34.025-.02a18.066,18.066,0,0,1,10.344,3.028,2.2,2.2,0,0,0,1.379.5,4.226,4.226,0,0,0-.7,2.6c.031,1.532.008,3.067.008,4.6-.627.093-.924-.33-1.281-.566q-5.011-3.3-9.99-6.647a4.788,4.788,0,0,0-2.811-.82q-19.146.036-38.294.015c-2.845,0-3.708-.874-3.708-3.755q0-23.026,0-46.053c0-2.767.893-3.652,3.683-3.653q31.034-.008,62.07-.008a2.743,2.743,0,0,1,1.588.174" transform="translate(4.677 0.463)" fill="#6faae5"/>
        <path id="Trazado_135499" data-name="Trazado 135499" d="M10.3,53.69c0,15.09.06,30.18-.057,45.269a5.716,5.716,0,0,0,5.346,5.366c11.628-.129,23.259-.093,34.888-.031a14.328,14.328,0,0,1,8.894,2.689c-8.882.014-17.765.054-26.647.011a6.072,6.072,0,0,0-3.606,1.1c-3.2,2.174-6.435,4.311-9.656,6.461-.336.226-.675.449-1.213.806,0-1.8.007-3.4,0-5-.013-2.361-.992-3.338-3.338-3.343s-4.67.009-7.006,0a2.72,2.72,0,0,1-3.04-3.006q-.023-23.71,0-47.42A2.662,2.662,0,0,1,7.8,53.636c.832-.014,1.664.034,2.5.054" transform="translate(0.466 5.15)" fill="#d9d6e4"/>
        <path id="Trazado_135500" data-name="Trazado 135500" d="M70.676,104.858c-.018-.54-.049-1.082-.049-1.623q0-20.072.022-40.145c0-1.082-.25-1.417-1.378-1.408-7.212.053-14.424.027-21.635.026-3.954,0-6.282-2.322-6.287-6.262V53.695c.289-.02.583-.02.868-.065a2.845,2.845,0,0,1,3.322,1.714,7.274,7.274,0,0,0,6.725,3.606c5.8.014,11.6.024,17.4-.016.9-.007,1.194.167,1.192,1.144q-.048,21.782-.015,43.562a2,2,0,0,1-.164,1.218" transform="translate(3.97 5.144)" fill="#d9d6e4"/>
        <path id="Trazado_135501" data-name="Trazado 135501" d="M68.26,43.906a3.456,3.456,0,0,1,.387-1.5q5.092-12.735,10.184-25.473c.516-1.3,1.222-2.3,2.752-2.3s2.231,1.02,2.751,2.31q5.1,12.671,10.239,25.324a3.913,3.913,0,0,1,.458,1.921A2.741,2.741,0,0,1,92.684,46.6a2.669,2.669,0,0,1-2.792-1.681q-1.1-2.647-2.079-5.347a1.294,1.294,0,0,0-1.469-.968c-3.126.049-6.254.043-9.38,0a1.156,1.156,0,0,0-1.29.852c-.747,1.894-1.53,3.777-2.371,5.631a2.621,2.621,0,0,1-2.983,1.519,2.688,2.688,0,0,1-2.061-2.7" transform="translate(6.554 1.405)"/>
        <path id="Trazado_135502" data-name="Trazado 135502" d="M42.758,74.04c-5.2,0-10.285.005-15.371,0a2.751,2.751,0,0,1-2.9-1.9,2.608,2.608,0,0,1,2.482-3.391c2.041-.066,4.086-.024,6.13-.026,1.926,0,1.917,0,1.938-1.875a6.579,6.579,0,0,1,.141-1.484,2.616,2.616,0,0,1,2.547-2.008,2.693,2.693,0,0,1,2.557,2.011,5.877,5.877,0,0,1,.115,2.113c-.078.938.163,1.315,1.207,1.269,2.081-.09,4.169-.035,6.255-.024,1.766.01,2.876.832,3.1,2.268a2.653,2.653,0,0,1-2.222,2.986c-.558.152-.621.466-.7.854a23.318,23.318,0,0,1-5.843,11.405c-.465.5-.553.767.09,1.209,1.409.966,2.836,1.892,4.327,2.729,1.723.968,2.252,2.5,1.4,3.934-.822,1.384-2.342,1.657-4.037.718a36.515,36.515,0,0,1-5.4-3.588,1.09,1.09,0,0,0-1.682-.013,32.927,32.927,0,0,1-5.614,3.714,2.662,2.662,0,1,1-2.6-4.627c1.438-.842,2.838-1.737,4.213-2.679.683-.468.927-.766.214-1.443a14.5,14.5,0,0,1-1.641-2.043c-1.095-1.5-.984-3.022.261-3.994,1.288-1.007,2.788-.708,4.017.794.475.581.982,1.135,1.429,1.736.431.575.717.449,1.146-.035a19.607,19.607,0,0,0,4.442-8.6" transform="translate(2.34 6.083)"/>
        <path id="Trazado_135503" data-name="Trazado 135503" d="M77.223,32.395c1.135-2.853,2.248-5.644,3.493-8.766,1.235,3.092,2.348,5.874,3.505,8.766Z" transform="translate(7.415 2.269)" fill="#81baf2"/>
      </g>
    </g>
  </g>
</svg>
