<svg xmlns="http://www.w3.org/2000/svg" xmlns:xlink="http://www.w3.org/1999/xlink" width="202.936" height="432.715" viewBox="0 0 202.936 432.715">
  <defs>
    <clipPath id="clip-path">
      <rect id="Rect치ngulo_37370" data-name="Rect치ngulo 37370" width="151.563" height="432.715" fill="none"/>
    </clipPath>
    <clipPath id="clip-path-3">
      <rect id="Rect치ngulo_37368" data-name="Rect치ngulo 37368" width="5.865" height="3.763" fill="none"/>
    </clipPath>
  </defs>
  <g id="Grupo_157546" data-name="Grupo 157546" transform="translate(0 0)">
    <path id="Trazado_114544" data-name="Trazado 114544" d="M168.685,442.7c28.164-12.777,57.373-30.017,68.716-58.848,12.589-32-.588-67.832-.272-102.227.251-27.247,9.057-53.561,15.986-79.909s12.018-54.343,4.869-80.632c-4.786-17.6-14.95-33.522-28.073-46.157-23.108-22.249-56.4-34.289-88.036-29.2S81.5,74,72.254,104.753c-13.1,43.575,12.492,90.09,7.052,135.273-2.128,17.68-8.94,34.4-13.56,51.6a211.9,211.9,0,0,0-7.238,56.135c.173,29,7.5,59.949,29.084,79.264C109.359,446.5,141.753,454.915,168.685,442.7Z" transform="translate(-58.504 -20.988)" fill="#e1e8ff"/>
    <g id="Grupo_157545" data-name="Grupo 157545" transform="translate(25.799 0)">
      <g id="Grupo_157544" data-name="Grupo 157544" transform="translate(0 0)" clip-path="url(#clip-path)">
        <g id="Grupo_157543" data-name="Grupo 157543">
          <g id="Grupo_157542" data-name="Grupo 157542" clip-path="url(#clip-path)">
            <path id="Trazado_128754" data-name="Trazado 128754" d="M91.83,65.609S103.514,61.8,110.874,67,121.066,86.22,121.066,86.22L98.2,85.78Z" transform="translate(16.689 11.679)" fill="#5b413c"/>
            <path id="Trazado_128755" data-name="Trazado 128755" d="M106.28,96.861s18.895-14.253,23.747,2.866c5.227,18.443-4.911,29.52-4.911,29.52l-12.465-12.215Z" transform="translate(19.315 16.592)" fill="#5b413c"/>
            <path id="Trazado_128756" data-name="Trazado 128756" d="M74.083,63.61S101.55,48.9,123.447,84.649s8.673,78.671-10.635,89.5-41.42-2.813-41.42-2.813Z" transform="translate(12.975 11.016)" fill="#36251f"/>
            <path id="Trazado_128757" data-name="Trazado 128757" d="M12.561,334.588l-.724,10.274H28.96l.724-10.274Z" transform="translate(2.151 60.809)" fill="#ff9568"/>
            <path id="Trazado_128758" data-name="Trazado 128758" d="M24.859,163.312s-12.512,92.794.628,106.126c5.253,5.33,21.652,6.976,27.344-2.652,8.948-15.135,12.1-53.265,13.128-73.547Z" transform="translate(3.54 29.681)" fill="#36251f"/>
            <path id="Trazado_128759" data-name="Trazado 128759" d="M54.563,248.336s4.9,9.676-3.331,38.777c-6.285,22.216-19.669,69.945-19.669,69.945S18.606,358.61,9.95,355.035L21.073,221.164Z" transform="translate(1.808 40.195)" fill="#36251f"/>
            <path id="Trazado_128760" data-name="Trazado 128760" d="M26.771,345.627a.8.8,0,0,1-.2-.026.825.825,0,0,1-.6-1c.122-.487,12.341-48.756,15.772-59.856,3.4-10.988,4.865-32.24,4.881-32.454a.811.811,0,0,1,.067-.277c6.851-15.619,10.236-46.932,10.269-47.246a.835.835,0,0,1,.909-.735.826.826,0,0,1,.735.909c-.033.317-3.426,31.709-10.341,47.605-.143,2.052-1.6,21.87-4.941,32.686C39.9,296.289,27.7,344.517,27.572,345a.827.827,0,0,1-.8.624" transform="translate(4.715 37.08)" fill="#5b413c"/>
            <path id="Trazado_128761" data-name="Trazado 128761" d="M30.245,330.81a93.576,93.576,0,0,1-19.213-2.467.827.827,0,0,1,.392-1.607c.119.029,12.022,2.9,21.374,2.35a.826.826,0,1,1,.1,1.65c-.87.051-1.757.074-2.652.074" transform="translate(1.89 59.377)" fill="#5b413c"/>
            <path id="Trazado_128762" data-name="Trazado 128762" d="M36.342,367.154c0,.144,0,.284-.007.422-.013.639-.041,1.215-.069,1.708-.065,1.086-.144,1.754-.144,1.754H.093a19.785,19.785,0,0,1-.041-3.461c.236-3.682,1.458-9.5,6.435-13.339,6.812-5.267,4.181-4.168,5.579-6.568.157-.267,1.383-4.346,1.514-4.627,1.171-2.493,2.249-3.672,8.7-3.672,8.562,0,9.314,4.154,10.229,6.342a40.752,40.752,0,0,1,1.425,5.086c.215.91.431,1.883.643,2.873.528,2.483,1.021,5.076,1.357,7.144a37.514,37.514,0,0,1,.4,6.339" transform="translate(0 61.678)" fill="#ff9918"/>
            <path id="Trazado_128763" data-name="Trazado 128763" d="M31.456,365.4c0,.144,0,.284-.007.422-.013.639-.041,1.215-.069,1.708a10.055,10.055,0,0,1-3.743-4.852c-2.23-6.072,1.2-13.36,1.342-13.668l.072.035c.215.91.431,1.883.643,2.873-.811,2.479-1.745,6.647-.448,10.175a8.383,8.383,0,0,0,2.209,3.308" transform="translate(4.886 63.43)" fill="#dd6a18"/>
            <path id="Trazado_128764" data-name="Trazado 128764" d="M36.335,363.237c-.048,2.052-.213,3.463-.213,3.463H.092a19.89,19.89,0,0,1-.04-3.463Z" transform="translate(0 66.015)" fill="#dd6a18"/>
            <path id="Trazado_128765" data-name="Trazado 128765" d="M21.387,349.284a1.023,1.023,0,0,1-.258-.033,17.811,17.811,0,0,0-8.354-.171,1.027,1.027,0,0,1-.547-1.981,19.722,19.722,0,0,1,9.415.163,1.027,1.027,0,0,1-.256,2.022" transform="translate(2.086 62.995)" fill="#f4ece1"/>
            <path id="Trazado_128766" data-name="Trazado 128766" d="M21.749,346.051a1.038,1.038,0,0,1-.259-.033,17.807,17.807,0,0,0-8.353-.171,1.027,1.027,0,0,1-.547-1.981,19.721,19.721,0,0,1,9.415.163,1.027,1.027,0,0,1-.256,2.022" transform="translate(2.151 62.407)" fill="#f4ece1"/>
            <path id="Trazado_128767" data-name="Trazado 128767" d="M20.083,352.038a1.032,1.032,0,0,1-.259-.033,17.977,17.977,0,0,0-8.354-.171,1.028,1.028,0,0,1-.547-1.982,19.755,19.755,0,0,1,9.416.164,1.027,1.027,0,0,1-.256,2.022" transform="translate(1.849 63.495)" fill="#f4ece1"/>
            <path id="Trazado_128768" data-name="Trazado 128768" d="M18.551,355.17a1.023,1.023,0,0,1-.259-.033,17.976,17.976,0,0,0-8.354-.171,1.027,1.027,0,0,1-.546-1.981,19.729,19.729,0,0,1,9.415.162,1.028,1.028,0,0,1-.256,2.023" transform="translate(1.57 64.064)" fill="#f4ece1"/>
            <path id="Trazado_128769" data-name="Trazado 128769" d="M81.793,334.862l1.666,12.5H98.969l-1.666-12.5Z" transform="translate(14.865 60.858)" fill="#ff9568"/>
            <path id="Trazado_128770" data-name="Trazado 128770" d="M136.59,370.432H80.121a7.947,7.947,0,0,1-.743-3.136c-.351-4.775,1.17-12.4,1.918-17.2.089-.561.167-1.086.228-1.56a16.787,16.787,0,0,0,.167-1.963c0-3.922,3.473-3.251,3.473-3.251,5.715,5.6,12.184-2.8,15.962-.042,0,0,1.626,1.165,6.11,5.2s12.107,6.695,18.6,9.41c8.379,3.5,10.756,7,11.219,9.411a4.412,4.412,0,0,1-.463,3.136" transform="translate(14.417 62.283)" fill="#ff9918"/>
            <path id="Trazado_128771" data-name="Trazado 128771" d="M136.582,366.649H80.113a7.947,7.947,0,0,1-.743-3.136h57.675a4.412,4.412,0,0,1-.463,3.136" transform="translate(14.425 66.065)" fill="#dd6a18"/>
            <path id="Trazado_128772" data-name="Trazado 128772" d="M85.58,369.535H83.9a12.4,12.4,0,0,0,3.035-9.042,15.922,15.922,0,0,0-5.945-11.3c.09-.561.168-1.086.228-1.56a17.3,17.3,0,0,1,7.062,12.792,13.7,13.7,0,0,1-2.7,9.109" transform="translate(14.72 63.179)" fill="#dd6a18"/>
            <path id="Trazado_128773" data-name="Trazado 128773" d="M102.277,350.826a.931.931,0,0,1-.223-1.834l3.527-.876a.931.931,0,1,1,.448,1.807l-3.527.876a.974.974,0,0,1-.225.027" transform="translate(18.419 63.262)" fill="#f4ece1"/>
            <path id="Trazado_128774" data-name="Trazado 128774" d="M99.641,348.2a.931.931,0,0,1-.223-1.834l3.527-.876a.93.93,0,1,1,.448,1.806l-3.527.877a.97.97,0,0,1-.225.027" transform="translate(17.94 62.784)" fill="#f4ece1"/>
            <path id="Trazado_128775" data-name="Trazado 128775" d="M105.261,352.561a.931.931,0,0,1-.223-1.834l3.527-.876a.93.93,0,1,1,.448,1.806l-3.527.876a.914.914,0,0,1-.225.028" transform="translate(18.961 63.577)" fill="#f4ece1"/>
            <path id="Trazado_128776" data-name="Trazado 128776" d="M108.246,354.229a.931.931,0,0,1-.223-1.834l3.528-.876a.93.93,0,1,1,.448,1.806l-3.528.877a.973.973,0,0,1-.225.027" transform="translate(19.504 63.881)" fill="#f4ece1"/>
            <path id="Trazado_128777" data-name="Trazado 128777" d="M111.5,355.771a.931.931,0,0,1-.223-1.834l3.528-.876a.931.931,0,0,1,.448,1.807l-3.528.876a.972.972,0,0,1-.225.027" transform="translate(20.095 64.161)" fill="#f4ece1"/>
            <path id="Trazado_128778" data-name="Trazado 128778" d="M115.03,357.087a.931.931,0,0,1-.223-1.834l3.527-.876a.93.93,0,1,1,.448,1.806l-3.527.876a.913.913,0,0,1-.225.028" transform="translate(20.737 64.4)" fill="#f4ece1"/>
            <path id="Trazado_128779" data-name="Trazado 128779" d="M98.571,172.485s3.321,76.03-1.511,94.115c-1.124,4.208-23.77,3.85-29.2-3.862-10.71-15.2-13.734-49.184-14.6-71.213Z" transform="translate(9.678 31.348)" fill="#36251f"/>
            <path id="Trazado_128780" data-name="Trazado 128780" d="M64.941,251.765a181.012,181.012,0,0,0,1.422,35.4C69.711,310,83.253,358.713,83.253,358.713s10.893.111,18.833-1.742l-4.669-131.11Z" transform="translate(11.747 41.049)" fill="#36251f"/>
            <path id="Trazado_128781" data-name="Trazado 128781" d="M79.032,332.232a.827.827,0,0,1-.045-1.652l19.583-1.092a.827.827,0,1,1,.092,1.652l-19.583,1.091h-.047" transform="translate(14.213 59.881)" fill="#5b413c"/>
            <path id="Trazado_128782" data-name="Trazado 128782" d="M84.014,346.759a.827.827,0,0,1-.8-.626c-.121-.481-12.028-48.291-14.241-60.779-2.109-11.9,1.821-28.725,2.45-31.288C61.53,234.842,60.526,205.4,60.517,205.1a.828.828,0,0,1,.8-.852h.026a.827.827,0,0,1,.826.8c.008.294,1.012,29.652,10.861,48.531a.827.827,0,0,1,.069.586c-.047.184-4.677,18.616-2.5,30.9C72.8,297.5,84.7,345.251,84.817,345.733a.826.826,0,0,1-.6,1,.787.787,0,0,1-.2.025" transform="translate(10.998 37.12)" fill="#5b413c"/>
            <path id="Trazado_128783" data-name="Trazado 128783" d="M50.842,88.02c-.02.064-.037.125-.057.187l-.048.156-1,3.132-.993,3.172L46.8,101.033q-1.93,6.374-3.757,12.762-.695,2.446-1.374,4.891-.773,2.788-1.519,5.573-.3,1.147-.605,2.295c-1.108,4.244-2.158,8.483-3.073,12.655-.448,2.08-.883,4.159-1.23,6.159-.1.508-.167.99-.251,1.485l-.117.729-.093.671-.1.669c-.03.226-.05.459-.077.687-.046.459-.108.91-.137,1.383a73.978,73.978,0,0,0,.032,11.719,114.678,114.678,0,0,0,1.608,12.22c.376,2.044.8,4.088,1.268,6.117.238,1.013.481,2.023.737,3.018l.392,1.476.373,1.321.11.395a10.6,10.6,0,0,1-20.3,6.118l-.321-1-.28-.9-.525-1.77c-.338-1.172-.655-2.339-.961-3.509q-.916-3.5-1.672-7.047A137.545,137.545,0,0,1,12.62,164.7c-.253-2.464-.435-4.957-.52-7.492s-.077-5.105.073-7.731c.027-.652.089-1.316.139-1.976.027-.333.05-.662.084-1l.11-1,.113-1c.039-.326.085-.623.13-.937.087-.616.169-1.248.269-1.846.37-2.438.806-4.772,1.26-7.1.912-4.635,1.93-9.148,3-13.628q.383-1.6.773-3.19c.253-1.022.5-2.044.765-3.064q.89-3.549,1.818-7.076,1.739-6.622,3.579-13.2l1.86-6.57.951-3.285L28,81.292A11.907,11.907,0,0,1,50.842,88.02" transform="translate(2.189 13.221)" fill="#ff9568"/>
            <path id="Trazado_128784" data-name="Trazado 128784" d="M40.743,112.228q-.773,2.788-1.517,5.573l-22.1-6.458c.254-1.022.506-2.044.767-3.064Z" transform="translate(3.112 19.679)" fill="#e0693e"/>
            <path id="Trazado_128785" data-name="Trazado 128785" d="M50.944,89.67,43.3,121.943l-28.377-6.328s6.365-34.022,14.922-40.408c4.738-3.536,8.941-4.3,13.851-1.754A14.484,14.484,0,0,1,50.944,89.67" transform="translate(2.712 13.076)" fill="#236676"/>
            <path id="Trazado_128786" data-name="Trazado 128786" d="M24.918,159.713s-4.136,25.028-1.328,35.048,70.878,18.764,75.285,9.5c8.5-17.868,5.066-38.036,5.066-38.036-31,7.142-56.612,3.388-79.023-6.514" transform="translate(4.11 29.026)" fill="#36251f"/>
            <path id="Trazado_128787" data-name="Trazado 128787" d="M55.626,165.088q-.018.417-.037.845c-.318,7.506-.713,18.136-.919,28.983-.013.6-.022,1.2-.035,1.8-.057,3.46-.1,6.927-.108,10.3a.872.872,0,0,0,.861.872H55.4a.869.869,0,0,0,.871-.867c.009-3.263.047-6.6.1-9.944.009-.587.019-1.175.032-1.763.2-10.913.6-21.637.923-29.209.015-.346.03-.685.044-1.02Z" transform="translate(9.91 30.003)" fill="#5b413c"/>
            <path id="Trazado_128788" data-name="Trazado 128788" d="M63.3,165.088c-.021.464-.044.938-.065,1.426-.464,9.821-1.175,23.725-1.644,27.008a1.943,1.943,0,0,1-.98,1.569,5.937,5.937,0,0,1-3.669.226,17.451,17.451,0,0,1-1.731-.4,20.4,20.4,0,0,1-2.426-.852.869.869,0,1,0-.7,1.592,22.209,22.209,0,0,0,3.089,1.059,17.342,17.342,0,0,0,1.735.365,12.028,12.028,0,0,0,1.654.143,5.835,5.835,0,0,0,2.894-.613,3.7,3.7,0,0,0,1.855-2.844c.483-3.387,1.2-17.31,1.659-27.156.026-.52.05-1.023.072-1.521Z" transform="translate(9.371 30.003)" fill="#5b413c"/>
            <path id="Trazado_128789" data-name="Trazado 128789" d="M109.084,123.8c-.177,1.494-.329,3.337-.468,5.467q-.071,1.1-.142,2.284c-.39,6.627-.728,15.344-1.355,24.385-.056.81-.117,1.627-.182,2.442-1.458,19.463,4.289,26.242-3.943,28.114-50,11.377-70.423-.031-76.508-4.793-6.719-5.259-2.189-26.329.287-51.172.082-.84.16-1.666.242-2.476.662-6.761,1.156-12.31,1.169-15.552.052-15.071,2.025-31.137,4.28-38.023S59.838,62.128,59.838,62.128l27.85,1.181a98.189,98.189,0,0,1,18.735,15.527c9.968,10.375,4.53,29.144,2.66,44.968" transform="translate(4.174 11.291)" fill="#236676"/>
            <path id="Trazado_128790" data-name="Trazado 128790" d="M52.643,95.846l-11.765,20.7,10.8.756-9.148,15.068,27.52-21.117L56.469,109.02,69.554,97.16Z" transform="translate(7.429 17.419)" fill="#104151"/>
            <path id="Trazado_128791" data-name="Trazado 128791" d="M53.56,63.52S48.7,94.387,45.781,107.8A90.3,90.3,0,0,1,32.75,138.513a95.335,95.335,0,0,1-8.2,10.253c-.711.074-2.639-8.16,2.224-19.532,8.961-20.955,15.894-58.457,18.692-63.178s8.1-2.536,8.1-2.536" transform="translate(4.283 11.452)" fill="#36251f"/>
            <path id="Trazado_128792" data-name="Trazado 128792" d="M37.56,84.946a26.822,26.822,0,0,1,8.971-.145,2.748,2.748,0,0,1,2.219,3.121,116.282,116.282,0,0,1-3.258,15.512,2.748,2.748,0,0,1-3.108,1.851l-7.5-1.37a2.747,2.747,0,0,1-2.143-3.484,60.4,60.4,0,0,0,2.548-12.924,2.74,2.74,0,0,1,2.274-2.561" transform="translate(5.929 15.354)" fill="#5b413c"/>
            <path id="Trazado_128793" data-name="Trazado 128793" d="M78.315,82.031a35.235,35.235,0,0,1-19.076-5.652,36.471,36.471,0,0,1-9.381-8.466.827.827,0,0,1,1.344-.964c.123.173,12.635,17.18,34.4,12.665a.827.827,0,0,1,.337,1.619,37.474,37.474,0,0,1-7.623.8" transform="translate(9.033 12.105)" fill="#104151"/>
            <path id="Trazado_128794" data-name="Trazado 128794" d="M93.4,71.175A40.378,40.378,0,0,0,76.9,96.912c-3.252,17.555,8.889,41.72,22.747,48.6a17.8,17.8,0,0,1-.61,12.782s-29.915-9.111-32.65-47.068S84.963,67.2,84.963,67.2c2.692-.776,6.9,1.755,8.441,3.974" transform="translate(12.021 12.187)" fill="#36251f"/>
            <path id="Trazado_128795" data-name="Trazado 128795" d="M76.87,87.954a25.306,25.306,0,0,0-8.187-2.165,2.593,2.593,0,0,0-2.74,2.356,109.679,109.679,0,0,0-.528,14.951,2.592,2.592,0,0,0,2.427,2.4l7.186.446a2.6,2.6,0,0,0,2.752-2.707,57.03,57.03,0,0,1,.593-12.419,2.586,2.586,0,0,0-1.5-2.862" transform="translate(11.87 15.59)" fill="#5b413c"/>
            <path id="Trazado_128796" data-name="Trazado 128796" d="M27.093,116.9h-.026a.574.574,0,0,1-.547-.6c.009-.2.921-20.378,3.269-32.315a.573.573,0,0,1,1.124.221c-2.332,11.853-3.238,31.942-3.247,32.143a.572.572,0,0,1-.572.548" transform="translate(4.82 15.181)" fill="#104151"/>
            <path id="Trazado_128797" data-name="Trazado 128797" d="M28.976,91.36a.573.573,0,0,1-.545-.395l-1.443-4.394a.573.573,0,0,1,1.09-.357l1.443,4.394a.574.574,0,0,1-.366.723.586.586,0,0,1-.178.028" transform="translate(4.9 15.597)" fill="#104151"/>
            <path id="Trazado_128798" data-name="Trazado 128798" d="M80.61,168.193c-10.86.682-22.151-3.537-33.111-12.456a93.045,93.045,0,0,1-17.045-18.446.793.793,0,1,1,1.324-.872A91.518,91.518,0,0,0,48.53,154.532c9.377,7.622,23.963,15.639,40.206,10.547a.793.793,0,1,1,.474,1.514,36.3,36.3,0,0,1-8.6,1.6" transform="translate(5.511 24.728)" fill="#104151"/>
            <path id="Trazado_128799" data-name="Trazado 128799" d="M68.026,157.181a.725.725,0,0,1-.175-.007c-13.291-2.12-24.658-18.232-25.136-18.919a.793.793,0,0,1,1.3-.905c.113.162,11.462,16.244,24.084,18.258a.792.792,0,0,1-.074,1.573" transform="translate(7.737 24.9)" fill="#104151"/>
            <path id="Trazado_128800" data-name="Trazado 128800" d="M51.94,29.61s1.489-7.581-.454-13.871c-1.912-6.19-1.912-9.889-.72-10.987,3.753-3.458,7.283,4.954,7.283,4.954s-.99-7.82,2.257-8.039,5.519,7.359,5.519,7.359S65.22-2.075,69.472.346s5.819,9.826,5.819,9.826S89.892,12.6,95.263,22.4c0,0,4.395-4.682,7.256-1.92s-3.082,7.332-3.082,7.332,4.566,3,3.862,7.319-6.13,1.358-6.13,1.358.913,23.088-18.7,29.432S51.94,29.61,51.94,29.61" transform="translate(9.077 0)" fill="#d65900"/>
            <path id="Trazado_128801" data-name="Trazado 128801" d="M56.413,59.363l-.941,6.989A20.751,20.751,0,0,0,57.558,68.4c10.392,8.817,23.875,1.446,23.875,1.446l3.259-24.229L59.785,57.723Z" transform="translate(10.082 8.29)" fill="#ff9568"/>
            <path id="Trazado_128802" data-name="Trazado 128802" d="M56.413,57.809,55.472,64.8a20.753,20.753,0,0,0,2.086,2.044c10.234-2.788,18.74-12.68,18.74-12.68L59.785,56.17Z" transform="translate(10.082 9.843)" fill="#36251f"/>
            <path id="Trazado_128803" data-name="Trazado 128803" d="M53.91,34.746s-3.128-4.895-5.822-.782-2.272,13.224,3.584,12.53Z" transform="translate(8.45 5.874)" fill="#e0693e"/>
            <path id="Trazado_128804" data-name="Trazado 128804" d="M48.087,49.917s-1.523,13.69,12.565,15.554A37.21,37.21,0,0,0,85.42,60.025l.017-.011.535-2.826,2.783-14.664,1.488-7.837s3.7-13.975-9.461-18.386c-9.616-3.223-19.092-2.828-24.456,1.693-.174.145-.343.3-.5.453a12.252,12.252,0,0,0-3.549,6.263L49.929,38.833l-.574,3.461Z" transform="translate(8.731 2.579)" fill="#ff9568"/>
            <path id="Trazado_128805" data-name="Trazado 128805" d="M67.749,41.839s-2.031,5.877-6.918,6.68c-5.564.915-6.579-6.04-6.579-6.04Z" transform="translate(9.86 7.604)" fill="#f4ece1"/>
            <path id="Trazado_128806" data-name="Trazado 128806" d="M58.152,49.447a2.958,2.958,0,0,1-.325-.118A.452.452,0,0,1,58.2,48.5a2.9,2.9,0,0,0,2.855-.362.452.452,0,1,1,.565.707,3.733,3.733,0,0,1-3.467.6" transform="translate(10.461 8.731)" fill="#e0693e"/>
            <path id="Trazado_128807" data-name="Trazado 128807" d="M65.75,34.273c-.182,1.354.285,2.535,1.042,2.636s1.519-.913,1.7-2.268-.285-2.534-1.042-2.636-1.52.913-1.7,2.268" transform="translate(11.942 5.815)" fill="#36251f"/>
            <path id="Trazado_128808" data-name="Trazado 128808" d="M54.414,32.748c-.182,1.354.285,2.535,1.042,2.636s1.519-.913,1.7-2.268-.285-2.534-1.042-2.635-1.52.912-1.7,2.267" transform="translate(9.882 5.538)" fill="#36251f"/>
            <path id="Trazado_128809" data-name="Trazado 128809" d="M60.083,41a4.8,4.8,0,0,1-4.138-3,.563.563,0,0,1,.069-.477c2.892-4.361,5.83-8.847,5.858-8.891a.562.562,0,0,1,.941.616c-.028.045-2.857,4.363-5.7,8.646a3.855,3.855,0,0,0,3.117,2A.562.562,0,1,1,60.083,41" transform="translate(10.163 5.157)" fill="#36251f"/>
            <path id="Trazado_128810" data-name="Trazado 128810" d="M74.892,21.5a3.3,3.3,0,0,1,2.768,3.093,5.334,5.334,0,0,0,2.241,3.9c3.962,3.334,2.678,7.011,1.266,10.015s4.084,9.645,8.973,2.365,3.557-24.187-7.89-26.523-27.224-.639-29.2,4.415A26.35,26.35,0,0,0,51.254,28.4a6.22,6.22,0,0,0,2.375-4.645c.294-3.3,2.743-4.291,6.632-4.291,2.652,0,10.138,1.244,14.631,2.036" transform="translate(9.314 2.421)" fill="#d65900"/>
            <g id="Grupo_157541" data-name="Grupo 157541" transform="translate(58.084 41.412)" opacity="0.8">
              <g id="Grupo_157540" data-name="Grupo 157540" transform="translate(0)">
                <g id="Grupo_157539" data-name="Grupo 157539" clip-path="url(#clip-path-3)">
                  <path id="Trazado_128811" data-name="Trazado 128811" d="M49.151,38.5c.345.082.71.149,1.086.2,2.5.337,4.641-.19,4.773-1.176s-1.79-2.06-4.293-2.4q-.509-.067-.991-.089Z" transform="translate(-49.151 -35.043)" fill="#e0693e"/>
                </g>
              </g>
            </g>
            <path id="Trazado_128812" data-name="Trazado 128812" d="M64.985,38.805c-.132.986,1.79,2.059,4.3,2.4s4.642-.189,4.775-1.175-1.79-2.059-4.3-2.4-4.643.189-4.775,1.175" transform="translate(11.809 6.821)" fill="#e0693e"/>
            <path id="Trazado_128813" data-name="Trazado 128813" d="M74.25,29.648h0a3.213,3.213,0,0,1-4.377,1.058,17.889,17.889,0,0,0-3.049-1.476A2.952,2.952,0,0,1,65.1,25.3s6.639.281,9.151,4.346" transform="translate(11.788 4.598)" fill="#d65900"/>
            <path id="Trazado_128814" data-name="Trazado 128814" d="M51.253,26.406h0A3.213,3.213,0,0,0,55.2,28.582a17.92,17.92,0,0,1,3.329-.618,2.951,2.951,0,0,0,2.7-3.333s-6.476-1.483-9.974,1.774" transform="translate(9.315 4.415)" fill="#d65900"/>
            <path id="Trazado_128815" data-name="Trazado 128815" d="M76.565,47.826c.044.158,1.27,4.532,3.67,6.087l.015-.012.535-2.826a9.807,9.807,0,0,1-4.221-3.25" transform="translate(13.915 8.692)" fill="#36251f"/>
            <path id="Trazado_128816" data-name="Trazado 128816" d="M79.966,40.611s6.392-6.544,9.59-.3c2.635,5.149-5.195,16.589-11.1,11.515Z" transform="translate(14.259 6.836)" fill="#ff9568"/>
            <path id="Trazado_128817" data-name="Trazado 128817" d="M79.408,49.152c-.02,0-.04-.007-.061-.011a.564.564,0,0,1-.41-.682,10.52,10.52,0,0,1,7.235-7.594.562.562,0,0,1,.274,1.09,9.392,9.392,0,0,0-6.418,6.775.562.562,0,0,1-.619.422" transform="translate(14.343 7.424)" fill="#36251f"/>
            <path id="Trazado_128818" data-name="Trazado 128818" d="M84.689,46.041a.556.556,0,0,1-.334-.171c-.431-.459-1.77-1.62-2.764-1.5a.562.562,0,0,1-.131-1.117c1.73-.2,3.517,1.639,3.714,1.849a.562.562,0,0,1-.485.942" transform="translate(14.714 7.857)" fill="#36251f"/>
            <path id="Trazado_128819" data-name="Trazado 128819" d="M116.847,150.619l-.012.527c-.011.707-.047,1.4-.089,2.1-.089,1.387-.238,2.749-.429,4.086a62.654,62.654,0,0,1-4.17,14.895,84.1,84.1,0,0,1-6.728,12.88c-1.263,2.015-2.623,3.952-4.029,5.854-.711.947-1.439,1.88-2.192,2.81-.375.466-.765.924-1.159,1.39l-.607.7-.7.8a8.945,8.945,0,1,1-14.041-11.085c-.012,0,.013-.034.034-.076l.074-.128.164-.28.34-.591L84,183.263c.466-.832.919-1.683,1.361-2.541.9-1.709,1.721-3.457,2.505-5.2A74.8,74.8,0,0,0,91.688,165a49.1,49.1,0,0,0,1.152-5.146q.2-1.267.345-2.5c.089-.819.148-1.627.177-2.417s.034-1.569,0-2.322c-.019-.378-.039-.75-.073-1.116l-.1-1.3c-.152-1.834-.36-3.744-.632-5.7s-.577-3.933-.915-5.934-.691-4.013-1.072-6.032q-.592-3.081-1.223-6.183-.383-1.891-.787-3.789c-.155-.735-.311-1.474-.473-2.211l-1.348-6.117-1.4-6.123L83.9,102,82.449,95.97l-.046-.191a13.068,13.068,0,1,1,25.415-6.1l0,.013.78,3.26c.252,1.072.488,2.14.728,3.21.479,2.138.924,4.278,1.366,6.422s.863,4.29,1.267,6.445.809,4.31,1.172,6.479q.209,1.218.411,2.443.424,2.556.814,5.131.417,2.758.782,5.539c.287,2.211.564,4.43.8,6.678s.435,4.517.594,6.826.267,4.665.3,7.108l.009.922Z" transform="translate(14.678 14.477)" fill="#ff9568"/>
            <path id="Trazado_128820" data-name="Trazado 128820" d="M113.161,117.194l-25.017,3.271q-.383-1.891-.787-3.789l24.99-4.614q.424,2.556.814,5.131" transform="translate(15.876 20.366)" fill="#e0693e"/>
            <path id="Trazado_128821" data-name="Trazado 128821" d="M80.6,93.828l7.887,32.215,28.328-6.541s-6.619-33.974-15.224-40.3c-4.762-3.5-8.972-4.235-13.863-1.649A14.48,14.48,0,0,0,80.6,93.828" transform="translate(14.571 13.815)" fill="#236676"/>
            <path id="Trazado_128822" data-name="Trazado 128822" d="M88.466,120.992a.571.571,0,0,1-.557-.441L82.1,96.091a.573.573,0,0,1,1.114-.266l5.809,24.462a.573.573,0,0,1-.425.69.563.563,0,0,1-.132.015" transform="translate(14.918 17.335)" fill="#104151"/>
            <path id="Trazado_128823" data-name="Trazado 128823" d="M84.4,101.962a.568.568,0,0,1-.324-.1l-3.551-2.431a.573.573,0,0,1,.648-.947l3.551,2.432a.573.573,0,0,1-.324,1.046" transform="translate(14.59 17.881)" fill="#104151"/>
            <path id="Trazado_128824" data-name="Trazado 128824" d="M91.84,198.657a183.172,183.172,0,0,1-13.9-12.461c.018-.038.028-.057.028-.057l-.053.031a62.692,62.692,0,0,1-4.582-5.3c.4-.749.753-1.4,1.04-1.894a26.2,26.2,0,0,1,6.912-7.111c1.853-1.238,3.555-3.624,5.24-3.73,5.336-.333,12.191,4.164,12.181,6.969-.015,4.13-2.172,12.393-2.716,15.506-.22,1.257-1.312,5.195-2.645,9.338q-.753-.643-1.509-1.286" transform="translate(13.328 30.553)" fill="#ff9568"/>
            <path id="Trazado_128825" data-name="Trazado 128825" d="M95.535,199.657a1.109,1.109,0,0,0-.351-.808L73.14,178.266a1.091,1.091,0,0,0-1.488-.006l-.017.014a1.1,1.1,0,0,0-.007,1.607l22.045,20.584a1.106,1.106,0,0,0,1.861-.808" transform="translate(12.955 32.345)" fill="#5b413c"/>
            <path id="Trazado_128826" data-name="Trazado 128826" d="M31.178,165.775s-3.038,19.876-6.852,24.72c0,0-9.148-9.513-4.819-24.656,2.906-10.161,11.671-.064,11.671-.064" transform="translate(3.334 29.316)" fill="#ff9568"/>
          </g>
        </g>
      </g>
    </g>
  </g>
</svg>
