<svg xmlns="http://www.w3.org/2000/svg" xmlns:xlink="http://www.w3.org/1999/xlink" width="193" height="193" viewBox="0 0 193 193">
  <defs>
    <clipPath id="clip-path">
      <rect id="Rect치ngulo_338703" data-name="Rect치ngulo 338703" width="140.474" height="146.224" fill="none"/>
    </clipPath>
  </defs>
  <g id="Grupo_983311" data-name="Grupo 983311" transform="translate(746 7137)">
    <g id="Grupo_983016" data-name="Grupo 983016" transform="translate(-1620 -8971)">
      <rect id="Rect치ngulo_338462" data-name="Rect치ngulo 338462" width="193" height="193" rx="13" transform="translate(874 1834)" fill="#f0f4ff"/>
    </g>
    <g id="Grupo_983310" data-name="Grupo 983310" transform="translate(-720 -7114)">
      <g id="Grupo_983309" data-name="Grupo 983309" clip-path="url(#clip-path)">
        <path id="Trazado_208210" data-name="Trazado 208210" d="M83.665,120.605c1.922-.306,2.35-.041,3.227,1.718,1.771,3.555,1.892,7.418,2.182,11.252.169,2.229.306,4.46.5,6.688a5.214,5.214,0,0,1-5.367,5.953q-39.541.016-79.082,0c-3.311,0-5.138-2.382-4.3-5.619q4.762-18.472,9.557-36.934a6.3,6.3,0,0,1,1.057-2.151c2.881-3.959,5.718-7.948,8.618-11.892.506-.687.576-1.094-.036-1.785a29.463,29.463,0,0,1-5.156-8.151,1.574,1.574,0,0,0-1.815-1.117c-1.471.076-2.95.04-4.424.016A8.479,8.479,0,0,1,.081,70.664c-.257-3.1-.017-6.112,2.367-8.492.486-.486.31-1.064.3-1.615-.155-5.612-.362-11.224-.473-16.837-.174-8.863,3.975-15.136,12.2-18.5a2.418,2.418,0,0,0,1.147-.98c6.4-9.457,15.335-14.394,26.722-14.67,5.552-.135,11.14-.425,16.658.6a38.591,38.591,0,0,1,24.365,15.08c.144.188.29.374.441.556.028.032.085.041.148.07.44-.248.2-.673.2-1,.02-4.854.01-9.707.015-14.561.005-5.253,1.944-8.087,6.825-9.983.18-.07.361-.1.391-.333H132.5a11.717,11.717,0,0,1,4.836,2.409,9.264,9.264,0,0,1,3.1,6.957c.031,12.515.054,25.031-.006,37.546a9.271,9.271,0,0,1-9.467,9.361q-7.135.061-14.274-.008a2.436,2.436,0,0,0-2.164,1.067c-2.07,2.726-4.179,5.423-6.283,8.124-1.274,1.636-2.752,2.177-4.322,1.611-1.524-.55-2.261-1.811-2.266-3.886,0-1.666-.023-3.332.006-5,.024-1.314-.571-1.895-1.89-1.909a72.341,72.341,0,0,1-8.673-.2c0,1.627.023,3.283-.011,4.938-.013.642.474.894.812,1.262,4.817,5.255,2.244,14.611-4.458,16.139a21.64,21.64,0,0,1-4.837.163,1.276,1.276,0,0,0-1.4.866A36.645,36.645,0,0,1,66.579,95.919a1.528,1.528,0,0,0-.865,1.8,6.55,6.55,0,0,1-3.23,7.047c-1.083.667-1,1.3-.593,2.195a4.115,4.115,0,0,0,3.284,2.428c2.667.459,5.367.725,8,1.387a19.725,19.725,0,0,1,5.482,2.325c1.461.891,1.688,1.527,1.193,3.2a1.956,1.956,0,0,1-2.457,1.274,4.5,4.5,0,0,1-1.175-.508c-3.064-1.829-6.5-2.3-9.942-2.755a3.875,3.875,0,0,0-3.908.965,21.737,21.737,0,0,1-11.686,4.782,15.587,15.587,0,0,1-5.375.033,4.032,4.032,0,0,0-2.248.158,15.1,15.1,0,0,1-6.421.977c-1.944-.056-3.892.021-5.837-.024a1.751,1.751,0,0,0-2.026,1.5c-1.459,5.8-3.015,11.575-4.478,17.373-.329,1.306-.241,1.412,1.057,1.45.758.022,1.519-.005,2.28,0,12.877-.08,25.754-.008,38.629-.039,3.969-.009,3.5.344,3.533-3.5.011-1.188,0-2.375,0-3.564a8.183,8.183,0,0,1,.066-1.28,2.675,2.675,0,0,1,2.575-2.406,2.492,2.492,0,0,1,2.439,2.345,43.081,43.081,0,0,1,.1,5.411c.024,3.229-.154,2.98,3.051,3a13.185,13.185,0,0,1,1.423.032c1.373-.013,2.746.036,4.12-.018.842-.032,1.342-.39,1.261-1.322-.335-3.818-.469-7.653-.931-11.461a22.945,22.945,0,0,0-1.487-5.026c-.571-1.573-.184-2.419,1.25-3.089" transform="translate(0)"/>
        <path id="Trazado_208211" data-name="Trazado 208211" d="M63.417,109.117c3.584.354,7.116.871,10.274,2.813,1.455.894,2.132.746,3.332-.5q1.907,2.156,3.816,4.309a2.361,2.361,0,0,0-.751,3.354c1.446,2.774,1.569,5.827,1.817,8.848.209,2.552.365,5.109.569,7.663.083,1.026-.311,1.51-1.369,1.477-1.423-.045-2.846-.04-4.269-.055a3.212,3.212,0,0,1-.6-2.01c-.128-2.888-.406-5.765-.612-8.647-.536-7.476-4.187-12.83-10.866-16.167-.52-.259-1.237-.3-1.336-1.086" transform="translate(2.827 4.863)" fill="#8bc851"/>
        <path id="Trazado_208212" data-name="Trazado 208212" d="M51.859,90.081H35.566c.981-1.4,1.872-2.67,2.751-3.943,2.46-3.557,1.858-7.682-1.462-10.079-3.336-2.408-7.6-1.656-10.159,1.813-1.355,1.832-2.677,3.689-4.091,5.642a27.768,27.768,0,0,1-6.443-13.16c-1.1-5.946-.425-11.837.736-17.7.4-2.034.241-2.556-1.286-3.452a.788.788,0,0,1-.2-.9c.552-1.511.7-3.2,1.931-4.416a2.222,2.222,0,0,0,3.017-1.265,34.57,34.57,0,0,1,3.893-5.952c1.351-1.621,1.844-1.631,3.242-.1A31.771,31.771,0,0,0,34.218,42.5a9.963,9.963,0,0,0,5.232,1.632,6.806,6.806,0,0,0,5.424-2.4,1.545,1.545,0,0,1,2.174-.477A69.32,69.32,0,0,0,65.68,46.787c2.16.325,4.341.51,6.516.728a5.162,5.162,0,0,1,2.784.947c.881,1.666.734,3.532.864,5.3a34.4,34.4,0,0,1-2.049,15.835A34.9,34.9,0,0,1,63.638,83.321a44.786,44.786,0,0,1-8.066,5.35,18.129,18.129,0,0,1-3.713,1.409" transform="translate(0.684 1.58)" fill="#f9a58d"/>
        <path id="Trazado_208213" data-name="Trazado 208213" d="M17.751,44.884A35.134,35.134,0,0,0,16.017,50.2c-1.929.008-2.488.4-2.852,2.237-.351,1.765-.639,3.546-.87,5.331-.093.724-.239,1.131-1.086,1.111-1.281-.028-2.564.03-3.844.107-.516.03-.689-.187-.724-.633-.007-.1-.013-.19-.014-.285-.114-5.8-.379-11.607-.295-17.407.077-5.286,4.4-10.536,9.613-12.1A4.166,4.166,0,0,0,18.494,26.7,27.075,27.075,0,0,1,38.528,13.53a82.418,82.418,0,0,1,15.384-.187,32.43,32.43,0,0,1,15.145,4.5c9.909,5.878,15.7,14.549,17.2,26,.619,4.736.135,9.506.279,14.257.018.58-.094.9-.782.786a5.6,5.6,0,0,0-1.425-.019c-.829.077-1.176-.214-1.242-1.094a33.01,33.01,0,0,0-1.049-6.018,10.1,10.1,0,0,0-9.295-7.538A67.188,67.188,0,0,1,49.891,38.66a9.3,9.3,0,0,0-2.944-1.022A4.837,4.837,0,0,0,42.416,39.5a3.2,3.2,0,0,1-3.8,1.124,10.4,10.4,0,0,1-4.082-2.538c-1.456-1.367-2.827-2.825-4.248-4.229a5.562,5.562,0,0,0-8.33.353,36.4,36.4,0,0,0-4.847,7.2c-.825,1.634-.729,2.2.646,3.469" transform="translate(0.282 0.583)" fill="#655e67"/>
        <path id="Trazado_208214" data-name="Trazado 208214" d="M124.732,51.762c-4,.019-7.992.069-11.989.043a6.114,6.114,0,0,0-5.263,2.594c-1.647,2.2-3.365,4.344-5.313,6.848,0-1.434.014-2.5,0-3.558A5.726,5.726,0,0,0,96.3,51.822c-2.236-.029-4.474.019-6.709-.025-2.056-.04-2.3-.286-2.256-2.289a39.47,39.47,0,0,0-2.425-14.679,5.063,5.063,0,0,1-.234-1.822q0-11.565,0-23.13.006-5.783,5.8-5.776,16.419,0,32.837,0c.474,0,.95.029,1.424.045,1.528.636,1.835,2.075,2.236,3.437a8.454,8.454,0,0,1,.2,2.407q0,17.961.006,35.92a9.22,9.22,0,0,1-.878,4.283,2.944,2.944,0,0,1-1.569,1.568" transform="translate(3.774 0.183)" fill="#f6e265"/>
        <path id="Trazado_208215" data-name="Trazado 208215" d="M4.663,138.5c2.354-9.057,4.67-17.967,6.987-26.875a25.373,25.373,0,0,0,.649-2.479,31.845,31.845,0,0,1,7.067-15.117c3.928-4.947,7.457-10.21,11.143-15.347a3.017,3.017,0,0,1,3.125-1.531,2.774,2.774,0,0,1,1.823,4.392c-1.175,1.785-2.425,3.523-3.67,5.264a3.483,3.483,0,0,0-.425,3.994,3.56,3.56,0,0,0,3.468,1.782c7.471-.029,14.942-.013,22.411-.013.381,0,.763-.016,1.142.008a2.819,2.819,0,1,1-.027,5.628c-2.807.047-5.615.009-8.422.017-3.124.007-4.479,1.384-4.518,4.523a25.952,25.952,0,0,1-.128,4.272,7.114,7.114,0,0,1-7.048,6.051c-2.9.043-5.806.009-8.708.011-3.038,0-4.449,1.079-5.208,3.983-1.765,6.75-3.546,13.5-5.265,20.258-.228.9-.543,1.214-1.5,1.2-4.232-.057-8.464-.025-12.9-.025" transform="translate(0.208 3.436)" fill="#f8b09f"/>
        <path id="Trazado_208216" data-name="Trazado 208216" d="M65.086,109.132a22.779,22.779,0,0,1,7.48,5.02,19.094,19.094,0,0,1,5.108,12.163c.2,3.58.548,7.151.83,10.727-1.379.016-2.76-.015-4.135.065-.852.049-1.017-.3-1-1.063.042-2.427.025-4.854.01-7.281-.009-1.6-.765-2.5-2.07-2.534-1.366-.031-2.192.9-2.2,2.562q-.027,3.64,0,7.281c.005.643-.027,1.038-.88,1.036q-20.983-.061-41.966-.063c-.491-.559-.265-1.176-.108-1.761,1.293-4.82,2.453-9.674,3.77-14.487.515-1.885,1.458-2.607,3.532-2.653,2.851-.062,5.7-.05,8.554-.008a8.7,8.7,0,0,0,6.238-2.344,4.978,4.978,0,0,1,1.421-.93A22.958,22.958,0,0,0,62.035,109.3c1.045-.935,2.024-.336,3.051-.171" transform="translate(1.157 4.849)" fill="#abd87f"/>
        <path id="Trazado_208217" data-name="Trazado 208217" d="M123.023,51.764a8.173,8.173,0,0,0,2.014-5.608q-.052-18.2,0-36.4a8.1,8.1,0,0,0-2.012-5.608c5.791-.64,7.814,2.008,7.728,7.182-.191,11.324-.15,22.654-.007,33.979.046,3.676-1.617,6.929-6.584,6.509-.378-.032-.758-.039-1.138-.056" transform="translate(5.483 0.181)" fill="#f2d232"/>
        <path id="Trazado_208218" data-name="Trazado 208218" d="M50.3,89.525c1.8-1.142,3.824-1.834,5.662-2.926C65.2,81.112,71.594,73.521,73.618,62.753a33.212,33.212,0,0,0,.144-10.468c-.19-1.45-.231-2.919-.339-4.379a4.539,4.539,0,0,1,2.4,3.041c1.609,7.156,2.536,14.375.371,21.562-2.424,8.043-7.783,13.8-14.835,18.106-.308.188-.568.44-1.013.138-1.751-1.186-3.754-1.195-5.767-1.171-1.425.018-2.851-.036-4.275-.057" transform="translate(2.242 2.135)" fill="#df927f"/>
        <path id="Trazado_208219" data-name="Trazado 208219" d="M49.824,114.61a9.267,9.267,0,0,1-7.9,3.687c-2.749-.086-5.5-.027-8.255-.015-2.075.009-2.747.58-3.264,2.593-1.268,4.937-2.559,9.867-3.831,14.8a9.376,9.376,0,0,0-.151,1.115c-1.279-.009-3.064.482-3.7-.163-.707-.714.326-2.331.631-3.539,1.361-5.381,2.83-10.733,4.167-16.12.263-1.06.709-1.316,1.72-1.289,2.518.068,5.04-.007,7.56.032a12.359,12.359,0,0,0,5.268-1.015,2.133,2.133,0,0,1,1.231-.226,25.191,25.191,0,0,0,6.533.137" transform="translate(1.002 5.101)" fill="#8bc851"/>
        <path id="Trazado_208220" data-name="Trazado 208220" d="M11.843,64.546a30.115,30.115,0,0,0,.735,6.039c.166.695.123,1.069-.756,1.016-1.183-.069-2.374-.005-3.561-.03a3.961,3.961,0,0,1-1.115-.186c-2.353-.761-3.372-2.939-2.994-6.355A4.4,4.4,0,0,1,8.3,61.047c.189-.016.38-.007.57-.009,2.961-.045,2.961-.045,2.971,3.509" transform="translate(0.182 2.72)" fill="#f9a58d"/>
        <path id="Trazado_208221" data-name="Trazado 208221" d="M86.369,66.523c.057,4.364-2.789,5.378-6.328,5.068-.617-.054-.525-.428-.443-.792a33.574,33.574,0,0,0,.745-8.911c-.031-.725.3-.838.932-.866,3.315-.145,5.1,1.765,5.094,5.5" transform="translate(3.545 2.719)" fill="#f9a58d"/>
        <path id="Trazado_208222" data-name="Trazado 208222" d="M50.832,110.323a16.481,16.481,0,0,1-4.845.748c1.795-2.836,2-5.743,1.867-8.7-.036-.76.233-.978.97-.957,1.661.048,3.326.067,4.985,0,1.009-.043,1.642.131,1.611,1.319a4.622,4.622,0,0,0,.315,1.235c-.7.7-1.594.408-2.411.45-1.8.091-2.347.616-2.416,2.389a30,30,0,0,1-.076,3.521" transform="translate(2.05 4.52)" fill="#df927f"/>
        <path id="Trazado_208223" data-name="Trazado 208223" d="M50.643,110.213a9.255,9.255,0,0,1-.179-4.989,1.8,1.8,0,0,1,1.953-1.34c1.04.043,2.085-.017,3.128-.031a22.718,22.718,0,0,0,1.562,2.356c.471.558.244.776-.2,1.089a16.417,16.417,0,0,1-6.263,2.915" transform="translate(2.238 4.629)" fill="#f9a58d"/>
        <path id="Trazado_208224" data-name="Trazado 208224" d="M59.223,74.028c.038,1.941-1.593,2.862-3.334,1.987a7.96,7.96,0,0,0-6.153-.865,22.183,22.183,0,0,0-2.21.952,2.138,2.138,0,0,1-3.025-.913,2.091,2.091,0,0,1,1.038-2.873,12.02,12.02,0,0,1,12.444-.02,2.058,2.058,0,0,1,1.24,1.732" transform="translate(1.973 3.145)"/>
        <path id="Trazado_208225" data-name="Trazado 208225" d="M64.185,62.643c0-2.188.655-3.217,2.069-3.242,1.469-.026,2.212,1.08,2.21,3.3a9.856,9.856,0,0,1-.033,1.417A2.2,2.2,0,0,1,66.2,66.08a2.141,2.141,0,0,1-2.011-2.16c-.027-.424,0-.85,0-1.276" transform="translate(2.86 2.648)" fill="#020101"/>
        <path id="Trazado_208226" data-name="Trazado 208226" d="M33.548,62.721c-.013-2.283.671-3.342,2.13-3.32s2.147,1.1,2.141,3.364a8.852,8.852,0,0,1-.055,1.414A2.111,2.111,0,0,1,33.554,64c-.034-.423-.005-.851-.005-1.276" transform="translate(1.495 2.648)" fill="#020101"/>
        <path id="Trazado_208227" data-name="Trazado 208227" d="M104.43,31.324c0-1.094-.017-2.188,0-3.282a2.2,2.2,0,0,1,2.471-2.457,8.956,8.956,0,0,0,2.956-.331A5.718,5.718,0,0,0,113.5,19a5.617,5.617,0,0,0-5.655-4.657,5.52,5.52,0,0,0-5.462,4.674c-.055.328-.083.66-.133.989a2.133,2.133,0,1,1-4.233-.413,9.511,9.511,0,0,1,5.665-8.578A9.331,9.331,0,0,1,114,12.154a9.336,9.336,0,0,1,3.55,10.021,9.3,9.3,0,0,1-7.307,7.359c-1.252.3-1.719.708-1.565,2a21.625,21.625,0,0,1,.017,3.422,2.19,2.19,0,0,1-2.1,2.259,2.165,2.165,0,0,1-2.161-2.324c-.028-1.189-.006-2.378-.006-3.568" transform="translate(4.368 0.444)"/>
        <path id="Trazado_208228" data-name="Trazado 208228" d="M104.156,41.637a2.206,2.206,0,0,1,2.152-2.469,2.245,2.245,0,0,1,2.13,2.514,2.168,2.168,0,0,1-2.1,2.37,2.139,2.139,0,0,1-2.179-2.415" transform="translate(4.642 1.746)" fill="#020201"/>
      </g>
    </g>
  </g>
</svg>
