<svg xmlns="http://www.w3.org/2000/svg" xmlns:xlink="http://www.w3.org/1999/xlink" width="193" height="175" viewBox="0 0 193 175">
  <defs>
    <clipPath id="clip-path">
      <rect id="Rect치ngulo_338702" data-name="Rect치ngulo 338702" width="119.78" height="135.852" fill="none"/>
    </clipPath>
  </defs>
  <g id="Grupo_983308" data-name="Grupo 983308" transform="translate(746 7515)">
    <g id="Grupo_983018" data-name="Grupo 983018" transform="translate(-746 -7515.13)">
      <rect id="Rect치ngulo_338462" data-name="Rect치ngulo 338462" width="193" height="175" rx="13" transform="translate(0 0.13)" fill="#f0f4ff"/>
    </g>
    <g id="Grupo_983307" data-name="Grupo 983307" transform="translate(-709 -7495)">
      <g id="Grupo_983306" data-name="Grupo 983306" transform="translate(0 0)" clip-path="url(#clip-path)">
        <path id="Trazado_208179" data-name="Trazado 208179" d="M98.861,68.489a2.23,2.23,0,0,1,2.4-1.464c4.328.025,8.659-.013,12.988.018a4.3,4.3,0,0,1,4.564,4.568c.016,1.5.007,3.006,0,4.507a4.216,4.216,0,0,1-2.8,4.225c-.667.262-.726.612-.723,1.177q.021,4.308,0,8.617c0,1.766-.355,2.229-2.028,2.759-1.407.128-2.195-.593-2.253-2.2-.078-2.12-.012-4.243-.028-6.365-.028-3.679.383-3.232-3.259-3.261-1.635-.014-3.271.023-4.907-.011-1.03-.021-1.4.425-1.4,1.431q.026,9.482,0,18.965a2.323,2.323,0,0,0,1.327,2.088c4.815,3.143,7.8,7.464,8.245,11.848-.02-4.085-.047-9.619.027-15.151.023-1.68.808-2.334,2.246-2.135,1.544.378,2.018.911,2.021,2.456.015,5.652.032,11.3-.006,16.955a5.678,5.678,0,0,1-4.265,5.691c-.447.144-.819.232-1.039.823-2.451,6.584-7.079,10.564-14.1,11.623-.057.008-.1.128-.145.194H90.957a16.128,16.128,0,0,1-10.117-5.214,15.651,15.651,0,0,1-3.465-5.441,1.864,1.864,0,0,0-2.021-1.46q-12.529.054-25.057.007a1.94,1.94,0,0,0-2.034,1.284c-1.383,2.98-3.942,4.132-7.078,4.271a5.462,5.462,0,0,1-.927.02c-1.365-.179-2.092.386-2.754,1.649-1.457,2.776-3.655,4.725-7.015,4.884H27.307c-.261-.44-.762-.372-1.151-.513a9.017,9.017,0,1,1,11.436-11.578c.3.845.623,1.218,1.55,1.12.962-.1,1.943-.014,2.912-.063a2.463,2.463,0,0,0,2.141-1.328c-3.866-1.2-5.107-2.868-5.108-6.853,0-8.619-.02-17.238.023-25.858.006-1.045-.156-1.431-1.325-1.4A8.407,8.407,0,0,1,29.323,84c-1.571-3.447-3.232-6.852-4.842-10.28A4.318,4.318,0,0,0,21.1,71.071c-.538-.084-.813-.029-1.035.618-.835,2.445-2.3,3.429-4.871,3.435q-5.1.014-10.209,0A4.62,4.62,0,0,1,.008,70.177c-.008-.84-.014-1.681,0-2.52a4.583,4.583,0,0,1,4.754-4.765c3.579-.027,7.16-.02,10.739,0a4.468,4.468,0,0,1,4.5,3.22c.2.6.383.92,1.1.979a8.065,8.065,0,0,1,6.976,4.94c1.609,3.38,3.26,6.743,4.771,10.168a5.015,5.015,0,0,0,5.337,3.254c.667-.032.975-.163.908-.883a10.189,10.189,0,0,1,0-1.722c.1-1.317.036-2.354-1.534-2.974a3.594,3.594,0,0,1-2-3.488q-.074-2.518-.007-5.038a4.286,4.286,0,0,1,4.3-4.3c2.031-.059,4.067-.067,6.1.007.967.035,1.175-.307,1.162-1.2-.047-3.4-.029-6.806-.015-10.21.015-3.564,1.936-5.465,5.5-5.47a25.839,25.839,0,0,1,5.287.077,13.729,13.729,0,0,0,5.657,0,25.68,25.68,0,0,1,5.817-.055c.865.036,1.005-.247.994-1.024-.043-3.006-.059-6.013.007-9.017.021-.942-.247-1.151-1.162-1.147-9.9.034-19.8.022-29.7.021-3.8,0-5.6-2.292-4.669-5.947A43.788,43.788,0,0,1,71.73.36C93.545-2.5,114.635,12.054,119.61,33.408c.761,3.268-1.07,5.618-4.409,5.621-9.943.007-19.886.022-29.829-.025C84.287,39,84,39.231,84,40.351q.081,12.73.006,25.46c0,.983.217,1.3,1.231,1.248,1.9-.088,3.8.026,5.7-.041a2.29,2.29,0,0,1,2.655,1.99c.3,1.152-.4,1.73-1.293,2.143a5.477,5.477,0,0,1-2.333.4q-21.586.012-43.17,0c-.088,0-.176-.018-.261-.026-1.666.034-3.332,0-5,.018-1.49.02-1.62.125-1.62,1.545,0,3.521-.293,3.189,3.165,3.213,1.14.007,2.28-.021,3.422.014a11.432,11.432,0,0,1,1.457-.036h63.872c2.57,0,2.57,0,2.566-2.536,0-.266-.021-.531,0-.795.075-1.043-.448-1.4-1.434-1.39q-4.373.021-8.746,0a15.8,15.8,0,0,1-3.565-.172c-1.637-.383-2.157-1.232-1.792-2.89" transform="translate(0 0)"/>
        <path id="Trazado_208180" data-name="Trazado 208180" d="M39.714,61.121c.527-.027,1.053-.078,1.581-.078q21.281-.007,42.561,0c2.087,0,2.46-.254,3.053-2,1.345,0,2.691-.023,4.035.011a1.31,1.31,0,0,0,1.232-.529c.043,1.914.623,2.509,2.569,2.518,4.021.019,8.041.049,12.06-.02,1.139-.02,1.451.349,1.366,1.426a33.148,33.148,0,0,0-.013,3.445c.016.624-.213.909-.846.844-.174-.018-.352,0-.529,0q-33.07,0-66.138,0c-.308,0-.617-.028-.925-.042a7.952,7.952,0,0,1-.007-5.56" transform="translate(6.684 9.974)" fill="#daecfe"/>
        <path id="Trazado_208181" data-name="Trazado 208181" d="M98.551,86.366c-1.577.416-1.942.859-1.945,2.5-.009,5.389,0,10.778-.011,16.166a2.112,2.112,0,0,1-.394,1.742,19.493,19.493,0,0,0-.749-4.806A16.93,16.93,0,0,0,87.4,91.886a1.8,1.8,0,0,1-1.056-1.849q.053-9.937,0-19.877c-.006-.969.2-1.284,1.223-1.254,2.648.08,5.3.062,7.947.006.86-.018,1.133.207,1.115,1.093-.056,2.825.026,5.654-.039,8.48a2.285,2.285,0,0,0,1.964,2.666l0,5.214" transform="translate(14.716 11.745)" fill="#fedf2f"/>
        <path id="Trazado_208182" data-name="Trazado 208182" d="M67.662,18.986c0-4.725.025-9.451-.021-14.177-.011-1.032.193-1.292,1.257-.991a17.24,17.24,0,0,1,8.7,5.958c4.506,5.484,6.839,11.966,8.437,18.761.393,1.671.6,3.385.96,5.065.142.667-.023.832-.684.831-5.917-.02-11.833-.035-17.75.012-.984.007-.911-.5-.909-1.148q.012-7.156.006-14.31" transform="translate(11.529 0.631)" fill="#fe7e86"/>
        <path id="Trazado_208183" data-name="Trazado 208183" d="M61.071,88.331c0-6,.041-12.009-.034-18.012-.015-1.224.364-1.442,1.477-1.413,3,.077,6,.051,9,.009.79-.012,1.058.173,1.055,1.017q-.051,11.257-.009,22.516a1.779,1.779,0,0,1-.646,1.481,16.984,16.984,0,0,0-5.874,12.83c-.013.754-.225.991-.967.948-1.273-.075-2.927.408-3.726-.222-.849-.67-.256-2.4-.265-3.658-.033-5.165-.014-10.332-.014-15.5" transform="translate(10.379 11.745)" fill="#fedf2f"/>
        <path id="Trazado_208184" data-name="Trazado 208184" d="M59.133,88.289c0,6.052-.021,12.106.021,18.158.007.954-.18,1.3-1.218,1.271-2.648-.081-5.3-.048-7.95-.013-.74.009-1.085-.085-1.081-.978q.053-14.049.007-28.1c0-.722.162-1.017.94-.98,1.278.06,2.562.036,3.843.009,1.42-.032,2.323-.832,2.326-2.008s-.9-1.944-2.333-1.961c-1.28-.014-2.563-.032-3.843.008-.651.02-.974-.114-.933-.859.059-1.058.046-2.122,0-3.18-.023-.6.217-.741.771-.736,2.871.021,5.743.048,8.613-.011,1.062-.021.829.647.83,1.22q.009,9.079,0,18.158" transform="translate(8.336 11.746)" fill="#fe7f86"/>
        <path id="Trazado_208185" data-name="Trazado 208185" d="M63.77,4.232c2.287-.945,2.287-.945,2.287,1.428,0,9.145-.021,18.288.028,27.433.006,1.122-.3,1.39-1.388,1.365-3.576-.085-7.153-.057-10.73-.071-.516-.842-.144-1.742-.067-2.576.733-7.911,2.222-15.634,6.1-22.7A14.852,14.852,0,0,1,63.77,4.232" transform="translate(9.153 0.621)" fill="#fedf2f"/>
        <path id="Trazado_208186" data-name="Trazado 208186" d="M57.694,5.638c-6.995,8-10.02,17.324-11.413,27.317-.115.822-.342,1.18-1.286,1.163q-5.5-.1-11,0c-1.055.019-1.141-.339-.9-1.2C36.3,21.2,43.252,12.531,54.124,7.059a16.242,16.242,0,0,1,3.57-1.421" transform="translate(5.623 0.961)" fill="#fe636e"/>
        <path id="Trazado_208187" data-name="Trazado 208187" d="M77.989,5.747a36.391,36.391,0,0,1,13.485,8.378,39.593,39.593,0,0,1,10.806,18.5c.389,1.444.375,1.449-1.181,1.449q-4.967,0-9.935,0c-1.843,0-1.819,0-2.082-1.854a57.209,57.209,0,0,0-5.818-18.71,44,44,0,0,0-5.274-7.761" transform="translate(13.293 0.98)" fill="#fedf2f"/>
        <path id="Trazado_208188" data-name="Trazado 208188" d="M74.254,90.949V71.936c0-3.006,0-3.006,3-3.006,2.078,0,4.155.029,6.231-.015.733-.015.976.183.973.948-.028,6.365-.014,12.731-.022,19.1,0,.433.2,1.069-.661.9a15.766,15.766,0,0,0-4.75-.136,21.274,21.274,0,0,0-4.77,1.221" transform="translate(12.657 11.747)" fill="#fe7f86"/>
        <path id="Trazado_208189" data-name="Trazado 208189" d="M44.107,106.369c-1.808.016-3.617.041-5.425.044a1.732,1.732,0,0,1-1.873-1.793c-.03-.307-.016-.618-.016-.927,0-8.653.022-17.306-.028-25.959-.006-1.127.318-1.423,1.4-1.362,1.8.1,3.616.057,5.424.075A2.933,2.933,0,0,1,44,78.6c.012,8.076.026,16.151-.013,24.226a18.149,18.149,0,0,1,.118,3.545" transform="translate(6.267 13.016)" fill="#fac600"/>
        <path id="Trazado_208190" data-name="Trazado 208190" d="M69.235,47.418c0,4.284-.028,8.567.022,12.849.011.9-.269,1.144-1.118,1.1-1.232-.061-2.472-.036-3.707-.007-.63.014-.959-.1-.956-.86q.035-13.182,0-26.363c0-.671.249-.817.853-.8,1.279.036,2.563.069,3.839-.008.891-.055,1.092.255,1.084,1.1-.041,4.327-.019,8.655-.019,12.983" transform="translate(10.82 5.68)" fill="#b4dbfe"/>
        <path id="Trazado_208191" data-name="Trazado 208191" d="M64.8,4.146a43.181,43.181,0,0,0-4.579,7.211,57.655,57.655,0,0,0-4.18,14.216c-.515,2.89-.647,5.823-1.044,8.727-2.207.014-4.416.022-6.625.05-.523.006-.767-.041-.666-.719a52.51,52.51,0,0,1,7.391-21.058c2.3-3.585,5.15-6.621,9.2-8.291a3.948,3.948,0,0,1,.5-.137" transform="translate(8.127 0.707)" fill="#fac600"/>
        <path id="Trazado_208192" data-name="Trazado 208192" d="M82.458,90.215c4.8.321,9.448,4.377,10.885,9.5a13.309,13.309,0,0,1-9.833,16.466,8.024,8.024,0,0,1-1.052.094c-1.451.433-2.35-.488-3.343-1.293a13.914,13.914,0,0,1-2.133-2.286c-.421-.538-.488-1.056.391-1.224,1.87.273,3.707.677,5.626.094a8.765,8.765,0,0,0,6.047-10.15A8.641,8.641,0,0,0,78.962,94.77a8.331,8.331,0,0,1-1.567.25c-.519-.073-.806-.3-.629-.881.465-1.51,3.951-4.083,5.444-4a.7.7,0,0,1,.248.08" transform="translate(13.071 15.363)" fill="#7a6c78"/>
        <path id="Trazado_208193" data-name="Trazado 208193" d="M78.721,111.759c-.208.047-.509.067-.426.363.384,1.367,4.012,4.092,5.527,4.181a11.92,11.92,0,0,1-9.382-2.131,13.191,13.191,0,0,1-4.958-15.432,13.431,13.431,0,0,1,13.726-8.7,2.8,2.8,0,0,1,.613.2c-2.073-.063-3.048,1.669-4.422,2.735a6.263,6.263,0,0,0-.989,1.215c-.3.4-.061.535.31.593.055.559-.449.588-.762.767a8.7,8.7,0,0,0-4.028,11.01,9.649,9.649,0,0,0,3.91,4.368c.335.22.912.212.88.83" transform="translate(11.707 15.338)" fill="#665e68"/>
        <path id="Trazado_208194" data-name="Trazado 208194" d="M43.116,106.368a5.548,5.548,0,0,1-.533-2.552q.026-13.685.013-27.371c3.429-.21,3.429-.21,3.429,3.173,0,8.392-.03,16.785.032,25.178.009,1.295-.248,1.889-1.622,1.635a9.318,9.318,0,0,0-1.319-.063" transform="translate(7.258 13.017)" fill="#fedf2f"/>
        <path id="Trazado_208195" data-name="Trazado 208195" d="M61.07,59c-2.31.382-4.636.057-6.952.143-.578.021-.568-.431-.568-.838q0-5.357,0-10.712c0-.923.416-1.376,1.378-1.339,1.188.047,2.378.037,3.566.051a2.51,2.51,0,0,1,.4,1.879c.015,2.81,0,5.621.008,8.431,0,1.647.011,1.647,1.606,2.062A1.069,1.069,0,0,1,61.07,59" transform="translate(9.128 7.884)" fill="#fd626d"/>
        <path id="Trazado_208196" data-name="Trazado 208196" d="M51.089,59.018a64.362,64.362,0,0,1-6.837.131c-.57.022-.616-.355-.616-.79q.009-5.427,0-10.852c0-.9.426-1.273,1.307-1.247,1.189.037,2.38.035,3.569.05a2.508,2.508,0,0,1,.4,1.879c.015,2.811.044,5.623-.012,8.432-.025,1.215.153,2.1,1.628,2.075a.778.778,0,0,1,.556.322" transform="translate(7.438 7.885)" fill="#fac600"/>
        <path id="Trazado_208197" data-name="Trazado 208197" d="M40.645,60.754l.007,5.56c-1.978.014-3.956.014-5.933.052-.637.013-.989-.133-.967-.868.039-1.318.03-2.639,0-3.957-.014-.614.2-.884.833-.871,2.019.043,4.039.06,6.058.085" transform="translate(5.753 10.341)" fill="#b4dbfe"/>
        <path id="Trazado_208198" data-name="Trazado 208198" d="M29.954,106.631c.349.765-.3.535-.589.542-1.187.028-2.376,0-3.563.018A1.917,1.917,0,1,0,25.773,111c1.187.03,2.376,0,3.563.022.3.007.884-.2.617.523-.911.074-1.824,0-2.735.016-1.372.033-1.409.094-.787,1.27.176.331.5.632.3,1.071a4.8,4.8,0,0,1-5.2-1.908,5.009,5.009,0,0,1-.084-5.7,4.835,4.835,0,0,1,5.282-2.012c.2.506-.213.8-.406,1.168-.506.96-.431,1.122.626,1.17,1,.046,2-.044,3,.018" transform="translate(3.511 17.744)" fill="#655d67"/>
        <path id="Trazado_208199" data-name="Trazado 208199" d="M50.38,59.017c-2.579-.085-2.58-.085-2.579-2.7q0-5,0-10.009c.308-.015.617-.042.925-.043,1.691-.006,1.818.112,1.821,1.788q.009,4.907,0,9.813c0,.386.119.8-.169,1.149" transform="translate(8.148 7.886)" fill="#fedf2f"/>
        <path id="Trazado_208200" data-name="Trazado 208200" d="M60.351,59c-2.58-.054-2.581-.054-2.58-2.687q0-5,0-10.007c.528-.014,1.055-.035,1.581-.04.677-.006,1.122.3,1.113,1.009-.051,3.908.178,7.82-.118,11.726" transform="translate(9.847 7.886)" fill="#fe7e86"/>
        <path id="Trazado_208201" data-name="Trazado 208201" d="M43.6,73.632c-1.98.016-3.961.018-5.941.061-.609.014-.825-.166-.872-.809-.288-3.957-.3-3.96,3.645-3.955,1.056,0,2.111.028,3.167.043a5.927,5.927,0,0,1,0,4.66" transform="translate(6.252 11.749)" fill="#f9c500"/>
        <path id="Trazado_208202" data-name="Trazado 208202" d="M10.287,61.362c-1.934.016-3.867.014-5.8.059-.8.019-1.1-.31-1.09-1.094.059-3.875-.452-3.13,3.068-3.192,1.273-.022,2.548.028,3.822.044a4.843,4.843,0,0,1,0,4.183" transform="translate(0.579 9.735)" fill="#fe636d"/>
        <path id="Trazado_208203" data-name="Trazado 208203" d="M9.284,61.361V57.177c1.454-.016,2.909-.015,4.361-.057.744-.021,1.024.3,1.016,1.024-.052,4.033.453,3.177-3,3.262-.791.019-1.585-.029-2.377-.046" transform="translate(1.582 9.736)" fill="#fe7e86"/>
        <path id="Trazado_208204" data-name="Trazado 208204" d="M42.6,73.635q0-2.33,0-4.66c3.431-.184,3.36-.181,3.465,3.113.041,1.323-.3,1.829-1.633,1.612a13.793,13.793,0,0,0-1.831-.066" transform="translate(7.26 11.746)" fill="#fdde2e"/>
        <path id="Trazado_208205" data-name="Trazado 208205" d="M29.248,106.605c-1.324.679-2.734.221-4.1.288-.509.025-.444-.4-.316-.771a9.065,9.065,0,0,1,1.194-1.873,4.15,4.15,0,0,1,3.225,2.356" transform="translate(4.217 17.769)" fill="#776875"/>
        <path id="Trazado_208206" data-name="Trazado 208206" d="M26.017,112.878c-.376-.818-1.579-1.572-1.176-2.328.458-.858,1.751-.247,2.671-.321.57-.044,1.235-.259,1.731.291a4.144,4.144,0,0,1-3.226,2.357" transform="translate(4.22 18.764)" fill="#7a6b78"/>
        <path id="Trazado_208207" data-name="Trazado 208207" d="M78.1,111.122a9.494,9.494,0,0,1-5.411-5.955A8.954,8.954,0,0,1,77.3,94.595c.273-.133.531-.3.8-.447,4.759-1.177,8.535.085,10.8,3.61a9.063,9.063,0,0,1-.149,9.972,8.9,8.9,0,0,1-9.236,3.7c-.473-.1-.942-.207-1.414-.311" transform="translate(12.327 15.974)"/>
        <path id="Trazado_208208" data-name="Trazado 208208" d="M82.784,106.588a4.871,4.871,0,0,1-6.021-1.455,4.957,4.957,0,0,1,0-6.14,4.868,4.868,0,0,1,6.021-1.451,9.544,9.544,0,0,0-1.527,4.655c.02,1.7.858,2.987,1.525,4.392" transform="translate(12.903 16.545)" fill="#1ca7fe"/>
        <path id="Trazado_208209" data-name="Trazado 208209" d="M82.023,106.518c-2.484-1.46-2.474-7.606,0-9.046a4.936,4.936,0,0,1,0,9.046" transform="translate(13.664 16.614)" fill="#5fb8fd"/>
      </g>
    </g>
  </g>
</svg>
