<svg xmlns="http://www.w3.org/2000/svg" xmlns:xlink="http://www.w3.org/1999/xlink" width="193" height="193" viewBox="0 0 193 193">
  <defs>
    <clipPath id="clip-path">
      <rect id="Rect치ngulo_338700" data-name="Rect치ngulo 338700" width="146.155" height="146.178" fill="none"/>
    </clipPath>
  </defs>
  <g id="Grupo_983302" data-name="Grupo 983302" transform="translate(746 7895)">
    <g id="Grupo_983010" data-name="Grupo 983010" transform="translate(-746 -7895.13)">
      <rect id="Rect치ngulo_338462" data-name="Rect치ngulo 338462" width="193" height="193" rx="13" transform="translate(0 0.13)" fill="#f0f4ff"/>
    </g>
    <g id="Grupo_983301" data-name="Grupo 983301" transform="translate(-723 -7872)">
      <g id="Grupo_983300" data-name="Grupo 983300" clip-path="url(#clip-path)">
        <path id="Trazado_208131" data-name="Trazado 208131" d="M97.341,144.8c-.283-.272-.24-.627-.253-.972-.085-2.3-.09-2.377-2.439-2.282-15.134.61-30.274.109-45.411.286-.624-.538-.446-1.277-.45-1.947-.021-3.519-.062-7.04,0-10.558a9.366,9.366,0,0,0-9.71-9.74c-3.411.178-6.839.025-10.26.038a11.383,11.383,0,0,1-3.232-.429,5.562,5.562,0,0,1-4.175-5.49c-.024-6.643,0-13.286-.01-19.929-.006-4.354-2.231-6.568-6.6-6.586-1.388-.006-2.777.01-4.165-.006A5.118,5.118,0,0,1,5.9,84.636c-1.033-1.809-.533-3.51.541-5.162,3.08-4.736,6.126-9.5,9.2-14.237a12.325,12.325,0,0,0,1.909-6.168c.421-7.441,1.122-14.859,4.121-21.793C29.418,19.379,42.9,8.429,62.15,5.355c15.03-2.4,28.574,1.781,40.371,11.442a48.086,48.086,0,0,1,8.389,8.8c1.221,1.668,2.259,3.5,4.616,3.73.907,2.183,2.157,4.194,3.071,6.383A53.415,53.415,0,0,1,122.4,49.766a41.228,41.228,0,0,1,.544,8.384c-.3,3.753-.52,7.543-2.044,11.079-.593-.613-.427-1.393-.43-2.116-.018-5.747.006-11.494-.017-17.24a6.291,6.291,0,0,0-9.039-6.169c-2.287.988-3.19,2.962-3.187,5.412q.012,14.862,0,29.724a16.919,16.919,0,0,1-.05,1.782,1.562,1.562,0,0,1-1.246,1.477,15.93,15.93,0,0,1-1.591.377c-6.7,1.018-10.684,8.493-9.406,14.636a36.687,36.687,0,0,0,1.872,6.407c1.551,3.807,3.157,7.6,4.344,11.54a14.337,14.337,0,0,1,.848,3.754,81.037,81.037,0,0,0-1.164,8.731,9.747,9.747,0,0,0,.095,1.608c-.228.523-.747.609-1.2.777a4.144,4.144,0,0,0-2.9,4.2c-.025,2.912.008,5.824-.018,8.735-.006.671.137,1.4-.475,1.935" transform="translate(-1.051 -0.924)" fill="#d6e7fe"/>
        <path id="Trazado_208132" data-name="Trazado 208132" d="M124.76,128.232c-.836-4.5-2.646-8.674-4.332-12.889-1.488-3.72-2.971-7.415-3.092-11.527-.135-4.581,3.324-11.149,9.579-12.407a9.042,9.042,0,0,1,1.591-.342c1.173-.015,1.3-.654,1.294-1.643q-.046-15.08-.016-30.16a9.875,9.875,0,0,1,.226-2.8c.921-3.168,3.752-4.9,7.267-4.431a6.37,6.37,0,0,1,5.588,6.458c.048,6.141.014,12.282.021,18.423,0,.541.049,1.083.075,1.625-.137.569-.1.96.675.883,2.8-.274,5.206.439,6.824,2.93.316.488.628.239,1.011.126,3.105-.915,5.784-.381,7.716,2.418.329.476.581.442,1.087.309,5.273-1.388,8.8,1.337,8.808,6.762,0,3.565-.2,7.145.044,10.694a80.746,80.746,0,0,1-1.773,21.355,31.284,31.284,0,0,1-1.98,6.354,12.246,12.246,0,0,1-3.476,4.915,3.857,3.857,0,0,0-1.162,1.856c-.312.895-.232,1.365.805,1.743a4.218,4.218,0,0,1,2.887,4.106c.087,3.81.088,7.623.093,11.435a1.767,1.767,0,0,1-1.344,1.9,2.211,2.211,0,0,1-2.379-.819,5.854,5.854,0,0,1-.61-1.176,2.638,2.638,0,0,1-.441-1.974c-.023-2.278-.028-4.557,0-6.835.013-1.046-.292-1.453-1.457-1.435-10.105.151-20.212.053-30.318.067a6.211,6.211,0,0,1-.891-.042c-2.313-.332-2.416-.365-2.406,2.293.008,2.031.016,4.062-.006,6.093a2.456,2.456,0,0,1-.432,1.829,2.567,2.567,0,0,1-2.618,1.768,2.248,2.248,0,0,1-2.222-1.992q.008-4.8.017-9.608c0-3.873.883-5.051,4.564-6.115,1.637-2.094.919-4.507.858-6.807-.03-1.113-.151-2.225-.079-3.343" transform="translate(-23.111 -10.234)"/>
        <path id="Trazado_208133" data-name="Trazado 208133" d="M114.475,28.407c-1.559.429-2.571-.17-3.494-1.484-8.691-12.378-20.474-20-35.464-22.2C52.566,1.341,29.746,14.7,21.078,36.267a59.234,59.234,0,0,0-3.907,18.206c-.219,3.19-.047,6.5-1.788,9.387-1.352,2.243-2.844,4.4-4.271,6.6C9.28,73.286,7.459,76.117,5.62,78.937c-.913,1.4-1.463,2.853-.529,4.444a4.752,4.752,0,0,0,4.43,2.477c1.587-.019,3.174-.006,4.76,0,3.979.008,6.452,2.5,6.456,6.513.008,6.643,0,13.286.006,19.929,0,3.64,2.118,5.8,5.8,5.853,3.718.049,7.437,0,11.155.019,6.425.041,10.427,4.1,10.439,10.543.007,4.063.032,8.128.049,12.191-.461,1.645-1.4,2.363-2.839,2.163-1.364-.19-2.04-1.072-2.047-2.79-.018-3.867,0-7.736-.01-11.6-.012-3.985-2.281-6.236-6.288-6.245-3.62-.008-7.24,0-10.859,0-6.213-.015-10.226-3.944-10.286-10.206-.064-6.594-.015-13.189-.019-19.784,0-2.306-.035-2.336-2.306-2.342-1.488,0-2.978.028-4.463-.01A9.574,9.574,0,0,1,.1,82.371a7.819,7.819,0,0,1,1.6-5.862c3.132-4.695,6.367-9.32,9.564-13.97a5.665,5.665,0,0,0,.919-2.778c.552-5.861.606-11.8,2.3-17.5C21.263,19.522,36.023,4.889,59.513.909c22.974-3.892,41.4,4.852,55.139,23.559,1.208,1.645,1.1,2.48-.177,3.938" transform="translate(0 0)"/>
        <path id="Trazado_208134" data-name="Trazado 208134" d="M125.932,176.74c0-3.268.027-6.537-.01-9.805-.01-.866.181-1.365,1.145-1.148a30.392,30.392,0,0,0,6.659.254c8.271.033,16.543.013,24.815.013.4,0,.793.012,1.189,0,2.176-.09,2.179-.092,2.175,2.081q-.007,4.307-.023,8.615l-35.95,0" transform="translate(-24.802 -32.644)" fill="#f2877e"/>
        <path id="Trazado_208135" data-name="Trazado 208135" d="M47.752,66.069C47.787,54,56.954,43.8,67.7,43.187c12.934-.74,23.555,7.647,25.02,19.7a22.078,22.078,0,0,1-4.006,15.61,29.192,29.192,0,0,0-4.965,16.8c-.039,3.287-.523,3.861-3.732,3.875-1.178.006-1.148.6-1.108,1.388.139,2.8-.23,5.451-2.239,7.614a8.229,8.229,0,0,1-9.049,2.47,8.433,8.433,0,0,1-5.807-7.7c-.007-.1-.01-.2-.013-.3-.025-1.038.3-2.279-.163-3.061-.537-.915-1.9-.232-2.89-.411-1.391-.253-2.1-1.1-2.091-2.763a38.416,38.416,0,0,0-.994-9.73,34.577,34.577,0,0,0-4.378-9.213,23.2,23.2,0,0,1-3.529-11.4" transform="translate(-9.405 -8.497)"/>
        <path id="Trazado_208136" data-name="Trazado 208136" d="M112.259,67.862c1.963-.006,3.08.846,3.11,2.375s-1.127,2.492-3.016,2.5c-1.91.006-3.039-.888-3.08-2.435-.043-1.609.964-2.431,2.986-2.437" transform="translate(-21.523 -13.366)"/>
        <path id="Trazado_208137" data-name="Trazado 208137" d="M72.878,33.258c-.008-1.686,1-2.941,2.4-2.982,1.467-.043,2.435,1.1,2.43,2.877a2.631,2.631,0,0,1-2.467,2.905c-1.415-.012-2.354-1.125-2.362-2.8" transform="translate(-14.354 -5.963)"/>
        <path id="Trazado_208138" data-name="Trazado 208138" d="M96.7,37.8a3.281,3.281,0,0,1-2.833,2.95A2.231,2.231,0,0,1,91.4,38.565a3.34,3.34,0,0,1,2.87-3.078A2.422,2.422,0,0,1,96.7,37.8" transform="translate(-18.002 -6.989)"/>
        <path id="Trazado_208139" data-name="Trazado 208139" d="M37.828,72.809a2.763,2.763,0,0,1-2.114-.667,2.3,2.3,0,0,1-.659-2.432,1.9,1.9,0,0,1,1.857-1.421,8.394,8.394,0,0,1,1.034-.048c1.7.037,2.772.982,2.764,2.416-.009,1.372-1.005,2.14-2.88,2.152" transform="translate(-6.884 -13.441)"/>
        <path id="Trazado_208140" data-name="Trazado 208140" d="M42.436,49.99a3.239,3.239,0,0,1,2.947,2.787,2.209,2.209,0,0,1-2.207,2.11,3.2,3.2,0,0,1-2.92-2.8,2.062,2.062,0,0,1,2.179-2.1" transform="translate(-7.929 -9.846)"/>
        <path id="Trazado_208141" data-name="Trazado 208141" d="M42.375,91.663a1.945,1.945,0,0,1-2.116-2.119,3.045,3.045,0,0,1,3-2.7,1.971,1.971,0,0,1,2.119,2.126,3.049,3.049,0,0,1-3.007,2.69" transform="translate(-7.929 -17.106)"/>
        <path id="Trazado_208142" data-name="Trazado 208142" d="M109.877,89.626a1.941,1.941,0,0,1-2.2,2.036,3.045,3.045,0,0,1-2.93-2.77,1.986,1.986,0,0,1,2.206-2.046,3.019,3.019,0,0,1,2.92,2.78" transform="translate(-20.632 -17.106)"/>
        <path id="Trazado_208143" data-name="Trazado 208143" d="M107.843,49.991a2.037,2.037,0,0,1,2.028,2.247,3.243,3.243,0,0,1-3.244,2.628,1.977,1.977,0,0,1-1.871-2.224,3.3,3.3,0,0,1,3.088-2.65" transform="translate(-20.632 -9.846)"/>
        <path id="Trazado_208144" data-name="Trazado 208144" d="M58.725,38.492a2.485,2.485,0,0,1-2.11,2.3A3.04,3.04,0,0,1,54,37.868a2.168,2.168,0,0,1,2.175-2.148,2.793,2.793,0,0,1,2.553,2.772" transform="translate(-10.635 -7.036)"/>
        <path id="Trazado_208145" data-name="Trazado 208145" d="M139.357,114.507a3.377,3.377,0,0,1,3.313.385,5.874,5.874,0,0,0,5.525.746c.568-.18.918-.3,1.356.323,1.864,2.653,4.5,3.216,7.495,2.5a1.513,1.513,0,0,1,1.842.566,5.936,5.936,0,0,0,5.6,2.078c.947-.1,1.156.161,1.075,1.108a63.616,63.616,0,0,1-2.749,15.15,10.322,10.322,0,0,1-3.272,5.013,6.7,6.7,0,0,0-2.4,5.237c-.03.93-.253,1.266-1.258,1.261-8.03-.042-16.061-.021-24.091-.028-.544,0-1.259.237-1.117-.813,1.05-7.757-1.283-14.873-4.153-21.9a51.214,51.214,0,0,1-3.459-10.08,9.472,9.472,0,0,1,1.805-7.7c1.914-2.571,4.744-2.673,7.461-2.966,2.985-.321,5.986-.746,9.013-.122.825.17,1.712-.345,2.625-.281.749.053.823.289.529.9-1.117,2.336-3.225,3.265-5.549,3.6a35.1,35.1,0,0,1-5.346.059,2.515,2.515,0,0,0-2.678,1.44c-.5,1.16.1,2.038.838,2.8,1.31,1.352,2.732,2.595,4.034,3.953a21.239,21.239,0,0,1,5.4,8.248,7.105,7.105,0,0,1-.618,6c-.861,1.456-.65,2.886.445,3.521s2.42.151,3.36-1.275c2.308-3.5,2.222-7.171.723-10.922a27.059,27.059,0,0,0-4.779-7.471c-.338-.4-.831-.694-.961-1.331" transform="translate(-24.202 -20.67)" fill="#fefefe"/>
        <path id="Trazado_208146" data-name="Trazado 208146" d="M138.122,75.049q0-7.5,0-15.008c0-1.719.556-2.408,1.9-2.41,1.459,0,2.028.661,2.026,2.445-.009,10.005-.047,20.01-.017,30.015,0,1.066-.348,1.278-1.319,1.311-2.592.087-2.591.134-2.591-2.386V75.049" transform="translate(-27.205 -11.351)" fill="#fefefe"/>
        <path id="Trazado_208147" data-name="Trazado 208147" d="M164.479,103.86c0,2.077.01,4.153,0,6.23-.01,1.473-.612,2.094-2.018,2.136-1.266.039-1.971-.631-1.979-2.024q-.036-6.378,0-12.756a2.256,2.256,0,0,1,2.194-2.32c1.172-.028,1.8.774,1.8,2.355.01,2.126,0,4.252,0,6.379" transform="translate(-31.605 -18.736)" fill="#fcfcfd"/>
        <path id="Trazado_208148" data-name="Trazado 208148" d="M175.371,106.793c0,2.173-.065,4.348.022,6.518.06,1.492-.76,1.909-1.987,1.951-1.278.043-1.9-.636-1.915-2.066-.019-2.42-.006-4.841-.006-7.262,0-1.829-.02-3.657.008-5.484a2.2,2.2,0,0,1,2.216-2.263c1.154-.007,1.716.7,1.724,2.232.012,2.125,0,4.249,0,6.374h-.066" transform="translate(-33.776 -19.339)" fill="#fefefe"/>
        <path id="Trazado_208149" data-name="Trazado 208149" d="M153.389,95.625c0,2.731,0,2.659-2.668,2.679-1.233.009-1.675-.335-1.537-1.578.108-.98,0-1.981.028-2.971a1.915,1.915,0,0,1,2.057-2.014,1.882,1.882,0,0,1,2.114,1.951c.031.643.006,1.289.006,1.933" transform="translate(-29.379 -18.07)" fill="#fefefe"/>
        <path id="Trazado_208150" data-name="Trazado 208150" d="M73.837,85.121c0-2.924.039-5.849-.022-8.771-.02-1.006.226-1.482,1.306-1.349a7.764,7.764,0,0,0,1.633-.016,2.359,2.359,0,0,0,2.284-2.291,2.3,2.3,0,0,0-2.088-2.477q-5.72-.129-11.445,0a2.022,2.022,0,0,0-1.977,2.2,2.242,2.242,0,0,0,1.845,2.5,7.135,7.135,0,0,0,1.479.088c2.154.018,2.154.014,2.154,2.237,0,5.6-.026,11.2.022,16.8.01,1.043-.151,1.525-1.345,1.43a38.039,38.039,0,0,0-4.458-.012c-.8.031-1-.267-1-1.025-.012-6.75-2.3-12.712-5.963-18.336-5.367-8.236-3.422-18.8,4.325-24.134,5.98-4.117,12.425-4.2,18.737-1.041,6.261,3.138,9.408,8.56,9.73,15.56a18.2,18.2,0,0,1-3.59,11.4,31.59,31.59,0,0,0-5.388,16.261c-.067,1.008-.287,1.409-1.347,1.322a18.173,18.173,0,0,0-3.415,0c-1.312.141-1.536-.4-1.5-1.581.085-2.921.028-5.846.028-8.77" transform="translate(-10.483 -9.593)" fill="#fec308"/>
        <path id="Trazado_208151" data-name="Trazado 208151" d="M75.051,113.118a2.572,2.572,0,0,1,.591-.019c.983.19,2.444-.647,2.9.5a5.181,5.181,0,0,1-2.149,6.349,3.466,3.466,0,0,1-4.243-1.066c-1.294-1.657-.681-3.606-.74-5.441-.016-.471.516-.34.831-.345.938-.017,1.876-.006,2.815-.006v.034" transform="translate(-14.046 -22.253)" fill="#fefefe"/>
      </g>
    </g>
  </g>
</svg>
