<svg xmlns="http://www.w3.org/2000/svg" width="139.226" height="276.237" viewBox="0 0 139.226 276.237">
  <g id="Grupo_983339" data-name="Grupo 983339" transform="translate(-948.685 -172.533)">
    <g id="Grupo_165704" data-name="Grupo 165704" transform="translate(1016.343 237.028) rotate(70)">
      <g id="Grupo_81059" data-name="Grupo 81059" transform="translate(0 0)">
        <g id="Grupo_81053" data-name="Grupo 81053" transform="translate(2.371 0)" style="mix-blend-mode: overlay;isolation: isolate">
          <path id="Trazado_114995" data-name="Trazado 114995" d="M51.237,53.8l8.2-33.442L0,0Z" transform="translate(1 1)" fill="#3c384f"/>
          <path id="Trazado_114996" data-name="Trazado 114996" d="M1,0A1,1,0,0,0,.276,1.689L51.512,55.494a1,1,0,0,0,1.695-.451l8.2-33.443a1,1,0,0,0-.647-1.184L1.324.054A.988.988,0,0,0,1,0ZM51.7,52.791,4.543,3.271l54.7,18.741Z" transform="translate(0 0)" fill="#3c384f"/>
          <path id="Trazado_114997" data-name="Trazado 114997" d="M57.391,48.778,0,0l79.517,32.57Z" transform="translate(1 1)" fill="#3c384f"/>
          <path id="Trazado_114998" data-name="Trazado 114998" d="M1,0A1,1,0,0,0,.352,1.762L57.743,50.54a1,1,0,0,0,1.239.045L81.108,34.377a1,1,0,0,0-.212-1.732L1.379.075A.992.992,0,0,0,1,0ZM58.437,48.505l-52-44.2L78.485,33.819Z" transform="translate(0 0)" fill="#3c384f"/>
          <path id="Trazado_114999" data-name="Trazado 114999" d="M51.237,53.8,0,0,33.724,66.762Z" transform="translate(1 1)" fill="#3c384f"/>
          <path id="Trazado_115000" data-name="Trazado 115000" d="M1,0A1,1,0,0,0,.107,1.451L33.831,68.212a1,1,0,0,0,1.488.353L52.831,55.608a1,1,0,0,0,.129-1.493L1.724.31A1,1,0,0,0,1,0ZM35.082,66.252,4.946,6.594l45.785,48.08Z" transform="translate(0 0)" fill="#3c384f"/>
          <path id="Trazado_115001" data-name="Trazado 115001" d="M9.014,18.7Q4.8,9.982.133,1.5C-.488.375,1.238-.635,1.86.494q4.67,8.477,8.881,17.193C11.3,18.841,9.575,19.856,9.014,18.7Z" transform="translate(21.704 35.774)" fill="#3c384f"/>
          <path id="Trazado_115002" data-name="Trazado 115002" d="M2.982,3.4a1.018,1.018,0,0,1-.46.6,1.008,1.008,0,0,1-.77.1.987.987,0,0,1-.6-.46Q.644,2.573.135,1.507a1.07,1.07,0,0,1-.1-.77,1.018,1.018,0,0,1,.46-.6,1.008,1.008,0,0,1,.77-.1.983.983,0,0,1,.6.46q.51,1.065,1.019,2.131A1.069,1.069,0,0,1,2.982,3.4Z" transform="translate(25.933 37.218)" fill="#3c384f"/>
          <path id="Trazado_115003" data-name="Trazado 115003" d="M19.924,10.45Q10.177,6.238.518,1.827C-.651,1.293.364-.431,1.527.1q9.658,4.411,19.406,8.623C22.112,9.232,21.094,10.956,19.924,10.45Z" transform="translate(45.432 22.769)" fill="#3c384f"/>
        </g>
        <g id="Grupo_81058" data-name="Grupo 81058" transform="translate(0 2.371)">
          <g id="Grupo_81057" data-name="Grupo 81057">
            <g id="Grupo_81054" data-name="Grupo 81054" transform="translate(0 0)">
              <path id="Trazado_115004" data-name="Trazado 115004" d="M51.237,53.8l8.2-33.442L0,0Z" transform="translate(1 1)" fill="#fff"/>
              <path id="Trazado_115005" data-name="Trazado 115005" d="M1,0A1,1,0,0,0,.276,1.69l51.237,53.8a1,1,0,0,0,1.7-.451l8.2-33.442a1,1,0,0,0-.647-1.184L1.325.054A1.016,1.016,0,0,0,1,0ZM51.7,52.792,4.544,3.271l54.7,18.741Z" transform="translate(0 0)"/>
            </g>
            <g id="Grupo_81055" data-name="Grupo 81055" transform="translate(0 0)">
              <path id="Trazado_115006" data-name="Trazado 115006" d="M57.391,48.778,0,0l79.517,32.57Z" transform="translate(1 1)" fill="#fff"/>
              <path id="Trazado_115007" data-name="Trazado 115007" d="M1,0A1,1,0,0,0,.353,1.762L57.744,50.541a1,1,0,0,0,1.238.044L81.108,34.378a1,1,0,0,0-.212-1.732L1.379.075A.988.988,0,0,0,1,0ZM58.437,48.505l-52-44.2L78.486,33.82Z" transform="translate(0 0)"/>
            </g>
            <g id="Grupo_81056" data-name="Grupo 81056" transform="translate(0 0)">
              <path id="Trazado_115008" data-name="Trazado 115008" d="M51.237,53.8,0,0,33.724,66.762Z" transform="translate(1 1)" fill="#fff"/>
              <path id="Trazado_115009" data-name="Trazado 115009" d="M1,0A1,1,0,0,0,.108,1.451L33.832,68.212a1,1,0,0,0,1.487.353L52.832,55.609a1,1,0,0,0,.129-1.494L1.725.311A1,1,0,0,0,1,0ZM35.082,66.253,4.947,6.594l45.785,48.08Z"/>
            </g>
            <path id="Trazado_115010" data-name="Trazado 115010" d="M9.014,18.7Q4.8,9.983.133,1.5C-.489.375,1.238-.635,1.86.494Q6.53,8.97,10.741,17.687C11.3,18.841,9.574,19.857,9.014,18.7Z" transform="translate(21.704 35.774)"/>
            <path id="Trazado_115011" data-name="Trazado 115011" d="M2.982,3.4a1.02,1.02,0,0,1-.46.6,1.01,1.01,0,0,1-.771.1.983.983,0,0,1-.6-.459Q.644,2.573.135,1.507a1.069,1.069,0,0,1-.1-.77,1.021,1.021,0,0,1,.459-.6,1.01,1.01,0,0,1,.771-.1.988.988,0,0,1,.6.46l1.02,2.131A1.077,1.077,0,0,1,2.982,3.4Z" transform="translate(25.933 37.218)"/>
            <path id="Trazado_115012" data-name="Trazado 115012" d="M19.925,10.45Q10.178,6.239.519,1.827C-.651,1.293.365-.431,1.528.1q9.658,4.41,19.406,8.623C22.112,9.233,21.095,10.956,19.925,10.45Z" transform="translate(45.432 22.769)"/>
          </g>
        </g>
      </g>
      <g id="Grupo_81063" data-name="Grupo 81063" transform="translate(58.302 56.359)">
        <g id="Grupo_81060" data-name="Grupo 81060" transform="translate(0 0)">
          <path id="Trazado_115013" data-name="Trazado 115013" d="M1,0A1,1,0,0,0,.247,1.659,101.136,101.136,0,0,0,8.755,10.28a1,1,0,0,0,1.337-1.487A99.055,99.055,0,0,1,1.753.342,1,1,0,0,0,1,0ZM17.176,14.847a1,1,0,0,0-.593,1.805c2.159,1.59,4.407,3.114,6.683,4.532a1,1,0,0,0,1.058-1.7c-2.232-1.39-4.438-2.885-6.556-4.444A1,1,0,0,0,17.176,14.847ZM132.1,19.26a.991.991,0,0,0-.53.153q-.909.569-1.828,1.119a1,1,0,0,0,1.026,1.717q.938-.561,1.865-1.142a1,1,0,0,0-.533-1.847ZM34.323,25.081a1,1,0,0,0-.428,1.9c3.036,1.437,6.172,2.74,9.321,3.872a1,1,0,1,0,.677-1.881c-3.089-1.112-6.165-2.39-9.142-3.8A.988.988,0,0,0,34.323,25.081Zm87.1,0a1,1,0,0,0-.424.1,101.855,101.855,0,0,1-11.029,4.406,1,1,0,0,0,.633,1.9,103.855,103.855,0,0,0,11.246-4.493,1,1,0,0,0-.426-1.906ZM51.18,31.327a1,1,0,0,0-.263,1.964,100.855,100.855,0,0,0,11.854,2.492,1,1,0,0,0,.292-1.979,99.016,99.016,0,0,1-11.619-2.441A.965.965,0,0,0,51.18,31.327Zm51.432.441a.963.963,0,0,0-.243.03c-3.193.8-6.46,1.448-9.709,1.934a1,1,0,0,0,.3,1.978c3.312-.5,6.642-1.159,9.9-1.972a1,1,0,0,0-.241-1.97ZM72.865,34.754a1,1,0,0,0-.045,2c2.674.123,5.39.142,8.076.054a1,1,0,1,0-.065-2c-2.635.086-5.3.068-7.919-.053Z" transform="translate(0 0)"/>
        </g>
      </g>
    </g>
    <g id="Grupo_983321" data-name="Grupo 983321" transform="translate(626.458 -99.65)">
      <path id="Trazado_185916" data-name="Trazado 185916" d="M397,322.823c2.309.179,4.362.5,6.407.452a17.5,17.5,0,0,0,6.306-1.049,15.036,15.036,0,0,1-5.484-4.473c-.419.3-.789.57-1.156.839a20.5,20.5,0,0,1-8.627,3.905,8.254,8.254,0,0,1-9.509-6.574,14.2,14.2,0,0,1,2-9.3c.138-.25.3-.488.445-.733s.285-.489.465-.8c-.649-.988-1.332-1.955-1.94-2.968a15.406,15.406,0,0,1-2.416-5.9,4.979,4.979,0,0,1,3.388-5.734c.354-.135.71-.264,1.093-.407a21.536,21.536,0,0,1,5.02-10.424,20.572,20.572,0,0,1,16.175-7.475,7.247,7.247,0,0,1,3.548.946c2.362,1.337,3.436,4.049,2.863,7.2-.1.552-.243,1.1-.426,1.914.468-.382.753-.586,1-.826a8.909,8.909,0,0,1,5.173-2.527,7.035,7.035,0,0,1,3.337.453,24.387,24.387,0,0,0,4.673,1.125,3.565,3.565,0,0,0,2.656-.426,14.117,14.117,0,0,1,8.442-1.455,18.646,18.646,0,0,1,3.358.6c5.684,1.656,8.789,5.631,9.062,11.743.054,1.218-.115,2.447-.186,3.744.638.087,1.242.157,1.842.252,5.3.85,6.724,4.537,6.907,7.992.367,6.891-2.6,12.068-8.591,15.439a27.877,27.877,0,0,1-12.838,3.434,52.238,52.238,0,0,1-11.353-1.006,2.47,2.47,0,0,0-1.234.064c-2.449.895-4.882,1.837-7.535,2.846a12.027,12.027,0,0,0,1.255,1.2,18.53,18.53,0,0,0,13.348,3.454,13.916,13.916,0,0,1,8.093,1.076c.208.1.4.235.789.462a22.569,22.569,0,0,1-14.478,2.326,18.952,18.952,0,0,1-12.5-7.484c-2.437.279-4.844.524-7.241.839a22.943,22.943,0,0,1-8.219-.4A6.686,6.686,0,0,1,397,322.823Zm41.357-4.3.055.3c.978-.1,1.955-.214,2.934-.287a24.8,24.8,0,0,0,10.552-3.21,13.884,13.884,0,0,0,4.982-4.621,10.749,10.749,0,0,0,1.744-8.434c-.744-3.208-2.806-4.541-6.011-3.929a1.816,1.816,0,0,0-1.526,1.1,45.134,45.134,0,0,1-5.262,8.976,4.8,4.8,0,0,0-.629,1.266A15.363,15.363,0,0,1,438.362,318.525Zm-39.876-27.39a24.91,24.91,0,0,1,3.9-2.366,26.642,26.642,0,0,0,5.123-2.734,8.821,8.821,0,0,1,1.1-.664c2.454-1.141,3.4-3.4,4.029-5.749a3.13,3.13,0,0,0-2.739-4.156,9.829,9.829,0,0,0-2.973.148c-7.213,1.591-12.168,5.94-15.179,12.6a11.948,11.948,0,0,0-.449,1.439Zm47.735,7.325c1.7-1.166,3.07-2.4,3.185-4.528a40.495,40.495,0,0,0,.216-4.391,7.448,7.448,0,0,0-3.3-5.726c-2.7-1.991-5.73-2.066-8.855-1.667a15.35,15.35,0,0,0-1.926.508C443.33,289.477,444.13,290.661,446.221,298.46Zm-44.058,16.5c-.464-.785-.888-1.417-1.224-2.092a1.8,1.8,0,0,0-1.7-1.076,13.251,13.251,0,0,1-7.775-3.187l-1.285-.989c-1.713,2.332-2.685,4.755-2.17,7.542a4.043,4.043,0,0,0,4.3,3.7C396.116,318.89,399.162,317.243,402.163,314.956Zm22.1-24.534c4.312,2.97,6.341,7.214,7.463,12.129a15.891,15.891,0,0,0-3.031-16.237A8.21,8.21,0,0,0,424.259,290.421ZM413.547,306.76l-6.816,8.657c.784.805,1.564,1.623,2.363,2.422a1.026,1.026,0,0,0,1.626-.055,19.837,19.837,0,0,0,1.9-2.3c1.12-1.648,2.165-3.346,3.232-5.029a1.47,1.47,0,0,0,.1-.429Zm14.758-2.547c-.043-4.1-2.567-8.915-5.189-10.221-.3,2.289-1.08,4.623,1.477,6.227a3.706,3.706,0,0,1,.732.867c.571.7,1.12,1.418,1.72,2.091A12.054,12.054,0,0,0,428.3,304.213ZM393.2,299.527a10.073,10.073,0,0,1-4.7-5.232c-1.51.714-1.893,1.258-1.566,2.279a17.158,17.158,0,0,0,3.131,5.635Zm26.057-7.18a4.372,4.372,0,0,0-3.533,1.506.922.922,0,0,0-.265.631,15.519,15.519,0,0,0,.556,4.461l3.243-1.034Zm6.034-8.6-.074-.318c-1.614.3-3.222.641-4.844.892a3.842,3.842,0,0,0-3.331,3.246l.756,1.183h2.652A11.081,11.081,0,0,1,425.289,283.749ZM411.777,290.6c-3.039-.384-4.858,1.489-6.959,3.251,1.669.583,2.851,1.861,4.565,1.746.655-1.016,1.211-2.01,1.9-2.9A2.217,2.217,0,0,0,411.777,290.6Zm24.86,14.809c.719-.573,1.461-1.085,2.106-1.7a2.246,2.246,0,0,0,.643-2.607,26.65,26.65,0,0,0-1.517-3.045,3.09,3.09,0,0,0-1.416-1.485,20.289,20.289,0,0,1-1.044,8.068Zm-44.1-.556c1.8,1.97,4.46,3.376,5.824,3.111l-1.8-6.038A13.87,13.87,0,0,0,392.535,304.858Zm9.492,2.552a8.018,8.018,0,0,0,4-4.835l-5.853-.417A26.027,26.027,0,0,0,402.027,307.409Zm26.665,8.225c.753.043,1.381.271,1.8.068a10.424,10.424,0,0,0,4.363-3.583,10.147,10.147,0,0,0,.706-1.635c-.847-.157-1.493-.325-2.148-.375a1.116,1.116,0,0,0-.848.33C431.32,312.054,430.12,313.705,428.692,315.634Zm-36.971-22.119c.766,1.885,2.993,3.649,4.574,3.663.16-.911.322-1.827.494-2.8C395.08,293.913,393.505,293.263,391.721,293.515Zm13.116,18.966c2.286-3.048,4.412-5.886,6.543-8.721a1.071,1.071,0,0,0-.156-1.524c-1.011,1.7-1.954,3.393-3,5.019a12.039,12.039,0,0,1-4.288,3.9Zm13.132,4.689a4.048,4.048,0,0,0,4.043-1.37l-2.465-1.882A5.741,5.741,0,0,0,417.97,317.17Zm19.377-2.358a8.74,8.74,0,0,0,3.488-3.43l-.891-1.611a1.145,1.145,0,0,0-1.18.985C438.383,312.067,437.871,313.339,437.347,314.813Zm-3.42-27.092c.938,2.758,3.216,4.513,4.9,6.714A13.5,13.5,0,0,0,433.926,287.721Zm-14.264,19.007,1.022-.787-2.07-.984-.14.191Z"/>
    </g>
  </g>
</svg>
