<svg xmlns="http://www.w3.org/2000/svg" xmlns:xlink="http://www.w3.org/1999/xlink" width="193.271" height="163.608" viewBox="0 0 193.271 163.608">
  <defs>
    <clipPath id="clip-path">
      <rect id="Rectángulo_338394" data-name="Rectángulo 338394" width="81.722" height="111.828" fill="none"/>
    </clipPath>
  </defs>
  <g id="Grupo_983338" data-name="Grupo 983338" transform="translate(-1134.656 -377.279)">
    <g id="Grupo_165711" data-name="Grupo 165711" transform="translate(1134.656 467.883)">
      <g id="Grupo_81065" data-name="Grupo 81065" transform="translate(2.349 2.349)" style="mix-blend-mode: overlay;isolation: isolate">
        <path id="Trazado_115015" data-name="Trazado 115015" d="M200.841,221.971c-4.774,4.885-9.707,9.59-14.735,14.213,2.174-4.915,4.517-9.751,6.581-14.717,2.339-5.63,5.059-13.3,2.109-19.21-6.722-13.461-23.714-.253-29.967,6.523-.666.722-1.3,1.476-1.946,2.221,2.234-5.471,4.246-11.094,3.715-17-.73-8.128-8.181-10.078-14.6-6.3-6.888,4.055-12.421,11.071-17.04,17.443-3.924,5.412,5.054,10.564,8.947,5.23a70.384,70.384,0,0,1,6.994-8.181q-.557,1.021-1.127,2.038a151.872,151.872,0,0,0-7.034,13.7c-3.916,9.035-9.707,21.545-4.781,31.049,2.483,4.79,8.305,5.276,12.689,3.327,5.893-2.62,9.974-8.4,13.908-13.3,4.107-5.111,7.725-10.538,11.526-15.87a77.232,77.232,0,0,1,4.995-6.538c.042-.048.085-.091.127-.138l-.046.144c-1.01,3.139-2.308,6.151-3.623,9.171-2.445,5.619-5.6,11.533-6.5,17.647-.792,5.406,1.4,11.465,7.9,11.073,6.112-.369,11.011-6.256,15.1-10.188,4.948-4.762,9.808-9.618,14.669-14.469C213.785,224.774,205.856,216.842,200.841,221.971Z" transform="translate(-132.989 -184.85)" fill="#3c384f"/>
        <path id="Trazado_115016" data-name="Trazado 115016" d="M178.352,255.5a7.767,7.767,0,0,1-5.916-2.455c-2.059-2.242-2.949-5.895-2.381-9.77.74-5.052,2.944-9.892,5.074-14.57.51-1.121,1.016-2.23,1.493-3.328.453-1.041.929-2.135,1.4-3.267q-.434.6-.859,1.2l-.281.4c-.988,1.385-1.963,2.776-2.937,4.168-2.736,3.9-5.565,7.942-8.624,11.748-.447.556-.9,1.124-1.35,1.7-3.509,4.437-7.485,9.466-12.929,11.885-4.853,2.155-11.209,1.552-13.97-3.776-4.961-9.571.4-21.886,4.307-30.878l.444-1.023c1.15-2.656,2.44-5.25,3.809-7.831q-.476.62-.933,1.248a6.6,6.6,0,0,1-9.308,1.294,5.229,5.229,0,0,1-1.243-7.69c4.931-6.8,10.445-13.657,17.341-17.715,3.827-2.252,8.015-2.618,11.206-.978,2.81,1.444,4.543,4.3,4.879,8.045a30.347,30.347,0,0,1-1.928,12.6c5.088-4.971,14.5-12.021,22.047-10.953,3.468.492,6.152,2.6,7.978,6.254,3,6.014.634,13.5-2.081,20.033-1.292,3.109-2.713,6.211-4.087,9.211l-.486,1.061c4.089-3.835,7.747-7.407,11.1-10.841h0a5.954,5.954,0,0,1,5.931-1.762,7.3,7.3,0,0,1,5.051,5.015,6.007,6.007,0,0,1-1.706,6.008l-.553.551c-4.6,4.594-9.361,9.344-14.129,13.93-.588.566-1.191,1.171-1.813,1.8-3.7,3.711-8.308,8.33-13.911,8.668C178.777,255.49,178.563,255.5,178.352,255.5Zm2.843-39.991a.936.936,0,0,1,.48.128.964.964,0,0,1,.468,1.125l-.047.145c-1.058,3.292-2.438,6.463-3.656,9.261-.483,1.109-.993,2.228-1.507,3.358-2.073,4.554-4.217,9.262-4.917,14.037-.475,3.242.246,6.362,1.88,8.142a5.948,5.948,0,0,0,4.978,1.8c4.851-.293,8.983-4.435,12.628-8.09.632-.633,1.245-1.249,1.842-1.823,4.755-4.575,9.508-9.318,14.1-13.906l.552-.551a4.03,4.03,0,0,0,1.194-4.086,5.334,5.334,0,0,0-3.637-3.616,3.97,3.97,0,0,0-4.015,1.228h0c-4.337,4.436-9.169,9.1-14.774,14.248a.991.991,0,0,1-1.576-1.131c.821-1.858,1.668-3.7,2.514-5.55,1.366-2.984,2.78-6.07,4.059-9.146,2.543-6.117,4.786-13.086,2.138-18.386-1.539-3.084-3.66-4.777-6.485-5.177-7.038-1-16.935,6.585-21.867,11.93-.526.569-1.032,1.159-1.54,1.75l-.383.447a.991.991,0,0,1-1.668-1.022c2.127-5.212,4.161-10.782,3.644-16.543-.277-3.086-1.6-5.32-3.811-6.458-2.584-1.328-6.059-.982-9.3.923-6.581,3.875-11.936,10.543-16.741,17.171a3.285,3.285,0,0,0,.8,4.925,4.584,4.584,0,0,0,6.542-.86,71.756,71.756,0,0,1,7.092-8.3.991.991,0,0,1,1.572,1.174q-.56,1.026-1.133,2.047a151.6,151.6,0,0,0-6.988,13.614l-.445,1.025c-3.753,8.627-8.892,20.443-4.366,29.175,2.2,4.242,7.4,4.656,11.407,2.877,5-2.22,8.648-6.838,12.178-11.3.457-.577.91-1.149,1.36-1.709,3.018-3.756,5.827-7.766,8.545-11.644q1.465-2.093,2.946-4.18l.281-.394a73.725,73.725,0,0,1,4.78-6.227l.088-.1A1.082,1.082,0,0,1,181.194,215.5Zm19.638,6.457h0Z" transform="translate(-132.979 -184.841)" fill="#3c384f"/>
        <path id="Trazado_115017" data-name="Trazado 115017" d="M142.754,223.269c-3.65,7.336-5.71,15.937-2.5,23.822.474,1.166,2.391.656,1.91-.527-3.01-7.4-1.13-15.395,2.3-22.295C145.032,223.132,143.323,222.126,142.754,223.269Z" transform="translate(-133.031 -185.188)" fill="#3c384f"/>
        <path id="Trazado_115018" data-name="Trazado 115018" d="M145.8,244.331c-.017,0-.033-.007-.049-.01-.028-.053-.053-.112-.061-.128l0-.006c0-.008,0,0,0-.014-.128-.443-.219-.891-.316-1.342q-.336-1.568-.673-3.136a1,1,0,0,0-1.219-.692,1.014,1.014,0,0,0-.693,1.219q.38,1.773.762,3.547c.211.984.549,2.275,1.728,2.472a1.015,1.015,0,0,0,1.219-.693A1,1,0,0,0,145.8,244.331Z" transform="translate(-133.069 -185.336)" fill="#3c384f"/>
        <path id="Trazado_115019" data-name="Trazado 115019" d="M189.829,201.722c-1.125-.6-2.126,1.11-1,1.711,1.556.83,2.03,2.521,2.092,4.181a28.657,28.657,0,0,1-.447,5.68,37.7,37.7,0,0,1-3.439,10.644c-.566,1.138,1.142,2.143,1.711,1a39.656,39.656,0,0,0,3.846-12.535C193.059,208.832,193.618,203.744,189.829,201.722Z" transform="translate(-133.474 -184.994)" fill="#3c384f"/>
      </g>
      <g id="Grupo_81068" data-name="Grupo 81068" transform="translate(0 0)">
        <g id="Grupo_81067" data-name="Grupo 81067">
          <g id="Grupo_81066" data-name="Grupo 81066">
            <path id="Trazado_115020" data-name="Trazado 115020" d="M198.47,219.6c-4.774,4.885-9.707,9.59-14.736,14.212,2.174-4.914,4.518-9.751,6.582-14.716,2.339-5.63,5.058-13.3,2.109-19.21-6.722-13.461-23.714-.254-29.967,6.523-.667.721-1.3,1.475-1.946,2.221,2.233-5.471,4.245-11.093,3.715-17-.73-8.128-8.181-10.078-14.6-6.3-6.889,4.056-12.421,11.072-17.041,17.444-3.924,5.412,5.055,10.564,8.948,5.23a70.467,70.467,0,0,1,6.993-8.182q-.557,1.021-1.126,2.039a152,152,0,0,0-7.034,13.7c-3.917,9.036-9.707,21.545-4.781,31.05,2.483,4.79,8.3,5.276,12.689,3.327,5.893-2.62,9.974-8.4,13.908-13.3,4.107-5.111,7.724-10.538,11.525-15.87a77.839,77.839,0,0,1,4.995-6.539c.042-.047.086-.09.128-.138l-.046.145c-1.01,3.139-2.309,6.151-3.623,9.171-2.446,5.618-5.6,11.532-6.5,17.647-.793,5.406,1.4,11.465,7.9,11.073,6.111-.369,11.01-6.256,15.1-10.188,4.949-4.762,9.809-9.619,14.67-14.47C211.413,222.4,203.484,214.471,198.47,219.6Z" transform="translate(-130.618 -182.479)" fill="#3c3fa7"/>
            <path id="Trazado_115021" data-name="Trazado 115021" d="M175.98,253.124a7.764,7.764,0,0,1-5.915-2.454c-2.059-2.242-2.949-5.895-2.381-9.771.739-5.051,2.943-9.891,5.074-14.57.509-1.121,1.015-2.229,1.493-3.327.453-1.041.929-2.135,1.4-3.267-.289.4-.576.8-.859,1.2l-.281.394c-.988,1.385-1.963,2.777-2.938,4.167-2.735,3.9-5.564,7.943-8.623,11.748-.447.557-.9,1.125-1.35,1.7-3.509,4.436-7.485,9.465-12.928,11.885-4.854,2.155-11.209,1.551-13.97-3.777-4.961-9.57.4-21.885,4.306-30.878l.445-1.022c1.15-2.656,2.44-5.25,3.808-7.831q-.474.62-.933,1.247a6.593,6.593,0,0,1-9.307,1.3,5.229,5.229,0,0,1-1.243-7.69c4.931-6.8,10.445-13.657,17.34-17.716,3.828-2.251,8.015-2.617,11.207-.977,2.81,1.444,4.542,4.3,4.879,8.044a30.329,30.329,0,0,1-1.929,12.6c5.089-4.97,14.5-12.02,22.047-10.952,3.468.492,6.153,2.6,7.979,6.254,3,6.014.633,13.5-2.081,20.033-1.292,3.108-2.713,6.211-4.087,9.21l-.486,1.061c4.089-3.834,7.747-7.406,11.1-10.84h0a5.953,5.953,0,0,1,5.931-1.761,7.3,7.3,0,0,1,5.05,5.015,6,6,0,0,1-1.705,6.008l-.553.552c-4.6,4.594-9.361,9.343-14.129,13.93-.588.566-1.191,1.171-1.814,1.8-3.7,3.711-8.307,8.33-13.91,8.668C176.4,253.118,176.192,253.124,175.98,253.124Zm2.843-39.991a.934.934,0,0,1,.48.129.963.963,0,0,1,.469,1.125l-.047.145c-1.058,3.291-2.438,6.463-3.656,9.261-.483,1.108-.993,2.227-1.507,3.358-2.074,4.554-4.218,9.262-4.918,14.036-.475,3.242.246,6.362,1.881,8.143a5.95,5.95,0,0,0,4.978,1.8c4.851-.293,8.983-4.435,12.627-8.09.632-.634,1.246-1.249,1.843-1.823,4.755-4.575,9.508-9.318,14.1-13.906l.552-.552a4.028,4.028,0,0,0,1.193-4.086,5.331,5.331,0,0,0-3.637-3.615,3.969,3.969,0,0,0-4.014,1.228h0c-4.337,4.436-9.169,9.1-14.774,14.249a.991.991,0,0,1-1.576-1.131c.821-1.858,1.668-3.7,2.513-5.551,1.367-2.983,2.78-6.069,4.059-9.146,2.542-6.117,4.786-13.086,2.138-18.387-1.54-3.083-3.661-4.776-6.485-5.177-7.038-1-16.936,6.586-21.868,11.93-.525.57-1.031,1.16-1.539,1.75l-.384.448a.991.991,0,0,1-1.668-1.023c2.128-5.211,4.163-10.782,3.645-16.542-.277-3.087-1.6-5.321-3.811-6.459-2.585-1.327-6.059-.981-9.3.923-6.582,3.874-11.936,10.543-16.741,17.171a3.284,3.284,0,0,0,.8,4.923,4.583,4.583,0,0,0,6.542-.859,71.577,71.577,0,0,1,7.092-8.3.991.991,0,0,1,1.571,1.173q-.56,1.027-1.132,2.048a151.607,151.607,0,0,0-6.989,13.614l-.445,1.025c-3.752,8.627-8.891,20.443-4.365,29.174,2.2,4.243,7.4,4.657,11.407,2.878,5-2.22,8.648-6.839,12.178-11.3q.685-.867,1.359-1.71c3.019-3.755,5.828-7.765,8.546-11.643.977-1.4,1.955-2.791,2.946-4.181l.281-.393a73.751,73.751,0,0,1,4.779-6.226l.089-.1A1.081,1.081,0,0,1,178.822,213.133Zm19.638,6.458h0Z" transform="translate(-130.608 -182.47)"/>
          </g>
          <path id="Trazado_115022" data-name="Trazado 115022" d="M140.383,220.9c-3.651,7.336-5.71,15.936-2.5,23.822.475,1.165,2.392.656,1.911-.527-3.011-7.4-1.131-15.395,2.3-22.3C142.66,220.76,140.952,219.755,140.383,220.9Z" transform="translate(-130.66 -182.817)"/>
          <path id="Trazado_115023" data-name="Trazado 115023" d="M143.43,241.96c-.017,0-.033-.007-.049-.01-.028-.054-.053-.112-.062-.128l0-.006c0-.008,0,0,0-.015-.128-.442-.22-.891-.316-1.341q-.337-1.568-.673-3.136a1,1,0,0,0-1.22-.692,1.014,1.014,0,0,0-.692,1.219l.761,3.546c.212.985.55,2.276,1.729,2.473a1.016,1.016,0,0,0,1.219-.693A1,1,0,0,0,143.43,241.96Z" transform="translate(-130.698 -182.965)"/>
          <path id="Trazado_115024" data-name="Trazado 115024" d="M187.458,199.351c-1.125-.6-2.127,1.11-1,1.711,1.556.83,2.029,2.521,2.092,4.18a28.665,28.665,0,0,1-.447,5.682,37.7,37.7,0,0,1-3.439,10.644c-.567,1.138,1.142,2.143,1.711,1a39.7,39.7,0,0,0,3.846-12.535C190.688,206.46,191.247,201.372,187.458,199.351Z" transform="translate(-131.103 -182.623)"/>
        </g>
      </g>
    </g>
    <g id="Grupo_983320" data-name="Grupo 983320" transform="translate(1247.99 377.279) rotate(12)">
      <g id="Grupo_982725" data-name="Grupo 982725" clip-path="url(#clip-path)">
        <path id="Trazado_205596" data-name="Trazado 205596" d="M64.163,104.5a7.519,7.519,0,0,0,0,3.945,1.634,1.634,0,0,1-.147,1.356c-.543,1.028-1.222,2-.1,3.179a1.512,1.512,0,0,1-.291,2.034,5.2,5.2,0,0,0-1.468,3.366c-.34,1.8-1.733,2.589-3.348,3.105-.657.21-1.344.288-1.424,1.345-.158,2.083-1.643,2.969-3.546,3.161a3.721,3.721,0,0,1-4.213-2.377,2.885,2.885,0,0,0-2.185-1.921c-2.516-.751-3.229-2.424-2.207-4.717.142-.318.384-.534.057-.843-2.392-2.261-1.68-5.242-1.606-7.938.117-4.294.373-8.557-.4-12.828-.828-4.554-3.254-8.187-6.377-11.4A38.05,38.05,0,0,1,26.41,64.686,31.488,31.488,0,0,1,55.73,26.794c14.531-.714,28.1,11.294,29.1,25.759q.111,1.606.224,3.211a2.184,2.184,0,0,0-.174.558c-.339,10.454-3.886,19.057-13.8,24.006a10.161,10.161,0,0,0-.986.686,11.711,11.711,0,0,0-5.063,8.1,76.467,76.467,0,0,0-.864,15.393M36.753,79.475l-.043-.054c-.234.384.177.462.317.67,5.094,5.035,9.045,10.669,9.5,18.131a13.508,13.508,0,0,0,.191,3.605q-.01,1.166-.019,2.332c-.049,1.266-.738,2.573.243,3.772,3.772-.009,3.212.415,2.968-3a113.317,113.317,0,0,0-6.964-32.095,2.77,2.77,0,0,0-2.823-2.178c-.656-.019-1.77.221-1.665-.879.09-.936,1.091-.494,1.676-.472A108.006,108.006,0,0,0,61,68.078a17.364,17.364,0,0,0,5.769-1.653c.61-.333,1.585-.826.622-1.611-1.068-.87-2.39-1.77-3.834-1.232-4.661,1.736-9.522,2.18-14.413,2.45a28.933,28.933,0,0,1-9.589-.778c-1.414-.4-2.94-.954-2.951-2.821s1.459-2.38,2.908-2.833a25.848,25.848,0,0,1,9.36-.912A103.727,103.727,0,0,1,62.4,60.62c1.791.348,3.937-1.337,3.492-2.735-.488-1.533-3.6-3.33-5.206-2.972a67.259,67.259,0,0,1-18.621,1.2,6.963,6.963,0,0,1-4.113-1.419,2.175,2.175,0,0,1,.122-3.714A9.642,9.642,0,0,1,41.8,49.531c6.455-1.237,12.689-.061,18.806,1.9,1.81.579,2.824-.259,3.8-1.39A2.841,2.841,0,0,0,64.73,46.5c-.857-1.479-2.045-1.482-3.586-1.181-5.9,1.151-11.826,1.871-17.794.342-1.731-.443-3-1.268-2.988-3.22.015-1.907,1.344-2.737,2.987-2.956,6.03-.8,12.133-1.237,17.791,1.431,2.476,1.167,4.307.66,6.343-.465a15.747,15.747,0,0,0,1.351-.871c.84-.582,1.763-.986,2.435.073.648,1.022-.041,1.786-.9,2.313A20.6,20.6,0,0,1,67.547,43.5c-.889.37-1.276.562-.626,1.643a5.153,5.153,0,0,1-.861,6.938c-1.042,1.014-1,1.435.152,2.316,2.358,1.807,3.013,4.037,1.65,5.887-.979,1.329-.559,1.691.6,2.431,2.292,1.462,2.192,3.868-.086,5.372a9.616,9.616,0,0,1-3.343,1.329,1.908,1.908,0,0,0-1.624,1.52,125.836,125.836,0,0,0-4.837,35.152c.012,1.556.752,1.544,1.853,1.5,1.194-.043,1.982-.118,1.859-1.787-.226-3.073-.108-6.171-.151-9.258-.125-8.948,2.519-16.321,11.172-20.575a13.635,13.635,0,0,0,5.914-6.424,30.081,30.081,0,0,0,3.005-17.4c-1.043-8.59-5.566-14.909-13.083-19.125a23.032,23.032,0,0,0-16.364-3.254c-15.056,2.58-25.171,15.163-24.341,30.423.364,6.708,2.441,12.939,7.1,18.053l-.014-.016c.121.425.233.859.812.843l-.026-.041c-.067.359.07.515.439.444m24.4,33.921a52.34,52.34,0,0,1-14.276.367c1.837,2.017,10.318,1.982,14.674.1.088-.145.284-.363.244-.423-.166-.247-.417-.158-.643-.044M61.684,70.2c-.732.04-1.331.031-1.918.111a87.985,87.985,0,0,1-12.828.8c-2.47-.027-2.5-.009-1.625,2.4a107.8,107.8,0,0,1,6.62,32.521c.064,1.515.733,1.821,2.031,1.648,1.145-.153,2.568.442,2.466-1.756a85.166,85.166,0,0,1,.644-13.64A115.224,115.224,0,0,1,61.684,70.2M39.352,62.465c6.288,1.956,12.523,1.164,18.754-.079-6.262-1.073-12.523-2.543-18.754.079m20.406,54.525c-4.094.489-8.18,1.363-12.309.394-.4-.1-.608.2-.755.506a.863.863,0,0,0,.207.924,2.58,2.58,0,0,0,1.568.826,17.541,17.541,0,0,0,9.509-.467c.965-.309,1.914-.755,1.779-2.184M40.284,52.959c5.042,1.176,10.1.81,15.166.028-5.03-1.473-10.071-2.139-15.166-.028M57.652,42.788a24.415,24.415,0,0,0-14.393-.194,30.854,30.854,0,0,0,14.393.194m3.7,66.447c-5.048,1.25-10.153.545-15.1,1.607a1.19,1.19,0,0,0,.728.45,53.657,53.657,0,0,0,12.58-.1c.963-.09,1.454-.81,1.788-1.955" transform="translate(-13.661 -14.196)" fill="#0c0e0e"/>
        <path id="Trazado_205597" data-name="Trazado 205597" d="M107.5,137.259a76.468,76.468,0,0,1,.864-15.393,11.715,11.715,0,0,1,5.062-8.1,10.372,10.372,0,0,1,.987-.686c9.916-4.949,13.464-13.552,13.8-24.006a2.2,2.2,0,0,1,.173-.558c.767,4.347-.221,8.508-1.5,12.589a30.113,30.113,0,0,1-11.308,15.457,14.1,14.1,0,0,0-5.991,12.063c-.013,3.017-.2,6.045-2.09,8.63" transform="translate(-56.996 -46.952)" fill="#fff"/>
        <path id="Trazado_205598" data-name="Trazado 205598" d="M17.317,42.357a17.439,17.439,0,0,1-6.669-2.764c-.548-.388-1.091-.86-.712-1.654.34-.71,1.039-.621,1.582-.463q3.353.975,6.663,2.1a1.377,1.377,0,0,1,.934,1.761c-.208.883-.846,1.121-1.8,1.022" transform="translate(-5.203 -19.82)" fill="#0c0e0e"/>
        <path id="Trazado_205599" data-name="Trazado 205599" d="M69.148,11.493c-.093.711-.13,1.388-.945,1.644a1.383,1.383,0,0,1-1.835-.784,17.867,17.867,0,0,1-1.317-6.629.809.809,0,0,1,.644-.895.955.955,0,0,1,1.175.514,40.172,40.172,0,0,1,2.278,6.15" transform="translate(-34.504 -2.542)" fill="#0c0e0e"/>
        <path id="Trazado_205600" data-name="Trazado 205600" d="M92.944,3.925a5.028,5.028,0,0,0,.126,2.59c.4.842.526,1.6-.5,1.959A1.844,1.844,0,0,1,90.2,7.494a4.553,4.553,0,0,1-.234-2.952c.2-1.183.376-2.374.666-3.536.121-.485.41-1.072,1.081-1,.614.066.878.532.936,1.127.091.932.2,1.861.295,2.792" transform="translate(-47.648 0)" fill="#0c0e0e"/>
        <path id="Trazado_205601" data-name="Trazado 205601" d="M7.075,70.973c-1.729-.265-3.785-.542-5.823-.917C.7,69.955-.069,69.722,0,68.977c.069-.7.787-.787,1.4-.888a28.416,28.416,0,0,1,6.222.052,1.386,1.386,0,0,1,1.487,1.536c-.061,1.031-.815,1.28-2.034,1.3" transform="translate(0 -36.029)" fill="#0c0e0e"/>
        <path id="Trazado_205602" data-name="Trazado 205602" d="M136.33,16a11.424,11.424,0,0,1-2.31,5.907c-.547.675-1.155,1.19-2.038.551-.834-.6-.728-1.364-.228-2.115,1.076-1.615,2.185-3.21,3.257-4.827.227-.343.415-.776.875-.678.65.139.443.713.443,1.162" transform="translate(-69.679 -7.865)" fill="#0c0e0e"/>
        <path id="Trazado_205603" data-name="Trazado 205603" d="M151.355,46.909c-1.14-.091-2.108.293-2.276-.735-.131-.8.71-1.06,1.327-1.277,1.382-.486,2.773-.955,4.186-1.337a1.2,1.2,0,0,1,1.671.95,1.271,1.271,0,0,1-1.024,1.668c-1.43.31-2.876.545-3.884.732" transform="translate(-79.066 -23.066)" fill="#0c0e0e"/>
        <path id="Trazado_205604" data-name="Trazado 205604" d="M162.4,79.41c.737,0,1.475-.013,2.211,0a1.249,1.249,0,0,1,1.368,1.386,1.2,1.2,0,0,1-1.28,1.264,14.092,14.092,0,0,1-5.429-1.283.667.667,0,0,1-.409-.806c.049-.4.365-.525.725-.528.938-.007,1.876,0,2.814,0V79.41" transform="translate(-84.254 -42.117)" fill="#0c0e0e"/>
        <path id="Trazado_205605" data-name="Trazado 205605" d="M51.931,102.533c-.453-7.466-4.4-13.1-9.5-18.134-.105-.223-.212-.447-.318-.67l.043.054-.439-.444.026.041c-.039-.5.013-1.1-.812-.843l.014.016c.342-1.85-1.421-2.722-1.939-4.176a47.026,47.026,0,0,1-3.034-14.155c-.3-8.545,1.855-16.191,8.191-22.224a24.311,24.311,0,0,1,22.7-6.536c2.6.516,5.012,1.711,7.683,1.867,7.517,4.216,12.04,10.534,13.083,19.125a30.08,30.08,0,0,1-3.005,17.4,13.633,13.633,0,0,1-5.914,6.424C70.059,84.529,67.415,91.9,67.54,100.85c.043,3.087-.076,6.185.151,9.258.123,1.668-.665,1.744-1.859,1.787-1.1.04-1.841.051-1.853-1.5A125.839,125.839,0,0,1,68.816,75.24a1.908,1.908,0,0,1,1.624-1.52,9.625,9.625,0,0,0,3.343-1.329c2.278-1.5,2.378-3.91.086-5.372-1.16-.74-1.58-1.1-.6-2.431,1.363-1.85.708-4.08-1.65-5.888-1.149-.88-1.195-1.3-.152-2.315a5.154,5.154,0,0,0,.861-6.939c-.65-1.081-.263-1.273.626-1.642a20.6,20.6,0,0,0,2.822-1.526c.86-.527,1.549-1.291.9-2.313-.672-1.059-1.6-.656-2.435-.073a15.863,15.863,0,0,1-1.351.871c-2.037,1.126-3.868,1.632-6.343.465-5.658-2.667-11.76-2.236-17.791-1.43-1.643.219-2.972,1.049-2.987,2.956-.016,1.952,1.257,2.776,2.988,3.22,5.968,1.529,11.9.809,17.794-.343,1.541-.3,2.729-.3,3.586,1.181a2.84,2.84,0,0,1-.324,3.536c-.979,1.131-1.993,1.969-3.8,1.39-6.117-1.959-12.35-3.135-18.806-1.9a9.637,9.637,0,0,0-3.723,1.446A2.176,2.176,0,0,0,43.358,59a6.963,6.963,0,0,0,4.113,1.419,67.264,67.264,0,0,0,18.622-1.2c1.61-.358,4.718,1.439,5.206,2.972.445,1.4-1.7,3.082-3.492,2.735A103.728,103.728,0,0,0,54.276,63a25.858,25.858,0,0,0-9.36.913c-1.449.453-2.919.968-2.908,2.833s1.537,2.418,2.951,2.821a28.933,28.933,0,0,0,9.589.778c4.891-.27,9.752-.715,14.413-2.45,1.444-.538,2.766.362,3.834,1.232.964.786-.012,1.278-.622,1.611A17.361,17.361,0,0,1,66.4,72.387a108.078,108.078,0,0,1-20.866,1.232c-.586-.023-1.587-.464-1.676.471-.105,1.1,1.009.86,1.665.879a2.77,2.77,0,0,1,2.823,2.178,113.317,113.317,0,0,1,6.964,32.094c.244,3.413.8,2.988-2.966,3q0-1.174,0-2.347c1.21-2.12.262-4.188-.149-6.269q-.135-.545-.271-1.09M42.825,47.191c-.635.2-.842.695-1.145,1.14C37.548,54.4,37.025,61.18,37.928,68.162a16.079,16.079,0,0,0,2.726,7.871c.429.569.942,1.027,1.7.7.782-.34.736-1.028.545-1.72a22.311,22.311,0,0,0-.663-2.309A29.418,29.418,0,0,1,40.648,58.1a36.3,36.3,0,0,1,2.482-9.458c.211-.517.5-1.145-.306-1.448" transform="translate(-19.066 -18.504)" fill="#fff"/>
        <path id="Trazado_205606" data-name="Trazado 205606" d="M83.182,119.267a115.224,115.224,0,0,0-4.609,22.082,85.167,85.167,0,0,0-.644,13.64c.1,2.2-1.321,1.6-2.467,1.756-1.3.173-1.967-.133-2.031-1.648a107.807,107.807,0,0,0-6.62-32.521c-.879-2.411-.845-2.429,1.625-2.4a87.988,87.988,0,0,0,12.828-.8c.587-.08,1.186-.071,1.918-.111" transform="translate(-35.159 -63.26)" fill="#fff"/>
        <path id="Trazado_205607" data-name="Trazado 205607" d="M54.709,101.128c6.231-2.622,12.492-1.151,18.754-.078-6.231,1.243-12.466,2.035-18.754.078" transform="translate(-29.018 -52.859)" fill="#fff"/>
        <path id="Trazado_205608" data-name="Trazado 205608" d="M83.333,218.9c.135,1.429-.814,1.874-1.779,2.184a17.537,17.537,0,0,1-9.509.467,2.58,2.58,0,0,1-1.568-.826.863.863,0,0,1-.208-.924c.147-.307.351-.6.756-.507,4.129.969,8.215.094,12.309-.394" transform="translate(-37.236 -116.107)" fill="#fff"/>
        <path id="Trazado_205609" data-name="Trazado 205609" d="M56.695,81.032c5.1-2.11,10.136-1.445,15.166.028-5.063.782-10.123,1.148-15.166-.028" transform="translate(-30.072 -42.268)" fill="#fff"/>
        <path id="Trazado_205610" data-name="Trazado 205610" d="M77.424,59.551a30.847,30.847,0,0,1-14.393-.194,24.415,24.415,0,0,1,14.393.194" transform="translate(-33.432 -30.959)" fill="#fff"/>
        <path id="Trazado_205611" data-name="Trazado 205611" d="M84.507,202.388c-.334,1.145-.825,1.865-1.788,1.955a53.657,53.657,0,0,1-12.58.1,1.19,1.19,0,0,1-.728-.45c4.943-1.062,10.048-.357,15.1-1.607" transform="translate(-36.816 -107.349)" fill="#fff"/>
        <path id="Trazado_205612" data-name="Trazado 205612" d="M85.405,211.714c-4.356,1.882-12.838,1.917-14.674-.1a52.321,52.321,0,0,0,14.276-.367l.4.467" transform="translate(-37.516 -112.048)" fill="#fff"/>
        <path id="Trazado_205613" data-name="Trazado 205613" d="M70.451,181.263c.411,2.081,1.359,4.149.151,6.27q-.123-.712-.25-1.426.009-1.166.019-2.33.04-1.255.08-2.514" transform="translate(-37.315 -96.144)" fill="#fff"/>
        <path id="Trazado_205614" data-name="Trazado 205614" d="M70.036,191.578q.126.714.25,1.426,0,1.173-.005,2.347c-.983-1.2-.293-2.507-.245-3.772" transform="translate(-36.999 -101.615)" fill="#0c0e0e"/>
        <path id="Trazado_205615" data-name="Trazado 205615" d="M70.22,180.03q-.04,1.258-.08,2.514a13.515,13.515,0,0,1-.191-3.605l.271,1.091" transform="translate(-37.084 -94.911)" fill="#0c0e0e"/>
        <path id="Trazado_205616" data-name="Trazado 205616" d="M46.565,136.291c.825-.254.773.338.812.843-.579.016-.691-.417-.812-.843" transform="translate(-24.699 -72.258)" fill="#fff"/>
        <path id="Trazado_205617" data-name="Trazado 205617" d="M49,138.9c.106.224.212.447.317.67-.141-.208-.552-.286-.317-.67" transform="translate(-25.954 -73.673)" fill="#fff"/>
        <path id="Trazado_205618" data-name="Trazado 205618" d="M48.222,138.067l.439.444c-.368.071-.506-.085-.439-.444" transform="translate(-25.569 -73.232)" fill="#fff"/>
        <path id="Trazado_205619" data-name="Trazado 205619" d="M101.131,211.118c.226-.115.477-.2.643.044.04.06-.156.278-.244.423l-.4-.467" transform="translate(-53.641 -111.919)" fill="#fff"/>
        <path id="Trazado_205620" data-name="Trazado 205620" d="M44.637,61.09c.806.3.517.931.306,1.448A36.3,36.3,0,0,0,42.461,72,29.418,29.418,0,0,0,44.043,86.6a22.31,22.31,0,0,1,.663,2.309c.192.691.238,1.38-.545,1.72-.754.327-1.266-.131-1.7-.7a16.079,16.079,0,0,1-2.726-7.871c-.9-6.982-.38-13.763,3.752-19.831.3-.445.51-.942,1.145-1.14" transform="translate(-20.879 -32.403)" fill="#0c0e0e"/>
      </g>
    </g>
  </g>
</svg>
