<svg xmlns="http://www.w3.org/2000/svg" xmlns:xlink="http://www.w3.org/1999/xlink" width="500" height="295" viewBox="0 0 500 295">
  <defs>
    <clipPath id="clip-path">
      <rect id="Rect치ngulo_338676" data-name="Rect치ngulo 338676" width="500" height="293.452" fill="none"/>
    </clipPath>
  </defs>
  <g id="Grupo_983217" data-name="Grupo 983217" transform="translate(-185 -1490)">
    <rect id="Rect치ngulo_338504" data-name="Rect치ngulo 338504" width="401" height="295" rx="25" transform="translate(240 1490)" fill="#fc5f65"/>
    <g id="Grupo_983216" data-name="Grupo 983216" transform="translate(185 1490.862)">
      <g id="Grupo_983215" data-name="Grupo 983215" clip-path="url(#clip-path)">
        <path id="Trazado_207783" data-name="Trazado 207783" d="M543.532,165.591c2.441,3.592,6.16,5.911,2.674,9.2-3.889,3.668-14.6,14.793-14.6,14.793l9.623,21.119s15.087-15.229,22.988-23.7,12.167-17.2,7-26.256-27.682,4.85-27.682,4.85" transform="translate(-119.048 -35.311)" fill="#f2ac30"/>
        <path id="Trazado_207784" data-name="Trazado 207784" d="M543.087,165.639c1.041,1.472,2.28,2.792,3.3,4.28,1.388,2.031.354,3.562-1.2,5.051-1.879,1.807-3.7,3.667-5.533,5.524q-4.242,4.306-8.433,8.667a.4.4,0,0,0-.061.47q4.812,10.558,9.623,21.119a.391.391,0,0,0,.609.079q5.805-5.862,11.555-11.774,4.51-4.632,8.967-9.311c3.375-3.556,6.683-7.148,9.1-11.445a18.885,18.885,0,0,0,2.431-12.643c-.532-2.979-1.945-6.468-4.859-7.8-4.925-2.254-11.6.573-16.15,2.517a70.3,70.3,0,0,0-9.216,4.737c-.426.262-.036.934.391.67a69.665,69.665,0,0,1,11.626-5.711,28.568,28.568,0,0,1,9.27-2.144c3.794-.106,5.9,1.672,7.335,5.079,4.482,10.624-4.774,20.2-11.483,27.248-5.525,5.8-11.133,11.525-16.755,17.229q-1.381,1.4-2.765,2.8l.609.079-9.591-21.051c-.114-.25-.248.563-.013.32q.225-.234.451-.468,1.066-1.106,2.134-2.207,3.358-3.466,6.744-6.9,1.647-1.668,3.312-3.318a16.56,16.56,0,0,0,2.777-2.859c1.953-3.308-1.765-6.161-3.513-8.631-.286-.4-.959-.018-.669.392" transform="translate(-118.937 -35.163)" fill="#f2ac30"/>
        <path id="Trazado_207785" data-name="Trazado 207785" d="M462.014,239.041c-.462,6.312-6.09,65.943-9.268,99.5h35.038l9.573-82.045,7.869,82.045h40.012c-2.865-28.3-7.494-73.507-8.661-81.828-1.725-12.284-4.1-33.977-14.439-51.648-7.112-1.078-64.218,12.212-64.218,12.212,1.293,3.877,4.741,12.929,4.094,21.765" transform="translate(-101.387 -45.908)" fill="#32015c"/>
        <path id="Trazado_207786" data-name="Trazado 207786" d="M455.647,302.4q-1.7,18.012-3.408,36.022h.774q2.368-24.984,4.722-49.969c1.55-16.5,3.334-33,4.554-49.53.456-7.45-1.644-14.505-3.979-21.481q11.821-2.746,23.69-5.282c11.811-2.539,23.75-5.354,35.774-6.673,1.007-.11,3.691-.73,4.245.226a85.182,85.182,0,0,1,6.8,15.415,158.9,158.9,0,0,1,6.282,28.461c1.424,9.909,2.486,19.855,3.545,29.808q3.14,29.5,6.091,59.024h.775q-2.842-28.136-5.8-56.259c-1.01-9.543-1.985-19.093-3.285-28.6a204.728,204.728,0,0,0-5.182-27.169,102.407,102.407,0,0,0-5.271-14.63,77.556,77.556,0,0,0-3.621-7.013c-.207-.356-1.066-.251-1.41-.253-4.157-.017-8.409.9-12.484,1.6-6.395,1.108-12.758,2.393-19.111,3.713q-15.294,3.179-30.514,6.709l-1.138.264a.388.388,0,0,0-.271.477c2.365,7.036,4.54,14.139,4.081,21.661-1.563,21.183-3.873,42.332-5.865,63.476" transform="translate(-101.274 -45.792)" fill="#32015c"/>
        <path id="Trazado_207787" data-name="Trazado 207787" d="M507.743,271.246a.388.388,0,0,0-.776,0q-3,25.729-6,51.457-1.786,15.294-3.569,30.588h.775q1.83-15.679,3.659-31.358,2.745-23.518,5.488-47.037,2.3,24,4.6,48l2.915,30.394h.777q-1.513-15.776-3.027-31.552-2.421-25.248-4.843-50.494" transform="translate(-111.386 -60.659)" fill="#32015c"/>
        <path id="Trazado_207788" data-name="Trazado 207788" d="M326.341,94.084C325.48,91.5,321.89,81.3,321.89,81.3S311.4,74.69,306.8,72.1s-6.609-11.493.861-13.649c2.012-3.735,5.085-4.062,6.809-3.057,1.148-8.476,5.436-9.5,10.177-7.917s7.627,5.652,10.5,12.117,3.546,9.918,5.987,16.383,4.309,11.351,4.309,11.351-5.6,11.78-19.107,6.751" transform="translate(-67.786 -10.494)" fill="#ffd4d4"/>
        <path id="Trazado_207789" data-name="Trazado 207789" d="M330.973,76.626A11.493,11.493,0,1,1,319.48,65.134a11.493,11.493,0,0,1,11.493,11.492" transform="translate(-68.97 -14.586)" fill="#d4336e"/>
        <path id="Trazado_207790" data-name="Trazado 207790" d="M305.627,72.438c1.617,1.832,4.31.861,3.88-3.124,2.693-.217,3.232-3.987,5.71-7.328,1.078,4.311,3.018,4.849,4.418,4.2s2.586-1.508,2.692-5.495,1.294-5.064,3.018-4.525,3.233,4.525,5.387,9.482,2.371,8.835-.755,9.588-5.924,1.94-7.756,5.28.323,6.572,6.035,4.1,7.433-6.466,7.433-6.466-.108-10.02-3.447-18.207-10.884-6.466-10.884-6.466l-8.942,6.681-7.111,7.65" transform="translate(-68.369 -11.941)" fill="#ffd4d4"/>
        <path id="Trazado_207791" data-name="Trazado 207791" d="M473.746,65.8c4.165.359,8.549-4.31,7.543-9.913s-9.842,2.945-9.842,2.945Z" transform="translate(-105.575 -12.088)" fill="#495edb"/>
        <path id="Trazado_207792" data-name="Trazado 207792" d="M473.633,66.062c3.174.138,5.739-1.931,7.149-4.645.894-1.723,1.924-6.342-.3-7.609-2.964-1.689-7.483,2.757-9.424,4.625a.384.384,0,0,0-.1.377l2.3,6.968c.156.473.906.271.748-.206q-.98-2.973-1.962-5.945-.154-.464-.306-.927c.026.08-.273.412.137.029.661-.614,1.353-1.194,2.06-1.755,1.3-1.031,5.3-4.261,6.628-1.905,1.117,1.987.1,5.1-.959,6.865a6.758,6.758,0,0,1-5.973,3.354c-.5-.022-.5.754,0,.776" transform="translate(-105.463 -11.965)" fill="#495edb"/>
        <path id="Trazado_207793" data-name="Trazado 207793" d="M419.221,34.358c-.862,5.458-1.869,10.165,3.017,18.927s6.608,19.79,22.7,17.561a55.828,55.828,0,0,1,2.013,7.328l21.117-4.6-6.753-20.546c8.98-2.655,8.832-8.3,7.252-12.034s-15.583-18.563-20.613-19.856-23.559-.287-28.731,13.216" transform="translate(-93.719 -4.641)" fill="#ffd4d4"/>
        <path id="Trazado_207794" data-name="Trazado 207794" d="M450.082,58.131c1.325-1.48-1.094-4.668-2.5-3.323s1.409,4.539,2.5,3.323" transform="translate(-100.146 -12.201)"/>
        <path id="Trazado_207795" data-name="Trazado 207795" d="M431.062,60.631c1.323-1.482-1.1-4.668-2.5-3.323s1.412,4.539,2.5,3.323" transform="translate(-95.886 -12.761)"/>
        <path id="Trazado_207796" data-name="Trazado 207796" d="M437.327,65.933a8.38,8.38,0,0,1-4.066-1.125c-1.876-1.251-1.691-3.048-1.266-4.644.913-3.944-.937-7.4-5.078-9.465a.388.388,0,1,1,.347-.694c4.421,2.206,6.472,6.074,5.484,10.346-.446,1.672-.447,2.885.913,3.793a7.6,7.6,0,0,0,3.665,1.012.388.388,0,1,1,0,.776" transform="translate(-95.555 -11.189)"/>
        <path id="Trazado_207797" data-name="Trazado 207797" d="M441.345,72.6a.388.388,0,0,1-.09-.765,14.147,14.147,0,0,0,7.983-5.117.388.388,0,0,1,.594.5,14.866,14.866,0,0,1-8.4,5.372.361.361,0,0,1-.09.011" transform="translate(-98.747 -14.909)"/>
        <path id="Trazado_207798" data-name="Trazado 207798" d="M452.73,80.759a.388.388,0,0,1-.14-.75,18.79,18.79,0,0,0,6.686-4.576l.326-.371a17.094,17.094,0,0,0,2.411-3.2,31.217,31.217,0,0,0,1.7-3.832,11.366,11.366,0,0,0,.912-3.746.388.388,0,0,1,.776,0,12,12,0,0,1-.96,4.016,31.969,31.969,0,0,1-1.744,3.925,17.689,17.689,0,0,1-2.514,3.355l-.338.383a19.57,19.57,0,0,1-6.975,4.774.388.388,0,0,1-.14.026" transform="translate(-101.297 -14.308)"/>
        <path id="Trazado_207799" data-name="Trazado 207799" d="M443.006,49.1c-.574-1.867,1.651-3.09,4.812-1.8s3.782,2.738,2.8,2.514c-5.673-1.292-7.254.072-7.613-.718" transform="translate(-99.186 -10.472)" fill="#495edb"/>
        <path id="Trazado_207800" data-name="Trazado 207800" d="M443.277,48.88c-.635-2.713,3.526-1.666,4.746-1.142a7.882,7.882,0,0,1,2.209,1.378l.162.172q.174.488.225.04c-.545-.082-1.088-.227-1.633-.321a18.468,18.468,0,0,0-3.891-.262c-.262.009-1.71.306-1.858.043a.388.388,0,0,0-.67.392c.5.889,2.327.339,3.1.324a29,29,0,0,1,4.891.594.617.617,0,0,0,.768-.556c0-.59-.649-1.111-1.07-1.412a10.178,10.178,0,0,0-4.3-1.816c-1.83-.286-3.931.652-3.435,2.774.115.487.862.281.749-.206" transform="translate(-99.083 -10.36)" fill="#495edb"/>
        <path id="Trazado_207801" data-name="Trazado 207801" d="M426.884,50.426c-2.013-1.149-4.67-1.8-5.531-.646s-.144,2.514.719,2.442a39.417,39.417,0,0,1,5.46-.5c.717,0,0-.789-.647-1.293" transform="translate(-94.27 -11.013)" fill="#495edb"/>
        <path id="Trazado_207802" data-name="Trazado 207802" d="M426.967,49.962c-1.394-.763-3.755-1.9-5.353-1.077-1.168.6-1.759,2.85-.247,3.467a3.791,3.791,0,0,0,1.928-.04c1.062-.146,2.126-.286,3.2-.345.538-.03,1.234.189,1.56-.348.34-.56-.691-1.334-1.006-1.595-.383-.317-.935.228-.549.549.189.158.982.622.5.608a11.836,11.836,0,0,0-1.378.073c-.935.081-1.866.219-2.794.346-.289.04-.577.078-.868.106q-.89-.146-.684-1.249c.109-.766.731-.955,1.335-1.016a7.442,7.442,0,0,1,3.966,1.191c.439.241.83-.429.391-.67" transform="translate(-94.157 -10.883)" fill="#495edb"/>
        <path id="Trazado_207803" data-name="Trazado 207803" d="M446.045,21.357c-1.007,5.172.286,15.443,5.314,20.831s4.31-4.238,3.736-5.818c2.872-3.3,8.316-3.921,10.4,1.395.647,2.153-.471,6.146-.471,6.146,3.751-1.423,5.587-6.822,4.221-9.84s-1.867-8.908-1.508-13.505S463.5,5.554,450.785,8.857c-3.6-6.257-7.3-7.442-13.81-6.467-5.911.885-12.527-3.121-17.484-1.469-3.277,1.093-5.2,4.633-.239,9.589-7.687-2.155-14.581-1.867-17.6,5.747s.859,17.454,12.858,17.67a25.242,25.242,0,0,1,1.04-4.83c.934,5.6,5.639,5.692,10.021,2.316a42.648,42.648,0,0,0,7.831-8.4c-1.725,4.67-.217,5.244,3.16,4.885s7.256-5.6,9.483-6.538" transform="translate(-89.727 -0.116)" fill="#495edb"/>
        <path id="Trazado_207804" data-name="Trazado 207804" d="M445.565,21.138a29.04,29.04,0,0,0,1.858,15.386c.576,1.464,4.657,9.749,7.3,7.193.96-.93,1.024-2.491,1.059-3.743a16.4,16.4,0,0,0-.13-2.367c-.1-.854-.385-1.114.221-1.7a5.549,5.549,0,0,1,7.95-.16c2.039,2.126,1.426,5.382.724,7.948a.392.392,0,0,0,.57.438c3.181-1.36,4.918-4.857,4.856-8.215-.03-1.653-.943-3.209-1.318-4.8a35.118,35.118,0,0,1-.74-8.279c.02-2.835.144-5.045-1.02-7.7a12.674,12.674,0,0,0-5.656-6.064A11.667,11.667,0,0,0,457,7.813a17.773,17.773,0,0,0-2.952-.043c-.6.039-3.043.752-3.338.251-1.81-3.071-4.334-5.55-7.92-6.245a17.164,17.164,0,0,0-5.366.032,23.8,23.8,0,0,1-8.337-.654c-3.646-.814-8.107-2.192-11.488.13-3.691,2.535-1.03,6.985,1.277,9.385l.377-.649c-3.936-1.076-8.657-1.994-12.533-.183a11.946,11.946,0,0,0-6.393,9.44,13.241,13.241,0,0,0,2.685,10.07c2.719,3.44,7.188,4.719,11.4,4.852a.4.4,0,0,0,.388-.388,24.752,24.752,0,0,1,1.026-4.728h-.749c.925,4.715,4.729,5.817,8.77,3.741,3.962-2.034,7.29-6.119,9.79-9.736l-.709-.3c-.48,1.361-1.18,3.161-.366,4.535.653,1.1,2.417.958,3.471.883,4.376-.312,6.474-4.895,10.107-6.632.452-.215.058-.885-.391-.67-2.694,1.287-4.576,4.018-7.091,5.621a6.457,6.457,0,0,1-4.618.856c-1.953-.373-.764-3.255-.364-4.386.154-.439-.473-.641-.709-.3a40.741,40.741,0,0,1-6.777,7.521,10.743,10.743,0,0,1-6.035,2.957c-2.618.2-3.891-2.057-4.33-4.3-.079-.4-.636-.338-.749,0a25.863,25.863,0,0,0-1.053,4.933l.388-.388c-4-.126-7.827-1.294-10.583-4.312a12.09,12.09,0,0,1-2.816-9.033,11.493,11.493,0,0,1,5.7-9.385c3.723-1.959,8.506-.972,12.333.075a.391.391,0,0,0,.378-.648c-2.608-2.713-4.64-7.22.068-8.941,3.854-1.409,8.607.683,12.444,1.333,3.585.608,7.081-.534,10.648.012,3.649.559,5.994,3.408,7.764,6.413a.394.394,0,0,0,.438.178c4.255-1.044,8.7-.84,12.2,2.043a12.351,12.351,0,0,1,4.23,7.861c.227,1.86-.1,3.805-.062,5.679a34.417,34.417,0,0,0,.875,7.137c.525,2.227,1.458,3.81.969,6.192a7.529,7.529,0,0,1-4.271,5.432l.57.438c.911-3.329,1.247-6.822-1.562-9.317-2.753-2.445-6.811-1-9.016,1.4a.392.392,0,0,0-.1.377,11.777,11.777,0,0,1,.283,5.034c-.546,3.959-3.74.139-4.849-1.478-3.464-5.051-4.821-12.567-3.735-18.569.088-.49-.66-.7-.749-.206" transform="translate(-89.62 0)" fill="#495edb"/>
        <path id="Trazado_207805" data-name="Trazado 207805" d="M419.887,36.243a.388.388,0,0,1-.384-.338l-.068-.5a10.794,10.794,0,0,1-.147-2.909,10.4,10.4,0,0,1,2.387-5.012,9.5,9.5,0,0,1,1.944-1.936.388.388,0,0,1,.444.636,8.849,8.849,0,0,0-1.788,1.792,9.637,9.637,0,0,0-2.219,4.632,10.239,10.239,0,0,0,.147,2.69l.07.5a.389.389,0,0,1-.335.435.379.379,0,0,1-.051,0" transform="translate(-93.883 -5.707)"/>
        <path id="Trazado_207806" data-name="Trazado 207806" d="M471.02,50.829a.4.4,0,0,1-.06,0,.376.376,0,0,1-.321-.433,7.7,7.7,0,0,0,.139-1.229,5.237,5.237,0,0,0-.134-1.062c-.132-.591-.281-1.26-.494-1.905a13.413,13.413,0,0,0-1.187-2.727.388.388,0,1,1,.67-.391,14.179,14.179,0,0,1,1.256,2.882,20.1,20.1,0,0,1,.511,1.97,5.932,5.932,0,0,1,.153,1.233,8.138,8.138,0,0,1-.144,1.329.4.4,0,0,1-.389.338" transform="translate(-105.007 -9.604)"/>
        <path id="Trazado_207807" data-name="Trazado 207807" d="M332.237,102.12c4.526,1.293,14.439-1.077,19.4-7.972,3.449,7.758,15.085,33.832,15.946,35.125s11.421-6.465,23.49-16.163,19.394-12.5,26.721-11.635,10.776-.216,10.128-4.31-1.508-7.543-1.508-7.543,8.4,3.447,21.549-4.31c2.8,8.19,2.586,9.7,3.664,10.99s10.776-2.8,20.041-1.507,28.374,21.709,37.422,30.169c11.062,10.343,23.883,21.548,17.67,34.049-4.337,8.723-19.966,2.584-19.966,2.584s-1.294-3.879-8.19-10.774-18.533-18.75-18.533-18.75,13.648,41.089,16.234,47.338c-13.791,11.636-54.223,17.533-65.181,12.55-3.586-10.76-15.7-48.035-21.087-58.164-16.377,11.421-27.8,22.413-37.495,25.859s-18.318,6.9-26.938-16.593c-4.935-13.449-13.361-40.943-13.361-40.943" transform="translate(-74.401 -19.104)" fill="#f2ac30"/>
        <path id="Trazado_207808" data-name="Trazado 207808" d="M332.02,102.382c7.08,1.854,15.68-2.57,19.834-8.151h-.671c5.057,11.374,9.963,22.85,15.391,34.052.487,1.007.766,1.654,2.008,1.246,2.867-.939,5.529-3.2,7.939-4.931,8.926-6.4,16.995-14.3,26.683-19.559a27.284,27.284,0,0,1,10.036-3.341c3.5-.373,6.957.576,10.461.227,2.111-.21,4.205-1.108,4.532-3.412.225-1.6-.357-3.392-.655-4.939-.269-1.4-.568-2.788-.909-4.168l-.477.477a15.466,15.466,0,0,0,5.948.768c5.646-.116,11.08-2.324,15.9-5.117l-.57-.232c1.1,3.23,1.845,6.595,3,9.8.624,1.729,1.6,1.839,3.337,1.6,4.823-.657,9.432-1.91,14.349-1.887A17.925,17.925,0,0,1,478,97.881c7.064,4.354,13.189,10.356,19.153,16.068,6.077,5.82,12.2,11.615,18.223,17.489,6.964,6.79,15.717,16.293,11.182,26.731-2.941,6.767-11.968,5.325-17.655,3.651q-1-.293-1.98-.655c-.368-.137.172.345.1.143-.084-.226-.185-.445-.288-.663A33.162,33.162,0,0,0,501.2,153c-5.726-6.409-12.117-12.308-18.145-18.436q-1.416-1.438-2.828-2.877a.391.391,0,0,0-.649.378q4.6,13.847,9.295,27.661c1.883,5.533,3.762,11.067,5.757,16.56.282.775.567,1.548.864,2.317.118.306.258.555.161.636a27.063,27.063,0,0,1-2.184,1.6,49.842,49.842,0,0,1-9.4,4.738,111.989,111.989,0,0,1-23.338,6.142,94.11,94.11,0,0,1-22.111,1.348,34.77,34.77,0,0,1-4.073-.545c-.487-.1-3.065-.46-3.241-.991q-1.227-3.679-2.441-7.363c-2.409-7.262-4.844-14.513-7.356-21.739-1.978-5.692-4-11.369-6.156-17a109.048,109.048,0,0,0-5.1-11.94.388.388,0,0,0-.531-.139c-8.943,6.257-17.313,13.282-26.237,19.559a49.767,49.767,0,0,1-17.763,8.326c-6.317,1.4-10.977-1.746-14.406-6.912-4.833-7.278-7.22-16.276-9.944-24.508q-4.6-13.9-8.873-27.911c-.145-.477-.9-.273-.748.206,3.714,12.115,7.522,24.214,11.67,36.188,2.545,7.348,5.186,15.879,11.247,21.161,3.751,3.27,8.371,3.375,12.954,2.1a54.947,54.947,0,0,0,17.135-8.6c8.605-6.107,16.708-12.886,25.358-18.938l-.531-.139c2.888,5.48,4.947,11.443,7.078,17.244,2.81,7.644,5.453,15.35,8.056,23.067,1.97,5.841,3.9,11.7,5.842,17.544.466,1.4,4.379,1.664,5.6,1.84a56.14,56.14,0,0,0,9.056.418,121.753,121.753,0,0,0,28.285-4.185c7.959-2.088,16.532-4.894,22.957-10.235a.377.377,0,0,0,.1-.378c-3.481-8.474-6.156-17.34-9.087-26.014q-3.6-10.653-7.147-21.325l-.649.377q6.586,6.71,13.2,13.39c3.291,3.322,6.725,6.538,9.69,10.16a21.093,21.093,0,0,1,3.728,5.793c.279.778,2.836,1.122,3.474,1.293a27.925,27.925,0,0,0,8.743,1.062,10.217,10.217,0,0,0,7.553-3.405c2.336-2.839,2.879-7.1,2.406-10.616-.579-4.3-3.076-8.173-5.672-11.528a100.612,100.612,0,0,0-11.166-11.578c-5.852-5.471-11.489-11.163-17.34-16.634-5.562-5.2-11.417-10.727-18.218-14.287-7.312-3.826-15.4-.715-23.021.137-1.624.182-1.835-1-2.216-2.328-.826-2.885-1.657-5.755-2.622-8.6a.393.393,0,0,0-.57-.232c-4.756,2.756-9.965,4.806-15.509,5.011a14.386,14.386,0,0,1-5.742-.74c-.289-.116-.541.217-.477.477.342,1.381.632,2.774.909,4.169.382,1.924,1.434,4.719-.209,6.319-1.282,1.247-3.7,1.161-5.335,1.145-2.071-.019-4.112-.41-6.182-.418-8.018-.033-15.288,4.933-21.425,9.553-7.908,5.953-15.336,13.057-24.073,17.829-.308.168-1.677.995-1.9.6-.328-.587-.605-1.208-.893-1.817-1.17-2.462-2.294-4.947-3.422-7.429q-5.833-12.831-11.537-25.721c-.131-.3-.518-.2-.671,0-3.939,5.293-12.24,9.554-18.957,7.795a.388.388,0,0,0-.206.748" transform="translate(-74.287 -18.992)" fill="#f2ac30"/>
        <path id="Trazado_207809" data-name="Trazado 207809" d="M324.649,86.683a3.534,3.534,0,0,1-2.719-1.038c-.979-1.073-1-2.8-.069-4.507,1.964-3.581,5.008-4.745,8.006-5.47a2.4,2.4,0,0,0,1.705-1.288c.744-1.494.312-4.254-1.215-7.769-1.925-4.429-3.588-8.254-5.176-8.749a1.679,1.679,0,0,0-1.516.036c-.588.42-.914,1.635-.969,3.613-.112,4.2-1.443,5.156-2.917,5.836a2.56,2.56,0,0,1-2.239.013c-1.065-.511-1.9-1.743-2.5-3.67a29.083,29.083,0,0,0-1.575,2.792c-.995,1.934-1.863,3.622-3.564,3.971.121,1.93-.487,3.369-1.662,3.887a2.526,2.526,0,0,1-2.927-.838.388.388,0,0,1,.582-.514,1.779,1.779,0,0,0,2.032.643c.713-.315,1.395-1.391,1.17-3.468a.389.389,0,0,1,.355-.428c1.53-.123,2.321-1.661,3.323-3.606a24.9,24.9,0,0,1,2.107-3.566.384.384,0,0,1,.387-.149.389.389,0,0,1,.3.286c.671,2.684,1.621,3.636,2.3,3.961a1.814,1.814,0,0,0,1.578-.018c1.336-.617,2.367-1.388,2.466-5.152.063-2.3.474-3.638,1.293-4.223a2.451,2.451,0,0,1,2.2-.146c1.84.573,3.277,3.7,5.658,9.182,1.145,2.639,2.285,6.242,1.2,8.424a3.173,3.173,0,0,1-2.217,1.7c-2.824.684-5.689,1.773-7.507,5.089-.771,1.406-.785,2.79-.038,3.61.965,1.06,3.052,1.038,5.578-.057,5.485-2.381,7.215-6.226,7.231-6.264a.388.388,0,0,1,.712.309c-.073.168-1.851,4.157-7.635,6.667a9.65,9.65,0,0,1-3.741.906" transform="translate(-68.35 -12.749)"/>
        <path id="Trazado_207810" data-name="Trazado 207810" d="M340.119,119.879a9.659,9.659,0,0,1-3.7-.689.388.388,0,0,1,.294-.719,11.211,11.211,0,0,0,7.19.093,18.18,18.18,0,0,0,8.027-3.9c.147-.148.321-.309.5-.475a7,7,0,0,0,1.47-1.689.388.388,0,1,1,.678.377,7.711,7.711,0,0,1-1.62,1.882c-.172.158-.338.313-.492.467a18.9,18.9,0,0,1-8.369,4.089,15.817,15.817,0,0,1-3.978.563" transform="translate(-75.284 -25.149)"/>
        <path id="Trazado_207811" data-name="Trazado 207811" d="M340.377,118.432a.39.39,0,0,1-.365-.255c-.238-.653-.463-1.317-.692-1.989-.321-.945-.653-1.923-1.03-2.888-.4-1-.858-2.139-1.229-3.251-.1-.289-.219-.571-.34-.851a5.634,5.634,0,0,1-.541-1.752.388.388,0,0,1,.773-.065,5.045,5.045,0,0,0,.48,1.509c.13.3.26.6.364.913.363,1.09.815,2.216,1.213,3.211s.719,1.97,1.043,2.924c.227.666.45,1.325.687,1.971a.389.389,0,0,1-.231.5.4.4,0,0,1-.133.023" transform="translate(-75.284 -23.967)"/>
        <path id="Trazado_207812" data-name="Trazado 207812" d="M345.364,117.764a.388.388,0,0,1-.329-.182,7.914,7.914,0,0,1-.65-1.486c-.079-.22-.159-.442-.245-.658-.151-.453-.313-.883-.474-1.314s-.324-.862-.468-1.294c-.308-.866-.7-1.819-1.2-2.9-.223-.522-.407-1.055-.585-1.572s-.356-1.034-.567-1.526a.388.388,0,1,1,.712-.307c.223.518.409,1.058.589,1.58.173.5.352,1.022.56,1.509.507,1.1.91,2.071,1.228,2.968.144.429.3.851.46,1.273.165.44.331.88.477,1.321.082.2.165.432.248.662a7.215,7.215,0,0,0,.577,1.337.389.389,0,0,1-.123.535.382.382,0,0,1-.206.059" transform="translate(-76.32 -23.802)"/>
        <path id="Trazado_207813" data-name="Trazado 207813" d="M351.594,115.729a.388.388,0,0,1-.376-.293,8.767,8.767,0,0,0-.436-1.169c-.1-.229-.192-.452-.269-.658-.179-.427-.344-.867-.509-1.307-.158-.422-.317-.844-.492-1.267l-.041-.1c-.833-2.012-1.695-4.094-2.613-6.139a.388.388,0,0,1,.709-.318c.922,2.055,1.786,4.142,2.622,6.16l.041.1c.179.431.341.861.5,1.292s.323.862.5,1.294c.078.209.169.422.262.64a9.4,9.4,0,0,1,.475,1.283.388.388,0,0,1-.376.483" transform="translate(-77.667 -23.345)"/>
        <path id="Trazado_207814" data-name="Trazado 207814" d="M354.981,110.356a.387.387,0,0,1-.346-.213,6.792,6.792,0,0,1-.309-.768,6.563,6.563,0,0,0-.266-.671l-1.1-2.668a19.664,19.664,0,0,1-.862-2.05c-.051-.118-.134-.279-.22-.446a4.343,4.343,0,0,1-.514-1.352.388.388,0,0,1,.77-.1,3.824,3.824,0,0,0,.435,1.1c.1.185.186.363.255.526a19.624,19.624,0,0,0,.84,2l.234.507.869,2.171a6.6,6.6,0,0,1,.29.728,6.18,6.18,0,0,0,.27.679.388.388,0,0,1-.171.522.392.392,0,0,1-.175.041" transform="translate(-78.683 -22.786)"/>
        <path id="Trazado_207815" data-name="Trazado 207815" d="M460.2,102.381a.387.387,0,0,1-.385-.35,10.9,10.9,0,0,0-.484-2.141c-.079-.333-.14-.631-.2-.927a15.633,15.633,0,0,0-.445-1.8c-.352-.914-.641-1.854-.921-2.763-.127-.46-.218-.86-.309-1.258s-.178-.782-.284-1.172a.388.388,0,0,1,.749-.2c.109.4.2.8.292,1.2s.176.777.282,1.166c.288.932.573,1.859.921,2.765a16.57,16.57,0,0,1,.476,1.907c.06.29.12.582.188.874a11.14,11.14,0,0,1,.509,2.275.388.388,0,0,1-.347.425l-.04,0" transform="translate(-102.375 -20.485)"/>
        <path id="Trazado_207816" data-name="Trazado 207816" d="M465.2,103.1a.388.388,0,0,1-.388-.388,2.4,2.4,0,0,0-.133-.652c-.026-.091-.052-.178-.073-.259a9.267,9.267,0,0,0-.349-1.336c-.241-1.11-.55-2.16-.794-2.954-.151-.562-.279-1.111-.407-1.658-.123-.529-.246-1.059-.387-1.588-.054-.265-.128-.515-.2-.771a5.752,5.752,0,0,1-.313-1.627.388.388,0,1,1,.776,0,5.172,5.172,0,0,0,.281,1.406c.082.279.162.551.215.815.137.514.262,1.051.388,1.587s.251,1.081.4,1.622c.244.8.559,1.866.8,2.964a9.6,9.6,0,0,1,.361,1.384l.057.195a3.058,3.058,0,0,1,.165.873.388.388,0,0,1-.388.388" transform="translate(-103.494 -20.485)"/>
        <path id="Trazado_207817" data-name="Trazado 207817" d="M470.8,102.03a.389.389,0,0,1-.369-.265c-.036-.111-.073-.239-.109-.369s-.07-.244-.105-.35a5.516,5.516,0,0,1-.3-1.053,16.78,16.78,0,0,0-.407-1.7c-.081-.291-.161-.581-.234-.872l-.266-.993c-.494-1.841-.961-3.58-1.388-5.405a.389.389,0,0,1,.757-.177c.424,1.814.888,3.547,1.381,5.381l.269,1c.072.289.151.574.23.858a17.087,17.087,0,0,1,.424,1.766,4.806,4.806,0,0,0,.265.924c.047.137.085.271.123.405.034.118.067.235.1.336a.388.388,0,0,1-.369.511" transform="translate(-104.717 -20.278)"/>
        <path id="Trazado_207818" data-name="Trazado 207818" d="M476.181,99.933a.389.389,0,0,1-.37-.271c-.525-1.654-.969-3.3-1.369-4.832l-.2-.666c-.222-.732-.451-1.49-.723-2.246-.123-.34-.221-.705-.32-1.076a9.3,9.3,0,0,0-.457-1.41.389.389,0,0,1,.709-.32,9.91,9.91,0,0,1,.5,1.53c.093.348.184.692.3,1.012.279.776.511,1.544.735,2.285l.206.678c.4,1.538.843,3.173,1.364,4.81a.388.388,0,0,1-.253.487.38.38,0,0,1-.117.018" transform="translate(-105.857 -19.905)"/>
        <path id="Trazado_207819" data-name="Trazado 207819" d="M462.182,105.9a8.035,8.035,0,0,1-1.468-.126,16.24,16.24,0,0,1-1.949-.455,13,13,0,0,0-2.187-.474.388.388,0,0,1,.078-.772,13.765,13.765,0,0,1,2.316.5,15.8,15.8,0,0,0,1.87.438,8.7,8.7,0,0,0,2.351.07,9.23,9.23,0,0,1,1.087-.016,7.361,7.361,0,0,0,1.4-.054,21.777,21.777,0,0,0,4.937-1.7,32.294,32.294,0,0,0,4.112-2.128c.784-.5,1.575-1,2.35-1.565.407-.341.853-.787,1.247-1.181a.388.388,0,1,1,.549.548c-.405.406-.864.866-1.319,1.245-.814.594-1.616,1.1-2.393,1.6a33.227,33.227,0,0,1-4.232,2.194,22.346,22.346,0,0,1-5.124,1.752,8,8,0,0,1-1.542.064,8.672,8.672,0,0,0-1,.012c-.39.033-.746.049-1.079.049" transform="translate(-102.167 -22.019)"/>
        <path id="Trazado_207820" data-name="Trazado 207820" d="M432.052,147.879a.387.387,0,0,1-.347-.214c-.17-.341-.311-.706-.446-1.059s-.263-.682-.417-.989a15.343,15.343,0,0,0-.848-1.912c-.16-.358-.324-.66-.487-.965a7.393,7.393,0,0,1-.852-2.069.388.388,0,0,1,.761-.152,6.686,6.686,0,0,0,.774,1.853c.172.321.345.642.492.976a15.239,15.239,0,0,1,.875,1.974,10.769,10.769,0,0,1,.424,1.006c.136.352.264.684.417.99a.388.388,0,0,1-.347.562" transform="translate(-95.991 -31.398)"/>
        <path id="Trazado_207821" data-name="Trazado 207821" d="M516.773,141.17a.442.442,0,0,1-.2-.048,8.763,8.763,0,0,1-2-1.583c-.23-.222-.462-.446-.7-.66a15.675,15.675,0,0,0-2.293-1.617l-3-1.93a.47.47,0,0,1-.142-.636.442.442,0,0,1,.617-.147l2.985,1.922a16.4,16.4,0,0,1,2.411,1.7c.255.227.5.459.737.69a7.934,7.934,0,0,0,1.788,1.431.469.469,0,0,1,.2.618.447.447,0,0,1-.4.256" transform="translate(-113.843 -30.115)"/>
        <path id="Trazado_207822" data-name="Trazado 207822" d="M542.616,203.6a.389.389,0,0,1-.364-.252l-5.011-13.469a.388.388,0,0,1,.728-.271l5.011,13.469a.389.389,0,0,1-.228.5.4.4,0,0,1-.136.024" transform="translate(-120.304 -42.404)"/>
        <path id="Trazado_207823" data-name="Trazado 207823" d="M477.741,231.008a103.19,103.19,0,0,1-10.8-.555.386.386,0,0,1-.345-.427.38.38,0,0,1,.426-.345c20.944,2.2,44.475-2.322,59.956-11.531a.388.388,0,1,1,.4.667c-12.994,7.73-31.6,12.19-49.637,12.19" transform="translate(-104.489 -48.84)"/>
        <path id="Trazado_207824" data-name="Trazado 207824" d="M540.026,246.07a9.566,9.566,0,0,1-3.745-.791c-5.739-2.428-10.294-10.065-12.1-16.134a.388.388,0,1,1,.744-.221c1.809,6.087,6.395,13.413,11.656,15.64a8.571,8.571,0,0,0,7.618-.356.388.388,0,1,1,.359.688,9.719,9.719,0,0,1-4.534,1.174" transform="translate(-117.381 -51.203)"/>
        <path id="Trazado_207825" data-name="Trazado 207825" d="M550.634,254.25a.388.388,0,0,1-.386-.352c-1.484-15.687-9.577-32.023-9.658-32.186a.388.388,0,1,1,.694-.347c.082.165,8.24,16.626,9.737,32.46a.389.389,0,0,1-.35.423l-.037,0" transform="translate(-121.05 -49.524)"/>
        <path id="Trazado_207826" data-name="Trazado 207826" d="M309.889,71.431a2.545,2.545,0,0,1-1.942-.935,6.018,6.018,0,0,1-1.167-3.158,11.269,11.269,0,0,1,1.886-5.91.388.388,0,1,1,.666.4,10.549,10.549,0,0,0-1.776,5.489,5.243,5.243,0,0,0,1.006,2.705,1.7,1.7,0,0,0,1.787.565.388.388,0,1,1,.227.742,2.337,2.337,0,0,1-.686.1" transform="translate(-68.698 -13.714)"/>
        <path id="Trazado_207827" data-name="Trazado 207827" d="M317.953,63.257a.388.388,0,0,1-.386-.346,39.206,39.206,0,0,1-.123-4.476c0-.415.008-.822.008-1.212a.388.388,0,1,1,.776,0c0,.393,0,.8-.008,1.22a38.56,38.56,0,0,0,.12,4.385.388.388,0,0,1-.344.428l-.043,0" transform="translate(-71.086 -12.727)"/>
        <path id="Trazado_207828" data-name="Trazado 207828" d="M504.817,256.173a16.657,16.657,0,0,1-4.267-.639.387.387,0,0,1-.259-.257l-9.355-30.2a.388.388,0,1,1,.741-.229l9.293,30a12.763,12.763,0,0,0,5.724.33c-1.9-6.6-6.361-23.784-6.407-23.959a.389.389,0,1,1,.752-.2c.046.179,4.67,18,6.506,24.3a.389.389,0,0,1-.239.473,7.291,7.291,0,0,1-2.487.38" transform="translate(-109.936 -50.291)"/>
        <path id="Trazado_207829" data-name="Trazado 207829" d="M154.963,161.714a23.77,23.77,0,0,1-5.951,2.185c-.511.079-2.381-14.253-2.381-14.253,8.673-3.179,12.929-6.179,15.227-12.786s-4.04-7.756-4.4-14.418c-.286-5.327.809-22.5-19.016-19.918s-35.773,30.6-27.729,39.078,15.373,9.624,15.229,11.781-7.758,13.935-8.188,14.508,5.459,12.211,11.493,14.654,39.507,1.293,25.715-20.831" transform="translate(-24.316 -22.9)" fill="#ffd4d4"/>
        <path id="Trazado_207830" data-name="Trazado 207830" d="M53.685,354.654c-.862-12.5-.862-53.227,23.058-70.9,1.939-1.509,3.52-6.033,3.52-6.033,10.7,2.8,38.143,10.128,50.282,9.483-1.436,4.092-5.459,10.343-5.459,10.343l3.806,56.888-31.247.647L91.4,345.172l.861,9.482Z" transform="translate(-11.965 -62.193)" fill="#f2ac30"/>
        <path id="Trazado_207831" data-name="Trazado 207831" d="M53.952,354.542a122.2,122.2,0,0,1,3.222-37.765,69.455,69.455,0,0,1,9.574-22.22,45.306,45.306,0,0,1,8.241-9.138,15.625,15.625,0,0,0,3.584-3.547,21.365,21.365,0,0,0,1.9-4.029c.016-.043.031-.085.046-.128l-.477.272c8.17,2.138,16.349,4.24,24.6,6.033,8.334,1.81,17.2,3.864,25.782,3.463l-.374-.491a54.063,54.063,0,0,1-5.3,10.059c-.309.49-.124,1.146-.087,1.7q.407,6.1.816,12.193,1.193,17.846,2.387,35.691l.515,7.691.388-.388-23.937.5-5.442.113-1.476.03c-.664.013,0,.29-.191-.012q-3.057-4.851-6.115-9.7c-.191-.3-.76-.21-.723.2q.43,4.741.861,9.482l.388-.388H53.564a.388.388,0,0,0,0,.776H92.136a.389.389,0,0,0,.388-.388q-.431-4.74-.861-9.482l-.723.2,6.115,9.7c.352.56.865.4,1.473.383l5.326-.11,24.916-.516a.39.39,0,0,0,.388-.388q-1.854-27.723-3.71-55.445-.038-.584-.078-1.168c-.031-.456-.11-.014.253-.594A53.859,53.859,0,0,0,130.8,287.2a.389.389,0,0,0-.374-.491c-8.533.4-17.29-1.65-25.577-3.435-8.257-1.779-16.433-3.894-24.6-6.034a.4.4,0,0,0-.477.271,24.049,24.049,0,0,1-1.629,3.571C77.077,283,75.323,284.1,73.706,285.5a46.115,46.115,0,0,0-7.629,8.669,68.646,68.646,0,0,0-9.413,21.487,121.2,121.2,0,0,0-3.543,38.032q.026.429.055.859c.034.5.81.5.776,0" transform="translate(-11.844 -62.081)" fill="#f2ac30"/>
        <path id="Trazado_207832" data-name="Trazado 207832" d="M105.846,294.209a.379.379,0,0,1-.066-.005c-8.825-1.52-16.972-4.946-20.754-8.728a.388.388,0,0,1,.549-.549c3.677,3.676,11.66,7.018,20.337,8.512a.388.388,0,0,1-.065.771" transform="translate(-19.015 -63.781)"/>
        <path id="Trazado_207833" data-name="Trazado 207833" d="M63.239,357.2a.388.388,0,0,1-.387-.371c-.367-8.234-1.087-50.231,20.828-68.413a.388.388,0,1,1,.5.6c-21.633,17.948-20.913,59.611-20.549,67.78a.388.388,0,0,1-.37.405h-.018" transform="translate(-14.05 -64.568)"/>
        <path id="Trazado_207834" data-name="Trazado 207834" d="M159.982,176.1c6.4-1.552,9.15-3.69,13.389-4.122,1.437-4.6-3.375-12.5-6.751-13.936a27.375,27.375,0,0,1-9.195,4.1c1,6.784,2.557,13.962,2.557,13.962" transform="translate(-35.254 -35.392)" fill="#32015c"/>
        <path id="Trazado_207835" data-name="Trazado 207835" d="M159.976,176.357c4.464-1.12,8.7-3.568,13.285-4.108a.4.4,0,0,0,.374-.285c1.116-4.132-1.337-8.717-3.869-11.829-.389-.478-2.618-3.087-3.452-2.545a26.331,26.331,0,0,1-9.1,4.056.4.4,0,0,0-.271.477q1.056,7.017,2.557,13.962c.106.49.854.282.748-.206q-1.495-6.937-2.557-13.962-.135.239-.271.476a19.146,19.146,0,0,0,3.9-1.239c.792-.341,1.568-.706,2.339-1.1.4-.2,2.62-1.818,2.945-1.665,2.808,1.328,4.718,5.009,5.762,7.756a10.9,10.9,0,0,1,.746,4.5c-.079,1.38-2.332,1.256-3.457,1.612-3.33,1.052-6.476,2.494-9.88,3.348a.389.389,0,0,0,.206.749" transform="translate(-35.144 -35.274)" fill="#32015c"/>
        <path id="Trazado_207836" data-name="Trazado 207836" d="M148.235,163.277a25.607,25.607,0,0,1-11.886-2.92.388.388,0,0,1,.366-.684A24.6,24.6,0,0,0,152.5,162.1a.388.388,0,0,1,.148.762,23.212,23.212,0,0,1-4.411.413" transform="translate(-30.488 -35.746)"/>
        <path id="Trazado_207837" data-name="Trazado 207837" d="M108.292,128.731c1.906,6,5.792,7.6,4.8-1.371C130,117.233,130.6,103.3,128.225,98.455c10.451,1.4,17.457,6.142,15.839,17.994,11.1-2.908,10.344-21.657.753-25.1-.214-13.576-15.018-17.009-29.629-8.728-6.549,3.711-8.877,8.238-17.8,11.73-10.468,4.1-14.1,17.461-14.1,28.714,0,17.121-.1,25.5-13.568,35.948S43.611,182.729,51.4,199.2a16.3,16.3,0,0,0,15.084,9.374c-2.909,13.467,5.387,21.44,13.361,20.9,0,0,2.262-28.013,5.172-40.3s8.618-17.348,18.21-22.2,12.047-6.558,11.1-15.839a103.718,103.718,0,0,0-2.046-12.606c-8.513,3.556-12.738-1.378-13.684-4.957-1.509-5.71,6.357-10.128,9.7-4.85" transform="translate(-10.976 -17.502)" fill="#32015c"/>
        <path id="Trazado_207838" data-name="Trazado 207838" d="M107.81,128.723c.446,1.342,2.978,7.406,5.088,4.463a4.478,4.478,0,0,0,.566-2.019,13.1,13.1,0,0,0,.051-1.989c-.033-1.512.1-1.845,1.391-2.681a39.2,39.2,0,0,0,7.751-6.587c4.828-5.335,9.176-14.588,5.8-21.763l-.438.57c4.285.6,8.707,1.733,11.992,4.708,3.631,3.288,4.139,8.318,3.561,12.912a.389.389,0,0,0,.49.374c6.053-1.708,8.654-7.81,8.393-13.691a15.975,15.975,0,0,0-2.738-8.327,11.278,11.278,0,0,0-2.621-2.649,9.22,9.22,0,0,0-1.853-1.018c-.357-.153-.3-1.912-.374-2.381-1.1-7.352-7.752-10.953-14.661-10.99-9-.049-16.532,4.9-23.217,10.367a39.91,39.91,0,0,1-5.675,3.909c-2.237,1.26-4.711,2-6.919,3.308a20.973,20.973,0,0,0-7.562,8.6c-4.094,7.915-3.945,16.687-4.074,25.339-.116,7.67-.854,15.246-5.481,21.635-2.692,3.717-6.332,6.5-9.88,9.338A80.07,80.07,0,0,0,56.36,170.626a33.167,33.167,0,0,0-7.231,13.288,23.233,23.233,0,0,0,1.832,15.369c2.648,5.766,8.974,9.93,15.419,9.566l-.374-.491c-1.123,5.5-.751,11.336,2.639,16a13.025,13.025,0,0,0,11.1,5.392.4.4,0,0,0,.388-.388c1.007-12.436,2.158-25,4.528-37.253,1.618-8.363,4.836-15.811,11.9-20.919,3.466-2.507,7.4-4.2,11.123-6.277,2.493-1.392,5.009-3.061,6.25-5.729,1.557-3.344.787-7.548.348-11.035a90.065,90.065,0,0,0-1.728-9.829.386.386,0,0,0-.477-.271c-4.87,1.935-10.689,1.6-12.93-3.84-2.2-5.34,5.16-10.558,8.711-5.4.282.409.955.022.67-.392-3.377-4.912-11.4-1.633-10.568,4.258a8.823,8.823,0,0,0,3.845,5.976c3.125,2.147,7.191,1.449,10.478.142l-.476-.271a94.423,94.423,0,0,1,1.786,10.319c.454,3.6,1.1,7.8-.93,11.053-1.935,3.1-6.077,4.775-9.184,6.357a48.046,48.046,0,0,0-9.875,6.289c-5.959,5.166-8.416,12.64-9.841,20.159-1.451,7.661-2.312,15.446-3.13,23.195-.473,4.482-.909,8.97-1.273,13.462l.388-.388a12.368,12.368,0,0,1-10.22-4.742c-3.571-4.332-3.839-10.407-2.766-15.669a.393.393,0,0,0-.374-.491c-5.843.329-11.384-3.2-14.221-8.149-5.529-9.65-2.183-20.224,4.373-28.3a74.646,74.646,0,0,1,10.933-10.537c3.5-2.857,7.04-5.534,9.88-9.093,4.435-5.559,5.745-12.3,6.083-19.246.418-8.6-.282-17.01,2.677-25.285a23.785,23.785,0,0,1,6.768-10.19A21.839,21.839,0,0,1,98.8,94.024a33.6,33.6,0,0,0,6.239-3.53c3.183-2.244,5.956-5,9.265-7.078a32.648,32.648,0,0,1,13.891-4.887,16.875,16.875,0,0,1,11.135,2.411c3.436,2.3,4.876,6.311,4.995,10.291a.4.4,0,0,0,.285.374c9.813,3.751,9.525,21.455-.753,24.356l.491.374c.584-4.641.019-9.341-3.236-12.911-3.224-3.535-8.338-4.82-12.888-5.457a.393.393,0,0,0-.438.57c1.733,3.679.974,8.306-.308,11.985-2.49,7.148-8.381,12.552-14.692,16.39a.381.381,0,0,0-.192.335c.1.955.786,5.8-.921,5.91-1.589.106-2.775-3.631-3.112-4.643-.157-.472-.906-.27-.748.206" transform="translate(-10.868 -17.39)" fill="#32015c"/>
        <path id="Trazado_207839" data-name="Trazado 207839" d="M148.885,135.2c-1.97.262-2.21,4.254-.27,4.148s1.885-4.365.27-4.148" transform="translate(-32.981 -30.276)"/>
        <path id="Trazado_207840" data-name="Trazado 207840" d="M148.959,135.632a.388.388,0,0,1-.22-.708l.083-.057a4.936,4.936,0,0,0,1.414-1.211.388.388,0,0,1,.678.377,5.216,5.216,0,0,1-1.651,1.473l-.084.058a.388.388,0,0,1-.22.068" transform="translate(-33.271 -29.886)"/>
        <path id="Trazado_207841" data-name="Trazado 207841" d="M167.1,129.308c-1.957.334-2.052,4.333-.117,4.155s1.726-4.43.117-4.155" transform="translate(-37.08 -28.954)"/>
        <path id="Trazado_207842" data-name="Trazado 207842" d="M167.171,129.732a.388.388,0,0,1-.233-.7l.1-.075a4.884,4.884,0,0,0,1.35-1.249.388.388,0,1,1,.692.352,5.138,5.138,0,0,1-1.579,1.52l-.1.074a.383.383,0,0,1-.232.078" transform="translate(-37.349 -28.552)"/>
        <path id="Trazado_207843" data-name="Trazado 207843" d="M162.247,142.758a.388.388,0,0,1-.279-.657c.235-.245.46-.473.672-.689,2.224-2.265,2.823-2.873.629-6.208l-.112-.172c-2.571-3.91-2.932-4.681-.6-9.009a.387.387,0,1,1,.682.368c-2.174,4.043-1.913,4.438.57,8.215l.113.171c2.537,3.858,1.582,4.829-.725,7.178-.21.214-.433.441-.667.684a.384.384,0,0,1-.279.119" transform="translate(-36.054 -28.176)"/>
        <path id="Trazado_207844" data-name="Trazado 207844" d="M142.012,129.9c-1.376,2.49-1.132,3.769.646,2.209a27.2,27.2,0,0,1,5.765-3.827c1.454-.646.05-2.468-2.264-2.046-1.185.215-3.017,1.614-4.148,3.664" transform="translate(-31.604 -28.254)"/>
        <path id="Trazado_207845" data-name="Trazado 207845" d="M141.361,133.064h0a.685.685,0,0,1-.607-.338c-.393-.667.221-2.07.806-3.128,1.232-2.23,3.155-3.63,4.419-3.859a4.223,4.223,0,0,1,.745-.068,2.443,2.443,0,0,1,2.542,1.514,1.178,1.178,0,0,1-.8,1.337,26.8,26.8,0,0,0-5.667,3.763,2.49,2.49,0,0,1-1.442.778m0-.776,0,.388v-.388h0m5.366-5.841a3.4,3.4,0,0,0-.607.056,7.036,7.036,0,0,0-3.878,3.47,4.888,4.888,0,0,0-.832,2.309,2.376,2.376,0,0,0,.883-.579,27.736,27.736,0,0,1,5.863-3.89c.275-.121.393-.279.354-.467-.08-.376-.744-.9-1.783-.9" transform="translate(-31.492 -28.143)"/>
        <path id="Trazado_207846" data-name="Trazado 207846" d="M163.02,125.291c1.4-2.532,3.715-5.064,4.9-4.741s1.724,1.94,1.024,2.425-1.24-.863-3.555.7c-2.031,1.369-2.48,2.046-2.37,1.616" transform="translate(-36.503 -26.99)"/>
        <path id="Trazado_207847" data-name="Trazado 207847" d="M162.919,125.7h-.19l-.135-.158a.51.51,0,0,1-.062-.455l.036-.092c1.433-2.59,3.9-5.325,5.344-4.927a2.313,2.313,0,0,1,1.594,1.8,1.143,1.143,0,0,1-1.548,1.409,2.416,2.416,0,0,0-.642-.1,3.413,3.413,0,0,0-1.821.716c-.956.644-1.554,1.131-1.911,1.423s-.477.388-.665.388m4.673-4.9c-.758,0-2.168,1.309-3.39,3.047.249-.182.534-.384.859-.6a4.128,4.128,0,0,1,2.255-.848,3.121,3.121,0,0,1,.839.129c.2.053.308.125.457.022a.546.546,0,0,0,.129-.549,1.532,1.532,0,0,0-1.033-1.183.451.451,0,0,0-.116-.014" transform="translate(-36.391 -26.878)"/>
        <path id="Trazado_207848" data-name="Trazado 207848" d="M155.964,152.66a4.9,4.9,0,0,1-3.205-1.3,11.155,11.155,0,0,1-2.4-2.957.388.388,0,1,1,.672-.389,10.367,10.367,0,0,0,2.227,2.75,3.959,3.959,0,0,0,3.4,1.05,3.582,3.582,0,0,0,1.539-.718.388.388,0,1,1,.515.58,4.314,4.314,0,0,1-1.887.9,4.58,4.58,0,0,1-.858.083" transform="translate(-33.659 -33.104)"/>
        <path id="Trazado_207849" data-name="Trazado 207849" d="M159.021,149.872c-.2,0-.4-.014-.594-.029-.622-.044-1.25-.063-1.846-.145-.274-.038-.548-.076-.822-.1-.757-.124-1.365-.229-2.051-.386-.206-.055-.4-.1-.587-.147a11.285,11.285,0,0,1-1.237-.351,5.392,5.392,0,0,1-.7-.279c-.156-.071-.317-.144-.487-.208a.388.388,0,1,1,.275-.725c.185.07.361.148.531.225a4.79,4.79,0,0,0,.623.248,10.578,10.578,0,0,0,1.18.334c.2.048.4.1.592.15.65.148,1.246.251,1.956.369.255.018.546.057.835.1.629.088,1.209.1,1.8.14a5.905,5.905,0,0,0,1.428-.074l.143.763a6.329,6.329,0,0,1-1.033.113" transform="translate(-33.691 -33.026)"/>
        <path id="Trazado_207850" data-name="Trazado 207850" d="M159.114,133.065a3.9,3.9,0,0,1,1.786-1.471,2.248,2.248,0,0,1,2.078.47.388.388,0,0,0,.392-.67,3.055,3.055,0,0,0-2.677-.547,4.435,4.435,0,0,0-2.249,1.826c-.285.414.388.8.67.392" transform="translate(-35.466 -29.274)" fill="#495edb"/>
        <path id="Trazado_207851" data-name="Trazado 207851" d="M151.408,122.678c-9.6-5.973-16.041,10.91-8.411,16.5,4.006,2.936,8.835.507,10.8-3.557s1.5-10.135-2.393-12.946c-.407-.293-.793.379-.392.67,3.42,2.472,3.684,7.522,2.4,11.182-1.476,4.222-6.472,6.978-10.292,3.756-6.316-5.324-.726-20.3,7.888-14.938.426.265.816-.406.392-.67" transform="translate(-31.269 -27.19)" fill="#495edb"/>
        <path id="Trazado_207852" data-name="Trazado 207852" d="M131.64,142.465l7.489-2.209a.388.388,0,0,0-.206-.748l-7.489,2.209a.388.388,0,0,0,.206.748" transform="translate(-29.372 -31.237)" fill="#495edb"/>
        <path id="Trazado_207853" data-name="Trazado 207853" d="M174.9,127.33c.533-3.259.483-8.739-2.892-10.577-1.489-.811-3.251-.032-4.42.948-1.922,1.61-2.7,4.479-3.137,6.827-.587,3.181-.924,9.9,3.665,10.44,4.229.494,6.126-4.237,6.784-7.639.095-.489-.653-.7-.748-.206-.546,2.819-1.818,6.765-5.165,7.106-4.295.438-4.191-5.6-3.942-8.357.258-2.871,2.473-10.682,6.873-8.288,2.8,1.523,2.666,6.9,2.235,9.538-.08.49.667.7.748.206" transform="translate(-36.753 -26.07)" fill="#495edb"/>
        <path id="Trazado_207854" data-name="Trazado 207854" d="M163.962,365.392c.882-1.412-.63-3.6-1.4-4.417-2.277-2.414-4.632-4.526-9.085-4.741-1.631-.078-5.288.651-6.9.287-2.606-.588-3.665-18.819-3.665-18.819-10.343,1.4-21.405,3.017-21.405,3.017s5.827,23.412,7.4,25c1.955,1.968,4.067,2.756,6.536,2.153a70.389,70.389,0,0,1,8.763-1.579,16.95,16.95,0,0,1,7.327.862c1.042.352,1.18,1.232,3.162.5.8-.3,2.767.826,3.591.573a8.246,8.246,0,0,0,1.582-1.077c.215-.324,2.585.642,4.092-1.76" transform="translate(-27.211 -75.625)" fill="#ffd4d4"/>
        <path id="Trazado_207855" data-name="Trazado 207855" d="M88.866,249.642l-.861,5.172s5.459,4.164,15.514,5.315c2.012,9.768,10.488,44.249,10.488,44.249,7.327,1.724,18.317-.145,21.764-2.443-.143-10.775-4.237-35.915-5.387-38.071,5.027,1.149,7.9.433,7.9.433,3.16-9.628,7.039-20.114,8.475-24.137s2.874-5.746,6.322-7.182,14.941-6.464,12.641-25c7.328,1.006,18.1,2.729,18.1,2.729l-.287-30.743s-18.534-9.2-34.336-1.437c4.885,4.6,3.305,12.644-5.6,16.953s-20.975.574-28.013-8.045a30.669,30.669,0,0,0-21.981,23.992c-2.873,14.8-4.741,38.214-4.741,38.214" transform="translate(-19.708 -39.283)" fill="#495edb"/>
        <path id="Trazado_207856" data-name="Trazado 207856" d="M88.382,249.417l-.861,5.172a.411.411,0,0,0,.178.438,21.851,21.851,0,0,0,4.171,2.309,36.862,36.862,0,0,0,4.635,1.691c.646.192,6.552,1.191,6.574,1.3,1.111,5.366,2.407,10.7,3.67,16.026q3.325,14.019,6.773,28.007a.386.386,0,0,0,.272.271,37.288,37.288,0,0,0,19.409-1.252,12.4,12.4,0,0,0,2.654-1.231c.5-.319.147-1.942.123-2.444-.125-2.74-.391-5.474-.684-8.2-.639-5.945-1.492-11.87-2.485-17.766-.386-2.3-.8-4.59-1.285-6.868a14.22,14.22,0,0,0-.917-3.323l-.438.57c2.57.553,5.494,1.048,8.108.433.344-.081.428-.746.488-.929q.655-1.989,1.333-3.973,1.212-3.567,2.473-7.115c1.313-3.72,2.662-7.428,4-11.14,1.355-3.753,2.782-6.608,6.626-8.215a21.444,21.444,0,0,0,8.629-6.269c4.289-5.337,4.937-12.48,4.172-19.051l-.491.375c6.045.834,12.078,1.766,18.1,2.729a.394.394,0,0,0,.491-.374q-.143-15.372-.287-30.743a.383.383,0,0,0-.192-.335c-10.471-5.159-24.048-6.527-34.728-1.437a.391.391,0,0,0-.078.61,8.317,8.317,0,0,1,1.6,9.9c-1.909,3.961-6.285,6.523-10.384,7.62-8.946,2.4-18.614-2.362-24.288-9.161a.381.381,0,0,0-.377-.1,32.714,32.714,0,0,0-14.452,8.755c-5.214,5.446-7.3,12.282-8.527,19.543-1.916,11.334-3.111,22.828-4.029,34.283-.04.5.736.5.776,0,.417-5.21.942-10.412,1.516-15.608.524-4.732,1.114-9.459,1.807-14.169.67-4.542,1.288-9.181,2.843-13.518a30.312,30.312,0,0,1,17.134-17.453c.695-.286,1.4-.536,2.116-.772,1.093-.362,1.444.539,2.168,1.3a27.894,27.894,0,0,0,5.355,4.3,25.945,25.945,0,0,0,11.925,3.9c5.778.425,12.287-1.873,15.851-6.6,3-3.988,3.19-9.147-.49-12.767q-.038.3-.078.609c8.728-4.16,18.675-3.617,27.744-.9a43.383,43.383,0,0,1,6.064,2.274c.044.022-.057-.487-.051.232q.01,1.131.021,2.263.132,13.99.262,27.979l.491-.375c-6.026-.962-12.058-1.894-18.1-2.729-.22-.03-.523.1-.491.374.776,6.668.07,13.7-4.373,19.025-2.459,2.945-5.632,4.474-9.009,6.058a10.457,10.457,0,0,0-5.155,5.906c-1.272,3.04-2.272,6.226-3.385,9.325q-2.372,6.609-4.625,13.258c-.087.259-.677,2.386-.692,2.39a8.981,8.981,0,0,1-1.145.146,22.116,22.116,0,0,1-6.465-.6.392.392,0,0,0-.438.57c.827,1.673,1.005,3.88,1.352,5.685.684,3.567,1.254,7.155,1.788,10.747.619,4.168,1.158,8.35,1.589,12.542q.269,2.613.448,5.235c.051.764.089,1.528.12,2.292.043,1.044.064,1.192-.889,1.653-3.986,1.924-8.936,2.351-13.286,2.445-1.145.024-2.292-.025-3.434-.106-.368-.026-3.377-.365-3.357-.283l-.245-1q-1.88-7.668-3.733-15.341c-2.24-9.279-4.574-18.555-6.509-27.9a.4.4,0,0,0-.374-.286,36.24,36.24,0,0,1-14.262-4.564q-.468-.282-.916-.6c-.3-.208.095-.012.043.3.04-.235.078-.471.118-.705l.738-4.432c.081-.49-.667-.7-.748-.206" transform="translate(-19.597 -39.161)" fill="#495edb"/>
        <path id="Trazado_207857" data-name="Trazado 207857" d="M106.061,276.888a.389.389,0,0,1-.38-.31c-2.384-11.78-4.978-23.109-6.31-27.55a.388.388,0,0,1,.743-.223c1.337,4.462,3.939,15.818,6.328,27.618a.389.389,0,0,1-.3.458.382.382,0,0,1-.078.008" transform="translate(-22.249 -55.655)"/>
        <path id="Trazado_207858" data-name="Trazado 207858" d="M141.359,279.517a.388.388,0,0,1-.381-.316,19.049,19.049,0,0,0-1.4-3.748,54.131,54.131,0,0,1-2.616-6.844c-.987-3.325-1.2-10.9-1.385-17.583-.114-4.1-.222-7.965-.5-10.208a.387.387,0,0,1,.338-.432.382.382,0,0,1,.432.338c.279,2.279.386,6.165.5,10.28.185,6.635.4,14.156,1.353,17.384a53.29,53.29,0,0,0,2.581,6.75,19.451,19.451,0,0,1,1.453,3.918.388.388,0,0,1-.31.453.382.382,0,0,1-.072.007" transform="translate(-30.249 -53.831)"/>
        <path id="Trazado_207859" data-name="Trazado 207859" d="M187.977,216.36a.388.388,0,0,1-.386-.348c0-.042-.435-4.192-.86-7.023a.388.388,0,0,1,.768-.116c.428,2.849.86,7.016.865,7.057a.388.388,0,0,1-.346.426l-.04,0" transform="translate(-41.815 -46.701)"/>
        <path id="Trazado_207860" data-name="Trazado 207860" d="M102,362.9a.388.388,0,0,1-.387-.369l-.5-9.84a.388.388,0,1,1,.775-.04l.5,9.84a.388.388,0,0,1-.368.407H102" transform="translate(-22.643 -78.89)"/>
        <path id="Trazado_207861" data-name="Trazado 207861" d="M101.774,357.184a.388.388,0,0,1-.083-.767l6.539-1.438a.388.388,0,0,1,.167.758l-6.539,1.437a.381.381,0,0,1-.084.009" transform="translate(-22.704 -79.491)"/>
        <path id="Trazado_207862" data-name="Trazado 207862" d="M161.144,374.555a.388.388,0,0,1-.114-.759c.094-.029.115-.068.129-.107a2.735,2.735,0,0,0-.553-1.606,9.238,9.238,0,0,0-5.771-3.422,10.271,10.271,0,0,0-2.93-.068,11.009,11.009,0,0,0-1.378.262c-.243.057-.486.113-.729.161a.388.388,0,1,1-.152-.76c.235-.047.47-.1.7-.156a11.782,11.782,0,0,1,1.488-.28,11.048,11.048,0,0,1,3.137.078,10.04,10.04,0,0,1,6.266,3.741c.107.161.948,1.467.646,2.311a.931.931,0,0,1-.631.587.39.39,0,0,1-.114.017" transform="translate(-33.442 -82.353)"/>
        <path id="Trazado_207863" data-name="Trazado 207863" d="M166.326,373.847a.388.388,0,0,1-.174-.735c.576-.288.819-.566.865-.99a2.748,2.748,0,0,0-.05-1.615,7.49,7.49,0,0,0-2.342-3.083,10.735,10.735,0,0,0-3.469-1.936,6.573,6.573,0,0,0-3.6-.337c-.559.039-1.1.128-1.62.215-.537.09-1.093.182-1.65.22a.383.383,0,0,1-.413-.362.389.389,0,0,1,.362-.414c.518-.034,1.055-.123,1.574-.21.54-.09,1.1-.183,1.658-.22a7.247,7.247,0,0,1,3.974.383,11.419,11.419,0,0,1,3.714,2.089,8.064,8.064,0,0,1,2.552,3.414,3.42,3.42,0,0,1,.075,1.992,2.007,2.007,0,0,1-1.281,1.547.386.386,0,0,1-.173.041" transform="translate(-34.457 -81.573)"/>
        <path id="Trazado_207864" data-name="Trazado 207864" d="M248.636,129.84l-1.939-7.758s5.027-13.071,7.756-13.5,5.892-2.157,4.886-7.04-3.45-3.735-3.45-3.735c-2.441-4.165-4.6-3.878-6.033-3.16-3.879-5.171-12.212-5.89-16.809,2.586s-3.017,24.709.145,43.673c4.885-3.3,15.444-11.061,15.444-11.061" transform="translate(-51.545 -20.332)" fill="#ffd4d4"/>
        <path id="Trazado_207865" data-name="Trazado 207865" d="M143.34,204.525a31.445,31.445,0,0,1-21.2-8.18.388.388,0,1,1,.518-.577,30.719,30.719,0,0,0,22.645,7.917c5.515-.367,10.512-2.278,12.727-4.867a19.046,19.046,0,0,0,3.948-10.923.4.4,0,0,1,.4-.374.388.388,0,0,1,.374.4,19.469,19.469,0,0,1-4.13,11.4c-2.348,2.746-7.555,4.763-13.268,5.142-.605.04-1.281.066-2.015.066" transform="translate(-27.323 -41.993)"/>
        <path id="Trazado_207866" data-name="Trazado 207866" d="M238.838,121.534c-2.8-1.029-3.218-3.435-.925-5.344l12.38-10.316c2.292-1.911,4.58-1.068,5.087,1.873l2.747,15.876c.509,2.94-1.366,4.5-4.166,3.473Z" transform="translate(-52.947 -23.48)" fill="#7db3db"/>
        <path id="Trazado_207867" data-name="Trazado 207867" d="M255.9,105.7c.145,2.571,1.643,3.142,2.714,2.5-.428,2.856,2.144,3.426,2.858,2.784s-.216-9-5.214-8.355a5.161,5.161,0,0,0-.358,3.071" transform="translate(-57.286 -22.976)" fill="#ffd4d4"/>
        <path id="Trazado_207868" data-name="Trazado 207868" d="M245.159,91.079c-6.537-1.82-12.641,3.322-14.57,13.07-.879,4.444-.645,10.45-.058,16.306a24.9,24.9,0,0,1,3.194.518l.4-7.612c1.822.536,9.857,1.607,11.036-2.785s-4.072-5.786-8.785-4.071c.535-2.357,1.714-6.321,4.713-7.393s4.821,6.643,8.25,4.715,2.356-10.927-4.178-12.749" transform="translate(-51.508 -20.315)" fill="#ffd4d4"/>
        <path id="Trazado_207869" data-name="Trazado 207869" d="M239.533,115.2a17.815,17.815,0,0,1-4.444-.533.388.388,0,0,1,.219-.744c1.358.4,6.175,1.069,8.856-.434a3.349,3.349,0,0,0,1.7-2.079,2.919,2.919,0,0,0-.724-3.128c-1.483-1.36-4.59-1.556-7.554-.479a.382.382,0,0,1-.389-.074.387.387,0,0,1-.122-.376c.982-4.321,2.605-6.83,4.961-7.672,1.668-.6,2.933.981,4.158,2.5,1.507,1.873,2.6,3.041,4.032,2.237a3.474,3.474,0,0,0,1.536-2.348,8.773,8.773,0,0,0-1.363-6.581.388.388,0,1,1,.643-.434,9.581,9.581,0,0,1,1.475,7.193A4.222,4.222,0,0,1,250.6,105.1c-2.107,1.187-3.654-.733-5.017-2.427-1.1-1.372-2.147-2.667-3.292-2.26-1.967.7-3.378,2.812-4.3,6.439,3.019-.906,6.1-.58,7.671.859a3.653,3.653,0,0,1,.949,3.9,4.1,4.1,0,0,1-2.066,2.555,10.573,10.573,0,0,1-5.01,1.034" transform="translate(-52.583 -21.25)"/>
        <path id="Trazado_207870" data-name="Trazado 207870" d="M257.37,107.978a1.972,1.972,0,0,1-.341-.029c-.57-.1-1.543-.559-1.648-2.505a.388.388,0,1,1,.775-.042c.04.74.247,1.649,1.007,1.783,1.115.192,3.077-1.268,4.031-3.52a5.419,5.419,0,0,0-.355-4.311.388.388,0,0,1,.7-.334,6.109,6.109,0,0,1,.37,4.948c-.963,2.272-2.968,4.01-4.539,4.01" transform="translate(-57.19 -22.125)"/>
        <path id="Trazado_207871" data-name="Trazado 207871" d="M261.272,113.04a2.191,2.191,0,0,1-1.44-.5,3.071,3.071,0,0,1-.742-3.038.388.388,0,1,1,.762.145,2.356,2.356,0,0,0,.482,2.3,1.731,1.731,0,0,0,1.745.166.388.388,0,0,1,.266.729,3.123,3.123,0,0,1-1.073.2" transform="translate(-57.999 -24.45)"/>
        <path id="Trazado_207872" data-name="Trazado 207872" d="M355.455,148.3l-57.7-33.312c-5.747-3.318-15.153-3.318-20.9,0l-57.7,33.312c-5.748,3.318-10.45,11.464-10.45,18.1v66.626c0,6.637,4.7,14.782,10.45,18.1l57.7,33.312c5.747,3.319,15.153,3.319,20.9,0l57.7-33.312c5.747-3.319,10.45-11.465,10.45-18.1V166.4c0-6.637-4.7-14.782-10.45-18.1" transform="translate(-46.737 -25.193)" fill="#def2ff"/>
        <path id="Trazado_207873" data-name="Trazado 207873" d="M339.262,196.908a39.364,39.364,0,1,0-56.228,35.575c4.3,2.613,4.313,6.006,4.126,12.065-.157,5.1-.5,9.209,1.849,11.368,1.876,2.056,6.042,3.487,10.89,3.487s9.013-1.431,10.891-3.487c2.351-2.158,2.005-6.267,1.847-11.368-.186-6.059-.175-9.452,4.125-12.065a39.367,39.367,0,0,0,22.5-35.575" transform="translate(-58.344 -35.28)" fill="#f2ac30"/>
        <path id="Trazado_207874" data-name="Trazado 207874" d="M339.563,196.8a40.233,40.233,0,0,0-27.109-37.7c-16.221-5.569-34.426.509-44.626,14.09-10.7,14.248-10.033,34.387.837,48.3a39.957,39.957,0,0,0,9.761,8.816c1.882,1.223,4.081,2.012,5.793,3.469a8.032,8.032,0,0,1,2.46,5.733c.386,4.561-.778,9.286.35,13.777.91,3.623,4.837,5.207,8.118,5.933,5.54,1.225,15.391.639,17.447-5.933,2.035-6.506-3.1-17.014,4.772-20.819a40.1,40.1,0,0,0,22.2-35.669.388.388,0,0,0-.776,0,39.024,39.024,0,0,1-21.812,35c-3.141,1.574-4.521,4.316-4.808,7.712-.4,4.693,1.3,10.33-.768,14.734-2.2,4.687-9.991,4.936-14.273,4.51a14.194,14.194,0,0,1-7.333-2.653c-2.052-1.622-2.364-4.087-2.439-6.539-.133-4.306.87-8.946-.466-13.138-1.183-3.718-5.078-4.9-8.071-6.786a38.982,38.982,0,0,1-17.746-37.164c1.9-18.553,17.6-33.177,36.022-34.559A38.98,38.98,0,0,1,338.787,196.8a.388.388,0,0,0,.776,0" transform="translate(-58.257 -35.167)" fill="#f2ac30"/>
        <path id="Trazado_207875" data-name="Trazado 207875" d="M320.347,262.563a59.5,59.5,0,0,1-25.6,0,42.532,42.532,0,0,1,.061,5.5c-.157,5.1-.5,9.209,1.849,11.368,1.877,2.056,6.042,3.487,10.89,3.487s9.013-1.431,10.891-3.487c2.351-2.158,2.005-6.268,1.848-11.368a42.676,42.676,0,0,1,.06-5.5" transform="translate(-65.994 -58.798)" fill="#32015c"/>
        <path id="Trazado_207876" data-name="Trazado 207876" d="M320.082,262.077a60.017,60.017,0,0,1-25.392,0,.392.392,0,0,0-.491.374c.45,5.02-1.284,10.985.93,15.7,1.958,4.174,8.284,4.988,12.256,5.044,4.241.06,9.965-1.012,12.259-5.044,1.037-1.824.988-4.244.98-6.266-.011-3.145-.332-6.294-.051-9.435.045-.5-.732-.494-.776,0-.418,4.659.772,9.57-.376,14.145-1.214,4.833-7.951,5.767-12.035,5.824-4.3.061-10.554-1.1-12.034-5.824-.65-2.078-.449-4.47-.384-6.614a63.184,63.184,0,0,0,.007-7.532l-.491.375a61.017,61.017,0,0,0,25.8,0c.489-.106.282-.854-.206-.749" transform="translate(-65.832 -58.687)" fill="#32015c"/>
        <path id="Trazado_207877" data-name="Trazado 207877" d="M299.362,249.844h-.027a.775.775,0,0,1-.749-.8,69.992,69.992,0,0,0-3.516-24.036,16.823,16.823,0,0,1-2.507.113c-7.566-.221-11.9-4.2-13.3-7.541-.888-2.1-.724-4.114.438-5.378.743-.809,2.557-1.98,6.353-.746,4.6,1.5,7.837,6.121,10.038,11.811a14.4,14.4,0,0,0,7.033-3.809,24.028,24.028,0,0,1-6.977-15.59c-.234-6.451,3.285-9.3,6.656-9.808a7.362,7.362,0,0,1,8.32,5.179c1.251,4.619-.511,13.5-5.128,19.353q-.321.407-.655.789a15.806,15.806,0,0,0,2.445,1.683,13.461,13.461,0,0,0,2.836,1.18c2.83-8.52,6.95-12.211,9.277-13.69a6.412,6.412,0,0,1,6.539-.461,5.162,5.162,0,0,1,2.74,4.526c.027,1.9-.906,5.639-7.449,9.411a14.768,14.768,0,0,1-10.013,2.053c-1.684,5.613-2.819,13.276-2.538,23.685a.777.777,0,0,1-.755.8.792.792,0,0,1-.8-.755c-.283-10.5.826-18.3,2.531-24.084a15.076,15.076,0,0,1-3.123-1.305,17.179,17.179,0,0,1-2.759-1.915,15.875,15.875,0,0,1-7.647,4.232,74.233,74.233,0,0,1,3.512,24.357.776.776,0,0,1-.775.75m-16.34-37.381a2.848,2.848,0,0,0-2.183.786c-.739.8-.8,2.2-.151,3.724,1.231,2.916,5.091,6.392,11.921,6.592a15.141,15.141,0,0,0,1.894-.061c-2.1-5.238-5.044-9.309-8.935-10.575a8.371,8.371,0,0,0-2.546-.466m29.171,10.117a13.455,13.455,0,0,0,8.757-1.9c4.277-2.467,6.709-5.4,6.672-8.045a3.582,3.582,0,0,0-1.925-3.183,4.887,4.887,0,0,0-4.968.405c-1.718,1.092-5.716,4.406-8.535,12.717m-8.259-27.055a5.959,5.959,0,0,0-.9.068c-2.71.411-5.535,2.785-5.338,8.217a22.373,22.373,0,0,0,6.491,14.527q.311-.357.588-.709c4.721-5.986,5.849-14.292,4.849-17.984a5.737,5.737,0,0,0-5.688-4.119" transform="translate(-62.41 -43.437)" fill="#32015c"/>
        <path id="Trazado_207878" data-name="Trazado 207878" d="M307.681,270.3a36.4,36.4,0,0,1-10.308-1.35.388.388,0,1,1,.219-.744c6.763,1.988,13.879,1.336,20.02.569a.393.393,0,0,1,.432.338.387.387,0,0,1-.337.432,80.675,80.675,0,0,1-10.027.756" transform="translate(-66.531 -60.057)"/>
        <path id="Trazado_207879" data-name="Trazado 207879" d="M232.234,249.549c-2.341,1.833-4.6.925-5.014-2.019l-2.251-15.9c-.417-2.945,1.5-4.443,4.254-3.332l14.894,6c2.758,1.111,3.1,3.519.759,5.352Z" transform="translate(-50.367 -51.043)" fill="#d4336e"/>
        <path id="Trazado_207880" data-name="Trazado 207880" d="M298.824,314.882a3.119,3.119,0,0,1-1.326-.279c-.65-.3-1.731-1.141-1.683-3.367.045-2.079,1.308-3.877,3.554-5.063a10.68,10.68,0,0,1,1.176-.531,9.788,9.788,0,0,0-5.581-2.365,6.137,6.137,0,0,0-6.3,3.411.388.388,0,1,1-.694-.347,6.894,6.894,0,0,1,7.054-3.838,10.559,10.559,0,0,1,6.346,2.855,15.38,15.38,0,0,1,12.127,1.487.388.388,0,1,1-.424.65,14.52,14.52,0,0,0-11.1-1.5,7.26,7.26,0,0,1,1.438,2.507,4.732,4.732,0,0,1-1.446,5.1,4.876,4.876,0,0,1-3.137,1.279m2.337-8.641a10.459,10.459,0,0,0-1.429.618,5.214,5.214,0,0,0-3.14,4.394,2.584,2.584,0,0,0,1.234,2.646,3.566,3.566,0,0,0,3.623-.879,3.954,3.954,0,0,0,1.218-4.286,6.677,6.677,0,0,0-1.5-2.493" transform="translate(-64.479 -67.736)" fill="#495edb"/>
        <path id="Trazado_207881" data-name="Trazado 207881" d="M376.534,263.782a9.338,9.338,0,1,1-9.338-9.338,9.338,9.338,0,0,1,9.338,9.338" transform="translate(-80.138 -56.98)" fill="#7db3db"/>
        <path id="Trazado_207882" data-name="Trazado 207882" d="M378.508,174.038a4.524,4.524,0,0,1-6.34.862l-7.034-5.346a4.526,4.526,0,0,1,5.479-7.206l7.033,5.348a4.527,4.527,0,0,1,.862,6.342" transform="translate(-81.368 -36.149)" fill="#ffc4c4"/>
        <path id="Trazado_207883" data-name="Trazado 207883" d="M256.371,272.707a4.524,4.524,0,0,1,5.7,2.919l2.711,8.409a4.526,4.526,0,0,1-8.616,2.776l-2.71-8.409a4.525,4.525,0,0,1,2.92-5.695" transform="translate(-56.709 -61.02)" fill="#ffc4c4"/>
        <path id="Trazado_207884" data-name="Trazado 207884" d="M239.443,185.506a6.53,6.53,0,1,1,6.53-6.53,6.537,6.537,0,0,1-6.53,6.53m0-12.284a5.754,5.754,0,1,0,5.754,5.754,5.76,5.76,0,0,0-5.754-5.754" transform="translate(-52.158 -38.617)" fill="#495edb"/>
        <path id="Trazado_207885" data-name="Trazado 207885" d="M284.7,145.953a15.628,15.628,0,0,1-4.267-.673.388.388,0,1,1,.213-.747c4.085,1.163,6.873.788,9.618-1.3a21.786,21.786,0,0,0,2.4-2.133,7.861,7.861,0,0,1-3.316-3.047,7,7,0,0,1-.564-5.847,3.773,3.773,0,0,1,2.651-2.332c1.9-.244,4.256.674,4.982,2.61,1.443,2.88-.422,6.032-2.4,8.294a6.893,6.893,0,0,0,2.9.181,7.956,7.956,0,0,0,6.528-5.852.388.388,0,1,1,.749.2,8.73,8.73,0,0,1-7.165,6.42,7.666,7.666,0,0,1-3.589-.314,23.94,23.94,0,0,1-2.7,2.437,9.567,9.567,0,0,1-6.034,2.1m7.356-15.344a3.84,3.84,0,0,0-.477.029,2.973,2.973,0,0,0-2.075,1.864,6.17,6.17,0,0,0,.508,5.148,7.042,7.042,0,0,0,3.216,2.85c2.074-2.314,3.708-5.252,2.48-7.7a3.889,3.889,0,0,0-3.651-2.188" transform="translate(-62.737 -29.076)" fill="#f2ac30"/>
        <path id="Trazado_207886" data-name="Trazado 207886" d="M418.615,241.559a64.25,64.25,0,0,0-3.056-11.69c-.861-2.231-.236-3.627-3.577-5.566s-7.435-5.388-8.19-5.711-1.939-4.955-6.357-.861-9.264,4.417-10.45.538c-2.263-.43-3.556-2.261-2.91-3.555s5.819-4.848,5.819-4.848c-2.586,1.4-7.112,1.723-7.757-.215s1.509-3.45,5.172-4.526,18.318-7.65,22.3-5.172,10.346,7.865,14.87,10.883,6.142,7.865,8.3,13.575,3.879,11.745,3.879,11.745-5.652,9.93-18.042,5.4" transform="translate(-85.55 -44.653)" fill="#ffd4d4"/>
        <path id="Trazado_207887" data-name="Trazado 207887" d="M387.192,222.588a3,3,0,0,1-2.6-1.411.388.388,0,1,1,.64-.44c1.409,2.048,3.822.83,6.378-.719l.514-.309c.195-.1.375-.191.555-.279a6.958,6.958,0,0,0,1.735-1.073.388.388,0,1,1,.532.565,7.612,7.612,0,0,1-1.923,1.2c-.175.086-.349.173-.52.262l-.49.295c-1.3.786-3.149,1.906-4.824,1.906" transform="translate(-86.111 -48.875)"/>
        <path id="Trazado_207888" data-name="Trazado 207888" d="M385.365,213.787a5.117,5.117,0,0,1-1.32-.167.388.388,0,1,1,.2-.75,6.839,6.839,0,0,0,3.035-.092c.248-.045.5-.09.754-.131a16.155,16.155,0,0,0,2.57-.836c.194-.1.4-.191.6-.283s.386-.176.6-.281c.144-.073.287-.161.435-.253a4.051,4.051,0,0,1,1-.492.388.388,0,1,1,.213.746,3.434,3.434,0,0,0-.8.407c-.167.1-.331.2-.494.286-.219.111-.421.2-.623.294s-.386.176-.6.281a16.9,16.9,0,0,1-2.746.893c-.276.044-.521.089-.764.133a11.482,11.482,0,0,1-2.05.246" transform="translate(-85.938 -47.136)"/>
        <path id="Trazado_207889" data-name="Trazado 207889" d="M414.574,199.459a3.333,3.333,0,0,1,.929,4.6l-8.941,13.462a3.327,3.327,0,0,1-4.6.93L388.5,209.512a3.33,3.33,0,0,1-.929-4.6l8.94-13.461a3.327,3.327,0,0,1,4.6-.931Z" transform="translate(-86.669 -42.542)" fill="#495edb"/>
        <path id="Trazado_207890" data-name="Trazado 207890" d="M509.91,152.222c-19.966,1.06-16.524,17.523-14.929,22.9,1.46,4.924-5.321,9.033-1.86,15.115s9.566,9.375,19.048,9.808c0,0-.469,10.561-.9,14.006l19.828-1.293c-.831-6.108-2.622-18.774-.181-23.489.993-1.918,6.988,6.136,13.358-3.662s-14.4-34.446-34.364-33.388" transform="translate(-110.206 -34.081)" fill="#ffd4d4"/>
        <path id="Trazado_207891" data-name="Trazado 207891" d="M517.818,212.488a.388.388,0,0,1-.023-.775,24.98,24.98,0,0,0,13.6-5.221.388.388,0,0,1,.484.607,25.776,25.776,0,0,1-14.037,5.388h-.022" transform="translate(-115.873 -46.223)"/>
        <path id="Trazado_207892" data-name="Trazado 207892" d="M518.453,184.709c1.984-.1,2.945,3.784,1.018,4.03s-2.646-3.949-1.018-4.03" transform="translate(-115.9 -41.363)"/>
        <path id="Trazado_207893" data-name="Trazado 207893" d="M518.444,185.169a.384.384,0,0,1-.159-.034l-.119-.054a5.151,5.151,0,0,1-1.866-1.137.388.388,0,0,1,.6-.494,4.883,4.883,0,0,0,1.585.924l.12.054a.388.388,0,0,1-.159.742" transform="translate(-115.6 -41.05)"/>
        <path id="Trazado_207894" data-name="Trazado 207894" d="M499.478,182.22c1.986-.029,2.8,3.888.87,4.063s-2.5-4.042-.87-4.063" transform="translate(-111.639 -40.806)"/>
        <path id="Trazado_207895" data-name="Trazado 207895" d="M499.478,182.673a.4.4,0,0,1-.173-.04l-.13-.065a5.09,5.09,0,0,1-1.808-1.2.388.388,0,1,1,.615-.471,4.849,4.849,0,0,0,1.537.973l.132.065a.388.388,0,0,1-.173.736" transform="translate(-111.361 -40.476)"/>
        <path id="Trazado_207896" data-name="Trazado 207896" d="M506.612,192.026a5.046,5.046,0,0,1-3.623-1.121c-1.372-1.227-.563-2.717-.027-3.7a10.308,10.308,0,0,0,1.546-4.915,4.57,4.57,0,0,0-1.44-3.187l-.354-.434a.388.388,0,1,1,.6-.486l.349.427a5.3,5.3,0,0,1,1.617,3.665,11,11,0,0,1-1.64,5.3c-.636,1.17-.988,1.994-.137,2.755,1.093.98,2.459.948,3.9.91.221,0,.442-.011.663-.012h0a.388.388,0,0,1,0,.776c-.217,0-.433.007-.649.012-.272.006-.545.013-.818.013" transform="translate(-112.469 -39.869)"/>
        <path id="Trazado_207897" data-name="Trazado 207897" d="M509.823,201.913c-1.164,0-2.227-1.021-3.158-3.035a.39.39,0,0,1,.038-.39.4.4,0,0,1,.359-.158,11.018,11.018,0,0,0,6.293-2.571.388.388,0,0,1,.668.337c-.484,2.416-2.1,5.818-4.2,5.818m-2.186-2.819c.706,1.34,1.456,2.043,2.186,2.043,1.3,0,2.518-2.09,3.139-4.046a13.655,13.655,0,0,1-5.325,2" transform="translate(-113.454 -43.809)"/>
        <path id="Trazado_207898" data-name="Trazado 207898" d="M514.81,177.683c-.536-1.346.778-2.866,3.2-1.843a9.841,9.841,0,0,1,4.437,4.109c.862,1.615-.164.674-1.187-.132a7.06,7.06,0,0,0-4.948-1.7c-.888.019-1.394.1-1.5-.436" transform="translate(-115.259 -39.302)" fill="#d4336e"/>
        <path id="Trazado_207899" data-name="Trazado 207899" d="M522.583,181.112c-.293,0-.622-.254-1.336-.827l-.34-.272a6.623,6.623,0,0,0-4.5-1.616l-.479.01c-.142,0-.272.008-.391.008-.345,0-1.065,0-1.219-.763a1.852,1.852,0,0,1,.195-1.736c.635-.936,2.039-1.175,3.537-.542a10.16,10.16,0,0,1,4.628,4.284c.372.7.444.995.3,1.235a.528.528,0,0,1-.393.219m-6.178-3.491a7.419,7.419,0,0,1,4.982,1.783l.345.275.121.1a9.515,9.515,0,0,0-4.107-3.687c-1.15-.485-2.168-.365-2.594.263a1.138,1.138,0,0,0-.1,1.079c.037.155.048.208.478.208.112,0,.234,0,.368-.008Z" transform="translate(-115.146 -39.194)" fill="#d4336e"/>
        <path id="Trazado_207900" data-name="Trazado 207900" d="M491.368,159.241c1.724-2.944,8.62-10.344,18.245-14.439,0,9.052,4.811,23.13,15.946,23.488-.359,3.737-.79,6.465.142,6.825s4.023-1.651,4.526-6.105c2.66-2.872,9.049-1.94,10.488,2.587s-2.945,11.564-10.989,8.333c-1.293-.216-2.874,2.155-2.586,7.326,6.536.719,13.72-1.581,17.672-8.332s3.232-15.011-.865-21.621-4.884-9.267-4.092-12.643c11.924,2.442,19.33-5.9,17.716-16.455s-11.764-17.073-23.185-14.163-14.648,16.394-3.1,24.252c-1.617,1.831-6.583.044-12.832-2.864s-24.86-7.159-34.049,7.22c-9.41,14.725,4.526,24.349,8.081,23.38a19.8,19.8,0,0,1-1.113-6.788" transform="translate(-107.758 -25.382)" fill="#d4336e"/>
        <path id="Trazado_207901" data-name="Trazado 207901" d="M571.462,297.973c-7.328-16.951-9.769-27.008-16.808-44.534s-19.969-17.527-27.726-18.39-10.26-4.4-10.692-10.141c-15.946,5.89-19.047-1.639-19.333-1.064-1.366,8.477-4.023,8.476-13.219,7.182s-20.973,13.648-30.454,25.86c0,0-5.748-16.163-7.185-18.605-7.542,6.572-13.717,5.869-18.351,4.361,0,0,2.013,7.133,3.189,12.089-9.258,3.124,1.857,27.9,6.757,37.423,8.978,17.455,24.625,12.263,36.551-5.838,2.889,2.989,6.131,6.035,6.277,7.473a79.568,79.568,0,0,1-.661,13.235c-.716,4.309-4.309,16.665-4.309,17.1s4.6,11.637,4.6,11.637,45.109.863,44.967,7.327c6.9-1.006,29.882.431,43.529-6.178s10.2-21.98,2.872-38.933m-35.053,19.252,1.867-20.4,5.172,19.825Z" transform="translate(-95.692 -50.12)" fill="#7db3db"/>
        <path id="Trazado_207902" data-name="Trazado 207902" d="M571.677,297.667c-4.05-9.4-7.423-19.041-10.843-28.682q-2.688-7.577-5.643-15.053a34.755,34.755,0,0,0-6.841-11.283c-4.325-4.569-10.238-6.737-16.355-7.536-3.114-.407-6.308-.459-9.315-1.443-4.1-1.34-5.827-4.8-6.176-8.872a.393.393,0,0,0-.491-.374c-5.366,1.94-13.25,4.169-18.081-.235-.33-.3-1.017-1.3-1.485-.65a8.874,8.874,0,0,0-.5,2.431,12.536,12.536,0,0,1-.81,2.378,4.541,4.541,0,0,1-3.041,2.581c-3.275.9-6.753-.539-10.043-.47-3.354.071-6.51,2.032-9.119,3.951-7.981,5.868-14.08,14.347-20.1,22.094l.649.172q-1.531-4.3-3.126-8.582c-1.246-3.348-2.327-7-4.1-10.116a.394.394,0,0,0-.61-.079c-5.284,4.5-11.269,6.392-17.974,4.262a.391.391,0,0,0-.477.477c1.131,4.011,2.219,8.035,3.189,12.088.092-.159.182-.318.272-.477-5.132,1.885-4,8.942-3.134,13.094,1.52,7.316,4.581,14.369,7.775,21.091,3.023,6.362,6.905,13.374,14.532,14.59,7.818,1.247,14.952-4.777,19.732-10.2a59.841,59.841,0,0,0,4.84-6.42l-.609.079c1.253,1.291,2.526,2.563,3.758,3.873.929.988,2.345,2.248,2.43,3.69a66.446,66.446,0,0,1-.164,7.842c-.326,5.424-1.759,10.577-3.166,15.8-.517,1.918-1.062,3.828-1.55,5.753a3.99,3.99,0,0,0,.535,2.465c1.27,3.3,2.617,6.573,3.959,9.845a.4.4,0,0,0,.374.285c7.073.137,14.153.525,21.2,1.122a128.718,128.718,0,0,1,15.6,2.074c1.678.352,7.737,1.244,7.781,3.743a.4.4,0,0,0,.491.374c6.381-.885,12.975-.535,19.4-.993,7.895-.563,16.023-1.61,23.331-4.808,16.629-7.276,9.273-27.393,3.9-39.879-.2-.459-.865-.063-.67.391,3.216,7.481,6.439,15.592,6.375,23.864a16.787,16.787,0,0,1-2.751,9.369c-2.225,3.283-5.883,5.143-9.494,6.49-7.4,2.764-15.522,3.507-23.351,3.97-5.618.332-11.367.074-16.948.847l.49.375c-.05-2.906-5.446-3.824-7.466-4.3a120.847,120.847,0,0,0-17.448-2.361c-5.431-.452-10.876-.742-16.322-.938q-1.925-.069-3.85-.115c-.556-.012.22.556-.039-.075q-.683-1.67-1.36-3.343-1.129-2.782-2.23-5.576c-.324-.825-.935-1.91-.76-2.625.988-4.013,2.178-7.976,3.18-11.986a62.943,62.943,0,0,0,1.739-13.943c.033-1.366.4-3.484-.247-4.77-1.377-2.718-4.091-4.865-6.179-7.015a.393.393,0,0,0-.609.078c-4.624,6.943-11.112,14.614-19.779,16.195-8.35,1.523-13.714-5.525-17-12.132a116.062,116.062,0,0,1-7.816-19.466c-1.159-4.034-3.9-13.545,1.724-15.611a.4.4,0,0,0,.271-.478c-.971-4.052-2.059-8.078-3.189-12.088l-.477.477c6.984,2.219,13.231.217,18.728-4.462l-.609-.078c1.805,3.18,2.895,6.907,4.165,10.32q1.518,4.085,2.98,8.192c.087.243.454.422.649.172,6.1-7.857,12.271-16.335,20.361-22.282,3.277-2.409,6.715-3.889,10.809-3.326,2.716.372,5.886,1,8.536-.026,2.181-.844,3.063-3.152,3.6-5.242.191-.742.6-1.606,0-2.114.123.1.231.227.344.341a10.474,10.474,0,0,0,1.292,1.1c5.071,3.686,12.617,1.574,17.89-.332l-.491-.375c.25,2.912,1.027,5.688,3.263,7.7,2.486,2.23,6.056,2.664,9.237,2.98,6.493.646,12.741,1.83,17.894,6.143a29.918,29.918,0,0,1,8.037,11.815c2.13,5.19,4.046,10.474,5.926,15.759,3.451,9.7,6.844,19.4,10.922,28.867.2.459.865.063.67-.391" transform="translate(-95.572 -50.01)" fill="#7db3db"/>
        <path id="Trazado_207903" data-name="Trazado 207903" d="M568.165,338.182l1.867-20.4-.762.1q2.585,9.912,5.172,19.825l.374-.491-7.039.574c-.5.04-.5.817,0,.776l7.039-.574a.4.4,0,0,0,.375-.491q-2.587-9.913-5.172-19.825a.39.39,0,0,0-.763.1l-1.867,20.4c-.046.5.73.494.776,0" transform="translate(-127.06 -71.078)" fill="#7db3db"/>
        <path id="Trazado_207904" data-name="Trazado 207904" d="M456.262,355.251c3.162-3.017,10.774-8.333,12.643-5.6a6.583,6.583,0,0,1,4.884-1.579c2.155-2.3,4.742-2.875,7.327.144s10.343,9.481,11.637,10.774,11.35,1,33.905-3.879c4.6,1.868,4.844,14.875,4.844,14.875-8.373.53-70.049.237-70.049.237Z" transform="translate(-102.175 -77.515)" fill="#ffd4d4"/>
        <path id="Trazado_207905" data-name="Trazado 207905" d="M485.317,363.645a.388.388,0,0,1-.277-.116l-.106-.109a.378.378,0,0,1-.094-.158,6.833,6.833,0,0,1-.743-1.689c-.2-.4-.389-.8-.576-1.2s-.38-.814-.6-1.249c-.473-.731-.915-1.56-1.343-2.362-.335-.631-.681-1.278-1.05-1.892-.556.649-1.152,1.275-1.731,1.884a34.032,34.032,0,0,0-2.44,2.754l-.139.186c-.96,1.293-2.748,3.695-5,2.393A2.368,2.368,0,0,1,470,360.607a5.085,5.085,0,0,1,.761-3.58c.551-.883,1.158-1.738,1.745-2.564s1.177-1.659,1.71-2.51c.289-.435.548-.882.807-1.329a12.354,12.354,0,0,1,1.834-2.618.388.388,0,0,1,.549.549,11.607,11.607,0,0,0-1.71,2.458c-.268.461-.535.923-.827,1.361-.538.861-1.143,1.714-1.728,2.538s-1.18,1.663-1.714,2.515a4.445,4.445,0,0,0-.679,2.967,1.609,1.609,0,0,0,.855,1.01c1.54.891,2.769-.522,4-2.176l.142-.191a34.661,34.661,0,0,1,2.5-2.821c.724-.761,1.409-1.48,2.039-2.256a.389.389,0,0,1,.627.035c.494.768.935,1.6,1.363,2.4s.854,1.6,1.331,2.344c.242.477.435.89.628,1.3.184.393.368.789.578,1.21a.636.636,0,0,1,.029.075,5.354,5.354,0,0,0,.788,1.688.389.389,0,0,1-.3.63" transform="translate(-105.227 -77.906)"/>
        <path id="Trazado_207906" data-name="Trazado 207906" d="M463.41,361.232a3.119,3.119,0,0,1-2.49-1.112c-1.422-1.984.639-4.046,1.317-4.723a37.294,37.294,0,0,1,7.735-5.235.388.388,0,1,1,.379.678,36.7,36.7,0,0,0-7.571,5.113c-1.544,1.544-1.942,2.721-1.244,3.7a2.885,2.885,0,0,0,3.5.417,16.359,16.359,0,0,0,3.245-2.2l.511.585a17.017,17.017,0,0,1-3.422,2.312,4.45,4.45,0,0,1-1.956.466" transform="translate(-103.108 -78.404)"/>
        <path id="Trazado_207907" data-name="Trazado 207907" d="M458,363.767a.388.388,0,0,1-.054-.772,4.449,4.449,0,0,0,2.15-.968.388.388,0,1,1,.549.549,5.176,5.176,0,0,1-2.59,1.187.435.435,0,0,1-.055,0" transform="translate(-102.477 -81.046)"/>
        <path id="Trazado_207908" data-name="Trazado 207908" d="M488.264,298a.387.387,0,0,1-.265-.1,15.294,15.294,0,0,1-3.464-5.543c-2.278-7.129-.452-14.543,1.862-21.495.126-.377-.492-1.069-.9-1.527-.159-.179-.31-.348-.427-.5-.408-.692-.788-1.343-1.166-1.994a.388.388,0,1,1,.671-.39q.566.978,1.136,1.95c.08.1.217.253.365.416.589.662,1.325,1.486,1.057,2.29-2.272,6.826-4.07,14.1-1.859,21.013a14.665,14.665,0,0,0,3.254,5.212.388.388,0,0,1-.265.671" transform="translate(-108.272 -59.625)"/>
        <path id="Trazado_207909" data-name="Trazado 207909" d="M434.487,263.16a7.312,7.312,0,0,1-3.8-.784.388.388,0,0,1,.427-.649c2.329,1.536,10.533.569,17.093-3.908a.388.388,0,1,1,.438.641,26.669,26.669,0,0,1-14.155,4.7" transform="translate(-96.408 -57.721)"/>
        <path id="Trazado_207910" data-name="Trazado 207910" d="M463.746,275.932a.389.389,0,0,1-.38-.315,49.121,49.121,0,0,0-3.351-10.732.388.388,0,1,1,.722-.286,49.768,49.768,0,0,1,3.391,10.873.388.388,0,0,1-.308.454.393.393,0,0,1-.074.007" transform="translate(-103.009 -59.199)"/>
        <path id="Trazado_207911" data-name="Trazado 207911" d="M573.286,330.349a.39.39,0,0,1-.373-.28c-.605-2.1-1.253-4.516-1.938-7.071-1.369-5.107-2.921-10.9-4.563-15.724-2.368-6.96-4.265-14.049-6.324-21.93a.388.388,0,0,1,.278-.473.384.384,0,0,1,.473.278c2.055,7.865,3.949,14.941,6.309,21.876,1.651,4.853,3.206,10.655,4.578,15.773.685,2.551,1.33,4.96,1.934,7.055a.388.388,0,0,1-.265.48.373.373,0,0,1-.108.016" transform="translate(-125.422 -63.791)"/>
        <path id="Trazado_207912" data-name="Trazado 207912" d="M546.433,354.274a.381.381,0,0,1-.271-.112.473.473,0,0,1-.113-.466.5.5,0,0,1,.427-.251.285.285,0,0,0,.108-.012.436.436,0,0,1,.08-.03c.171-.043.342-.1.521-.168a6.4,6.4,0,0,1,.895-.268,11.84,11.84,0,0,0,1.715-.411l.411-.119c.365-.064.685-.092.994-.119.133-.012.265-.023.392-.036-.021-.05-.043-.1-.064-.147a5.018,5.018,0,0,1-.626-2.95,5.856,5.856,0,0,1,2.761-3.6,16.877,16.877,0,0,1,6.514-1.9c.43-.065.857-.129,1.278-.2a51.673,51.673,0,0,1,5.45-.485c.888-.047,1.776-.094,2.665-.164,2.119-.108,4.3-.218,6.494-.218h4.741a.388.388,0,1,1,0,.776h-4.741c-2.176,0-4.345.109-6.444.216-.885.071-1.78.118-2.673.165a50.964,50.964,0,0,0-5.367.477c-.422.071-.854.136-1.287.2a16.323,16.323,0,0,0-6.218,1.792,5.111,5.111,0,0,0-2.408,3.069,4.382,4.382,0,0,0,.572,2.51c.092.21.184.418.267.626a.388.388,0,0,1-.284.525,8.784,8.784,0,0,1-.953.117c-.29.025-.59.05-.891.1l-.363.108a12.319,12.319,0,0,1-1.8.431,5.587,5.587,0,0,0-.766.234c-.191.068-.374.132-.556.18a.9.9,0,0,1-.246.067.392.392,0,0,1-.211.062" transform="translate(-122.276 -76.725)"/>
        <path id="Trazado_207913" data-name="Trazado 207913" d="M560.064,370.769a.388.388,0,0,1-.388-.388,22.892,22.892,0,0,0-1.375-8.052l-.189-.531A14.653,14.653,0,0,0,556.4,358.1a8.945,8.945,0,0,0-3.206-2.682.388.388,0,1,1,.372-.681,9.679,9.679,0,0,1,3.481,2.933,15.289,15.289,0,0,1,1.794,3.865l.185.522a23.523,23.523,0,0,1,1.422,8.075c0,.009,0,.019,0,.029v.216a.388.388,0,0,1-.388.388" transform="translate(-123.837 -79.43)"/>
        <path id="Trazado_207914" data-name="Trazado 207914" d="M506.041,332.317h-.023a.387.387,0,0,1-.365-.41,41.087,41.087,0,0,1,1.977-7.284,31.416,31.416,0,0,0,1.334-4.083c.166-.6.333-1.2.518-1.805a69.823,69.823,0,0,0,3.14-13.708,21.889,21.889,0,0,0,.429-4.272,12.186,12.186,0,0,0-.841-3.9c-.261-.827-.532-1.645-.806-2.467-.631-1.9-1.284-3.872-1.791-5.9a40.931,40.931,0,0,1-1.446-8.388,14.922,14.922,0,0,1,.163-3.32c.045-.355.089-.712.125-1.068l.036-.361c.137-1.374.279-2.793.544-4.129.222-.743.4-1.452.575-2.16s.365-1.454.584-2.185a31.316,31.316,0,0,1,1.078-3.128c.167-.433.337-.877.508-1.346.48-1.517.909-3.062,1.363-4.7.346-1.244.7-2.5,1.072-3.755.136-.688.319-1.419.5-2.126s.359-1.436.5-2.15c.092-.327.164-.611.234-.89a12.969,12.969,0,0,1,.651-2.06.388.388,0,1,1,.712.306,12.375,12.375,0,0,0-.611,1.945c-.073.286-.147.577-.234.882-.138.7-.323,1.441-.5,2.156-.174.7-.355,1.42-.5,2.126-.383,1.286-.732,2.536-1.076,3.776-.437,1.571-.888,3.2-1.377,4.74-.179.49-.35.938-.518,1.375a30.84,30.84,0,0,0-1.057,3.064c-.217.723-.4,1.453-.577,2.159s-.361,1.441-.577,2.16c-.249,1.263-.389,2.663-.524,4.018l-.036.362c-.036.362-.081.725-.126,1.087a14.107,14.107,0,0,0-.161,3.146,40.424,40.424,0,0,0,1.421,8.256c.506,2.017,1.155,3.972,1.781,5.862.275.827.547,1.648.806,2.47a12.926,12.926,0,0,1,.879,4.139,22.448,22.448,0,0,1-.438,4.386,70.385,70.385,0,0,1-3.165,13.821c-.183.6-.349,1.2-.512,1.787a32.852,32.852,0,0,1-1.368,4.181,40.728,40.728,0,0,0-1.916,7.023.388.388,0,0,1-.387.366" transform="translate(-113.235 -55.199)"/>
        <path id="Trazado_207915" data-name="Trazado 207915" d="M527.72,241.662a3.746,3.746,0,0,1-3.072-1.821c-1.469-1.875-1.806-4.125-2.132-6.3-.067-.444-.135-.9-.213-1.348-.6,1.013-1.2,2.017-1.864,3.012l-.182.276c-.931,1.411-2.663,4.037-4.618,4.282a2.478,2.478,0,0,1-2.032-.716c-1.554-1.443-1.441-3.273-1.332-5.043l.019-.331a.388.388,0,1,1,.774.046l-.019.332c-.1,1.663-.2,3.233,1.083,4.425a1.711,1.711,0,0,0,1.411.515c1.6-.2,3.266-2.725,4.066-3.938l.185-.279c.844-1.266,1.6-2.557,2.327-3.806a.433.433,0,0,1,.41-.215.381.381,0,0,1,.334.273c.177.794.3,1.61.417,2.4.326,2.173.634,4.225,1.99,5.957a2.851,2.851,0,0,0,3.536,1.28,25.868,25.868,0,0,0,4.575-2.125,15.031,15.031,0,0,0,3.675-3.15.388.388,0,0,1,.6.5,15.811,15.811,0,0,1-3.864,3.313,26.52,26.52,0,0,1-4.707,2.19,3.658,3.658,0,0,1-1.364.276" transform="translate(-114.705 -51.673)"/>
        <path id="Trazado_207916" data-name="Trazado 207916" d="M522.815,244.764a1.569,1.569,0,0,1-.283-.026,1.3,1.3,0,0,1-1.062-1.069,1.953,1.953,0,0,1,.674-2.027,1.865,1.865,0,0,1,2.047-.113.388.388,0,0,1,.192.432,1.387,1.387,0,0,1,.2.436,1.934,1.934,0,0,1-.265,1.537,1.809,1.809,0,0,1-1.5.83m.419-2.711a1.017,1.017,0,0,0-.62.208,1.177,1.177,0,0,0-.384,1.246.53.53,0,0,0,.442.469,1.04,1.04,0,0,0,1.007-.48,1.17,1.17,0,0,0,.155-.9.518.518,0,0,0-.3-.371.386.386,0,0,1-.186-.168,1.057,1.057,0,0,0-.111-.005" transform="translate(-116.765 -54.031)"/>
        <path id="Trazado_207917" data-name="Trazado 207917" d="M518.153,270.883a1.666,1.666,0,0,1-1.106-.483,1.871,1.871,0,0,1-.549-1.491,2.52,2.52,0,0,1,1-1.8,1.288,1.288,0,0,1,1.492-.077.429.429,0,0,1,.175.131,1.043,1.043,0,0,1,.716.922,2.81,2.81,0,0,1-1.1,2.637,1.306,1.306,0,0,1-.628.164m.085-3.282a.45.45,0,0,0-.271.126,1.756,1.756,0,0,0-.695,1.237,1.089,1.089,0,0,0,.306.872c.462.405.738.255.827.2a2.076,2.076,0,0,0,.714-1.832c-.011-.065-.054-.28-.161-.3a.389.389,0,0,1-.246-.155l-.005,0a1.54,1.54,0,0,0-.469-.147" transform="translate(-115.663 -59.753)"/>
        <path id="Trazado_207918" data-name="Trazado 207918" d="M516.265,298.35a1.353,1.353,0,0,1-1.045-.584,2.619,2.619,0,0,1-.409-1.875,1.5,1.5,0,0,1,.6-1.065.389.389,0,0,1,.368-.034.37.37,0,0,1,.406-.354,1.554,1.554,0,0,1,1.512,1.321,2.385,2.385,0,0,1-.978,2.489,1.057,1.057,0,0,1-.454.1m-.252-3.168a.388.388,0,0,1-.172.289.773.773,0,0,0-.263.538,1.859,1.859,0,0,0,.244,1.267c.21.255.4.349.564.27a1.7,1.7,0,0,0,.55-1.636.775.775,0,0,0-.789-.7.405.405,0,0,1-.134-.03" transform="translate(-115.279 -65.936)"/>
        <path id="Trazado_207919" data-name="Trazado 207919" d="M518,338.078a1.008,1.008,0,0,1-.553-.163,2.538,2.538,0,0,1-.691-2.459,4.32,4.32,0,0,0,.42-.584.679.679,0,0,0,.2-.2,1.549,1.549,0,0,1,.136-.161.356.356,0,0,1,.1-.072,1.382,1.382,0,0,1,1.634.4,2.054,2.054,0,0,1-.241,2.836,1.659,1.659,0,0,1-1,.407m-.479-2.511a.407.407,0,0,1-.009.058c-.121.546.02,1.426.352,1.636.177.117.452-.043.65-.2a1.285,1.285,0,0,0,.154-1.708.69.69,0,0,0-.653-.248c-.009.012-.019.023-.027.036a1.37,1.37,0,0,1-.461.419l-.005,0" transform="translate(-115.707 -74.865)"/>
        <path id="Trazado_207920" data-name="Trazado 207920" d="M429.538,215.27c-1.508-1.653-5.316-3.664-8.691-5.317-2.864-1.4-6.682,1.222-2.587,5.6s11.781,6.536,11.781,6.536" transform="translate(-93.263 -46.932)" fill="#ffd4d4"/>
        <path id="Trazado_207921" data-name="Trazado 207921" d="M429.928,222.368a.38.38,0,0,1-.1-.015c-.318-.089-7.838-2.234-11.961-6.644-2.715-2.906-1.867-4.76-1.377-5.422a3.571,3.571,0,0,1,4.418-.795c3.263,1.6,7.213,3.656,8.808,5.4a.388.388,0,0,1-.573.523c-1.523-1.669-5.625-3.784-8.575-5.229a2.829,2.829,0,0,0-3.454.558c-.781,1.055-.287,2.711,1.32,4.431,3.975,4.254,11.527,6.406,11.6,6.427a.388.388,0,0,1-.1.762" transform="translate(-93.15 -46.819)"/>
        <path id="Trazado_207922" data-name="Trazado 207922" d="M473.075,355.375H442.44L430.113,319.37a9.056,9.056,0,0,0-7.99-5.708H369.809c-3.318,0-5.153,2.569-4.078,5.708l12.7,37.09c1.39,3.6,1.552,6.565,5.162,6.565h89.484a3.825,3.825,0,0,0,0-7.65" transform="translate(-81.832 -70.241)" fill="#f2ac30"/>
        <path id="Trazado_207923" data-name="Trazado 207923" d="M472.976,354.838H442.647c-.6,0,.152.53-.012.05l-1.4-4.088-5.68-16.588L430.79,320.29c-1.392-4.067-4.6-7.165-9.133-7.165h-45.9c-2.631,0-6.171-.543-8.634.6-3.958,1.845-1.4,6.945-.414,9.834l5.648,16.5q2.5,7.3,5,14.6c1.143,3.336,1.812,8.607,6.194,8.607h89.409c5.487,0,5.4-8.063.019-8.426-.5-.033-.5.743,0,.776,4.738.319,4.171,6.874-.37,6.874H383.634c-3.444,0-4.032-3.661-4.936-6.3q-.527-1.538-1.054-3.076-5.359-15.657-10.721-31.315l-.917-2.68c-1.159-3.384,1.389-5.218,4.417-5.218h46.552c4.434,0,8.6-.435,11.716,3.628a13.649,13.649,0,0,1,1.686,3.946q1.1,3.218,2.2,6.437,4.692,13.708,9.387,27.418a.4.4,0,0,0,.374.285h30.635a.388.388,0,0,0,0-.776" transform="translate(-81.734 -70.092)" fill="#f2ac30"/>
        <path id="Trazado_207924" data-name="Trazado 207924" d="M443.515,369.378H382.672a.388.388,0,1,1,0-.776h60.843a.388.388,0,1,1,0,.776" transform="translate(-85.608 -82.544)"/>
        <path id="Trazado_207925" data-name="Trazado 207925" d="M412.168,349.6c-2.656,0-5.577-2.632-6.512-5.869a5.4,5.4,0,0,1,.535-4.753,3.345,3.345,0,0,1,2.748-1.33c2.657,0,5.577,2.633,6.51,5.87a5.4,5.4,0,0,1-.536,4.753,3.343,3.343,0,0,1-2.746,1.329m-3.228-11.177a2.555,2.555,0,0,0-2.128,1.02,4.647,4.647,0,0,0-.41,4.073c.845,2.927,3.432,5.308,5.766,5.308a2.553,2.553,0,0,0,2.126-1.02,4.642,4.642,0,0,0,.411-4.072c-.844-2.928-3.429-5.309-5.765-5.309" transform="translate(-90.776 -75.613)"/>
        <path id="Trazado_207926" data-name="Trazado 207926" d="M501.36,177.416c-1.837-2.235-4.572-4.176-5.678-3.641s-1.345,2.22-.567,2.569,1.062-1.074,3.624.043c2.245.978,2.805,1.433,2.621,1.029" transform="translate(-110.773 -38.895)" fill="#d4336e"/>
        <path id="Trazado_207927" data-name="Trazado 207927" d="M501.235,177.84h0a2.581,2.581,0,0,1-.929-.362c-.414-.2-1.01-.489-1.833-.847a4.105,4.105,0,0,0-1.578-.4,2.042,2.042,0,0,0-.956.248,1.288,1.288,0,0,1-1.1.11,1.275,1.275,0,0,1-.683-1.212,2.312,2.312,0,0,1,1.241-2.06,1.386,1.386,0,0,1,.6-.127c1.532,0,4,1.994,5.542,3.873a.432.432,0,0,1,.054.085.52.52,0,0,1,0,.5.478.478,0,0,1-.367.194m-4.34-2.389a4.783,4.783,0,0,1,1.888.469c.451.2.835.372,1.159.524-1.443-1.439-3.051-2.482-3.935-2.482a.623.623,0,0,0-.267.05,1.528,1.528,0,0,0-.8,1.352c0,.1.021.422.226.514a.208.208,0,0,0,.092.023,1.084,1.084,0,0,0,.353-.127,2.794,2.794,0,0,1,1.287-.323" transform="translate(-110.662 -38.783)" fill="#d4336e"/>
        <path id="Trazado_207928" data-name="Trazado 207928" d="M550.851,147.988a.387.387,0,0,1-.342-.2,20.846,20.846,0,0,1-1.777-4.055,12.954,12.954,0,0,1-.889-4.375,2.462,2.462,0,0,1,1.17-2.272,1.9,1.9,0,0,1,2.067.31c3.369,2.583,1.62,7.967.711,10.163a.386.386,0,0,1-.507.21.4.4,0,0,1-.068-.036.387.387,0,0,1-.182.213.4.4,0,0,1-.185.046m-1.094-10.308a.856.856,0,0,0-.393.094,1.731,1.731,0,0,0-.745,1.58,12.317,12.317,0,0,0,.851,4.138,19.514,19.514,0,0,0,1.619,3.731c.844-2.051,2.445-6.971-.474-9.21a1.522,1.522,0,0,0-.858-.333" transform="translate(-122.684 -30.658)"/>
        <path id="Trazado_207929" data-name="Trazado 207929" d="M560.139,153.7a11.07,11.07,0,0,1-4-1.08l-.532-.217c-1.363-.584-2.84-1.175-4.268-1.746a.388.388,0,0,1,.144-.748h.012a.387.387,0,0,1,.22-.258l.788-.35a21.549,21.549,0,0,1,4.134-1.517c2.016-.4,4.774-.109,5.954,2.036a2.52,2.52,0,0,1-2.162,3.873c-.1.006-.193.009-.289.009m-7.8-3.478c1.206.484,2.427.977,3.564,1.464l.529.216a9.476,9.476,0,0,0,3.949,1.015,1.749,1.749,0,0,0,1.525-2.729c-.976-1.772-3.36-1.994-5.111-1.644A20.941,20.941,0,0,0,552.82,150Z" transform="translate(-123.411 -33.059)"/>
        <path id="Trazado_207930" data-name="Trazado 207930" d="M554.851,153.627a.387.387,0,0,1-.233-.078c-.35-.262-.683-.564-1-.856a11.43,11.43,0,0,0-1.306-1.072,18.692,18.692,0,0,1-1.7-1.194c-.327-.247-.66-.5-1.02-.751a50,50,0,0,1-4.126-3.827.388.388,0,0,1,.549-.549,49.086,49.086,0,0,0,4.043,3.755c.348.244.689.5,1.024.755a18.475,18.475,0,0,0,1.649,1.156,12.01,12.01,0,0,1,1.413,1.153c.211.192.415.377.622.549a.4.4,0,0,1,.482.376v.194a.39.39,0,0,1-.214.347.4.4,0,0,1-.174.041" transform="translate(-122.124 -32.513)"/>
        <path id="Trazado_207931" data-name="Trazado 207931" d="M213.035,363.211H192.554a.388.388,0,0,1-.38-.307l-9.654-44.786a3.9,3.9,0,0,1,.543-3.312c.817-1.014,2.279-1.3,3.955-.763l53.589,17.239a3.232,3.232,0,0,1,1.278,5.936l-28.591,25.892a.388.388,0,0,1-.26.1m-20.167-.776h20.018l28.48-25.792a2.478,2.478,0,0,0-1-4.621l-53.589-17.239c-1.35-.435-2.5-.244-3.114.511a3.155,3.155,0,0,0-.388,2.662Z" transform="translate(-40.844 -70.267)" fill="#ffd4d4"/>
        <path id="Trazado_207932" data-name="Trazado 207932" d="M202.693,36.268h-.1c-2.54-.045-4.939-1.8-6.582-4.809-2.152-3.947-1.936-9.228.3-13.808a18.632,18.632,0,0,0-8.122,1.006c-5.865,2.172-8.693,6.972-7.564,12.841a.388.388,0,0,1-.762.146c-1.207-6.272,1.805-11.4,8.057-13.715a19.419,19.419,0,0,1,8.769-1.008,18.135,18.135,0,0,1,2.4-3.41c4.676-5.231,11.343-6.609,18.29-3.777a.388.388,0,0,1-.293.719c-6.628-2.7-12.975-1.4-17.419,3.575a17.436,17.436,0,0,0-2.157,3.006c3.985.635,7.657,2.56,9.619,5.993,2.1,3.673,2.356,7.38.7,10.169a5.991,5.991,0,0,1-5.141,3.075m-5.566-18.521c-2.244,4.413-2.507,9.538-.435,13.339,1.527,2.8,3.628,4.365,5.914,4.4a5.267,5.267,0,0,0,4.56-2.694c1.506-2.542,1.247-5.964-.71-9.388-1.883-3.294-5.462-5.109-9.33-5.662" transform="translate(-40.22 -1.856)" fill="#f2ac30"/>
        <path id="Trazado_207933" data-name="Trazado 207933" d="M14.7,183.259a11.007,11.007,0,0,1-4.843-1.209.388.388,0,1,1,.341-.7c3.869,1.9,7.612,1.374,10.54-1.468a12.931,12.931,0,0,0,2.511-3.473,8.889,8.889,0,0,1-6.409-4.833c-1.815-3.821-1.2-7-.011-8.693a3.864,3.864,0,0,1,3.523-1.815c1.712.158,3.243,1.542,4.311,3.9,1.418,3.13,1.2,7.281-.293,10.842a10.766,10.766,0,0,0,4.338-.387c3.547-1.09,7.012-4.381,6.1-10.353a.388.388,0,0,1,.768-.118c.99,6.462-2.778,10.029-6.636,11.213a11.562,11.562,0,0,1-4.9.382,13.729,13.729,0,0,1-2.759,3.893,9.3,9.3,0,0,1-6.578,2.816m5.334-21.426a3.178,3.178,0,0,0-2.571,1.5c-1.06,1.517-1.6,4.394.077,7.915a8.165,8.165,0,0,0,6.046,4.445c1.487-3.4,1.728-7.4.369-10.4-.947-2.091-2.253-3.315-3.675-3.446-.081-.008-.164-.012-.245-.012" transform="translate(-2.157 -36.067)" fill="#ffd4d4"/>
        <path id="Trazado_207934" data-name="Trazado 207934" d="M619.914,262.1a.39.39,0,0,1-.177-.042c-5.31-2.724-7.349-7.891-5.453-13.824a18.108,18.108,0,0,1,4.289-7.012,16.869,16.869,0,0,1-1.119-3.709c-1.159-6.449,1.665-12.145,7.745-15.625a.388.388,0,0,1,.385.673c-5.779,3.309-8.464,8.708-7.366,14.815a16.237,16.237,0,0,0,.951,3.267c2.756-2.55,6.274-4.13,9.916-3.6,3.912.571,6.788,2.517,7.89,5.341a5.6,5.6,0,0,1-.758,5.638c-1.5,1.846-4.168,2.6-7.335,2.078-4.131-.685-7.882-3.867-9.966-8.129a17.332,17.332,0,0,0-3.894,6.5c-1.77,5.54.125,10.36,5.068,12.9a.388.388,0,0,1-.178.733m-.418-20.713c1.949,4.166,5.547,7.289,9.515,7.947,2.926.487,5.269-.155,6.6-1.8a4.839,4.839,0,0,0,.638-4.867c-1-2.556-3.651-4.325-7.279-4.854-3.488-.508-6.858,1.067-9.478,3.576" transform="translate(-137.407 -49.678)" fill="#f2ac30"/>
        <path id="Trazado_207935" data-name="Trazado 207935" d="M558.866,79.546a4.357,4.357,0,0,1-3.611-1.9l-7.779-11.452a4.368,4.368,0,0,1,1.155-6.047l11.453-7.781a4.366,4.366,0,0,1,6.048,1.159l7.779,11.45a4.363,4.363,0,0,1-1.156,6.049L561.3,78.8a4.325,4.325,0,0,1-2.438.748m3.653-27.153a3.546,3.546,0,0,0-2,.612l-11.453,7.781a3.588,3.588,0,0,0-.949,4.969L555.9,77.207a3.589,3.589,0,0,0,4.97.949l11.45-7.777a3.585,3.585,0,0,0,.95-4.971l-7.779-11.451a3.58,3.58,0,0,0-2.97-1.565" transform="translate(-122.434 -11.559)" fill="#ffd4d4"/>
        <path id="Trazado_207936" data-name="Trazado 207936" d="M507.269,38.321a5.209,5.209,0,1,1,5.21-5.208,5.215,5.215,0,0,1-5.21,5.208m0-9.643a4.433,4.433,0,1,0,4.434,4.434,4.439,4.439,0,0,0-4.434-4.434" transform="translate(-112.43 -6.248)" fill="#7db3db"/>
        <path id="Trazado_207937" data-name="Trazado 207937" d="M55.572,101.772a3.725,3.725,0,1,1-3.725-3.725,3.726,3.726,0,0,1,3.725,3.725" transform="translate(-10.776 -21.957)" fill="#7db3db"/>
        <path id="Trazado_207938" data-name="Trazado 207938" d="M66.5,92.146A3.725,3.725,0,1,1,62.77,88.42,3.726,3.726,0,0,1,66.5,92.146" transform="translate(-13.223 -19.801)" fill="#7db3db"/>
        <path id="Trazado_207939" data-name="Trazado 207939" d="M68.346,106.216a3.725,3.725,0,1,1-3.726-3.726,3.723,3.723,0,0,1,3.726,3.726" transform="translate(-13.637 -22.951)" fill="#7db3db"/>
        <path id="Trazado_207940" data-name="Trazado 207940" d="M353.152,359.229a4.13,4.13,0,0,1-3.734-2.383,4.109,4.109,0,1,1,3.734,2.383m-.006-7.452a3.336,3.336,0,1,0,3.03,1.933,3.322,3.322,0,0,0-3.03-1.933" transform="translate(-78.162 -78.603)" fill="#7db3db"/>
        <path id="Trazado_207941" data-name="Trazado 207941" d="M339.824,353.37a4.114,4.114,0,0,1-1.734-7.846,4.071,4.071,0,0,1,1.727-.382,4.113,4.113,0,0,1,1.732,7.845,4.068,4.068,0,0,1-1.725.383m-.007-7.452a3.338,3.338,0,0,0-3.025,4.742,3.354,3.354,0,0,0,3.032,1.934,3.292,3.292,0,0,0,1.4-.311,3.337,3.337,0,0,0-1.406-6.365" transform="translate(-75.178 -77.291)" fill="#7db3db"/>
        <path id="Trazado_207942" data-name="Trazado 207942" d="M351.806,345.771a4.114,4.114,0,1,1,3.862-2.7,4.125,4.125,0,0,1-3.862,2.7m0-7.452a3.337,3.337,0,1,0,3.03,1.933,3.321,3.321,0,0,0-3.03-1.933" transform="translate(-77.862 -75.589)" fill="#7db3db"/>
        <path id="Trazado_207943" data-name="Trazado 207943" d="M607.361,186.917a4.114,4.114,0,0,1-3.865-5.529,4.112,4.112,0,0,1,3.858-2.7,4.113,4.113,0,0,1,1.734,7.844,4.07,4.07,0,0,1-1.726.383m-.008-7.451a3.338,3.338,0,0,0-3.023,4.741,3.351,3.351,0,0,0,3.031,1.934,3.338,3.338,0,0,0,3.024-4.742,3.353,3.353,0,0,0-3.031-1.932" transform="translate(-135.089 -40.016)" fill="#495edb"/>
        <path id="Trazado_207944" data-name="Trazado 207944" d="M594.031,181.058a4.128,4.128,0,0,1-3.734-2.384,4.116,4.116,0,0,1,3.729-5.844,4.113,4.113,0,0,1,1.732,7.845,4.072,4.072,0,0,1-1.727.383m-.005-7.452A3.337,3.337,0,0,0,591,178.347a3.349,3.349,0,0,0,3.03,1.935,3.339,3.339,0,0,0,3.024-4.743,3.352,3.352,0,0,0-3.03-1.933" transform="translate(-132.104 -38.703)" fill="#495edb"/>
        <path id="Trazado_207945" data-name="Trazado 207945" d="M606.014,173.459a4.111,4.111,0,1,1,3.863-2.7,4.124,4.124,0,0,1-3.863,2.7m0-7.451a3.338,3.338,0,1,0,3.029,1.933,3.322,3.322,0,0,0-3.029-1.933" transform="translate(-134.789 -37.002)" fill="#495edb"/>
        <path id="Trazado_207946" data-name="Trazado 207946" d="M497.272,377.682H.776a.776.776,0,0,1,0-1.552h496.5a.776.776,0,0,1,0,1.552" transform="translate(0 -84.23)" fill="#32015c"/>
      </g>
    </g>
  </g>
</svg>
