<svg xmlns="http://www.w3.org/2000/svg" xmlns:xlink="http://www.w3.org/1999/xlink" width="400" height="230" viewBox="0 0 400 230">
  <defs>
    <clipPath id="clip-path">
      <rect id="Rectángulo_338699" data-name="Rectángulo 338699" width="400" height="230" rx="15" transform="translate(1021 3378)" fill="#e1e8ff"/>
    </clipPath>
    <clipPath id="clip-path-2">
      <rect id="Rectángulo_338677" data-name="Rectángulo 338677" width="18.031" height="8.231" fill="none"/>
    </clipPath>
    <clipPath id="clip-path-3">
      <rect id="Rectángulo_338678" data-name="Rectángulo 338678" width="7.849" height="12.893" fill="none"/>
    </clipPath>
    <clipPath id="clip-path-4">
      <rect id="Rectángulo_338679" data-name="Rectángulo 338679" width="12.825" height="12.609" fill="none"/>
    </clipPath>
    <clipPath id="clip-path-6">
      <rect id="Rectángulo_338683" data-name="Rectángulo 338683" width="14.505" height="4.468" fill="none"/>
    </clipPath>
    <clipPath id="clip-path-7">
      <rect id="Rectángulo_338684" data-name="Rectángulo 338684" width="8.512" height="6.032" fill="none"/>
    </clipPath>
    <clipPath id="clip-path-8">
      <rect id="Rectángulo_338685" data-name="Rectángulo 338685" width="11.325" height="11.132" fill="none"/>
    </clipPath>
    <clipPath id="clip-path-10">
      <rect id="Rectángulo_338695" data-name="Rectángulo 338695" width="22.568" height="3.827" fill="none"/>
    </clipPath>
    <clipPath id="clip-path-11">
      <rect id="Rectángulo_338696" data-name="Rectángulo 338696" width="10.095" height="7.408" fill="none"/>
    </clipPath>
    <clipPath id="clip-path-12">
      <rect id="Rectángulo_338697" data-name="Rectángulo 338697" width="13.013" height="13.013" fill="none"/>
    </clipPath>
    <clipPath id="clip-path-14">
      <rect id="Rectángulo_338689" data-name="Rectángulo 338689" width="16.703" height="5.275" fill="none"/>
    </clipPath>
    <clipPath id="clip-path-15">
      <rect id="Rectángulo_338690" data-name="Rectángulo 338690" width="9.808" height="6.921" fill="none"/>
    </clipPath>
    <clipPath id="clip-path-16">
      <rect id="Rectángulo_338691" data-name="Rectángulo 338691" width="12.273" height="12.273" fill="none"/>
    </clipPath>
  </defs>
  <g id="Grupo_983295" data-name="Grupo 983295" transform="translate(-1021 -3378)">
    <rect id="Rectángulo_338505" data-name="Rectángulo 338505" width="400" height="230" rx="15" transform="translate(1021 3378)" fill="#e1e8ff"/>
    <g id="Enmascarar_grupo_504" data-name="Enmascarar grupo 504" clip-path="url(#clip-path)">
      <path id="Unión_122" data-name="Unión 122" d="M5795.9,11935.6a121.215,121.215,0,1,1,3.774-149.726,155.2,155.2,0,0,1,255.687-17.49,121.273,121.273,0,1,1,26.354,141.367A155.184,155.184,0,0,1,5795.9,11935.6Z" transform="translate(-7732.566 -6215.074) rotate(-16)" fill="#6984dd"/>
      <g id="Grupo_983296" data-name="Grupo 983296" transform="translate(974.086 3399.01)">
        <g id="Grupo_983283" data-name="Grupo 983283" transform="translate(46.914 48.224)">
          <g id="Grupo_983231" data-name="Grupo 983231">
            <g id="Grupo_983284" data-name="Grupo 983284">
              <path id="Trazado_207947" data-name="Trazado 207947" d="M91.615,48.417c-2.662-1.2-5.718,5.508-5.371,6.24s8.294-4.917,5.371-6.24" transform="translate(-40.735 -48.216)" fill="#533614"/>
              <path id="Trazado_207948" data-name="Trazado 207948" d="M83.9,48.261c-3.233.822,1.234,7.621,1.637,6.866.686-1.261.6-7.435-1.637-6.866" transform="translate(-41.283 -48.224)" fill="#533614"/>
              <path id="Trazado_207949" data-name="Trazado 207949" d="M115.527,90.854c-1.117,9.879,1.846,15.119,1.846,15.119a8.028,8.028,0,0,1,2.18-.358l2.083-12.943.01-.209c-.28-.017-.582-.044-.911-.094a18.868,18.868,0,0,1-5.209-1.515" transform="translate(-36.167 -41.522)" fill="#482e09"/>
              <path id="Trazado_207950" data-name="Trazado 207950" d="M61.377,86.6c-.3.634-3.938,8.354.907,7.039a9.816,9.816,0,0,0,1.011-.319c10.848-3.779,12.316-18.191,17.823-25.182,4.154-5.283,9.266.2,9.266.2s5.464-6.954,12.336-1.3c5.833,4.782,10.675,24.025,23.554,29.881a18.9,18.9,0,0,0,5.21,1.515c.327.049.631.076.911.093,7.094.528,1.118-6.343.805-6.7.444.238,9.909,5.44,12.744,1.121,2.708-4.136-5.035-7.59-6.036-8.026.912.3,7.5,2.3,10.315-2.458,2.274-3.855-7.971-3.383-12.864-8.362S114.254,41.275,90.9,57.048c0,0-3.843-6.948-17.771-1.107-5.976,2.51-11.74,10.584-17.057,17.47-5.682,7.361-10.3,9.81-8.9,12.365,1.85,3.42,7.209-1.522,7.745-2.03-.5.669-5.711,7.653-1.819,9.413,3.045,1.386,7.944-6.042,8.283-6.563" transform="translate(-46.914 -47.589)" fill="#533614"/>
              <path id="Trazado_207951" data-name="Trazado 207951" d="M63.347,196.462c49.335,8.627,82.522-7.738,82.522-7.738S141.287,155.387,132.7,146.4c-6.829-7.164-21.512-7.966-25.147-8.062-.367.255-.812.55-1.326.861a21.382,21.382,0,0,1-8.671,3.166,19.427,19.427,0,0,1-9.143-1.384,17.914,17.914,0,0,1-2.534-1.22l-.007-.1c-5.545.5-19.86,2.608-26.414,11.021-9.143,11.684-11.984,42.243-11.984,42.243,5.45,1.477,10.754,2.65,15.877,3.545" transform="translate(-46.827 -34.058)" fill="#8abcac"/>
              <path id="Trazado_207952" data-name="Trazado 207952" d="M82.116,129.731l-.053.618s.608,9.655.969,12.056l-.06.165a19.427,19.427,0,0,0,9.143,1.384,21.382,21.382,0,0,0,8.671-3.166l-.309-.492c-.229-3.626-.488-10.879-.488-10.879l-.193-1.217a52.777,52.777,0,0,1-10.925,1.6,55.373,55.373,0,0,1-6.753-.073" transform="translate(-41.388 -35.651)" fill="#f2c6a5"/>
              <path id="Trazado_207953" data-name="Trazado 207953" d="M82.425,135.888a46.254,46.254,0,0,0,17.612-4.241c.1,2.437.245,5.925.382,8.107l.309.491a21.36,21.36,0,0,1-8.67,3.166,19.412,19.412,0,0,1-9.143-1.383l.059-.165c-.159-1.061-.367-3.54-.549-5.975" transform="translate(-41.332 -35.109)" fill="#f2c6a5"/>
              <g id="Grupo_983220" data-name="Grupo 983220" transform="translate(40.674 92.548)" opacity="0.2" style="mix-blend-mode: multiply;isolation: isolate">
                <g id="Grupo_983219" data-name="Grupo 983219">
                  <g id="Grupo_983218" data-name="Grupo 983218" clip-path="url(#clip-path-2)">
                    <path id="Trazado_207954" data-name="Trazado 207954" d="M82.482,136.43c-.23-3.075-.419-6.082-.419-6.082l.053-.618a55.146,55.146,0,0,0,6.753.073,52.723,52.723,0,0,0,10.925-1.6l.193,1.217s.042,1.158.105,2.773a46.254,46.254,0,0,1-17.612,4.241" transform="translate(-82.063 -128.199)" fill="#5a287f"/>
                  </g>
                </g>
              </g>
              <path id="Trazado_207955" data-name="Trazado 207955" d="M128.258,109.976a8,8,0,0,0-2.181.359s-2.962-5.241-1.845-15.12c-12.88-5.855-17.721-25.1-23.554-29.881-6.873-5.654-12.337,1.3-12.337,1.3s-5.111-5.486-9.266-.2c-5.507,6.991-6.976,21.4-17.823,25.182l.029.08-.472,18.467a73.9,73.9,0,0,0-.787,15.122c.287,4.55,5.281,16.271,25.77,17.764a55.621,55.621,0,0,0,6.753.072,52.72,52.72,0,0,0,10.926-1.6c15.59-4.124,18.379-14.341,18.379-14.341a14.8,14.8,0,0,0,7.3-1.515c2.729-1.413,4.665-4.179,4.758-8.4.12-6.362-3.292-7.353-5.653-7.274" transform="translate(-44.871 -45.883)" fill="#f2c6a5"/>
              <path id="Trazado_207956" data-name="Trazado 207956" d="M121.776,87.133l.014.009-.078-.056a51.268,51.268,0,0,0,5.9,1.729c.49.1.972.174,1.45.238a8.49,8.49,0,0,0,1.4.062c.221-.016.455,0,.664-.034l.618-.111a3.34,3.34,0,0,0,1-.484c.171-.069.262-.23.384-.356l.185-.192.006-.006,0,0c-.132.228-.036.06-.064.11l.012-.022.023-.044.045-.087.093-.175.183-.348c.086-.137.024-.148.052-.223a1.142,1.142,0,0,0,.059-.406l.015-.248-.062-.259a1.623,1.623,0,0,0-.185-.537,4.931,4.931,0,0,0-.7-1.1,9.163,9.163,0,0,0-.994-1.037,13.005,13.005,0,0,0-1.15-.965c-.8-.631-1.661-1.2-2.534-1.782l.042.015a.085.085,0,0,0,.014-.034l.024-.143a.136.136,0,0,0-.268-.047.14.14,0,0,0,.042.125.232.232,0,0,0,.178.052.292.292,0,1,1-.029-.583.366.366,0,0,1,.224.072l-.2-.066a1.085,1.085,0,0,1,.179.027l.043.015A15.833,15.833,0,0,1,131.4,81.4a13.5,13.5,0,0,1,1.434.836,8.592,8.592,0,0,1,1.344,1.069,5.7,5.7,0,0,1,1.149,1.435,3.552,3.552,0,0,1,.4.917l.146.5.042.539a3.951,3.951,0,0,1-.463,2.031l-.086.177-.043.088-.022.045-.01.022-.069.12-.006.006-.009.013-.33.405a3.231,3.231,0,0,1-.741.729,5.172,5.172,0,0,1-1.824.864l-.936.155c-.309.039-.6.022-.907.031a10.71,10.71,0,0,1-1.736-.194,11.433,11.433,0,0,1-1.629-.419,18.665,18.665,0,0,1-3.023-1.266,19.174,19.174,0,0,1-2.736-1.725l-.079-.056-.01-.013a.393.393,0,0,1,.522-.574" transform="translate(-35.241 -43.198)" fill="#3c1e00"/>
              <path id="Trazado_207957" data-name="Trazado 207957" d="M60.051,85.221A22.294,22.294,0,0,0,59,88.226a5.645,5.645,0,0,0-.208,2.912.7.7,0,0,0,.742.477,2.8,2.8,0,0,0,.656-.087l.174-.045c.017,0,.084-.021.06-.014l.1-.034.391-.134.39-.133.1-.034c-.089.034.029-.015.034-.019l.187-.087.751-.344a7.284,7.284,0,0,0,1.413-.752,14,14,0,0,0,1.265-.861l1.2-1.007a21.019,21.019,0,0,0,2.085-2.373,12.178,12.178,0,0,0,.912-1.305c.288-.449.591-.885.84-1.363.539-.926,1.024-1.89,1.494-2.863.923-1.963,1.754-3.984,2.608-6.023.424-1.023.885-2.034,1.362-3.052.493-1.01.987-2.025,1.59-3.008a13.592,13.592,0,0,1,.945-1.457l.252-.358.126-.179.064-.089.031-.044.016-.023.067-.082.553-.613a7.653,7.653,0,0,1,1.534-1.239,5.7,5.7,0,0,1,1.9-.713,6.548,6.548,0,0,1,3.865.592,10.464,10.464,0,0,1,3.035,2.145l-1.714.072a11.894,11.894,0,0,1,3.746-2.982,8.441,8.441,0,0,1,4.806-.933,9.626,9.626,0,0,1,4.484,1.8l.478.348.237.175.119.088.059.043.113.105.768.758a20.612,20.612,0,0,1,1.494,1.825c.847,1.237,1.612,2.5,2.327,3.767s1.4,2.541,2.076,3.812l2.059,3.771c.69,1.252,1.426,2.468,2.158,3.683l1.132,1.8,1.207,1.742c.393.588.859,1.114,1.285,1.676a17.717,17.717,0,0,0,1.367,1.6,29.643,29.643,0,0,0,3.016,2.9l1.683,1.231c.567.4,1.2.691,1.8,1.044l.454.255a2.033,2.033,0,0,1,.183.105l.251.1,1,.4a9.877,9.877,0,0,0,2,.67c.662.146,1.337.347,1.994.456a9.138,9.138,0,0,0,2.029.105,1.722,1.722,0,0,0,1.444-.668,2.317,2.317,0,0,0-.12-1.728,13.784,13.784,0,0,0-2.164-3.573l0-.006a.292.292,0,0,1,.447-.376,14.271,14.271,0,0,1,2.519,3.639,3.136,3.136,0,0,1,.19,2.46,2.013,2.013,0,0,1-.993.97,3.841,3.841,0,0,1-1.193.341,10.188,10.188,0,0,1-2.277,0c-.765-.087-1.486-.264-2.236-.4a10.875,10.875,0,0,1-2.115-.6l-1.021-.353-.253-.091c-.178-.075-.192-.095-.3-.145l-.5-.257c-.652-.356-1.346-.655-1.966-1.065l-1.84-1.264a31.048,31.048,0,0,1-3.289-2.98A18.542,18.542,0,0,1,115,88.705c-.462-.571-.967-1.114-1.394-1.709l-1.306-1.769-1.222-1.819c-.8-1.219-1.545-2.473-2.266-3.73l-2.121-3.784c-.691-1.261-1.387-2.515-2.095-3.749s-1.456-2.422-2.246-3.554a18.146,18.146,0,0,0-1.249-1.5l-.776-.75-.731-.518a7.376,7.376,0,0,0-3.446-1.366,6.555,6.555,0,0,0-3.551.711,9.742,9.742,0,0,0-2.99,2.323l-.01.012a1.16,1.16,0,0,1-1.635.126l-.069-.066A8.421,8.421,0,0,0,85.563,65.9a4.347,4.347,0,0,0-2.549-.444,3.438,3.438,0,0,0-1.173.435,5.233,5.233,0,0,0-1.031.815l-.558.609c-.05.058.058-.068.044-.051l-.007.009-.014.02-.028.039-.057.08-.112.157-.226.316a11.652,11.652,0,0,0-.863,1.306c-.559.889-1.038,1.854-1.518,2.818s-.914,1.967-1.37,2.964c-.906,2-1.808,4.028-2.818,6.026-.516,1-1.05,1.985-1.647,2.947-.275.491-.613.952-.934,1.422a13.649,13.649,0,0,1-1.018,1.371,22.709,22.709,0,0,1-2.346,2.517L65.972,90.32a15.545,15.545,0,0,1-1.51.922,8.467,8.467,0,0,1-1.537.722l-.766.308-.192.076-.156.06-.1.028-.4.116-.4.115-.1.029-.14.032-.229.046a3.917,3.917,0,0,1-.982.072,2.155,2.155,0,0,1-1.087-.367,1.925,1.925,0,0,1-.677-.956,4.153,4.153,0,0,1-.071-1.9,10.359,10.359,0,0,1,.42-1.679A21.59,21.59,0,0,1,59.4,84.8a.383.383,0,0,1,.692.325Z" transform="translate(-45.241 -46.039)" fill="#3c1e00"/>
              <path id="Trazado_207958" data-name="Trazado 207958" d="M54.754,79.726l-.008.014.034-.045v0l0,.007-.016.027-.021.03c-.393.825-.8,1.632-1.16,2.446a19.834,19.834,0,0,0-.944,2.42,8.835,8.835,0,0,0-.282,1.171,3.457,3.457,0,0,0-.031,1.031,1.221,1.221,0,0,0,.26.672c.083.068.112.177.255.223a1.771,1.771,0,0,1,.167.1l.039.029.02.015.009.008,0,0c.038.015-.323-.116-.168-.06l.006,0,.164.047c.216.068.5.15.472.08a.089.089,0,0,1,.073,0c.051-.007.138-.039.206-.054a1.466,1.466,0,0,0,.462-.162,3.327,3.327,0,0,0,.5-.244,9.112,9.112,0,0,0,1.015-.669c.323-.275.671-.523.994-.82,1.315-1.153,2.557-2.48,3.843-3.79l.007-.007a.3.3,0,0,1,.483.325,18.975,18.975,0,0,1-2.993,4.791,13.307,13.307,0,0,1-1,1.066,11.237,11.237,0,0,1-1.2.956,4,4,0,0,1-.7.413,3.376,3.376,0,0,1-.819.318,4.6,4.6,0,0,1-.457.119,5.658,5.658,0,0,1-.613.027,2.711,2.711,0,0,1-.871-.127L52.3,90.05l-.183-.065-.013-.008-.028-.014-.052-.03-.108-.061-.417-.262a2.811,2.811,0,0,1-.738-.7,3.526,3.526,0,0,1-.7-1.849,5.562,5.562,0,0,1,.168-1.693,7.153,7.153,0,0,1,.507-1.456,13.262,13.262,0,0,1,1.478-2.5A15.367,15.367,0,0,1,54.1,79.281l-.021.029.027-.021.007-.006,0,0c.016-.023-.035.046.039-.052l.013-.01a.394.394,0,0,1,.587.507" transform="translate(-46.42 -43.365)" fill="#3c1e00"/>
              <path id="Trazado_207959" data-name="Trazado 207959" d="M82.214,138.581l.242.087c.147.046.36.094.612.182s.611.169.978.294c.378.106.812.206,1.264.348.462.116.967.2,1.48.346.521.111,1.075.161,1.628.286.559.091,1.135.073,1.71.155.576.042,1.144-.03,1.722-.008l.215,0h.075c-.065.009.154-.017-.143.02l.032,0,.128-.019.513-.071,1.018-.141c.167-.027.34-.045.5-.062l.38-.094.756-.172c.493-.081,1.029-.311,1.518-.442.493-.155.929-.37,1.366-.524l1.14-.536c.322-.194.628-.334.873-.478.262-.171.4-.207.631-.377l.331-.211a1.08,1.08,0,0,1,1.62,1.2l-.228.8-.037.126a3.889,3.889,0,0,1-.395.581,11.843,11.843,0,0,1-1.986,2,13.6,13.6,0,0,1-1.577,1.067c-.3.16-.609.322-.923.488a4.807,4.807,0,0,1-1.031.444l-1.14.383-.586.189c-.17.042-.333.071-.5.1l-1.013.178-.509.089-.127.023-.032.006-.168.02h-.02l-.075,0-.3.01a18,18,0,0,1-2.4-.039,20.483,20.483,0,0,1-2.243-.425,18.444,18.444,0,0,1-1.981-.679,18.239,18.239,0,0,1-1.661-.817,14.693,14.693,0,0,1-2.252-1.577c-.264-.226-.459-.422-.588-.546l-.174-.189a1.254,1.254,0,0,1,1.346-2.031Z" transform="translate(-41.631 -34.269)" fill="#447991"/>
              <path id="Trazado_207960" data-name="Trazado 207960" d="M66.595,155.65l-.677,5.857c-.109.874-.227,1.82-.353,2.822s-.271,2.052-.384,3.15c-.234,2.193-.525,4.525-.818,6.858-.319,2.329-.625,4.66-.831,6.854-.237,2.191-.5,4.233-.709,5.986s-.441,3.209-.576,4.232c-.159,1.021-.249,1.6-.249,1.6l0,.027a.61.61,0,0,1-1.213-.108s.014-.591.041-1.626c.047-1.033.078-2.512.183-4.283s.209-3.84.366-6.053c.091-1.105.142-2.252.272-3.409s.286-2.329.429-3.5c.306-2.347.611-4.692.937-6.885.31-2.2.78-4.226,1.09-5.975.661-3.5,1.3-5.768,1.3-5.768l0-.014a.612.612,0,0,1,1.2.235" transform="translate(-44.734 -31.443)" fill="#517887"/>
              <path id="Trazado_207961" data-name="Trazado 207961" d="M111.391,154.827s.213.547.529,1.538.794,2.4,1.251,4.109c.487,1.708,1.006,3.713,1.524,5.872.259,1.08.487,2.2.721,3.345s.491,2.3.68,3.468c.359,2.344.8,4.674,1.023,6.889.128,1.105.213,2.179.312,3.193.08,1.017.218,1.97.233,2.864.074,1.782.079,3.269.108,4.3.007,1.038.012,1.631.012,1.631a.609.609,0,0,1-1.213.087l-.006-.039s-.08-.582-.219-1.6c-.117-1.018-.323-2.469-.5-4.211-.068-.873-.264-1.81-.405-2.805s-.33-2.039-.476-3.124c-.131-1.088-.36-2.2-.554-3.336s-.391-2.289-.588-3.443c-.434-2.3-.867-4.6-1.274-6.762-.463-2.148-.78-4.181-1.172-5.9l-1.163-5.756a.612.612,0,0,1,1.17-.343Z" transform="translate(-36.965 -31.529)" fill="#517887"/>
              <path id="Trazado_207962" data-name="Trazado 207962" d="M79.419,164.926a1.929,1.929,0,0,1-.4.216,2.068,2.068,0,0,1-.854.118,2.207,2.207,0,0,1-.833-.227,2.083,2.083,0,0,1-.37-.253.586.586,0,0,1-.042-.829.67.67,0,0,1,.1-.086,2.1,2.1,0,0,1,.4-.207,2.208,2.208,0,0,1,.854-.127,2.077,2.077,0,0,1,.834.219,1.917,1.917,0,0,1,.369.263.6.6,0,0,1,.016.849.524.524,0,0,1-.071.064" transform="translate(-42.221 -30.097)" fill="#e58e25"/>
              <path id="Trazado_207963" data-name="Trazado 207963" d="M115.411,110.9a5.15,5.15,0,0,1,.29-1.533,4.779,4.779,0,0,1,.8-1.466,3.586,3.586,0,0,1,.739-.7,3.136,3.136,0,0,1,.992-.493,2.5,2.5,0,0,1,.333-.084l.211-.028a3.048,3.048,0,0,1,.564-.021,3.223,3.223,0,0,1,1.08.266,3.82,3.82,0,0,1,1.375,1.095,5.057,5.057,0,0,1,.605.985,4.336,4.336,0,0,1,.164.419.458.458,0,0,1-.811.424,8.167,8.167,0,0,0-.936-.857,4.4,4.4,0,0,0-.474-.317,3.527,3.527,0,0,0-.525-.235,1.9,1.9,0,0,0-.517-.074.85.85,0,0,0-.278.017l-.209.034c.072-.012-.057.025-.075.035a3.612,3.612,0,0,0-1.775,1.6c-.2.325-.384.61-.486.818s-.172.319-.172.319l-.008.015a.47.47,0,0,1-.884-.216" transform="translate(-36.146 -39.052)" fill="#b38879"/>
              <path id="Trazado_207964" data-name="Trazado 207964" d="M76.2,98.914s-.093-.17-.273-.491a14.27,14.27,0,0,0-.783-1.232A5.346,5.346,0,0,0,73.883,95.9a2.129,2.129,0,0,0-.73-.286,1.4,1.4,0,0,0-.377-.028l-.047,0h-.013c-.02,0,.168-.017.086-.008h0l-.01,0-.04.006-.162.025-.325.045a1.962,1.962,0,0,0-.442.112,2.07,2.07,0,0,0-.41.171,3.443,3.443,0,0,0-.779.521,5.681,5.681,0,0,0-.647.7,9.046,9.046,0,0,0-.5.765,11.614,11.614,0,0,0-.631,1.3l-.2.506-.034.082a.611.611,0,0,1-1.179-.221s0-.065,0-.187,0-.284.019-.491a7.267,7.267,0,0,1,.344-1.717,6.138,6.138,0,0,1,1.3-2.268,5.2,5.2,0,0,1,1.241-.988,4.45,4.45,0,0,1,.781-.351,5.227,5.227,0,0,1,.824-.22l.325-.046.162-.02.042-.006.11-.01H72.6l.116,0a3.662,3.662,0,0,1,.913.1,3.811,3.811,0,0,1,1.558.753,5.631,5.631,0,0,1,1.58,2.142,7.56,7.56,0,0,1,.522,1.659c.043.2.058.367.074.483s.019.175.019.175a.617.617,0,0,1-1.156.359Z" transform="translate(-43.689 -41.14)"/>
              <path id="Trazado_207965" data-name="Trazado 207965" d="M94.822,99.167l0-.175c0-.118,0-.281.013-.488a7.586,7.586,0,0,1,.308-1.712,5.657,5.657,0,0,1,1.3-2.325,3.833,3.833,0,0,1,1.45-.943,3.689,3.689,0,0,1,.895-.211L98.9,93.3l.029,0,.112,0h.2l.329,0a5.217,5.217,0,0,1,.845.116,4.291,4.291,0,0,1,.818.249,5.138,5.138,0,0,1,1.355.825,6.138,6.138,0,0,1,1.571,2.088,7.344,7.344,0,0,1,.557,1.659c.047.2.061.371.079.486s.022.186.022.186a.612.612,0,0,1-1.142.368l-.043-.079-.264-.476a11.672,11.672,0,0,0-.789-1.213,9.124,9.124,0,0,0-.6-.694,5.673,5.673,0,0,0-.729-.612,3.473,3.473,0,0,0-.839-.42,2.238,2.238,0,0,0-.427-.118,1.921,1.921,0,0,0-.454-.057l-.327,0-.165,0h-.056c-.082,0,.106,0,.086,0l-.012,0-.047.008a1.441,1.441,0,0,0-.37.075,2.12,2.12,0,0,0-.689.376,5.384,5.384,0,0,0-1.091,1.437,14.353,14.353,0,0,0-.621,1.322c-.14.34-.209.521-.209.521l-.017.045a.617.617,0,0,1-1.192-.211" transform="translate(-39.383 -41.139)"/>
              <g id="Grupo_983223" data-name="Grupo 983223" transform="translate(39.213 48.709)" opacity="0.5" style="mix-blend-mode: multiply;isolation: isolate">
                <g id="Grupo_983222" data-name="Grupo 983222">
                  <g id="Grupo_983221" data-name="Grupo 983221" clip-path="url(#clip-path-3)">
                    <path id="Trazado_207966" data-name="Trazado 207966" d="M84.421,90.319c-1.93.122-4.439,10.557-3.362,11.82,1.141,1.338,6.608,1.544,7.386-.093s-.691-11.938-4.025-11.727" transform="translate(-80.8 -90.316)" fill="#c67b9e"/>
                  </g>
                </g>
              </g>
              <path id="Trazado_207967" data-name="Trazado 207967" d="M103.053,89.366c.273.093.45.139.45.138l.231.061a1.311,1.311,0,0,0,1.563-1.713s-.069-.193-.227-.518a6.73,6.73,0,0,0-1.525-2,7.983,7.983,0,0,0-.938-.7,8.177,8.177,0,0,0-1.139-.572,6.967,6.967,0,0,0-1.273-.375,6.069,6.069,0,0,0-1.315-.146,7.161,7.161,0,0,0-1.263.076,6.622,6.622,0,0,0-2.076.683,5.465,5.465,0,0,0-1.266.869,8.825,8.825,0,0,0-.633,1.07,1.189,1.189,0,0,0,.77,1.5,13.876,13.876,0,0,1,8.64,1.631" transform="translate(-39.577 -42.673)" fill="#533614"/>
              <path id="Trazado_207968" data-name="Trazado 207968" d="M67.284,91.013c-.238.163-.4.256-.4.255l-.206.121a1.312,1.312,0,0,1-1.97-1.224s.014-.2.078-.56a6.77,6.77,0,0,1,.926-2.339,8,8,0,0,1,.713-.929,8.294,8.294,0,0,1,.941-.859,7.113,7.113,0,0,1,1.124-.706,6.03,6.03,0,0,1,1.227-.5,7.139,7.139,0,0,1,1.235-.268,6.613,6.613,0,0,1,2.184.093,5.432,5.432,0,0,1,1.455.494,8.79,8.79,0,0,1,.9.859,1.189,1.189,0,0,1-.336,1.647,13.876,13.876,0,0,0-7.874,3.914" transform="translate(-44.117 -42.606)" fill="#533614"/>
              <path id="Trazado_207975" data-name="Trazado 207975" d="M81.184,167.557A9.456,9.456,0,1,1,91.215,176.4a9.456,9.456,0,0,1-10.032-8.843" transform="translate(-41.53 -31.044)" fill="#fceb3c"/>
              <path id="Trazado_207976" data-name="Trazado 207976" d="M94.607,156.686a4.132,4.132,0,0,1,.11-.707,6.06,6.06,0,0,1,.557-1.386,6.459,6.459,0,0,1,.862-1.22,4.584,4.584,0,0,1,.524-.484.5.5,0,0,1,.8.435,4.678,4.678,0,0,1-.117.7,6.449,6.449,0,0,1-.55,1.39,6.1,6.1,0,0,1-.854,1.225,4.14,4.14,0,0,1-.532.479.509.509,0,0,1-.8-.435" transform="translate(-39.417 -31.786)" fill="#e58e25"/>
              <path id="Trazado_207977" data-name="Trazado 207977" d="M97.317,159.343a4.3,4.3,0,0,1,.443-.572,6.185,6.185,0,0,1,1.171-.957,6.66,6.66,0,0,1,1.357-.665,4.716,4.716,0,0,1,.7-.176.5.5,0,0,1,.5.768,4.844,4.844,0,0,1-.448.565,6.635,6.635,0,0,1-1.165.964,6.3,6.3,0,0,1-1.354.672,4.3,4.3,0,0,1-.7.169.508.508,0,0,1-.568-.44.515.515,0,0,1,.072-.329" transform="translate(-39.002 -31.129)" fill="#e58e25"/>
              <path id="Trazado_207978" data-name="Trazado 207978" d="M98.975,163.313a4.691,4.691,0,0,1,.689-.308,6.814,6.814,0,0,1,1.551-.318,7.155,7.155,0,0,1,1.583.025,5.233,5.233,0,0,1,.735.161.5.5,0,0,1,.088.911,5.121,5.121,0,0,1-.691.3,7.161,7.161,0,0,1-1.548.327,6.8,6.8,0,0,1-1.583-.016,4.613,4.613,0,0,1-.735-.17.5.5,0,0,1-.088-.911" transform="translate(-38.769 -30.235)" fill="#e58e25"/>
              <path id="Trazado_207979" data-name="Trazado 207979" d="M98.6,167.941a1.559,1.559,0,0,1,.388-.06,1.41,1.41,0,0,1,.68.182,1.515,1.515,0,0,1,.513.486,1.715,1.715,0,0,1,.161.353.643.643,0,0,1-.436.8l-.006,0a1.7,1.7,0,0,1-.383.052,1.5,1.5,0,0,1-.685-.175,1.409,1.409,0,0,1-.517-.478,1.584,1.584,0,0,1-.156-.36.666.666,0,0,1,.442-.8" transform="translate(-38.861 -29.413)" fill="#e58e25"/>
              <path id="Trazado_207980" data-name="Trazado 207980" d="M96.778,172.507a10.92,10.92,0,0,1,.949.7,17.492,17.492,0,0,1,1.82,1.777,18.531,18.531,0,0,1,1.563,2.007c.382.588.6,1.015.6,1.014a.474.474,0,0,1-.682.611s-.4-.262-.942-.7a18.6,18.6,0,0,1-1.827-1.771,17.513,17.513,0,0,1-1.569-2,10.692,10.692,0,0,1-.592-1.02.476.476,0,0,1,.682-.611" transform="translate(-39.19 -28.697)" fill="#e58e25"/>
              <path id="Trazado_207981" data-name="Trazado 207981" d="M92.686,175.047a2.93,2.93,0,0,1,.382.448,3.9,3.9,0,0,1,.5,1.088,4.171,4.171,0,0,1,.164,1.185,3.241,3.241,0,0,1-.071.58.525.525,0,0,1-.634.391.531.531,0,0,1-.243-.132,3.27,3.27,0,0,1-.373-.451,4.137,4.137,0,0,1-.5-1.084,3.862,3.862,0,0,1-.172-1.183,3.025,3.025,0,0,1,.078-.582.538.538,0,0,1,.656-.381.562.562,0,0,1,.222.122" transform="translate(-39.869 -28.309)" fill="#e58e25"/>
              <path id="Trazado_207982" data-name="Trazado 207982" d="M88.722,175.6a7.055,7.055,0,0,1-.079.935,10.8,10.8,0,0,1-.51,1.937A11.519,11.519,0,0,1,87.3,180.3a7.764,7.764,0,0,1-.522.778.482.482,0,0,1-.678.079.488.488,0,0,1-.184-.385,8.2,8.2,0,0,1,.087-.933,11.7,11.7,0,0,1,.5-1.941,10.892,10.892,0,0,1,.829-1.824,7.1,7.1,0,0,1,.53-.775.486.486,0,0,1,.685-.066.493.493,0,0,1,.177.374" transform="translate(-40.783 -28.275)" fill="#e58e25"/>
              <path id="Trazado_207983" data-name="Trazado 207983" d="M83.191,173.923a2.309,2.309,0,0,1-.227.457,2.771,2.771,0,0,1-.7.713,3,3,0,0,1-.91.432,2.527,2.527,0,0,1-.5.074.553.553,0,0,1-.565-.543.578.578,0,0,1,.032-.2,2.512,2.512,0,0,1,.231-.45,2.964,2.964,0,0,1,.7-.72,2.785,2.785,0,0,1,.9-.439,2.253,2.253,0,0,1,.5-.067.566.566,0,0,1,.561.572.6.6,0,0,1-.028.172" transform="translate(-41.668 -28.58)" fill="#e58e25"/>
              <path id="Trazado_207984" data-name="Trazado 207984" d="M80.765,170.38a6.016,6.016,0,0,1-.809.315,9.2,9.2,0,0,1-1.813.336,9.706,9.706,0,0,1-1.843-.009,6.7,6.7,0,0,1-.852-.154.487.487,0,0,1-.083-.911,6.631,6.631,0,0,1,.809-.307,9.8,9.8,0,0,1,1.812-.344,9.22,9.22,0,0,1,1.843,0,5.951,5.951,0,0,1,.853.163.491.491,0,0,1,.083.911" transform="translate(-42.485 -29.196)" fill="#e58e25"/>
              <path id="Trazado_207985" data-name="Trazado 207985" d="M81.229,160.791a4.849,4.849,0,0,1-.736-.219,7.091,7.091,0,0,1-1.414-.776,7.466,7.466,0,0,1-1.217-1.061,5.291,5.291,0,0,1-.468-.605.5.5,0,0,1,.522-.752,5.333,5.333,0,0,1,.73.227,7.441,7.441,0,0,1,1.42.77,7,7,0,0,1,1.222,1.053,4.673,4.673,0,0,1,.463.613.5.5,0,0,1-.171.687.492.492,0,0,1-.351.064" transform="translate(-42.135 -31.066)" fill="#e58e25"/>
              <path id="Trazado_207986" data-name="Trazado 207986" d="M84.721,157.66a3.871,3.871,0,0,1-.39-.551,5.331,5.331,0,0,1-.51-1.3,5.67,5.67,0,0,1-.176-1.389,4.287,4.287,0,0,1,.066-.668.509.509,0,0,1,.6-.4.521.521,0,0,1,.286.168,4.3,4.3,0,0,1,.381.553,5.639,5.639,0,0,1,.52,1.3,5.365,5.365,0,0,1,.184,1.386,3.743,3.743,0,0,1-.074.671.516.516,0,0,1-.618.387.51.51,0,0,1-.268-.157" transform="translate(-41.14 -31.699)" fill="#e58e25"/>
              <path id="Trazado_207987" data-name="Trazado 207987" d="M89.837,156.985a9.879,9.879,0,0,1-.24-1.1,15.864,15.864,0,0,1-.167-2.412,16.666,16.666,0,0,1,.178-2.412,10.893,10.893,0,0,1,.231-1.1.476.476,0,0,1,.915,0s.123.439.23,1.1a16.7,16.7,0,0,1,.176,2.412,15.828,15.828,0,0,1-.169,2.412,9.75,9.75,0,0,1-.242,1.1.475.475,0,0,1-.594.321.483.483,0,0,1-.321-.321" transform="translate(-40.23 -32.283)" fill="#e58e25"/>
              <g id="Grupo_983226" data-name="Grupo 983226" transform="translate(61.905 61.951)" opacity="0.2" style="mix-blend-mode: multiply;isolation: isolate">
                <g id="Grupo_983225" data-name="Grupo 983225">
                  <g id="Grupo_983224" data-name="Grupo 983224" clip-path="url(#clip-path-4)">
                    <path id="Trazado_207988" data-name="Trazado 207988" d="M100.422,108.466a6.414,6.414,0,1,0,6-6.694,6.359,6.359,0,0,0-6,6.694" transform="translate(-100.409 -101.759)" fill="#b34c85"/>
                  </g>
                </g>
              </g>
              <g id="Grupo_983229" data-name="Grupo 983229" transform="translate(16.374 61.631)" opacity="0.2" style="mix-blend-mode: multiply;isolation: isolate">
                <g id="Grupo_983228" data-name="Grupo 983228">
                  <g id="Grupo_983227" data-name="Grupo 983227" clip-path="url(#clip-path-4)">
                    <path id="Trazado_207989" data-name="Trazado 207989" d="M61.077,108.19a6.414,6.414,0,1,0,6-6.694,6.359,6.359,0,0,0-6,6.694" transform="translate(-61.064 -101.482)" fill="#b34c85"/>
                  </g>
                </g>
              </g>
              <path id="Trazado_207990" data-name="Trazado 207990" d="M70.527,104.275c-1.825,1.088-2.91,17.34,15.343,18.536,18.336,1.2,21.3-11.2,20.23-17.505-.443-2.607-10.372.315-20.412-.084-10.207-.4-13.605-1.874-15.162-.947" transform="translate(-43.351 -39.46)" fill="#fff"/>
              <path id="Trazado_207991" data-name="Trazado 207991" d="M101.682,111.3a40.841,40.841,0,0,1-4.448,1.3c-1.357.293-2.943.66-4.672.871-.861.127-1.757.22-2.67.294-.908.1-1.842.116-2.77.154-.932.02-1.863-.037-2.78-.052-.915-.086-1.817-.148-2.685-.259-.862-.153-1.7-.279-2.476-.474-.773-.222-1.509-.408-2.176-.623l-1.768-.726a10.947,10.947,0,0,1-1.3-.692l-1.107-.636a.107.107,0,0,1-.042-.148.109.109,0,0,1,.14-.045l.015.007,1.141.536a10.437,10.437,0,0,0,1.319.572l1.769.59c.66.179,1.386.326,2.147.508.764.16,1.593.222,2.431.369.849.094,1.733.14,2.626.209.9,0,1.811.038,2.724,0s1.826-.035,2.722-.127c.9-.061,1.781-.141,2.633-.256,1.7-.2,3.292-.444,4.645-.691,1.35-.27,2.481-.477,3.262-.67l1.228-.292a.146.146,0,0,1,.177.106.148.148,0,0,1-.089.171" transform="translate(-42.848 -38.473)" fill="#dacbc8"/>
            </g>
          </g>
        </g>
      </g>
      <g id="Grupo_983297" data-name="Grupo 983297" transform="translate(1096 3418.078)">
        <g id="Grupo_983289" data-name="Grupo 983289" transform="translate(0 35.994)">
          <g id="Grupo_983247" data-name="Grupo 983247">
            <g id="Grupo_983290" data-name="Grupo 983290">
              <path id="Trazado_207992" data-name="Trazado 207992" d="M58.058,135.57l-.783-10.7-.081-.369c14.339-3.3,22.884-16,23.575-21.756.5-4.123-2.246-7.844-2.246-7.844s.081-8.752-.415-11.585c1.578.275,3.179.484,4.814.622l2.05.183c-.1,1.176-.23,2.4-.38,3.639-.346,2.892.795,10.286,2.442,15.376,2.545,7.832,9.87,10.2,8.2,17.816-1.071,4.918-3.732,3.847-4.7,7.05-.645,2.176,6.231,12.241-4.25,18.7-2.384-3.951-4.964-7.176-7.67-8.914-8.811-5.678-20.558-2.155-20.558-2.155Z" transform="translate(8.677 -28.816)" fill="#d691ae"/>
              <path id="Trazado_207993" data-name="Trazado 207993" d="M88.586,146.506a196.323,196.323,0,0,1,9.041,25.568S91.88,177.1,79.51,181.149l-.092-.46c-1.428-7.476-3.616-15.722-5.574-22.494l.092-.023c10.642-2.937,14.235-10.7,14.65-11.667" transform="translate(11.203 -19.23)" fill="#f7ceb2"/>
              <path id="Trazado_207994" data-name="Trazado 207994" d="M93.245,139.957a86.275,86.275,0,0,1,4.826,9.385c-.415.967-4.008,8.731-14.65,11.667l-.092.024c1.958,6.772,4.146,15.018,5.574,22.493l.092.461a109.389,109.389,0,0,1-32.2,5.021,120.192,120.192,0,0,1-31.729-3.33c1.255-8.383,2.637-15.869,3.858-21.94-12.853-.334-16.8-5.609-17.6-6.945.933-3.189,1.981-6.425,3.156-9.467,1.866-4.837,4.031-9.168,6.473-11.977,9.2-10.574,28.389-6.069,28.389-6.069l.023-.265c1.336.933,3.674,1.9,7.624,2.027,4.215.138,6.668-1.071,8.027-2.223v.069s11.747-3.524,20.558,2.154c2.706,1.739,5.286,4.963,7.67,8.914" transform="translate(1.718 -22.066)" fill="#a17eaa"/>
              <path id="Trazado_207995" data-name="Trazado 207995" d="M51.083,141.093l-.023.265s-19.187-4.5-28.389,6.069c-2.442,2.809-4.607,7.139-6.473,11.977l-1.509.658s-10,.68-11.6-5c-1.912-6.749,2.81-8.4,2.349-11.552C4.853,139.5-1.02,139.64.154,131.717c.967-6.587,6.023-7.347,8.419-12.875,3.029-6.992.38-31.879,7.048-46.218,2.764-5.954,6.15-9.455,9.363-11.506A16.164,16.164,0,0,1,36.18,58.527a25.5,25.5,0,0,1,6.4-5.574c6.5-4.123,17.99-7.9,34.528-.692,14.4,6.266,18.37,16.954,16.538,37.188l-2.05-.183c-1.635-.138-3.236-.347-4.814-.622-25.694-4.527-43.166-26.7-43.166-26.7s-1.371,27.469-14.581,41.415c0,0-3.87-3.317-7.544.208s-1.221,15.951,10.768,13.314c0,0,7.279,10.008,19.579,12.934Z" transform="translate(0 -34.143)" fill="#d691ae"/>
              <path id="Trazado_207996" data-name="Trazado 207996" d="M84.575,98.419s.081-8.753-.415-11.585C58.466,82.306,41,60.136,41,60.136S39.624,87.6,26.414,101.551c0,0-3.87-3.317-7.544.207S17.65,117.71,29.639,115.072c0,0,7.279,10.008,19.579,12.935l-.76,11.274c1.336.933,3.674,1.9,7.624,2.027,4.215.138,6.668-1.07,8.027-2.222l-.783-10.7-.081-.37c14.339-3.294,22.884-16,23.575-21.755.5-4.124-2.246-7.844-2.246-7.844" transform="translate(2.625 -32.332)" fill="#f7ceb2"/>
              <g id="Grupo_983236" data-name="Grupo 983236" transform="translate(51.746 95.674)" opacity="0.1" style="mix-blend-mode: multiply;isolation: isolate">
                <g id="Grupo_983235" data-name="Grupo 983235">
                  <g id="Grupo_983234" data-name="Grupo 983234" clip-path="url(#clip-path-6)">
                    <path id="Trazado_207997" data-name="Trazado 207997" d="M59.054,119.078a31.1,31.1,0,0,1-8.73.76,27.7,27.7,0,0,1-5.3-.772l-.1,1.445a51.4,51.4,0,0,0,14.5,3.023l-.3-4.089Z" transform="translate(-44.93 -119.067)" fill="#5a287f"/>
                  </g>
                </g>
              </g>
              <path id="Trazado_207998" data-name="Trazado 207998" d="M35.938,38.046c7.21,5.332,5.24,14.558,4.641,16.757a25.5,25.5,0,0,0-6.4,5.574,16.164,16.164,0,0,0-11.195,2.591l-.161-.242s-11.943-1.959-9.2-15.663c2.407-12.035,17.091-12.877,22.32-9.018" transform="translate(2.004 -35.994)" fill="#c97f93"/>
              <path id="Trazado_207999" data-name="Trazado 207999" d="M29.562,159.921c-1.221,6.071-2.6,13.557-3.858,21.94-12.7-3.236-18.6-7.636-18.6-7.636a207.056,207.056,0,0,1,4.86-21.249c.795,1.336,4.745,6.611,17.6,6.945" transform="translate(1.078 -18.248)" fill="#f7ceb2"/>
              <path id="Trazado_208000" data-name="Trazado 208000" d="M44.126,127.8s.261.093.718.259c.2.055.445.126.724.205l1.008.263c.377.081.77.185,1.2.263.425.1.876.164,1.342.237.462.093.947.129,1.435.182.485.084.984.069,1.478.109l.185.01c-.015,0,.1,0-.021,0h.154l.41.006.814.009c.462-.021.918-.039,1.358-.06.442-.07.9-.069,1.293-.153.409-.061.789-.132,1.134-.218.358-.067.652-.188.943-.258l.716-.255.622-.263.083-.035a.928.928,0,0,1,1.094,1.425s-.191.246-.577.647a7.824,7.824,0,0,1-1.854,1.321l-.658.333-.729.266a10.335,10.335,0,0,1-1.608.435,16.765,16.765,0,0,1-1.8.221l-.814.018-.41.009-.1,0-.174-.006-.225-.018c-.6-.063-1.2-.078-1.777-.193a14.985,14.985,0,0,1-1.68-.379,15.072,15.072,0,0,1-2.831-1.113c-.4-.193-.745-.433-1.055-.616-.32-.206-.594-.426-.812-.586-.377-.334-.564-.534-.564-.534l-.022-.024a.932.932,0,0,1,1-1.514" transform="translate(6.505 -22.077)" fill="#725889"/>
              <path id="Trazado_208001" data-name="Trazado 208001" d="M31.029,145.179s-.126.592-.347,1.627-.545,2.518-.889,4.3-.777,3.848-1.225,6.069c-.234,1.108-.475,2.253-.72,3.416-.25,1.133-.411,2.358-.635,3.539-.432,2.382-.863,4.763-1.267,7-.423,2.23-.819,4.31-1.156,6.094-.719,3.56-1.2,5.935-1.2,5.935a.3.3,0,0,1-.6-.106s.36-2.393.9-5.984l.992-6.124c.382-2.237.789-4.623,1.2-7.009.219-1.2.4-2.371.668-3.563.258-1.166.511-2.313.758-3.423.509-2.216.985-4.283,1.391-6.056.387-1.777.836-3.224,1.1-4.249s.438-1.607.438-1.607a.3.3,0,0,1,.373-.213.308.308,0,0,1,.217.359" transform="translate(3.488 -19.487)" fill="#705a79"/>
              <path id="Trazado_208002" data-name="Trazado 208002" d="M70.344,144.334s.767,2.247,1.916,5.618c.554,1.693,1.2,3.668,1.891,5.782.329,1.075.7,2.128,1.023,3.3.311,1.126.628,2.27.943,3.415.61,2.294,1.222,4.588,1.794,6.739.264,1.084.462,2.147.678,3.148s.407,1.95.59,2.824l1.157,5.835a.3.3,0,0,1-.591.134l0-.018-1.448-5.746-1.42-5.894c-.6-2.144-1.229-4.432-1.863-6.72-.308-1.147-.614-2.293-.917-3.422-.282-1.087-.662-2.208-.974-3.265l-1.734-5.832-1.62-5.712a.3.3,0,0,1,.579-.182" transform="translate(10.582 -19.59)" fill="#705a79"/>
              <path id="Trazado_208003" data-name="Trazado 208003" d="M38.224,59.942s.6.639,1.684,1.728,2.677,2.605,4.645,4.349c.967.89,2.08,1.781,3.212,2.771,1.189.92,2.387,1.96,3.712,2.924q.985.734,2,1.494l2.1,1.452c1.384,1.02,2.91,1.869,4.367,2.825,1.5.881,3.014,1.749,4.53,2.545l2.28,1.131a22.645,22.645,0,0,0,2.257,1.04c1.517.591,2.93,1.327,4.365,1.753l2.065.712a16.1,16.1,0,0,0,1.944.613l3.455.939c.988.249,1.967.378,2.713.529,1.523.286,2.39.469,2.39.47a.291.291,0,0,1-.073.576s-.888-.043-2.432-.154c-.783-.076-1.686-.093-2.811-.251l-3.613-.628c-1.331-.214-2.715-.685-4.207-1.078A46.85,46.85,0,0,1,68.216,84.1a24.26,24.26,0,0,1-2.363-.992l-2.387-1.1c-1.576-.8-3.148-1.671-4.706-2.56-1.511-.964-3.062-1.874-4.48-2.925Q53.2,75.755,52.148,75l-2-1.592c-1.334-1.017-2.512-2.139-3.67-3.145-1.109-1.063-2.181-2.042-3.093-3.024-.946-.949-1.763-1.866-2.475-2.689S39.59,63,39.1,62.393c-.975-1.219-1.476-1.967-1.476-1.967a.387.387,0,0,1,.1-.538.393.393,0,0,1,.5.054" transform="translate(5.698 -32.38)" fill="#c16797"/>
              <path id="Trazado_208004" data-name="Trazado 208004" d="M24.968,101.336s.4-.58,1.121-1.566a21.77,21.77,0,0,0,1.267-1.793c.422-.721.9-1.521,1.44-2.376.5-.887.984-1.9,1.544-2.931s.99-2.209,1.544-3.364c.523-1.172.942-2.439,1.463-3.685.454-1.273.883-2.579,1.32-3.882.384-1.322.833-2.626,1.157-3.945.348-1.312.721-2.6,1-3.863.306-1.259.593-2.478.838-3.643.264-1.162.464-2.27.683-3.288.384-2.043.727-3.751.9-4.956.195-1.2.306-1.888.306-1.888a.291.291,0,0,1,.579.03s.037.709.009,1.938-.094,2.99-.287,5.093c-.124,1.048-.206,2.192-.4,3.386-.175,1.2-.349,2.466-.62,3.76-.234,1.3-.537,2.636-.861,3.989s-.745,2.7-1.117,4.07c-.431,1.349-.91,2.683-1.383,4-.537,1.291-1.037,2.573-1.622,3.771-.609,1.189-1.139,2.363-1.786,3.4s-1.223,2.041-1.845,2.917c-.648.87-1.258,1.65-1.8,2.332s-1.091,1.17-1.5,1.629c-.853.879-1.36,1.362-1.36,1.362a.388.388,0,0,1-.589-.5" transform="translate(3.778 -32.367)" fill="#c16797"/>
              <path id="Trazado_208005" data-name="Trazado 208005" d="M19.719,101.994a3.207,3.207,0,0,1-.03-.465,4.475,4.475,0,0,1,.166-1.2,3.519,3.519,0,0,1,.931-1.593A2.971,2.971,0,0,1,21.7,98.1a2.9,2.9,0,0,1,.536-.2,1.821,1.821,0,0,1,.334-.079l.22-.025a3.405,3.405,0,0,1,1.186.1,3.789,3.789,0,0,1,.985.453,4.662,4.662,0,0,1,1.247,1.224,6.182,6.182,0,0,1,.574,1.024,3.86,3.86,0,0,1,.161.425.464.464,0,0,1-.787.443l-.023-.025-.251-.273a8.742,8.742,0,0,0-.7-.69c-.149-.134-.317-.26-.487-.394a5.251,5.251,0,0,0-.555-.339,2.456,2.456,0,0,0-.582-.205,1.184,1.184,0,0,0-.266-.039A.84.84,0,0,0,23,99.51l-.219.026c.063-.018-.069.02-.093.025a1.217,1.217,0,0,0-.291.094,1.941,1.941,0,0,0-.508.289,3,3,0,0,0-.741.895,5.656,5.656,0,0,0-.4.856c-.079.228-.121.331-.12.341l-.013.036a.466.466,0,0,1-.9-.078" transform="translate(2.987 -26.621)" fill="#b38879"/>
              <path id="Trazado_208006" data-name="Trazado 208006" d="M62.829,76.715c.032.017.647.469.978.7a11.582,11.582,0,0,0,2.5,1.329,9.192,9.192,0,0,0,1.384.42c.222.067.449.074.659.122a5.771,5.771,0,0,0,.6.078c.76.1,3.148-.319,3.478,1.646.349,2.081-3.46,2.991-6.748,2.129-3.956-1.035-5.55-3.378-5.841-4.881a1.639,1.639,0,0,1,1.524-2.119c.537-.064,1.432.567,1.464.579" transform="translate(9.071 -29.906)" fill="#a15a7d"/>
              <path id="Trazado_208007" data-name="Trazado 208007" d="M41.8,78.306c-.028.024-.536.594-.813.885a11.735,11.735,0,0,1-2.167,1.816,9.271,9.271,0,0,1-1.268.7c-.2.111-.424.166-.62.256a5.569,5.569,0,0,1-.576.2c-.722.252-3.144.34-3.061,2.329.09,2.111,4,2.212,7.043.689,3.657-1.834,4.73-4.456,4.7-5.985a1.637,1.637,0,0,0-1.928-1.757c-.54.048-1.284.85-1.313.87" transform="translate(5.05 -29.709)" fill="#a15a7d"/>
              <g id="Grupo_983239" data-name="Grupo 983239" transform="translate(56.846 60.994)" opacity="0.4" style="mix-blend-mode: multiply;isolation: isolate">
                <g id="Grupo_983238" data-name="Grupo 983238">
                  <g id="Grupo_983237" data-name="Grupo 983237" clip-path="url(#clip-path-7)">
                    <path id="Trazado_208008" data-name="Trazado 208008" d="M57.867,91.734c.093,1.662-1.737,3.112-4.085,3.242s-4.328-1.107-4.42-2.77,1.737-3.112,4.086-3.242,4.327,1.111,4.419,2.77" transform="translate(-49.358 -88.955)" fill="#ca878d"/>
                  </g>
                </g>
              </g>
              <path id="Trazado_208009" data-name="Trazado 208009" d="M52.226,146.99s.195-3.232-4.015-4.014-6.657,4.7-4.209,8.91,9.594,9.107,10.084,9.007-1.273-6.264-1.273-6.264,1.86-2.351,1.566-2.938c-.31-.62-3.328-1.273-3.328-1.273Z" transform="translate(6.528 -19.777)" fill="#da9db6"/>
              <path id="Trazado_208010" data-name="Trazado 208010" d="M58.911,141.949c3.159.359,5.658,4.133,3.525,9.253-1.714,4.113-7.441,9.693-7.441,9.693s-.735-3.913-1.322-5.726c-.16-.494,2.252-3.134,2.007-4.334-.089-.431-3.158-1.688-3.452-1.908s1.934-7.515,6.682-6.977" transform="translate(7.92 -19.925)" fill="#da9db6"/>
              <path id="Trazado_208011" data-name="Trazado 208011" d="M46.705,102.935l.079-.21c.058-.135.131-.329.255-.563a10.543,10.543,0,0,1,3.476-3.985,9.05,9.05,0,0,1,3.4-1.377c.167-.031.284-.062.492-.088l.428-.039a8.365,8.365,0,0,1,.992,0,6.672,6.672,0,0,1,1.836.389,7.6,7.6,0,0,1,2.718,1.744,8.481,8.481,0,0,1,1.365,1.748,5.921,5.921,0,0,1,.294.548l.1.214a.486.486,0,0,1-.856.461c.01.013-.152-.2-.463-.554a10.638,10.638,0,0,0-1.407-1.313,7.009,7.009,0,0,0-2.3-1.189,6.112,6.112,0,0,0-1.395-.235,6.763,6.763,0,0,0-.7.008l-.42.046-.35.066a7.14,7.14,0,0,0-1.467.4,8.184,8.184,0,0,0-1.341.635,10.167,10.167,0,0,0-2.135,1.641,13.483,13.483,0,0,0-1.291,1.471c-.29.388-.427.6-.427.6l-.013.021a.487.487,0,0,1-.864-.439" transform="translate(7.081 -26.792)"/>
              <path id="Trazado_208017" data-name="Trazado 208017" d="M36.488,89.411l.333.519a11.91,11.91,0,0,0,.99,1.289,6.417,6.417,0,0,0,1.629,1.336,3.808,3.808,0,0,0,2.11.461,4.39,4.39,0,0,0,.593-.075,3.1,3.1,0,0,0,.45-.144,3.489,3.489,0,0,0,.9-.531,6.533,6.533,0,0,0,1.358-1.625,13.59,13.59,0,0,0,.761-1.455l.246-.568.029-.069a.609.609,0,0,1,1.167.278s0,.071-.013.205-.018.309-.054.538a8.518,8.518,0,0,1-.486,1.868,6.791,6.791,0,0,1-1.552,2.432,4.922,4.922,0,0,1-2.394,1.315l-.417.077-.445.048a5.486,5.486,0,0,1-3.392-.9A6.589,6.589,0,0,1,36.32,92.3a7.9,7.9,0,0,1-.8-1.774,6.265,6.265,0,0,1-.181-.727.616.616,0,0,1,1.125-.431Z" transform="translate(5.36 -28.077)"/>
              <path id="Trazado_208018" data-name="Trazado 208018" d="M35.109,94.634c-.128-.252.712-.561,1.424-1.262a5.11,5.11,0,0,0,.849-1.123c.18-.327,1.084.266,1.033.76-.029.281-.5.783-1.248,1.156-.559.278-1.929.72-2.057.469" transform="translate(5.325 -27.475)"/>
              <path id="Trazado_208019" data-name="Trazado 208019" d="M37,95.909c-.165-.229.618-.662,1.214-1.464a4.986,4.986,0,0,0,.666-1.24c.129-.35,1.114.1,1.139.593.014.284-.379.852-1.057,1.333-.51.363-1.8,1.007-1.961.779" transform="translate(5.61 -27.334)"/>
              <path id="Trazado_208020" data-name="Trazado 208020" d="M71.535,86.665a6.167,6.167,0,0,1,.062.794,7.9,7.9,0,0,1-.229,2.063,6.388,6.388,0,0,1-1.418,2.766,5.013,5.013,0,0,1-1.479,1.153,5.517,5.517,0,0,1-1.848.589,5.941,5.941,0,0,1-.951.053,4.582,4.582,0,0,1-.978-.122,5.376,5.376,0,0,1-1.73-.756,6.825,6.825,0,0,1-2.045-2.3,9.054,9.054,0,0,1-.792-1.895c-.069-.236-.107-.427-.136-.557l-.043-.214a.608.608,0,0,1,1.125-.417l.037.067.324.574A12.035,12.035,0,0,0,62.42,89.9,5.959,5.959,0,0,0,64.1,91.388a3.158,3.158,0,0,0,1.053.374,3.319,3.319,0,0,0,1.169,0,4.476,4.476,0,0,0,1.109-.348,3.849,3.849,0,0,0,.925-.647,5.9,5.9,0,0,0,1.232-1.835,11.755,11.755,0,0,0,.571-1.632l.159-.638.01-.04a.616.616,0,0,1,1.2.045" transform="translate(9.093 -28.385)"/>
              <path id="Trazado_208021" data-name="Trazado 208021" d="M72.206,91.207c.041-.28-.853-.306-1.751-.744a5.075,5.075,0,0,1-1.16-.8c-.275-.253-.943.6-.739,1.048a2.234,2.234,0,0,0,1.551.7c.617.086,2.057.07,2.1-.208" transform="translate(10.395 -27.86)"/>
              <path id="Trazado_208022" data-name="Trazado 208022" d="M70.79,93.03c.083-.268-.8-.432-1.617-1a5.072,5.072,0,0,1-1.024-.966c-.234-.291-1.024.448-.893.925a2.255,2.255,0,0,0,1.427.927c.6.182,2.021.385,2.106.115" transform="translate(10.201 -27.651)"/>
              <g id="Grupo_983242" data-name="Grupo 983242" transform="translate(73.035 68.674)" opacity="0.2" style="mix-blend-mode: multiply;isolation: isolate">
                <g id="Grupo_983241" data-name="Grupo 983241">
                  <g id="Grupo_983240" data-name="Grupo 983240" clip-path="url(#clip-path-8)">
                    <path id="Trazado_208023" data-name="Trazado 208023" d="M74.74,101.189a5.663,5.663,0,1,1-5.662-5.566,5.615,5.615,0,0,1,5.662,5.566" transform="translate(-63.414 -95.623)" fill="#b34c85"/>
                  </g>
                </g>
              </g>
              <g id="Grupo_983245" data-name="Grupo 983245" transform="translate(40.211 70.785)" opacity="0.2" style="mix-blend-mode: multiply;isolation: isolate">
                <g id="Grupo_983244" data-name="Grupo 983244">
                  <g id="Grupo_983243" data-name="Grupo 983243" clip-path="url(#clip-path-8)">
                    <path id="Trazado_208024" data-name="Trazado 208024" d="M46.24,103.022a5.663,5.663,0,1,1-5.663-5.566,5.615,5.615,0,0,1,5.663,5.566" transform="translate(-34.914 -97.456)" fill="#b34c85"/>
                  </g>
                </g>
              </g>
              <path id="Trazado_208025" data-name="Trazado 208025" d="M35.373,95.689c-.387-.1-3.4,3.91-1.671,4.858s2.3-4.7,1.671-4.858" transform="translate(5.033 -26.939)" fill="#9bbedc"/>
            </g>
          </g>
        </g>
      </g>
      <g id="Grupo_983298" data-name="Grupo 983298" transform="translate(1289.606 3401.64)">
        <g id="Grupo_983282" data-name="Grupo 983282" transform="translate(0 6.731)">
          <g id="Grupo_983279" data-name="Grupo 983279">
            <g id="Grupo_983292" data-name="Grupo 983292">
              <path id="Trazado_208065" data-name="Trazado 208065" d="M84.159,186.182q-.284-1.491-.569-2.946l.079-.01c10.184-1.171,15.905-6.27,17.457-7.853.613,4.551.769,7.574.769,7.574s-3.793,4.785-16.732,8.968l-.1-.324c-.279-1.829-.581-3.636-.9-5.41" transform="translate(9.65 12.738)" fill="#f3d643"/>
              <path id="Trazado_208066" data-name="Trazado 208066" d="M83.207,181.343c-.178-.848-.357-1.684-.547-2.5a33.384,33.384,0,0,0,17.847-7.741c.29,1.707.534,3.313.725,4.763-1.55,1.584-7.273,6.682-17.457,7.853l-.079.011c-.155-.8-.323-1.606-.49-2.387" transform="translate(9.543 12.245)" fill="#6e94b3"/>
              <path id="Trazado_208067" data-name="Trazado 208067" d="M81.585,174.332c-.178-.7-.357-1.383-.535-2.052l.123-.033a29.144,29.144,0,0,0,17.9-8.054c.669,2.688,1.2,5.31,1.617,7.708a33.384,33.384,0,0,1-17.847,7.741c-.413-1.84-.837-3.614-1.26-5.31" transform="translate(9.357 11.447)" fill="#f3d643"/>
              <path id="Trazado_208068" data-name="Trazado 208068" d="M98.141,160.693c.389,1.305.734,2.61,1.046,3.9a29.135,29.135,0,0,1-17.9,8.054l-.124.033c-.223-.892-.457-1.751-.692-2.588-.133-.492-.267-.982-.4-1.461l.1-.033c10.028-.335,17.156-7.1,17.971-7.909" transform="translate(9.244 11.043)" fill="#6e94b3"/>
              <path id="Trazado_208069" data-name="Trazado 208069" d="M95.549,153.472a68.249,68.249,0,0,1,2.846,8.055c-.815.813-7.942,7.574-17.97,7.909l-.1.033c-.67-2.377-1.305-4.53-1.886-6.381-.19-.624-.379-1.216-.558-1.774l.258-.089a39.364,39.364,0,0,0,17.411-7.752" transform="translate(8.991 10.209)" fill="#f3d643"/>
              <path id="Trazado_208070" data-name="Trazado 208070" d="M93.708,149.832c.714,1.305,1.361,2.666,1.963,4.06a39.364,39.364,0,0,1-17.412,7.752l-.257.089c-.257-.825-.5-1.562-.714-2.22-.178-.5-.335-.959-.468-1.361a54.805,54.805,0,0,0,16.888-8.321" transform="translate(8.869 9.789)" fill="#6e94b3"/>
              <path id="Trazado_208071" data-name="Trazado 208071" d="M85.089,158.573c.134.4.29.86.468,1.361l-.089.033c-25.655,9.481-61.628,3.056-61.628,3.056l-.168-.033c.057-.335.113-.647.18-.937H23.84a56.828,56.828,0,0,1-18.494-6.693l-.156-.056a31.735,31.735,0,0,1,2.744-5.555l.2.123s13.575,7.63,46.1,6.693c29.37-.837,45-10.217,45-10.217l.212-.156a33.672,33.672,0,0,1,2.532,4.06,54.82,54.82,0,0,1-16.888,8.321" transform="translate(0.599 9.369)" fill="#f3d643"/>
              <path id="Trazado_208072" data-name="Trazado 208072" d="M99.161,146.5l-.213.156s-15.626,9.381-45,10.217c-32.528.937-46.1-6.693-46.1-6.693l-.2-.124a16.691,16.691,0,0,1,2.62-3.223c.168-.156.335-.3.5-.447l.233.269s12.828,6.693,42.207,5.945c26.616-.682,41.027-7.764,43.492-9.08a25.641,25.641,0,0,1,2.454,2.978" transform="translate(0.883 9.061)" fill="#6e94b3"/>
              <path id="Trazado_208073" data-name="Trazado 208073" d="M90.407,84.885A14.769,14.769,0,0,1,81.9,83.423a16.073,16.073,0,0,1-8.009-8.7,6.814,6.814,0,0,1-7.439,5.208,13.062,13.062,0,0,1-12.27-10.038s-1.673,7.249-9.1,9.1a36.459,36.459,0,0,1-21.751-1.484s-.747.926-.657,6.135l.837,23.424s-5.645-4.173-9.113-.771c-.2-.792-5.165-19.6-3.526-24.327a6,6,0,0,1,5.567-3.9c-.358-.424-7.508-8.724-3.7-15.248,3.9-6.693,12.449-1.852,16.174-6.313s1.3-7.63,7.619-11.344,10.039.926,10.039.926,6.5-8.544,14.312-4.83c7.6,3.614,5,10.229,4.851,10.586.468-.258,10.719-6.025,16.721-1.472,6.135,4.64,3.346,8.544,3.346,8.544s6.5-4.64,11.892,0-1.115,7.808-1.115,7.808,11.02,6.882,1.538,14.69a15.232,15.232,0,0,1-7.7,3.469" transform="translate(1.216 -2.853)" fill="#4d2820"/>
              <path id="Trazado_208074" data-name="Trazado 208074" d="M92.7,190.473l.1.324c-8.176,2.655-19.989,5.075-36.81,5.9a151.542,151.542,0,0,1-38.572-2.722c.178-2.008.368-3.96.569-5.867.6.134,12.56,2.889,35.538,2.51,24.228-.4,37.278-5.176,38.27-5.555.323,1.774.626,3.581.9,5.41" transform="translate(2.011 13.856)" fill="#f3d643"/>
              <path id="Trazado_208075" data-name="Trazado 208075" d="M92.859,140.89a20.765,20.765,0,0,1,3.525,3c-2.465,1.316-16.877,8.4-43.491,9.08-29.381.747-42.209-5.945-42.209-5.945l-.234-.268a30.9,30.9,0,0,1,4.875-3.525c4.975,1.829,16.386,4.729,38.126,4.35,23.413-.424,34.445-4.964,38.528-7.25.3.178.6.368.881.558" transform="translate(1.206 8.692)" fill="#f3d643"/>
              <path id="Trazado_208076" data-name="Trazado 208076" d="M91.17,182.669q.284,1.456.569,2.946c-.993.378-14.043,5.152-38.271,5.554-22.977.379-34.936-2.376-35.538-2.51.089-.9.19-1.784.279-2.655.112-.982.223-1.963.336-2.911,1.026.3,12.181,3.448,33.942,2.911,22.5-.547,37.713-5.555,38.194-5.722.166.782.334,1.584.49,2.387" transform="translate(2.07 13.304)" fill="#6e94b3"/>
              <path id="Trazado_208077" data-name="Trazado 208077" d="M90.069,178.592c.19.814.368,1.651.547,2.5-.481.167-15.694,5.176-38.193,5.722-21.762.537-32.917-2.61-33.943-2.911.089-.7.167-1.382.257-2.064q.4-3.161.8-6.023c.6.145,12.4,3.034,33.72,2.632,21.517-.4,35.092-5.008,35.549-5.165.424,1.7.848,3.47,1.26,5.31" transform="translate(2.133 12.496)" fill="#f3d643"/>
              <path id="Trazado_208078" data-name="Trazado 208078" d="M83.119,80.424c-.145,1.884-1.026,12.181-4.037,20.089a11.686,11.686,0,0,0-5.421,2.1L74.5,79.186l.11-.224a14.769,14.769,0,0,0,8.511,1.462" transform="translate(8.504 1.607)" fill="#46231a"/>
              <path id="Trazado_208079" data-name="Trazado 208079" d="M19.62,174.933c.167-1.171.336-2.3.5-3.369l.124.022s12.694,3,31.233,2.878c20.915-.145,35.839-5.3,35.839-5.3l.155-.045c.234.837.468,1.7.692,2.588.178.669.358,1.35.537,2.052-.457.156-14.032,4.763-35.549,5.165-21.317.4-33.119-2.487-33.721-2.632.057-.456.124-.915.19-1.361" transform="translate(2.243 12.016)" fill="#6e94b3"/>
              <path id="Trazado_208080" data-name="Trazado 208080" d="M20.184,171.529c.368-2.432.736-4.6,1.06-6.458l.19.022s11.433,2.868,30.809,2.231c21.472-.692,32.627-5.153,32.627-5.153l.245-.078c.58,1.852,1.216,4,1.885,6.381.135.479.269.969.4,1.46l-.156.045s-14.925,5.153-35.839,5.3c-18.539.124-31.233-2.878-31.233-2.878l-.123-.021c.045-.291.089-.57.134-.849" transform="translate(2.315 11.204)" fill="#f3d643"/>
              <path id="Trazado_208081" data-name="Trazado 208081" d="M85.562,137.983a30.356,30.356,0,0,1,5.912,2.621c-4.083,2.286-15.114,6.827-38.528,7.25-21.74.378-33.151-2.521-38.126-4.351a39.656,39.656,0,0,1,5.856-2.8c5.131,1.563,15.616,3.794,32.169,3.057,16.821-.747,27.507-3.826,32.716-5.778" transform="translate(1.711 8.421)" fill="#6e94b3"/>
              <path id="Trazado_208082" data-name="Trazado 208082" d="M84.99,162.505l-.245.078s-11.154,4.462-32.627,5.153c-19.375.637-30.809-2.231-30.809-2.231l-.19-.022c.067-.4.134-.78.2-1.148.19-1.038.357-1.964.513-2.767L22,161.6s35.973,6.425,61.628-3.056l.089-.033c.212.659.458,1.394.714,2.22.178.558.368,1.149.558,1.774" transform="translate(2.438 10.791)" fill="#6e94b3"/>
              <path id="Trazado_208083" data-name="Trazado 208083" d="M39.7,130.749c1.606.6,4.283,2.264,13.24,1.762,4.294-.234,7.317-1.952,9.615-2.175a3.154,3.154,0,0,1,2.231.457c2.51,1.673.558,4.741.558,4.741s10.664.312,19.61,3.335c-5.209,1.952-15.9,5.031-32.716,5.778-16.553.736-27.038-1.495-32.169-3.056a58.609,58.609,0,0,1,19.208-3.636c-4.328-1.394-4.049-6-1.26-7.25a1.981,1.981,0,0,1,1.684.045" transform="translate(2.317 7.534)" fill="#f3d643"/>
              <path id="Trazado_208084" data-name="Trazado 208084" d="M90.519,104.011a4.739,4.739,0,0,0-4.339-2.1,11.686,11.686,0,0,0-5.421,2.1L81.6,80.586l.112-.223a16.075,16.075,0,0,1-8.009-8.7,6.816,6.816,0,0,1-7.44,5.209,13.066,13.066,0,0,1-12.27-10.039s-1.673,7.25-9.1,9.1a36.457,36.457,0,0,1-21.751-1.484s-.747.926-.658,6.135l.837,23.424s-5.645-4.172-9.113-.77a5.61,5.61,0,0,0-.647.77c-3.346,4.741-.837,15.9,9.76,15.337,0,0,2.421,11.411,17.724,15.337l-.056.19-.368,3.2c1.606.6,4.283,2.264,13.24,1.762,4.293-.234,7.316-1.952,9.615-2.175l-.145-3.224c14.49-4.272,17.434-15.929,17.434-15.929,10.6.558,13.106-9.76,9.76-14.5" transform="translate(1.405 0.207)" fill="#b8655a"/>
              <g id="Grupo_983268" data-name="Grupo 983268" transform="translate(42.306 134.647)" opacity="0.2" style="mix-blend-mode: multiply;isolation: isolate">
                <g id="Grupo_983267" data-name="Grupo 983267">
                  <g id="Grupo_983266" data-name="Grupo 983266" clip-path="url(#clip-path-10)">
                    <path id="Trazado_208085" data-name="Trazado 208085" d="M60.5,129.734l-.145-2.291a40.329,40.329,0,0,1-11.009,1.55h-.178a45.094,45.094,0,0,1-11.1-1.305l-.056.19-.08.7c6.026,3.993,19.759,2.809,22.568,1.159" transform="translate(-37.928 -127.443)" fill="#5a287f"/>
                  </g>
                </g>
              </g>
              <path id="Trazado_208086" data-name="Trazado 208086" d="M23.99,161.111H24c-.067.29-.123.6-.178.937-.156.8-.325,1.729-.513,2.766l-.435-.078a41.028,41.028,0,0,1-18.818-6l-.168-.056c.436-1.495.916-2.945,1.451-4.317l.156.056a56.828,56.828,0,0,0,18.494,6.693" transform="translate(0.449 10.312)" fill="#6e94b3"/>
              <path id="Trazado_208087" data-name="Trazado 208087" d="M23.078,164.29l.435.078c-.067.368-.134.747-.2,1.149-.323,1.863-.692,4.027-1.06,6.458-10.92.68-19.989-5.365-19.989-5.365l-.134-.022a82.193,82.193,0,0,1,1.962-8.355l.168.056a41.028,41.028,0,0,0,18.818,6" transform="translate(0.246 10.759)" fill="#f3d643"/>
              <path id="Trazado_208088" data-name="Trazado 208088" d="M22.322,171.11c-.045.279-.089.558-.134.849-.167,1.071-.335,2.2-.5,3.368a36.347,36.347,0,0,1-20.011-5.577l-.145-.021c.19-1.329.413-2.667.669-4.006l.134.022s9.069,6.046,19.989,5.365" transform="translate(0.177 11.623)" fill="#6e94b3"/>
              <path id="Trazado_208089" data-name="Trazado 208089" d="M21.595,176.272q-.4,2.861-.8,6.023l-.335-.045A40.423,40.423,0,0,1,.68,176.964c.234-2.4.547-4.986.949-7.651l.144.021a36.347,36.347,0,0,0,20.011,5.577c-.067.447-.133.9-.19,1.361" transform="translate(0.079 12.038)" fill="#f3d643"/>
              <path id="Trazado_208090" data-name="Trazado 208090" d="M20.575,183.567c-.113.949-.223,1.93-.336,2.911h-.021C7.67,186.334.33,180.812.33,180.812c.1-1.428.234-2.988.389-4.64A40.43,40.43,0,0,0,20.5,181.459l.335.045c-.09.682-.167,1.361-.257,2.064" transform="translate(0.038 12.83)" fill="#6e94b3"/>
              <path id="Trazado_208091" data-name="Trazado 208091" d="M20,188.653c-.2,1.907-.39,3.859-.569,5.867C6.683,191.843,0,188.319,0,188.319s.035-3.212.368-7.987c0,0,7.34,5.521,19.888,5.666h.022c-.089.87-.19,1.751-.279,2.655" transform="translate(0 13.31)" fill="#f3d643"/>
              <path id="Trazado_208092" data-name="Trazado 208092" d="M95.472,63.717A16.926,16.926,0,0,1,97.9,65.555a13.071,13.071,0,0,1,2,2.342,12.823,12.823,0,0,1,.767,1.373,9.652,9.652,0,0,1,.482,1.532,5.942,5.942,0,0,1,.139,1.621l-.039.821-.2.793a7.155,7.155,0,0,1-.229.786l-.355.725-.366.723-.477.632a14.78,14.78,0,0,1-2.128,2.3l-.141.136-.193.147-.3.22-.595.442A9.216,9.216,0,0,1,95.016,81l-1.405.772a13.722,13.722,0,0,1-1.461.593,7.493,7.493,0,0,1-1.5.462l-.772.171-.385.084-.194.044-.048.009-.122.012-.093.007-1.478.1a7.106,7.106,0,0,1-.75.033l-.814-.065c-.539-.054-1.1-.073-1.622-.172l-1.534-.384a8.143,8.143,0,0,1-1.489-.518c-.493-.215-.96-.357-1.472-.638-.437-.247-.862-.448-1.307-.732-.446-.3-.908-.593-1.335-.911l-1.214-1L74.9,77.76l-1.018-1.206-.9-1.3L72.2,73.866l-.63-1.469,2.089-.155a8.351,8.351,0,0,1-1.772,3.47,7.4,7.4,0,0,1-1.467,1.315,7.481,7.481,0,0,1-1.767.877,8.634,8.634,0,0,1-1.89.387,5.274,5.274,0,0,1-.944.044,7.737,7.737,0,0,1-.978-.035l-1.674-.2-1.822-.437c-.569-.212-1.143-.414-1.7-.65a18,18,0,0,1-1.6-.878,14.055,14.055,0,0,1-2.781-2.352,14.5,14.5,0,0,1-1.123-1.426,14.819,14.819,0,0,1-.936-1.545,16.45,16.45,0,0,1-.744-1.641,12.338,12.338,0,0,1-.545-1.776l1.942.029a12.962,12.962,0,0,1-.858,2.278,14.027,14.027,0,0,1-2.728,3.881,8.622,8.622,0,0,1-.88.808,8.11,8.11,0,0,1-.951.725,11.948,11.948,0,0,1-2.079,1.169c-.369.145-.728.318-1.105.437l-1.139.33c-.791.182-1.475.3-2.216.452-.75.118-1.52.207-2.278.31l-2.269.156c-.757,0-1.515.035-2.27,0s-1.511-.055-2.261-.147c-.752-.068-1.5-.156-2.244-.279a36.448,36.448,0,0,1-4.41-.943c-.725-.194-1.441-.425-2.147-.678s-1.4-.521-2.1-.844a.282.282,0,0,1,.219-.519l.012,0a31.277,31.277,0,0,0,4.224,1.206,35.542,35.542,0,0,0,4.34.7c.728.081,1.458.129,2.189.156.73.054,1.461.022,2.19.031.729-.009,1.457-.068,2.183-.089l2.171-.221,2.125-.358c.707-.168,1.484-.332,2.134-.505l.992-.323c.327-.115.632-.278.949-.413A10.168,10.168,0,0,0,47.4,73.673a6.666,6.666,0,0,0,.8-.65,7.015,7.015,0,0,0,.735-.722,11.686,11.686,0,0,0,1.276-1.624,14.282,14.282,0,0,0,1.006-1.813,11.2,11.2,0,0,0,.7-1.89A1,1,0,0,1,53.856,67a10.688,10.688,0,0,0,.466,1.436,14.141,14.141,0,0,0,.664,1.419,12.952,12.952,0,0,0,.825,1.325,12.276,12.276,0,0,0,.975,1.206,11.747,11.747,0,0,0,2.369,1.959c.424.29.909.476,1.357.724.477.193.968.355,1.45.534l1.458.34,1.674.185c.161.029.473,0,.7.01a3.66,3.66,0,0,0,.736-.042,6.434,6.434,0,0,0,1.4-.3,6.026,6.026,0,0,0,1.244-.614,5.178,5.178,0,0,0,1.041-.918,5.645,5.645,0,0,0,.8-1.173,5.96,5.96,0,0,0,.5-1.279,1.1,1.1,0,0,1,1.336-.805,1.123,1.123,0,0,1,.753.649l.528,1.258.658,1.2.776,1.14.883,1.065.978.982,1.064.89c.363.276.735.512,1.1.773.383.252.849.483,1.269.726.35.2.831.359,1.239.543a6.8,6.8,0,0,0,1.3.465l1.335.349c.443.085.878.1,1.316.171l.659.087a5.946,5.946,0,0,0,.729-.01l1.479-.056.093,0h.035c-.146.015-.035,0-.065.006l.043-.009.168-.032.34-.066.678-.128a6.152,6.152,0,0,0,1.333-.367,11.724,11.724,0,0,0,1.3-.477l1.214-.612a8.291,8.291,0,0,0,1.219-.775l.608-.423.3-.211c.03-.021.149-.1.1-.074l.129-.118a13.172,13.172,0,0,0,1.951-1.978l.435-.533.323-.588.331-.587a5.814,5.814,0,0,0,.212-.626l.2-.63.059-.656a4.649,4.649,0,0,0-.044-1.321,8.782,8.782,0,0,0-.336-1.31,12.237,12.237,0,0,0-.617-1.241,12.8,12.8,0,0,0-1.721-2.249,16.073,16.073,0,0,0-2.164-1.892l-.008,0a.374.374,0,0,1,.413-.624" transform="translate(2.511 -0.159)" fill="#2e0f00"/>
              <path id="Trazado_208093" data-name="Trazado 208093" d="M23.387,158q-.244,4.963-.8,9.881c-.349,3.283-.784,6.553-1.254,9.819l-.753,4.891c-.274,1.627-.531,3.257-.837,4.88q-.858,4.877-2,9.713l0-.04-.021.123-.01.049a.28.28,0,0,1-.554-.049v-.123l0-.04q.249-4.963.78-9.886c.16-1.642.366-3.279.555-4.919l.638-4.907c.458-3.267.951-6.53,1.53-9.78q.833-4.881,1.983-9.717a.376.376,0,0,1,.741.1" transform="translate(1.981 10.686)" fill="#a98c38"/>
              <path id="Trazado_208094" data-name="Trazado 208094" d="M76.554,155.331s.264.564.669,1.578,1,2.46,1.621,4.222c.654,1.755,1.321,3.828,2.02,6.058.358,1.112.686,2.273,1.013,3.457s.675,2.378.983,3.585l.866,3.621c.27,1.2.56,2.369.769,3.521.23,1.148.415,2.264.609,3.318s.369,2.052.491,2.983c.233,1.862.371,3.421.494,4.5.107,1.088.149,1.709.149,1.709a.283.283,0,0,1-.553.1l0-.013s-.175-.6-.45-1.653-.666-2.554-1.086-4.359c-.212-.9-.509-1.87-.763-2.9s-.559-2.112-.827-3.239-.618-2.275-.917-3.456-.616-2.375-.926-3.573-.639-2.39-.954-3.568-.609-2.34-.9-3.462c-.608-2.241-1.118-4.35-1.579-6.153s-.785-3.323-1.055-4.375l-.38-1.67a.376.376,0,0,1,.706-.243Z" transform="translate(8.755 10.398)" fill="#a98c38"/>
              <path id="Trazado_208095" data-name="Trazado 208095" d="M15.02,105.962s-.006-.035-.013-.1-.008-.2,0-.363a3.557,3.557,0,0,1,.3-1.194,2.823,2.823,0,0,1,.462-.746q.161-.186.331-.376a3.385,3.385,0,0,1,.429-.31,2.665,2.665,0,0,1,1-.45l.271-.075.136-.035.213-.02a2.064,2.064,0,0,1,.524,0,2.618,2.618,0,0,1,.657.138,3.079,3.079,0,0,1,.523.206,4.438,4.438,0,0,1,.84.547,5.808,5.808,0,0,1,1.093,1.189,5.867,5.867,0,0,1,.551.951c.108.241.162.4.162.4a.608.608,0,0,1-.944.679l-.035-.028-1.026-.794a10.625,10.625,0,0,0-1.016-.69,3.044,3.044,0,0,0-.534-.26,1.141,1.141,0,0,0-.244-.085.544.544,0,0,0-.151-.031c.025-.02-.173-.016-.3-.011h-.09l.1-.01H18.26l-.061.02-.125.032a2.135,2.135,0,0,0-.876.368c-.143.071-.231.214-.355.308a5.089,5.089,0,0,0-.493.638,1.594,1.594,0,0,0-.17.277l-.01.021a.612.612,0,0,1-.822.268.618.618,0,0,1-.329-.47" transform="translate(1.732 4.299)" fill="#89433a"/>
              <path id="Trazado_208096" data-name="Trazado 208096" d="M81.012,105.381a1.75,1.75,0,0,0-.165-.3,5.35,5.35,0,0,0-.482-.676c-.127-.089-.207-.252-.348-.311a1.1,1.1,0,0,0-.388-.206,1.137,1.137,0,0,0-.446-.1l-.118-.025-.029-.008-.008,0h0l.091,0h-.029l-.106.006a1.7,1.7,0,0,0-.35.03,1.58,1.58,0,0,0-.392.128,2.183,2.183,0,0,0-.465.277,5.268,5.268,0,0,0-.833.811c-.475.573-.782,1.042-.777,1.013a.587.587,0,1,1-1.128-.329c0-.009.008-.178.051-.454a4.941,4.941,0,0,1,.322-1.115,4.642,4.642,0,0,1,.947-1.467,3.543,3.543,0,0,1,2.064-1.079,2.193,2.193,0,0,1,.494-.032h.243l.019,0,.074.013.293.057a2.58,2.58,0,0,1,1.092.408,2.88,2.88,0,0,1,.466.319c.122.134.239.265.355.394a2.916,2.916,0,0,1,.468.783,3.615,3.615,0,0,1,.272,1.227,2.143,2.143,0,0,1-.019.467l-.008.032a.616.616,0,0,1-.736.466.624.624,0,0,1-.422-.339" transform="translate(8.66 4.215)" fill="#89433a"/>
              <path id="Trazado_208097" data-name="Trazado 208097" d="M40.324,110.273s.031-.081.091-.235a6.535,6.535,0,0,1,.292-.62,9.136,9.136,0,0,1,4.25-3.982,9.516,9.516,0,0,1,1.881-.636,11.8,11.8,0,0,1,2.019-.257c.436,0,.651.022.986.031l1.071.143a11.968,11.968,0,0,1,1.882.569,12.351,12.351,0,0,1,2.927,1.7,14.085,14.085,0,0,1,1.722,1.605c.193.207.328.389.425.509l.151.2a.588.588,0,0,1-.823.825l-.05-.037-.632-.48a17.96,17.96,0,0,0-1.784-1.156c-.377-.218-.8-.429-1.239-.641a14.472,14.472,0,0,0-1.42-.562,11.544,11.544,0,0,0-1.546-.379l-.745-.091-.859-.012-.823.056c-.271.03-.537.086-.8.126a10.276,10.276,0,0,0-1.51.431,9.584,9.584,0,0,0-2.443,1.391,10.2,10.2,0,0,0-1.484,1.418,7.61,7.61,0,0,0-.479.6.586.586,0,0,1-1.125-.33.3.3,0,0,1,.014-.045Z" transform="translate(4.644 4.561)"/>
              <path id="Trazado_208098" data-name="Trazado 208098" d="M40.165,137s.319.018.878.046c.541.049,1.332.039,2.278.071.471.023.985.009,1.525.007l1.7,0c.588-.032,1.194-.073,1.81-.089a16.089,16.089,0,0,0,1.862-.126c.622-.061,1.245-.122,1.857-.183a13.931,13.931,0,0,0,1.786-.255c.576-.109,1.138-.187,1.67-.277l.777-.118.707-.184c1.817-.463,3.079-.716,3.079-.716l.077-.015a.587.587,0,0,1,.368,1.1s-1.181.564-3.028,1.324c-.231.094-.473.19-.723.29l-.8.212-1.738.436a13.214,13.214,0,0,1-1.88.369l-1.964.23a14.643,14.643,0,0,1-1.971.106l-1.91.006c-.618-.025-1.216-.088-1.78-.139a14.14,14.14,0,0,1-1.586-.2,23.607,23.607,0,0,1-2.355-.49,6.973,6.973,0,0,1-.867-.257l-.023-.01A.594.594,0,0,1,40.165,137" transform="translate(4.565 8.094)" fill="#c7a43d"/>
              <g id="Grupo_983271" data-name="Grupo 983271" transform="translate(47.788 98.659)" opacity="0.4" style="mix-blend-mode: multiply;isolation: isolate">
                <g id="Grupo_983270" data-name="Grupo 983270">
                  <g id="Grupo_983269" data-name="Grupo 983269" clip-path="url(#clip-path-11)">
                    <path id="Trazado_208099" data-name="Trazado 208099" d="M47.946,95.18c1.865-.044,4.784,1.732,4.979,3.668.205,2-2.4,4.271-6.249,3.629-3.277-.547-4.4-3.041-3.576-4.658.858-1.679,2.147-2.574,4.845-2.638" transform="translate(-42.842 -95.179)" fill="#b5686c"/>
                  </g>
                </g>
              </g>
              <path id="Trazado_208100" data-name="Trazado 208100" d="M55.309,94.447s.163-.031.448-.069.685-.093,1.153-.134,1.007-.065,1.6-.1,1.214-.066,1.84-.079c1.254.031,2.5-.06,3.455.012a13.242,13.242,0,0,1,1.6.163l.05.008a.6.6,0,0,1,.1,1.157,13.121,13.121,0,0,1-1.586.434c-.482.109-1.046.212-1.655.3-.3.036-.618.1-.939.117s-.649.021-.976.03c-.655,0-1.31,0-1.923-.033a13.228,13.228,0,0,1-1.683-.221,7.591,7.591,0,0,1-1.593-.415l-.011,0a.612.612,0,0,1,.123-1.166" transform="translate(6.328 3.349)"/>
              <path id="Trazado_208101" data-name="Trazado 208101" d="M62.521,97.13a2.57,2.57,0,1,1-2.529-3,2.8,2.8,0,0,1,2.529,3" transform="translate(6.633 3.358)"/>
              <path id="Trazado_208102" data-name="Trazado 208102" d="M29.81,94.4s.163-.031.448-.069.684-.093,1.153-.134,1.007-.065,1.594-.1,1.214-.067,1.84-.079c1.254.031,2.5-.06,3.455.012a13.657,13.657,0,0,1,1.6.162l.05.009a.6.6,0,0,1,.1,1.158,13.534,13.534,0,0,1-1.586.433c-.481.108-1.046.212-1.655.3-.3.037-.618.1-.939.118l-.976.029c-.655,0-1.31.006-1.922-.032a13.2,13.2,0,0,1-1.683-.221,7.591,7.591,0,0,1-1.593-.415l-.011,0a.612.612,0,0,1-.326-.8.618.618,0,0,1,.448-.363" transform="translate(3.384 3.343)"/>
              <path id="Trazado_208103" data-name="Trazado 208103" d="M37.021,97.081a2.8,2.8,0,0,1-2.539,3,3.043,3.043,0,0,1,.01-6,2.8,2.8,0,0,1,2.529,3" transform="translate(3.689 3.352)"/>
              <path id="Trazado_208104" data-name="Trazado 208104" d="M56.756,88.872a7.4,7.4,0,0,1,1.418-.476,13.884,13.884,0,0,1,3.127-.358,14.864,14.864,0,0,1,3.133.312,7.857,7.857,0,0,1,1.427.431.97.97,0,0,1,.018,1.765A7.872,7.872,0,0,1,64.459,91a14.821,14.821,0,0,1-3.125.376,13.834,13.834,0,0,1-3.133-.3,7.429,7.429,0,0,1-1.427-.447.979.979,0,0,1-.018-1.765" transform="translate(6.489 2.655)" fill="#3a190e"/>
              <path id="Trazado_208105" data-name="Trazado 208105" d="M39.576,91.251a7.309,7.309,0,0,1-1.441.4,13.8,13.8,0,0,1-3.141.189,14.94,14.94,0,0,1-3.112-.481,7.748,7.748,0,0,1-1.4-.508.969.969,0,0,1,.078-1.762A7.773,7.773,0,0,1,32,88.706a14.816,14.816,0,0,1,3.142-.206,13.749,13.749,0,0,1,3.112.465,7.224,7.224,0,0,1,1.4.524.978.978,0,0,1-.078,1.762" transform="translate(3.458 2.707)" fill="#3a190e"/>
              <g id="Grupo_983274" data-name="Grupo 983274" transform="translate(30.485 106.821)" opacity="0.2" style="mix-blend-mode: multiply;isolation: isolate">
                <g id="Grupo_983273" data-name="Grupo 983273">
                  <g id="Grupo_983272" data-name="Grupo 983272" clip-path="url(#clip-path-12)">
                    <path id="Trazado_208110" data-name="Trazado 208110" d="M40.343,109a6.506,6.506,0,1,0-6.506,6.506A6.506,6.506,0,0,0,40.343,109" transform="translate(-27.33 -102.497)" fill="#ac3e6b"/>
                  </g>
                </g>
              </g>
              <g id="Grupo_983277" data-name="Grupo 983277" transform="translate(64.693 106.263)" opacity="0.2" style="mix-blend-mode: multiply;isolation: isolate">
                <g id="Grupo_983276" data-name="Grupo 983276">
                  <g id="Grupo_983275" data-name="Grupo 983275" clip-path="url(#clip-path-12)">
                    <path id="Trazado_208111" data-name="Trazado 208111" d="M71.01,108.5a6.506,6.506,0,1,0-6.506,6.506A6.506,6.506,0,0,0,71.01,108.5" transform="translate(-57.997 -101.997)" fill="#ac3e6b"/>
                  </g>
                </g>
              </g>
              <g id="Grupo_983293" data-name="Grupo 983293" transform="translate(64.027)">
                <path id="Trazado_208127" data-name="Trazado 208127" d="M99.864,53.595s-4.16,7.54-3.559,8.521,8.57-2.5,8.57-2.5S113,67.125,128.464,64c20.888-4.22,33.612-26.157,21.743-48.04-11.106-20.48-35.028-19.4-47.854-7.188S91.59,40.9,99.864,53.595" transform="translate(-93.195 0)" fill="#508984"/>
                <path id="Trazado_208128" data-name="Trazado 208128" d="M106.7,27.183a10.067,10.067,0,0,1,1-.272,19.089,19.089,0,0,1,2.214-.369c.812-.079,1.626-.139,2.243-.139s1.03.031,1.03.031a1.431,1.431,0,0,1,.322,2.784s-.4.129-1,.267-1.407.267-2.214.375a18.887,18.887,0,0,1-2.242.145,9.9,9.9,0,0,1-1.031-.037,1.436,1.436,0,0,1-.322-2.784" transform="translate(-91.748 3.048)"/>
                <path id="Trazado_208129" data-name="Trazado 208129" d="M127.847,25.63s.4-.116,1.006-.221a19.264,19.264,0,0,1,2.232-.259c.815-.037,1.631-.058,2.246-.026s1.027.083,1.027.083a1.431,1.431,0,0,1,.181,2.8s-.4.109-1.007.215-1.418.2-2.231.264a19.646,19.646,0,0,1-2.245.032,10.278,10.278,0,0,1-1.028-.089,1.436,1.436,0,0,1-.181-2.8" transform="translate(-89.314 2.899)"/>
                <path id="Trazado_208130" data-name="Trazado 208130" d="M113.338,33.047s.979-.308,2.524-.674c.769-.172,1.671-.363,2.641-.542.48-.1,1.015-.147,1.54-.213.555-.057,1.008-.143,1.663-.174,1.04.006,2.031-.042,3.045.009s1.958.112,2.733.184c1.555.153,2.6.317,2.6.317a1.405,1.405,0,0,1-.212,2.793h-.017s-1.009.006-2.533-.011c-.765-.027-1.608.008-2.533-.013s-1.978.044-2.994.061l-1.388.144c-.479.061-.939.076-1.409.154-.928.149-1.8.231-2.55.351-1.485.221-2.514.352-2.514.352a1.407,1.407,0,0,1-.6-2.737Z" transform="translate(-90.984 3.628)"/>
              </g>
            </g>
          </g>
        </g>
      </g>
      <g id="Grupo_983299" data-name="Grupo 983299" transform="translate(-3.564 -23.59)">
        <g id="Grupo_983265" data-name="Grupo 983265" transform="translate(1202.564 3474.063)">
          <g id="Grupo_983286" data-name="Grupo 983286" transform="translate(0 0)">
            <g id="Grupo_983263" data-name="Grupo 983263">
              <g id="Grupo_983287" data-name="Grupo 983287">
                <path id="Trazado_208026" data-name="Trazado 208026" d="M113.3,61.878c-2,.14-2.769-10.209-.5-10.369,3.885-.271,2.1,10.257.5,10.369" transform="translate(-90.19 -51.505)" fill="#4d2820"/>
                <path id="Trazado_208027" data-name="Trazado 208027" d="M114.816,57.043c.739-2.863,8.264,3.262,8.617,4.443s-9.6-.635-8.617-4.443" transform="translate(-102.597 -50.417)" fill="#4d2820"/>
                <path id="Trazado_208028" data-name="Trazado 208028" d="M63.209,108.012c4.5-5.646,10.112,1.522,10.112,1.522S82.416,93.763,83.3,70.689l.123-.172a26.322,26.322,0,0,0,13.439,4.148c12.74.761,22.006,2.209,29.677,6.8a31.346,31.346,0,0,1,7.229,5.94c2.479,8.493,2.392,20.987,2.392,20.987s4.886,9.426.406,16.876c-3.792,6.308-12.114,13.525-24.989,15.452l.074.515,1.5,10.653a16.622,16.622,0,0,1-9.757,3.019c-5.006.147-8.075-1.326-9.682-2.467L95.685,140c-12.655-3.461-21.159-13.132-21.159-13.132a7.569,7.569,0,0,1-4.234.565c-6.85-.859-12.74-12.322-7.082-19.416" transform="translate(-51.574 -47.183)" fill="#fb8973"/>
                <path id="Trazado_208029" data-name="Trazado 208029" d="M59.225,140.452h-.012c-10.9,8.026-13.182,52.6-13.182,52.6a280.181,280.181,0,0,0,48.21,4.406c23.823.037,51.56-7.2,51.56-7.2s-5.143-35.961-18.091-49.032c-7.217-7.29-25.455-3.9-25.455-3.9l-.061-.442a16.626,16.626,0,0,1-9.757,3.019c-5.008.147-8.076-1.326-9.684-2.468l-.074.443s-14.912-3.67-23.454,2.577" transform="translate(-40.618 -32.174)" fill="#d58daa"/>
                <path id="Trazado_208030" data-name="Trazado 208030" d="M76.862,74.407A26.321,26.321,0,0,0,90.3,78.555c12.74.761,22.006,2.209,29.677,6.8a31.311,31.311,0,0,1,7.229,5.939c2.479,8.493,2.393,20.987,2.393,20.987s4.885,9.426.405,16.876c-3.792,6.309-12.114,13.525-24.989,15.452l.074.515,1.5,10.653.061.442s18.238-3.387,25.455,3.9l1.031-.994c12.187,0,18.275-2.921,18.275-2.921s1.473-67.453-14.556-87.435C116.5,43.417,77.217,56.414,73.327,59.3c-3.731,2.762-2.43,6.148-2.43,6.148s-11.684-3.731-17.342,7.378-2.982,66.422-8.542,80.168a37.151,37.151,0,0,0,18.594,6.359h.012c8.542-6.248,23.454-2.579,23.454-2.579l.074-.442,1.976-12.445c-12.654-3.461-21.159-13.132-21.159-13.132a7.569,7.569,0,0,1-4.234.565C56.88,130.461,50.989,119,56.647,111.9c4.5-5.646,10.113,1.522,10.113,1.522s9.095-15.77,9.978-38.845Z" transform="translate(-45.012 -51.073)" fill="#4d2820"/>
                <g id="Grupo_983252" data-name="Grupo 983252" transform="translate(43.939 92.814)" opacity="0.2" style="mix-blend-mode: multiply;isolation: isolate">
                  <g id="Grupo_983251" data-name="Grupo 983251">
                    <g id="Grupo_983250" data-name="Grupo 983250" clip-path="url(#clip-path-14)">
                      <path id="Trazado_208031" data-name="Trazado 208031" d="M82.322,128.21l.172-1.083a32.874,32.874,0,0,0,8.432,1.227,45.346,45.346,0,0,0,7.462-.5l.072.515.565,4.022a34.95,34.95,0,0,1-16.7-4.179" transform="translate(-82.322 -127.127)" fill="#5a287f"/>
                    </g>
                  </g>
                </g>
                <path id="Trazado_208032" data-name="Trazado 208032" d="M57.43,66.867a6.664,6.664,0,0,0,.493.822c.187.266.4.617.687.987l1.047,1.182a10.538,10.538,0,0,0,1.434,1.321,17.394,17.394,0,0,0,1.813,1.43,22.189,22.189,0,0,0,2.247,1.323l1.278.6,1.376.542a32.045,32.045,0,0,0,6.29,1.517c2.309.276,4.577.422,7.009.617l3.63.369c1.224.141,2.457.334,3.7.5s2.472.448,3.72.666,2.451.6,3.686.874c1.219.322,2.4.747,3.6,1.113,1.148.484,2.317.918,3.424,1.451,1.063.6,2.218,1.091,3.18,1.756.517.341,1.062.669,1.544,1.015l1.378,1.049c.461.336.875.757,1.311,1.125a14.734,14.734,0,0,1,1.242,1.164c.382.4.82.787,1.145,1.187q.562.644,1.11,1.274a34.62,34.62,0,0,1,3.336,5.016,36.215,36.215,0,0,1,3.284,8.5c.264,1.074.421,1.928.517,2.51s.119.875.119.875a.649.649,0,0,0,.7.593.656.656,0,0,0,.594-.663s-.01-.355-.066-.972-.153-1.528-.38-2.663a35.583,35.583,0,0,0-3.047-9.076,36.575,36.575,0,0,0-3.432-5.495q-.53-.644-1.071-1.306c-.383-.495-.805-.885-1.214-1.34a14.828,14.828,0,0,0-1.3-1.289c-.469-.406-.9-.849-1.411-1.235l-1.528-1.182c-.514-.373-1.031-.691-1.551-1.042-.281-.179-.474-.325-.83-.535l-.858-.464-1.728-.934c-1.177-.581-2.414-1.057-3.633-1.581-1.258-.4-2.51-.863-3.785-1.214a67.577,67.577,0,0,0-7.7-1.543c-1.279-.157-2.544-.34-3.8-.471l-3.716-.338c-2.4-.185-4.812-.281-6.925-.457a30.019,30.019,0,0,1-5.9-1.226l-1.287-.46-1.2-.517a19.557,19.557,0,0,1-2.134-1.114,15.747,15.747,0,0,1-1.713-1.216,9.458,9.458,0,0,1-1.378-1.139c-.38-.383-.722-.724-1.019-1.021-.272-.307-.468-.583-.647-.8a5.813,5.813,0,0,1-.517-.734.647.647,0,1,0-1.124.639" transform="translate(-31.029 -48.232)" fill="#3c1b12"/>
                <path id="Trazado_208033" data-name="Trazado 208033" d="M100.611,136.185l-.821.355-.842.306c-.353.1-.717.252-1.145.358a24.118,24.118,0,0,1-2.914.635c-.53.119-1.112.109-1.675.209-.573.064-1.168.054-1.755.109-.487.017-1.245.014-1.836.017-.545-.052-1.076-.028-1.614-.092-.533-.081-1.073-.081-1.554-.191-.493-.077-.956-.158-1.376-.268a18.617,18.617,0,0,1-2.029-.593l-.761-.29-.063-.023a.986.986,0,0,0-1.062,1.607s.247.255.722.666c.248.182.541.436.909.663a10.519,10.519,0,0,0,1.272.711,9.991,9.991,0,0,0,1.592.646,13.4,13.4,0,0,0,1.843.492c.652.13,1.367.2,2.077.286.673.016,1.2.042,1.994.042.692-.045,1.383-.088,2.063-.178a15.233,15.233,0,0,0,1.982-.4,11.487,11.487,0,0,0,1.805-.6,10.516,10.516,0,0,0,1.546-.731,11.72,11.72,0,0,0,2.126-1.495c.415-.406.628-.652.628-.652l.027-.031a.991.991,0,0,0-1.141-1.559" transform="translate(-39.594 -32.272)" fill="#8f315a"/>
                <path id="Trazado_208034" data-name="Trazado 208034" d="M61.751,152.175s.07.608.191,1.67.323,2.577.551,4.4c.249,1.813.488,3.936.836,6.2s.63,4.684.96,7.1c.349,2.414.7,4.827,1.022,7.09.173,1.133.27,2.226.4,3.263s.237,2.02.344,2.926c.444,3.623.806,6.043.806,6.043l.006.041a.485.485,0,0,0,.963-.09s-.093-2.446-.329-6.121c-.064-.918-.134-1.913-.206-2.966-.093-1.049-.106-2.171-.28-3.305l-.912-7.132c-.339-2.425-.675-4.85-1.065-7.111-.361-2.266-.782-4.367-1.1-6.175s-.662-3.3-.871-4.347c-.231-1.044-.363-1.642-.363-1.642a.485.485,0,0,0-.956.162" transform="translate(18.061 -28.742)" fill="#9e5378"/>
                <path id="Trazado_208035" data-name="Trazado 208035" d="M115.411,152.951s-.6,2.4-1.38,6.016c-.374,1.812-.86,3.918-1.292,6.189l-1.384,7.114c-.434,2.429-.87,4.858-1.279,7.135s-.727,4.414-1.031,6.24c-.577,3.657-.9,6.107-.9,6.107a.486.486,0,0,0,.954.182s.587-2.4,1.372-6.018c.377-1.813.846-3.92,1.295-6.189s.917-4.692,1.389-7.112c.437-2.429.874-4.858,1.284-7.133s.728-4.415,1.035-6.24c.578-3.656.891-6.11.891-6.11a.486.486,0,0,0-.954-.18" transform="translate(-87.415 -28.526)" fill="#9e5378"/>
                <path id="Trazado_208036" data-name="Trazado 208036" d="M75.284,94.587s1.415-4.3,4.135-2.948-.716,8.617-4.173,9.1-7.5-7.227-5.42-8.569c3.008-1.936,5.458,2.413,5.458,2.413" transform="translate(-3.721 -42.44)" fill="#b3363e"/>
                <path id="Trazado_208037" data-name="Trazado 208037" d="M100.769,93.611s1.71-4.188,4.326-2.656-1.306,8.547-4.788,8.8-6.991-7.727-4.819-8.923c3.136-1.723,5.28,2.784,5.28,2.784" transform="translate(-60.646 -42.655)" fill="#b3363e"/>
                <path id="Trazado_208038" data-name="Trazado 208038" d="M86.235,159.356s1.642-4.887,3.778-3.748-1.6,8.26-4.254,8.713-6.059-7.7-3.671-8.9c2.742-1.375,4.147,3.932,4.147,3.932" transform="translate(-28.724 -27.932)" fill="#b90053"/>
                <path id="Trazado_208039" data-name="Trazado 208039" d="M102.641,161.268s1.641-4.887,3.778-3.747-1.6,8.259-4.255,8.713-6.059-7.7-3.67-8.9c2.739-1.373,4.147,3.932,4.147,3.932" transform="translate(-65.267 -27.497)" fill="#b90053"/>
                <path id="Trazado_208040" data-name="Trazado 208040" d="M75.711,175.783s1.641-4.887,3.778-3.748-1.6,8.26-4.254,8.713-6.061-7.7-3.671-8.9c2.741-1.375,4.147,3.932,4.147,3.932" transform="translate(-5.284 -24.198)" fill="#b90053"/>
                <path id="Trazado_208041" data-name="Trazado 208041" d="M56.581,167.5s1.641-4.887,3.778-3.748-1.6,8.26-4.254,8.714-6.061-7.7-3.671-8.9c2.741-1.373,4.147,3.932,4.147,3.932" transform="translate(37.325 -26.08)" fill="#b90053"/>
                <path id="Trazado_208042" data-name="Trazado 208042" d="M72.05,145.669s1.4-4.173,3.227-3.2-1.366,7.053-3.634,7.441-5.174-6.574-3.133-7.6c2.339-1.173,3.541,3.358,3.541,3.358" transform="translate(2.626 -30.905)" fill="#b90053"/>
                <path id="Trazado_208043" data-name="Trazado 208043" d="M95.183,174.481s1.4-4.174,3.227-3.2-1.365,7.055-3.633,7.441-5.177-6.572-3.136-7.6c2.341-1.173,3.542,3.359,3.542,3.359" transform="translate(-48.897 -24.356)" fill="#b90053"/>
                <path id="Trazado_208044" data-name="Trazado 208044" d="M96.277,147.995s1.219-3.633,2.807-2.786-1.188,6.137-3.16,6.474-4.5-5.719-2.73-6.61c2.037-1.021,3.083,2.922,3.083,2.922" transform="translate(-51.52 -30.272)" fill="#b90053"/>
                <path id="Trazado_208045" data-name="Trazado 208045" d="M121.362,175.687s1.219-3.633,2.807-2.786-1.187,6.137-3.16,6.474-4.5-5.719-2.728-6.61c2.036-1.021,3.082,2.922,3.082,2.922" transform="translate(-107.394 -23.977)" fill="#b90053"/>
                <path id="Trazado_208046" data-name="Trazado 208046" d="M120.087,162.509s1.219-3.633,2.808-2.786-1.189,6.137-3.16,6.474-4.5-5.719-2.73-6.61c2.036-1.021,3.082,2.922,3.082,2.922" transform="translate(-104.555 -26.972)" fill="#b90053"/>
                <path id="Trazado_208047" data-name="Trazado 208047" d="M61.388,154.66s.918-2.738,2.116-2.1-.895,4.627-2.382,4.881-3.395-4.313-2.057-4.984c1.535-.771,2.323,2.2,2.323,2.2" transform="translate(25.883 -28.584)" fill="#b90053"/>
                <path id="Trazado_208048" data-name="Trazado 208048" d="M74.061,162.995s.918-2.738,2.116-2.1-.893,4.626-2.382,4.88-3.395-4.313-2.057-4.984c1.535-.77,2.323,2.2,2.323,2.2" transform="translate(-2.346 -26.689)" fill="#b90053"/>
                <path id="Trazado_208049" data-name="Trazado 208049" d="M51.885,175.516s.919-2.738,2.116-2.1-.895,4.626-2.382,4.88-3.395-4.313-2.057-4.984c1.535-.77,2.323,2.2,2.323,2.2" transform="translate(47.05 -23.842)" fill="#b90053"/>
                <path id="Trazado_208050" data-name="Trazado 208050" d="M114.27,146.618s1.4-4.174,3.225-3.2-1.365,7.053-3.633,7.441-5.174-6.574-3.136-7.6c2.341-1.175,3.543,3.358,3.543,3.358" transform="translate(-91.409 -30.69)" fill="#b90053"/>
                <path id="Trazado_208051" data-name="Trazado 208051" d="M69.983,85.962c.028,0,.614.059.923.1a8.867,8.867,0,0,1,2.118.507,6.987,6.987,0,0,1,1.015.464c.16.072.3.184.443.265a4.025,4.025,0,0,1,.388.263c.49.33,1.656,1.788,2.849.822,1.265-1.026-.473-3.493-2.811-4.672-2.814-1.421-4.931-.878-5.864-.161a1.264,1.264,0,0,0-.2,2,2.4,2.4,0,0,0,1.141.412" transform="translate(-0.465 -44.386)" fill="#442219"/>
                <path id="Trazado_208052" data-name="Trazado 208052" d="M105.322,85.271c-.026.011-.6.145-.9.225a8.944,8.944,0,0,0-2.028.8,6.991,6.991,0,0,0-.94.6c-.15.1-.268.226-.4.326a3.806,3.806,0,0,0-.346.314c-.439.4-1.389,2-2.707,1.213-1.393-.841-.017-3.525,2.133-5.02,2.59-1.8,4.761-1.555,5.784-.976a1.262,1.262,0,0,1,.479,1.954c-.232.347-1.051.555-1.073.567" transform="translate(-64.581 -44.498)" fill="#442219"/>
                <g id="Grupo_983255" data-name="Grupo 983255" transform="translate(50.356 52.796)" opacity="0.4" style="mix-blend-mode: multiply;isolation: isolate">
                  <g id="Grupo_983254" data-name="Grupo 983254" transform="translate(0)">
                    <g id="Grupo_983253" data-name="Grupo 983253" transform="translate(0)" clip-path="url(#clip-path-15)">
                      <path id="Trazado_208053" data-name="Trazado 208053" d="M88.377,94.523c2.358.056,5.988,2.317,3.038,5.552-2.311,2.531-8.438,1.285-8.69-1.6-.263-3.066,3.432-4.006,5.652-3.953" transform="translate(-82.712 -94.521)" fill="#aa5c6c"/>
                    </g>
                  </g>
                </g>
                <path id="Trazado_208058" data-name="Trazado 208058" d="M120.222,110.178a6.043,6.043,0,0,0-.076-1.392,7.019,7.019,0,0,0-.373-1.388,7.194,7.194,0,0,0-.784-1.49,6.564,6.564,0,0,0-.582-.655,4.355,4.355,0,0,0-.657-.546,2.73,2.73,0,0,0-.7-.388,3.058,3.058,0,0,0-.669-.239,3.624,3.624,0,0,0-1.036-.142l-.389,0-.048.646.329.107a4.02,4.02,0,0,1,.821.3,3.924,3.924,0,0,1,1.009.636,3.271,3.271,0,0,1,.493.453,5.362,5.362,0,0,1,.439.545,7.079,7.079,0,0,1,.712,1.222c.189.416.363.82.486,1.177.247.72.38,1.208.38,1.208Z" transform="translate(-99.586 -39.586)" fill="#b25548"/>
                <path id="Trazado_208059" data-name="Trazado 208059" d="M113.726,115.143a1.336,1.336,0,1,1,1.427,1.24,1.337,1.337,0,0,1-1.427-1.24" transform="translate(-94.294 -37.363)" fill="#ffe000"/>
                <path id="Trazado_208060" data-name="Trazado 208060" d="M125.8,104.035l-.284-.131a6.337,6.337,0,0,1-.729-.362,4.324,4.324,0,0,1-.869-.583.914.914,0,0,1-.368-.7,1.033,1.033,0,0,1,.106-.412c0-.011.074-.136.018-.055l.091-.145c.081-.114.018-.017.059-.071a1.154,1.154,0,0,1,.733-.18,7.564,7.564,0,0,1,.8.039l.328.026a.137.137,0,0,0,.149-.126.143.143,0,0,0-.023-.091,2.443,2.443,0,0,0-1.06-.763,2.255,2.255,0,0,0-.687-.153,1.583,1.583,0,0,0-.912.216,1.7,1.7,0,0,0-.426.383l-.1.136a2.682,2.682,0,0,0-.133.257,2.3,2.3,0,0,0-.217.94,1.786,1.786,0,0,0,.3.989,2.177,2.177,0,0,0,.633.631,3.882,3.882,0,0,0,1.256.531,4.975,4.975,0,0,0,1.253.12.258.258,0,0,0,.239-.276.262.262,0,0,0-.15-.217Z" transform="translate(-114.358 -40.406)" fill="#ffe000"/>
                <g id="Grupo_983258" data-name="Grupo 983258" transform="translate(70.178 61.271)" opacity="0.6" style="mix-blend-mode: multiply;isolation: isolate">
                  <g id="Grupo_983257" data-name="Grupo 983257" transform="translate(0)">
                    <g id="Grupo_983256" data-name="Grupo 983256" transform="translate(0)" clip-path="url(#clip-path-16)">
                      <path id="Trazado_208061" data-name="Trazado 208061" d="M64.552,107.564a6.137,6.137,0,1,1,6.137,6.137,6.137,6.137,0,0,1-6.137-6.137" transform="translate(-64.552 -101.427)" fill="#d68e90"/>
                    </g>
                  </g>
                </g>
                <g id="Grupo_983261" data-name="Grupo 983261" transform="translate(26.506 58.817)" opacity="0.6" style="mix-blend-mode: multiply;isolation: isolate">
                  <g id="Grupo_983260" data-name="Grupo 983260" transform="translate(0)">
                    <g id="Grupo_983259" data-name="Grupo 983259" transform="translate(0)" clip-path="url(#clip-path-16)">
                      <path id="Trazado_208062" data-name="Trazado 208062" d="M100.135,105.564a6.137,6.137,0,1,1,6.137,6.137,6.137,6.137,0,0,1-6.137-6.137" transform="translate(-100.135 -99.427)" fill="#d68e90"/>
                    </g>
                  </g>
                </g>
                <path id="Trazado_208063" data-name="Trazado 208063" d="M101.9,116.471s-6.75-10.911-19.318-4.811a17.026,17.026,0,0,0,11.879,5.695,21.008,21.008,0,0,0,7.488-.724Z" transform="translate(-41.625 -38.251)" fill="#b3363e"/>
                <path id="Trazado_208064" data-name="Trazado 208064" d="M75,101.818c-1.534,1.8-.8,7.536,3.117,12,12.568-6.1,19.318,4.811,19.318,4.811l.049.16c7.88-2.271,12.126-8.935,9.377-13.4-2.369-3.854-5.83-.393-15.256-1.08-6.284-.454-12.887-6.861-16.606-2.491" transform="translate(-37.165 -40.412)"/>
              </g>
            </g>
          </g>
        </g>
        <g id="Grupo_983288" data-name="Grupo 983288" transform="translate(1250.547 3425.582)">
          <path id="Trazado_208118" data-name="Trazado 208118" d="M18.574,71.252c-1.219-.7,1.559-8.761,1.559-8.761S-1.477,53.923.08,31.147,28.113-7.984,51.669,4.087s22.908,40.322,10.9,52.686C49.526,70.206,28.5,66.384,28.5,66.384s-8.567,5.647-9.929,4.868" transform="translate(0 0)" fill="#f297bc"/>
          <path id="Trazado_208119" data-name="Trazado 208119" d="M18.358,24.017s2.143-4.38,4.674-2.239-3.2,8.666-5.452,8.566c-2.142-.1-7.106-7.689-4.38-9.637,2.909-2.078,5.158,3.31,5.158,3.31" transform="translate(31.851 4.599)" fill="#ab003d"/>
          <path id="Trazado_208120" data-name="Trazado 208120" d="M40.044,23.339s2.142-4.38,4.674-2.239-3.2,8.666-5.452,8.566c-2.142-.1-7.011-7.2-4.283-9.15,2.908-2.078,5.062,2.823,5.062,2.823" transform="translate(-16.554 4.547)" fill="#ab003d"/>
          <path id="Trazado_208121" data-name="Trazado 208121" d="M35.159,27.211c0,.017-.125.211-.392.612a10.406,10.406,0,0,1-1.214,1.486,7.7,7.7,0,0,1-2.046,1.515,6.207,6.207,0,0,1-2.727.626l-.184.007-.091,0-.047,0h-.034l.079.006H28.5l-.432-.043c-.14-.017-.3-.026-.42-.047L27.36,31.3a4.738,4.738,0,0,1-1.22-.465,7.232,7.232,0,0,1-1.083-.741,11.145,11.145,0,0,1-.878-.875,11.009,11.009,0,0,1-1.149-1.557c-.234-.4-.369-.626-.369-.626l-.045-.076a.646.646,0,0,0-1.188.465s.017.083.052.238a6.379,6.379,0,0,0,.169.62,9.959,9.959,0,0,0,.956,2.082,8.793,8.793,0,0,0,.95,1.262,7.552,7.552,0,0,0,1.391,1.181,6.54,6.54,0,0,0,1.859.84l.55.135c.162.028.292.038.439.058l.431.053.114.009h.221l.252,0a7.614,7.614,0,0,0,2-.269,6.99,6.99,0,0,0,1.814-.766,7.807,7.807,0,0,0,2.461-2.314A9.013,9.013,0,0,0,36.136,28.5a5.593,5.593,0,0,0,.19-.622c.034-.151.053-.23.053-.23l.044-.194a.644.644,0,0,0-1.254-.29l-.01.05" transform="translate(8.017 6.057)"/>
        </g>
      </g>
    </g>
    <g id="Grupo_983285" data-name="Grupo 983285" transform="translate(1087 3408.371)">
      <path id="Trazado_208112" data-name="Trazado 208112" d="M14.845,66.252c.044.863,39.615-.131,43.681-30.771C62.941,2.208,30.317-5.249,14.936,3.2,1.255,10.716-6.142,30.828,6.514,47.586c5.8,7.685,16.029,10.076,15.275,11.776-1.043,2.35-7,5.819-6.944,6.89" transform="translate(0 0)" fill="#f3d643"/>
      <path id="Trazado_208113" data-name="Trazado 208113" d="M18.148,27.288a1.393,1.393,0,1,0,1.421-1.364,1.392,1.392,0,0,0-1.421,1.364" transform="translate(19.852 0)"/>
      <path id="Trazado_208114" data-name="Trazado 208114" d="M39.5,26.852a1.393,1.393,0,1,0,1.42-1.364,1.391,1.391,0,0,0-1.42,1.364" transform="translate(-22.857 0)"/>
      <path id="Trazado_208115" data-name="Trazado 208115" d="M36.46,30.143s-.026.075-.073.182l-.238.516a9.113,9.113,0,0,1-1.074,1.7,8.283,8.283,0,0,1-.9.93,6.447,6.447,0,0,1-1.159.774,5.567,5.567,0,0,1-1.391.49,6.647,6.647,0,0,1-1.514.156c-.293-.015-.624-.009-.884-.041l-.7-.124c-.238-.081-.481-.142-.717-.214l-.662-.3a6.457,6.457,0,0,1-1.132-.809,7.274,7.274,0,0,1-.866-.957,8.728,8.728,0,0,1-1.014-1.733c-.2-.452-.286-.717-.281-.7a.528.528,0,0,0-1.04.18l.029.249a6.1,6.1,0,0,0,.118.653,8.609,8.609,0,0,0,.856,2.212,7.255,7.255,0,0,0,.953,1.325,7.105,7.105,0,0,0,1.428,1.2c.282.164.582.309.882.464.314.117.634.232.962.337.346.075.7.136,1.063.2.335.042.611.038.92.059a7.765,7.765,0,0,0,2.057-.231A6.457,6.457,0,0,0,33.94,35.9,6.74,6.74,0,0,0,35.4,34.747c.2-.213.379-.436.557-.643l.437-.652a8.482,8.482,0,0,0,.92-2.187,5.832,5.832,0,0,0,.139-.651c.022-.156.033-.24.033-.24a.529.529,0,0,0-1.023-.248Z" transform="translate(-1.368 0)"/>
      <path id="Trazado_208116" data-name="Trazado 208116" d="M10.84,32.371a4.126,4.126,0,1,1,4.041,4.21,4.126,4.126,0,0,1-4.041-4.21" transform="translate(29.002 0)" fill="#ce4a70"/>
      <path id="Trazado_208117" data-name="Trazado 208117" d="M40.647,32.372a4.126,4.126,0,1,1,4.041,4.21,4.125,4.125,0,0,1-4.041-4.21" transform="translate(-30.612 0)" fill="#ce4a70"/>
    </g>
    <g id="Grupo_983291" data-name="Grupo 983291" transform="translate(-6.126 8.267)">
      <path id="Trazado_208122" data-name="Trazado 208122" d="M91.174,53.721c9.1,6.173,20.742,6.4,28.493,4.4,17.05-4.416,24.831-21.153,20.09-37.154C136.371,9.534,118.52-8.72,96.285,4.767,74.764,17.823,87.14,48.795,87.14,48.795s-4.926,6.85-4.794,7.351,8.828-2.425,8.828-2.425" transform="translate(1103 3416.184)" fill="#a17eaa"/>
      <path id="Trazado_208123" data-name="Trazado 208123" d="M107.461,40.1s-.012-.082-.035-.235-.051-.377-.061-.661a11.377,11.377,0,0,1,.118-2.36,8.713,8.713,0,0,1,.387-1.569,7.958,7.958,0,0,1,.792-1.684,6.649,6.649,0,0,1,1.361-1.545,6.431,6.431,0,0,1,3.985-1.452,4.2,4.2,0,0,1,1.061.1,4.607,4.607,0,0,1,.99.265,6.831,6.831,0,0,1,1.668.865,8.733,8.733,0,0,1,1.246,1.043,11.345,11.345,0,0,1,1.474,1.85c.159.235.258.437.334.572s.114.217.114.217a.528.528,0,0,1-.869.587L120,36.055l-.129-.151-.4-.439a12.755,12.755,0,0,0-1.548-1.415,7.523,7.523,0,0,0-2.447-1.31,2.945,2.945,0,0,0-.711-.15,4.633,4.633,0,0,0-1.406.038,3.4,3.4,0,0,0-.8.235,4.607,4.607,0,0,0-1.294.715,5.824,5.824,0,0,0-1.026,1.067,8.481,8.481,0,0,0-.716,1.269,10.77,10.77,0,0,0-.469,1.279,13.893,13.893,0,0,0-.444,2.054l-.074.587c-.013.135-.019.206-.019.206l0,.03a.529.529,0,0,1-1.05.029" transform="translate(1103 3416.184)"/>
      <path id="Trazado_208124" data-name="Trazado 208124" d="M116.938,24.978c0,.01.109.091.32.264s.507.4.866.644a4.86,4.86,0,0,0,1.222.6,2.266,2.266,0,0,0,.638.1,1.89,1.89,0,0,0,.615-.089l.039-.007.019,0c-.032.013.077-.03-.072.029l0,0,.007,0,.014-.006.114-.048.226-.094c.145-.066.139-.1.226-.137a2.159,2.159,0,0,0,.452-.427,3.95,3.95,0,0,0,.6-1.177,10.706,10.706,0,0,0,.342-1.426.527.527,0,1,1,1.048-.115,5.118,5.118,0,0,1,.114.5,5.235,5.235,0,0,1,.055,1.33,4.43,4.43,0,0,1-.6,1.932,3.757,3.757,0,0,1-.834.951,5.08,5.08,0,0,1-.6.374l-.223.1-.111.052-.1.042-.04.011-.08.024a3.571,3.571,0,0,1-1.313.152,3.384,3.384,0,0,1-1.2-.3,4.683,4.683,0,0,1-1.611-1.165,5.6,5.6,0,0,1-.776-1.067,4.818,4.818,0,0,1-.223-.455.528.528,0,0,1,.872-.594" transform="translate(1103 3416.184)"/>
      <path id="Trazado_208125" data-name="Trazado 208125" d="M97.1,31.454c0,.01.109.091.319.264s.508.4.867.644a4.86,4.86,0,0,0,1.222.6,2.23,2.23,0,0,0,.637.1,1.882,1.882,0,0,0,.615-.089l.039-.007.02,0-.072.029,0,0,.007,0,.014-.006.114-.048.225-.094c.146-.066.14-.1.227-.137a2.133,2.133,0,0,0,.452-.427,3.971,3.971,0,0,0,.6-1.176,11.069,11.069,0,0,0,.342-1.426.527.527,0,1,1,1.048-.116c0,.012.059.192.114.5a5.291,5.291,0,0,1,.054,1.33,4.43,4.43,0,0,1-.6,1.932,3.757,3.757,0,0,1-.834.951,5.091,5.091,0,0,1-.6.373l-.223.1-.111.052-.1.042-.04.011-.08.024a3.571,3.571,0,0,1-1.313.152,3.384,3.384,0,0,1-1.2-.3A4.683,4.683,0,0,1,97.23,33.57a5.6,5.6,0,0,1-.776-1.067,4.818,4.818,0,0,1-.223-.455.528.528,0,0,1,.872-.594" transform="translate(1103 3416.184)"/>
      <path id="Trazado_208126" data-name="Trazado 208126" d="M126.721,25.918c-.266.1.921,4.939,2.457,4.029,1.793-1.062-1.5-4.4-2.457-4.029" transform="translate(1103 3416.184)" fill="#98c5ed"/>
    </g>
  </g>
</svg>
